<svg width="81" height="80" viewBox="0 0 81 80" fill="none" xmlns="http://www.w3.org/2000/svg">
<rect x="0.820801" width="80.1791" height="80.0003" rx="40.0001" fill="#3F9672"/>
<path d="M20.4789 28.765L24.09 23.138L28.6281 17.4948L37.85 14.5519L47.1367 15.3171L57.4475 21.6284L61.3175 30.8342L60.5846 41.9749L61.5279 42.8858L60.6979 48.4643L58.9085 52.2048L55.2004 52.2696L52.4839 56.0263L47.0187 61.6857L42.432 64.5477L36.8859 65.5719L32.2345 64.7257L28.4778 62.0093L22.8184 56.5441L19.8754 47.3222L20.4789 28.765Z" fill="#F8DCD8"/>
<path d="M54.7958 51.9281C53.12 54.2256 51.3731 56.4928 49.4825 58.6397C47.8512 60.4909 46.025 62.2731 43.757 63.4413C42.5917 64.0441 41.3175 64.4399 39.9989 64.6087C38.5001 64.7922 36.9706 64.7639 35.464 64.6878C34.0785 64.6144 32.6542 64.4347 31.4224 63.8014C30.2211 63.1833 29.2498 62.2322 28.2331 61.3874C27.4725 60.7736 26.7499 60.1199 26.0689 59.4293C25.4274 58.7589 24.8458 58.0435 24.2209 57.3586C23.631 56.7299 23.1045 56.0515 22.6482 55.332C21.9691 54.242 21.5694 53.048 21.2851 51.8126C20.974 50.4133 20.7803 48.9931 20.7058 47.565C20.6111 46.1266 20.6039 44.6841 20.6843 43.2446C20.7305 42.5135 20.7969 41.782 20.7841 41.0487C20.7722 40.3673 20.6258 39.6978 20.6779 39.0153C20.7795 37.6992 21.4621 36.4832 22.0783 35.3202C23.4149 32.7945 24.9106 30.3449 26.5573 27.9842C26.939 27.4009 27.357 26.8391 27.8093 26.3017C28.1888 25.8812 28.6372 25.5196 29.1377 25.2302C30.0794 24.6739 31.1162 24.2654 31.9716 23.5925C32.388 23.2734 32.7287 22.8766 32.9717 22.4276L32.1838 22.2415L32.3988 24.9136C32.4271 25.2814 32.9844 25.4668 33.185 25.0982C33.3435 24.8164 33.5782 24.5782 33.8657 24.4075C34.1532 24.2367 34.4834 24.1394 34.8233 24.1252C35.6982 24.0847 36.257 24.651 36.862 25.1615C38.3474 26.4278 40.4272 26.8307 42.3338 27.2413C43.4029 27.4891 44.4938 27.6465 45.5935 27.7117C46.1345 27.7392 46.677 27.7266 47.2161 27.6739C47.4665 27.6491 47.72 27.6022 47.9636 27.5727C48.2073 27.5433 48.2329 27.568 48.3511 27.7753C48.75 28.4452 49.5105 28.6995 50.1772 29.0751C50.5173 29.2675 50.788 29.5366 51.1382 29.7273C51.2788 29.7807 51.4054 29.8617 51.5095 29.9648C51.614 30.0944 51.7287 30.2166 51.8526 30.3302C52.1371 30.5266 52.4679 30.6563 52.8173 30.7085C53.1554 30.7844 53.5069 30.8539 53.85 30.9297C54.22 31.0087 54.5836 31.1118 54.9381 31.2381C55.0547 31.2864 55.1682 31.3412 55.2777 31.4022C55.2777 31.4022 55.3799 31.4681 55.3322 31.4343C55.2845 31.4005 55.3663 31.4605 55.3732 31.4682C55.3801 31.476 55.4142 31.5037 55.4331 31.5238C55.452 31.544 55.4002 31.4725 55.447 31.5488C55.7157 31.988 56.4359 31.5787 56.1656 31.1396C55.8553 30.6318 55.0925 30.439 54.5343 30.2897C53.9236 30.1288 53.2955 30.0327 52.6848 29.8718C52.3685 29.7876 52.2417 29.5648 52.0258 29.3513C51.8778 29.2277 51.7116 29.1245 51.5321 29.0451C51.3448 28.9364 51.168 28.8125 51.0037 28.675C50.6812 28.4502 50.3367 28.2544 49.9747 28.0901C49.6545 27.96 49.3706 27.7631 49.1447 27.5143C49.0069 27.3373 48.9343 27.1371 48.7516 26.9892C48.6462 26.9098 48.5249 26.8509 48.3947 26.8159C48.2646 26.7808 48.1283 26.7704 47.9936 26.7852C47.4421 26.8294 46.9068 26.9317 46.3496 26.9414C45.2376 26.9459 44.1291 26.8295 43.0465 26.5945C41.9769 26.3802 40.9033 26.1314 39.859 25.8222C38.9408 25.5772 38.0929 25.1441 37.3768 24.5544C36.9682 24.2026 36.5658 23.8177 36.06 23.5889C35.6502 23.4014 35.1945 23.3187 34.739 23.3491C34.2638 23.376 33.8034 23.5158 33.4016 23.7553C32.9997 23.9948 32.6696 24.326 32.4426 24.7176L33.2305 24.9022L33.0154 22.2301C32.9872 21.867 32.4248 21.6738 32.2275 22.0455C31.7386 22.9733 30.7488 23.4754 29.8176 23.9544C29.3203 24.1979 28.8371 24.4659 28.37 24.7572C27.8247 25.1184 27.3442 25.5582 26.9463 26.0602C26.041 27.2259 25.1994 28.4337 24.4248 29.6788C23.6313 30.9078 22.8774 32.1582 22.1632 33.4299C21.4626 34.6777 20.7186 35.9468 20.2283 37.2823C19.9875 37.9152 19.8503 38.5783 19.8215 39.249C19.7986 39.964 19.9507 40.6729 19.9414 41.3892C19.932 42.1056 19.8592 42.8545 19.8214 43.5871C19.7837 44.3197 19.7884 45.0688 19.7996 45.8084C19.8136 47.2884 19.9288 48.7659 20.1445 50.2317C20.3558 51.6258 20.6401 53.0563 21.2134 54.3575C21.6528 55.3491 22.2356 56.2795 22.9455 57.1228C23.4976 57.7837 24.0862 58.4203 24.6633 59.0666C25.2675 59.7658 25.9185 60.4284 26.6124 61.0505C27.0656 61.4503 27.5337 61.8356 28.0002 62.2241C28.5129 62.6575 29.026 63.1081 29.5619 63.5238C30.1063 63.9603 30.7054 64.3336 31.346 64.6354C32.0064 64.9248 32.7046 65.1322 33.4229 65.2523C34.8974 65.5099 36.4404 65.5444 37.937 65.5277C39.4337 65.511 40.9649 65.3521 42.403 64.8768C44.9143 64.046 47.0025 62.4166 48.7877 60.6068C50.7732 58.5904 52.5154 56.3422 54.2109 54.1105C54.6641 53.515 55.1099 52.9153 55.5484 52.3116C55.6024 52.2205 55.6159 52.1133 55.5861 52.0132C55.5564 51.913 55.4856 51.8278 55.3892 51.7761C55.2914 51.7272 55.1771 51.7157 55.0702 51.744C54.9633 51.7723 54.8722 51.8382 54.816 51.9278L54.7958 51.9281Z" fill="#444444"/>
<path d="M54.0073 46.9746C54.3448 46.3391 54.9326 45.8676 55.4852 45.4015C55.7872 45.1475 56.091 44.8951 56.3724 44.6195C56.6441 44.3429 56.8901 44.0453 57.1079 43.7299C57.3325 43.3879 57.6216 43.0869 57.9612 42.8414C58.308 42.6266 58.699 42.4825 59.109 42.4184C59.5361 42.349 59.9687 42.3141 60.402 42.314C60.5775 42.2901 60.7566 42.3092 60.9216 42.3695C61.0418 42.4586 61.1197 42.5884 61.1384 42.7308C61.2495 43.1425 61.3217 43.5626 61.354 43.9863C61.4057 44.4261 61.3561 44.8714 61.2084 45.2922C60.9316 46.0273 60.3414 46.6515 60.3624 47.4712C60.3746 47.6798 60.4132 47.8863 60.4775 48.0862C60.5541 48.2666 60.5885 48.4603 60.5784 48.6543C60.5399 48.8627 60.3272 49.0254 60.1242 49.1627C59.8379 49.3325 59.5695 49.5275 59.3227 49.745C59.0405 50.0343 58.8744 50.4061 58.8528 50.7967C58.8136 51.1579 58.858 51.5758 58.4777 51.7871C58.0975 51.9983 57.5927 51.9237 57.1687 51.8445C56.0373 51.6127 54.8721 51.5586 53.7207 51.6844C53.6101 51.6891 53.5055 51.7332 53.4285 51.8078C53.3515 51.8823 53.3079 51.9816 53.3068 52.0851C53.3095 52.1892 53.3558 52.288 53.4358 52.3602C53.5159 52.4324 53.6231 52.4723 53.7345 52.4711C54.8254 52.3481 55.9301 52.3953 57.0036 52.6108C57.5103 52.7027 58.025 52.7646 58.5192 52.6206C58.753 52.5591 58.9684 52.4475 59.1481 52.2946C59.3279 52.1417 59.4671 51.9518 59.5546 51.7399C59.7161 51.3483 59.6006 50.9049 59.764 50.5211C59.874 50.2658 60.149 50.1036 60.3988 49.9402C60.7241 49.7562 61.0063 49.5125 61.2282 49.2237C61.4842 48.8447 61.4429 48.4046 61.3245 47.9896C61.2553 47.7971 61.215 47.5965 61.2047 47.3936C61.2136 47.2078 61.259 47.0251 61.3384 46.8545C61.4999 46.4644 61.7531 46.109 61.9248 45.7204C62.3541 44.7512 62.1981 43.7245 61.9921 42.7285C61.9075 42.3176 61.7401 41.8971 61.3272 41.6808C60.8871 41.4508 60.314 41.5175 59.8313 41.5495C58.8456 41.6092 57.8743 41.8151 57.1312 42.4624C56.7265 42.8157 56.4598 43.2611 56.1319 43.6729C55.8539 44.0013 55.5429 44.304 55.2031 44.5769C54.4963 45.1827 53.7084 45.7709 53.2681 46.5892C53.0268 47.0436 53.7593 47.4291 54.0006 46.9747L54.0073 46.9746Z" fill="#444444"/>
<path d="M26.1212 35.6754C25.0866 36.1217 24.2468 36.8866 23.7427 37.8419C23.1546 38.9729 23.1631 40.2319 23.4686 41.4339C23.6415 42.0648 23.8778 42.6788 24.1742 43.2679C24.4185 43.8091 24.7358 44.3188 25.1183 44.7846C25.5405 45.2552 26.1043 45.5963 26.7368 45.7637C27.3341 45.9311 27.9709 45.9483 28.5929 45.9879C28.9621 46.0129 29.1479 46.0427 29.5071 46.0742C29.7725 46.0968 30.0396 46.0974 30.3053 46.076C30.8839 46.0286 31.4481 45.8794 31.968 45.6362C32.4228 45.4217 32.827 45.124 33.1566 44.7607C33.3323 44.568 33.4883 44.3603 33.6223 44.1403C33.7204 43.9733 33.7847 43.7943 33.8862 43.6273C34.1285 43.2437 34.301 42.8252 34.3966 42.389C34.4688 42.0425 34.5217 41.6927 34.5552 41.3411C34.5746 41.0102 34.5654 40.6751 34.5714 40.3429C34.5797 39.6628 34.62 38.9789 34.4787 38.3093C34.3665 37.802 34.1325 37.3255 33.7943 36.9156C32.2459 35.0286 29.3955 34.5668 27.0612 35.3127C26.738 35.416 26.4237 35.5427 26.1128 35.6756C25.8019 35.8085 25.7288 36.2521 25.895 36.5089C26.094 36.8202 26.4649 36.8468 26.7859 36.7106C26.943 36.6433 27.2558 36.5276 27.4937 36.4542C27.761 36.3707 28.0337 36.3034 28.3102 36.2527C28.5324 36.2151 28.757 36.1912 28.9825 36.1811C29.2764 36.1663 29.5711 36.1743 29.8635 36.2051C29.7657 36.1942 30.0155 36.2276 29.9935 36.2233C30.0712 36.2345 30.1472 36.2474 30.2249 36.2617C30.3566 36.2862 30.4868 36.3138 30.617 36.3478C30.7151 36.3728 30.8133 36.401 30.9115 36.4308L31.0809 36.4892C31.152 36.5147 31.1571 36.5178 31.096 36.4889L31.2097 36.5358C31.4171 36.6236 31.6175 36.7253 31.8094 36.8401L31.9625 36.9334C31.9625 36.9334 32.1329 37.0485 32.029 36.9763C32.1261 37.0439 32.22 37.1178 32.3089 37.1934C32.3978 37.269 32.48 37.3478 32.5673 37.4329C32.6085 37.4731 32.6479 37.5165 32.6857 37.5583C32.5999 37.4638 32.7236 37.6049 32.7305 37.6142C32.789 37.6887 32.8443 37.7696 32.9029 37.8457C32.9329 37.8924 32.9624 37.9407 32.9913 37.9905C33.0018 38.0108 33.1029 38.2121 33.0504 38.0981C33.2659 38.576 33.2869 39.0069 33.2842 39.528C33.2797 40.1372 33.2904 40.754 33.2556 41.3638C33.2456 41.5639 33.1816 41.853 33.1403 42.0883C33.1188 42.2106 33.0888 42.3316 33.0506 42.4503C33.0347 42.501 33.0136 42.5501 32.9977 42.6008C33.0392 42.471 32.9977 42.6008 32.9814 42.631C32.9115 42.7754 32.8179 42.9108 32.7445 43.0506C32.6712 43.1904 32.5935 43.3681 32.502 43.5271C32.4562 43.6082 32.4037 43.6862 32.3495 43.7627L32.2738 43.8663C32.3628 43.7515 32.2556 43.884 32.2407 43.9C32.1037 44.055 31.9505 44.1969 31.7834 44.3235C31.9014 44.2349 31.7584 44.3381 31.7401 44.3494C31.6968 44.3785 31.6518 44.4076 31.6052 44.4352C31.5118 44.4904 31.4168 44.5424 31.3184 44.5976L31.2182 44.6435C31.0511 44.7188 31.3387 44.6067 31.1663 44.6632C31.0407 44.7048 30.9152 44.7495 30.7861 44.7816C30.6906 44.8069 30.5949 44.8243 30.4993 44.8449C30.3114 44.8844 30.6288 44.8348 30.4338 44.8555L30.2523 44.8744C29.9965 44.8922 29.7397 44.8904 29.4844 44.8689C29.2668 44.8522 29.6177 44.887 29.3848 44.858C29.2802 44.8441 29.1739 44.8334 29.0677 44.8242C28.926 44.8094 28.7843 44.7977 28.641 44.7892C28.3646 44.7704 28.0881 44.7532 27.8116 44.7328C27.5924 44.7162 27.9315 44.7512 27.7155 44.7235L27.5838 44.7053C27.4521 44.6856 27.3203 44.6611 27.1918 44.6303C27.1276 44.6141 27.0633 44.5979 26.999 44.5786C26.999 44.5786 26.7991 44.5081 26.9042 44.5488C26.7759 44.4982 26.6521 44.4382 26.534 44.3695C26.534 44.3695 26.3466 44.2468 26.4387 44.3129C26.3875 44.276 26.338 44.2344 26.2901 44.1927C26.2422 44.1511 26.1943 44.1063 26.1497 44.0598C26.1497 44.0598 26.0156 43.9047 26.0845 43.9901C25.9228 43.7894 25.7799 43.5759 25.6574 43.3522C25.3975 42.9028 25.1738 42.4358 24.9881 41.9551C24.7542 41.3823 24.6082 40.7813 24.5545 40.1699C24.5521 40.0283 24.5412 39.8868 24.5471 39.7435C24.5459 39.6726 24.5446 39.6018 24.5552 39.5308L24.5678 39.3874C24.5588 39.452 24.5588 39.4473 24.5676 39.3748C24.611 39.1262 24.6777 38.8817 24.767 38.6441C24.833 38.4682 24.7132 38.7426 24.7978 38.5743L24.8758 38.4155C24.9411 38.2948 25.0114 38.1755 25.0885 38.0608C25.123 38.0114 25.1559 37.9636 25.1921 37.9158C25.2283 37.8679 25.2398 37.852 25.2645 37.8216C25.2266 37.8679 25.2316 37.8647 25.2778 37.8072C25.357 37.7193 25.443 37.6296 25.5224 37.5448C25.8756 37.1883 26.3057 36.9061 26.7843 36.7169C27.1036 36.5822 27.1682 36.1388 27.0021 35.8836C26.803 35.5722 26.4321 35.5457 26.1112 35.6819L26.1212 35.6754Z" fill="#444444"/>
<path d="M43.5636 35.0825C42.268 35.0437 40.9529 35.7183 40.1389 36.6423C39.3453 37.5432 38.9524 38.6943 39.0416 39.8568C39.0947 40.3178 39.1843 40.7745 39.3096 41.2231C39.4284 41.753 39.597 42.272 39.8132 42.7741C40.0511 43.3342 40.4032 43.8455 40.8498 44.2797C41.3173 44.6963 41.8793 45.0093 42.494 45.1954C43.6592 45.5765 44.9858 45.5612 46.2026 45.4313C47.5657 45.2848 48.8876 44.9044 49.9314 44.0283C50.9753 43.1523 51.37 41.9397 51.2656 40.6838C51.1984 40.026 51.0642 39.3758 50.8646 38.7422C50.7126 38.1961 50.5071 37.6644 50.2509 37.1537C50.0007 36.6422 49.6282 36.1916 49.1621 35.8363C48.5993 35.4464 47.9448 35.188 47.2529 35.0826C45.826 34.8337 44.3595 34.8545 42.9399 35.1437C42.6002 35.2136 42.2645 35.2999 41.9341 35.4021C41.8507 35.4233 41.7727 35.4598 41.7045 35.5096C41.6363 35.5593 41.5795 35.6213 41.5372 35.6918C41.495 35.7623 41.4682 35.84 41.4585 35.9202C41.4488 36.0005 41.4564 36.0817 41.4808 36.1591C41.5051 36.2365 41.5458 36.3085 41.6004 36.371C41.655 36.4334 41.7224 36.485 41.7987 36.5227C41.875 36.5604 41.9586 36.5834 42.0446 36.5905C42.1306 36.5975 42.2173 36.5884 42.2996 36.5637C43.4792 36.1996 44.7235 36.0559 45.9613 36.1409C46.2398 36.1564 46.5169 36.1873 46.7914 36.2334C47.0807 36.2772 47.3661 36.3412 47.6451 36.4247C47.8877 36.5014 48.1166 36.6114 48.3243 36.7513C48.2238 36.6822 48.3858 36.8006 48.3892 36.8037C48.4353 36.8407 48.4815 36.8808 48.526 36.9225C48.5705 36.9642 48.6133 37.0044 48.6545 37.0477L48.7352 37.1361C48.6973 37.0911 48.7008 37.0973 48.7472 37.1532C48.8797 37.33 48.9999 37.5145 49.1071 37.7057C49.135 37.7587 49.1629 37.8133 49.189 37.8616C49.1366 37.7555 49.224 37.9366 49.224 37.9382C49.2819 38.0694 49.3347 38.2007 49.3842 38.3352C49.5615 38.825 49.7096 39.3237 49.8278 39.829C49.9659 40.3613 50.0158 40.9104 49.9758 41.4572C49.9592 41.6652 50.0011 41.3623 49.9609 41.566C49.9486 41.6324 49.9363 41.7002 49.9206 41.7666C49.8942 41.8773 49.8618 41.9866 49.8236 42.0942C49.7936 42.1859 49.7527 42.2742 49.7019 42.3576C49.6328 42.4791 49.5567 42.5971 49.474 42.711C49.2095 43.0429 48.8772 43.3226 48.4966 43.5339C48.0119 43.8078 47.4794 43.9993 46.9237 44.0997C46.3613 44.2118 45.7891 44.2745 45.2144 44.287C44.9502 44.2916 44.6876 44.2962 44.4231 44.2882C44.3136 44.2901 44.2023 44.2779 44.086 44.2705L43.8887 44.2534C44.0051 44.2656 43.757 44.2353 43.7351 44.2325C43.4776 44.1955 43.2234 44.1411 42.9745 44.0695C42.7399 44.0096 42.5159 43.918 42.3097 43.7978C42.2179 43.749 42.1277 43.6939 42.0408 43.6372C42.1396 43.7016 41.9709 43.5849 41.9692 43.5833C41.9197 43.5449 41.8718 43.5048 41.8239 43.4631C41.6414 43.3139 41.4859 43.138 41.3636 42.9423C40.8677 42.2174 40.6511 41.2878 40.438 40.3676L40.3997 40.203C40.3869 40.1434 40.3741 40.0838 40.363 40.0242C40.3852 40.1402 40.3492 39.9095 40.3471 39.8875C40.3332 39.749 40.3268 39.6099 40.328 39.4707C40.327 39.4109 40.326 39.3527 40.335 39.2927C40.3346 39.2707 40.3592 39.0373 40.3428 39.1604C40.378 38.9068 40.439 38.657 40.5251 38.4142C40.546 38.3588 40.567 38.3033 40.5897 38.2557C40.546 38.3588 40.6418 38.1509 40.6515 38.1319C40.714 38.0075 40.7838 37.8864 40.8607 37.7693C41.1403 37.3652 41.5093 37.0216 41.9427 36.7619C42.4236 36.4452 43.0007 36.2816 43.5881 36.2956C43.7599 36.2918 43.9233 36.2249 44.0429 36.1094C44.1625 35.9939 44.2288 35.8391 44.2273 35.6785C44.2182 35.5195 44.1451 35.3698 44.0226 35.2595C43.9 35.1492 43.7372 35.0865 43.567 35.084L43.5636 35.0825Z" fill="#444444"/>
<path d="M33.9768 40.5083L39.7002 40.4084C39.784 40.4111 39.8675 40.3977 39.9457 40.3692C40.0239 40.3407 40.0951 40.2976 40.1549 40.2426C40.2148 40.1876 40.2621 40.1218 40.2939 40.0492C40.3258 39.9766 40.3415 39.8988 40.3401 39.8204C40.3387 39.742 40.3203 39.6647 40.286 39.5933C40.2516 39.5219 40.2021 39.4578 40.1403 39.4049C40.0786 39.352 40.0059 39.3114 39.9268 39.2857C39.8476 39.2599 39.7637 39.2495 39.68 39.255L33.9567 39.3549C33.8729 39.3523 33.7893 39.3656 33.7112 39.3941C33.633 39.4227 33.5618 39.4657 33.5019 39.5207C33.442 39.5758 33.3947 39.6416 33.3629 39.7142C33.3311 39.7867 33.3154 39.8646 33.3167 39.943C33.3181 40.0213 33.3365 40.0986 33.3709 40.17C33.4052 40.2415 33.4548 40.3056 33.5165 40.3585C33.5783 40.4114 33.6509 40.4519 33.7301 40.4777C33.8092 40.5035 33.8932 40.5139 33.9768 40.5083Z" fill="#444444"/>
<path d="M50.466 40.5593C51.9849 40.8208 53.4094 41.4321 54.6107 42.338C54.7331 42.4424 54.8937 42.4989 55.0596 42.496C55.2255 42.4931 55.3841 42.431 55.5028 42.3225C55.7247 42.1077 55.7527 41.6885 55.4883 41.4885C54.1291 40.442 52.5111 39.7301 50.7811 39.4174C50.6194 39.3816 50.449 39.4058 50.3056 39.4849C50.1622 39.564 50.0571 39.6918 50.0123 39.8416C49.9467 40.1387 50.1197 40.4993 50.466 40.5593Z" fill="#444444"/>
<path d="M59.6745 43.7117C59.1127 44.0513 58.5917 44.4467 58.1207 44.8911C57.551 45.4393 57.041 46.1251 57.033 46.8241" stroke="#444444" stroke-width="0.551678" stroke-miterlimit="10" stroke-linecap="round"/>
<path d="M58.5483 44.667C58.5483 44.667 59.1942 45.2051 59.0139 46.5477C58.8336 47.8904 59.0711 48.2781 59.3614 48.4163" stroke="#444444" stroke-width="0.551678" stroke-miterlimit="10" stroke-linecap="round"/>
<path d="M23.5643 39.4391L20.6596 39.2427C20.548 39.2446 20.4417 39.2879 20.364 39.3631C20.2864 39.4382 20.2438 39.5391 20.2456 39.6434C20.2475 39.7477 20.2935 39.847 20.3738 39.9194C20.454 39.9918 20.5617 40.0314 20.6733 40.0294L23.578 40.2259C23.6894 40.2231 23.7952 40.1795 23.8726 40.1045C23.9501 40.0296 23.9929 39.9292 23.992 39.8251C23.988 39.7215 23.9413 39.6233 23.8615 39.5514C23.7818 39.4794 23.6753 39.4392 23.5643 39.4391Z" fill="#444444"/>
<path d="M43.264 39.535C43.1903 39.7807 43.1908 40.0406 43.2654 40.2858C43.3038 40.4071 43.3627 40.5219 43.4397 40.6258C43.5529 40.7781 43.6957 40.9091 43.8606 41.012C44.0645 41.1315 44.293 41.2097 44.5313 41.2416C44.7697 41.2735 45.0127 41.2584 45.2446 41.1972C45.5251 41.1295 45.7726 40.974 45.9458 40.7568C46.0506 40.6311 46.124 40.4852 46.1607 40.3297C46.1876 40.1868 46.2036 40.0424 46.2087 39.8975C46.2071 39.8078 46.2258 39.7178 46.2242 39.6281C46.2215 39.4769 46.1777 39.3289 46.0967 39.1981C46.0158 39.0673 45.9004 38.958 45.7615 38.8806C45.5344 38.7711 45.2879 38.7007 45.0339 38.673C44.763 38.6167 44.4841 38.6019 44.208 38.6292C44.053 38.6428 43.9003 38.674 43.7533 38.7221C43.5543 38.7896 43.3722 38.8946 43.2182 39.0305C43.1462 39.0994 43.0896 39.1809 43.0515 39.2703C43.0134 39.3597 42.9947 39.4553 42.9964 39.5514C42.998 39.6476 43.0201 39.7424 43.0613 39.8305C43.1024 39.9185 43.1619 39.998 43.2362 40.0643C43.3098 40.131 43.3968 40.1834 43.4922 40.2185C43.5876 40.2535 43.6895 40.2706 43.7921 40.2687C43.9982 40.2588 44.1937 40.1793 44.3422 40.045L44.3754 40.0177L44.2192 40.1353C44.2623 40.1049 44.3086 40.0787 44.3576 40.0573L44.172 40.1346C44.2586 40.1005 44.3491 40.0762 44.4418 40.0622L44.2336 40.0926C44.3764 40.0735 44.5211 40.071 44.6645 40.085L44.4553 40.0635C44.6858 40.0838 44.9128 40.13 45.1313 40.2012L44.9431 40.1305C44.9647 40.1391 44.9852 40.1498 45.0043 40.1625L44.8424 40.0505L44.8595 40.0643L44.734 39.9186C44.746 39.9296 44.7554 39.9428 44.7616 39.9574L44.6795 39.7841C44.6848 39.7978 44.6885 39.812 44.6903 39.8264L44.6583 39.6318C44.6632 39.785 44.6546 39.9384 44.6326 40.0903L44.6578 39.8963C44.6508 39.9503 44.6371 40.0034 44.6168 40.0544L44.6929 39.8783C44.6796 39.9087 44.6626 39.9375 44.6422 39.9642L44.7625 39.8142C44.7397 39.841 44.7142 39.8657 44.6863 39.8879L44.8425 39.7703C44.8066 39.795 44.768 39.8162 44.7275 39.8337L44.913 39.7565C44.8482 39.7808 44.7808 39.7984 44.7119 39.8088L44.9201 39.7784C44.8319 39.7893 44.7427 39.7908 44.6542 39.783L44.8617 39.8046C44.7756 39.7956 44.691 39.777 44.6098 39.7492L44.7979 39.8198C44.7379 39.7965 44.6809 39.7669 44.628 39.7315L44.7883 39.8436C44.7433 39.8111 44.7025 39.7737 44.6668 39.7324L44.7922 39.8782C44.7651 39.844 44.7413 39.8075 44.7213 39.7692L44.8035 39.9425C44.7809 39.8922 44.7642 39.8397 44.7536 39.786L44.7856 39.979C44.7782 39.9269 44.7773 39.8741 44.7828 39.8217L44.7593 40.0157C44.7647 39.9751 44.7736 39.9349 44.7858 39.8956C44.8352 39.7044 44.8033 39.503 44.6968 39.3337C44.6166 39.2113 44.4995 39.1137 44.3602 39.0531C44.221 38.9925 44.0656 38.9716 43.9135 38.9928C43.7614 39.0141 43.6192 39.0767 43.5047 39.1727C43.3901 39.2688 43.3082 39.3942 43.2691 39.5333L43.264 39.535Z" fill="#444444"/>
<path d="M28.6195 39.4916C28.4493 39.4962 28.2875 39.5622 28.1681 39.6758C28.0567 39.7917 27.9952 39.9419 27.9952 40.0975C28.0001 40.2132 28.036 40.3258 28.0995 40.425C28.163 40.5243 28.2521 40.607 28.3588 40.6657C28.5782 40.7791 28.8171 40.8559 29.0649 40.8926C29.246 40.9334 29.4346 40.9366 29.6174 40.9018C29.7615 40.8613 29.8878 40.778 29.9769 40.6646C30.0661 40.5511 30.1134 40.4137 30.1115 40.273C30.096 40.1322 30.0496 39.996 29.9753 39.8727C29.901 39.7494 29.8005 39.6418 29.6798 39.5565C29.4839 39.3972 29.2474 39.2878 28.9929 39.2387C28.7384 39.1897 28.4746 39.2027 28.2268 39.2765C28.0358 39.3345 27.87 39.449 27.7546 39.6026C27.6391 39.7563 27.5801 39.9408 27.5866 40.1282C27.5769 40.3508 27.6198 40.5726 27.7124 40.7777C27.8109 41.022 27.9706 41.2405 28.1782 41.4149C28.4134 41.6213 28.7246 41.7353 29.0476 41.7334C29.2232 41.7288 29.3947 41.6815 29.545 41.596C29.6953 41.5106 29.8192 41.39 29.9046 41.2463C30.0128 41.0371 30.0867 40.814 30.1237 40.5845C30.1848 40.284 30.1379 39.9732 29.9904 39.7006C29.912 39.5743 29.8071 39.464 29.682 39.3764C29.557 39.2888 29.4143 39.2257 29.2625 39.1908C28.9607 39.1183 28.645 39.1109 28.3394 39.1691C28.231 39.1869 28.1283 39.2274 28.039 39.2876C27.9496 39.3478 27.8759 39.426 27.8235 39.5165C27.7473 39.6807 27.7141 39.8593 27.7265 40.0376C27.7142 40.1549 27.7112 40.2728 27.7175 40.3904C27.7255 40.5254 27.77 40.6563 27.847 40.7706C27.9244 40.8755 28.0246 40.9639 28.1412 41.0299C28.3647 41.171 28.6095 41.2803 28.8675 41.3541C29.4849 41.5149 30.2564 41.2401 30.4087 40.6094C30.4458 40.4631 30.4214 40.3091 30.3406 40.1793C30.2798 40.0848 30.1905 40.0093 30.0838 39.9624C29.9771 39.9154 29.8578 39.8991 29.741 39.9154C29.6242 39.9318 29.5151 39.9801 29.4275 40.0543C29.3399 40.1284 29.2777 40.2251 29.2488 40.3322C29.2428 40.3577 29.2342 40.3826 29.2231 40.4066L29.2814 40.2734C29.2672 40.3026 29.2496 40.3304 29.229 40.3561L29.3213 40.2412C29.2949 40.2725 29.2649 40.3011 29.2318 40.3262L29.3515 40.2359C29.3117 40.2647 29.2687 40.2892 29.2231 40.309L29.3652 40.2499C29.3115 40.2721 29.2553 40.2884 29.1977 40.2984L29.3656 40.275C29.296 40.2857 29.2252 40.2869 29.1552 40.2787L29.3155 40.2964C29.2222 40.283 29.1308 40.2597 29.0432 40.2271L29.1873 40.2813C29.0241 40.2151 28.8686 40.1334 28.7233 40.0376L28.8444 40.1236C28.8249 40.1089 28.8066 40.0929 28.7896 40.0757L28.8859 40.1874C28.8757 40.1749 28.8669 40.1613 28.8599 40.1469L28.9229 40.2796C28.9165 40.2644 28.9118 40.2487 28.9086 40.2326L28.9331 40.3817C28.9214 40.2904 28.9198 40.1981 28.9283 40.1064C28.9266 40.012 28.9249 39.916 28.9418 39.8212L28.9225 39.9711C28.9254 39.9567 28.9291 39.9425 28.9336 39.9284L28.8753 40.0632C28.8803 40.0502 28.8881 40.0383 28.8983 40.0282L28.806 40.1431L28.8242 40.1287L28.7046 40.2173L28.7261 40.1949L28.5839 40.2525C28.6172 40.2419 28.6515 40.2345 28.6863 40.2302L28.5183 40.252C28.6538 40.2339 28.7912 40.2315 28.9273 40.2449L28.767 40.2272C28.86 40.2367 28.9514 40.2568 29.0392 40.287L28.8951 40.2329C28.944 40.2509 28.9907 40.2739 29.0344 40.3013L28.9117 40.2169C28.9459 40.2399 28.9769 40.2668 29.004 40.2971L28.9077 40.1854C28.9378 40.2215 28.9634 40.2606 28.9839 40.3022L28.9226 40.1694C28.9474 40.2268 28.9648 40.2867 28.9746 40.348L28.9518 40.2004C28.9632 40.276 28.9646 40.3526 28.9558 40.4286L28.9751 40.2803C28.9469 40.4509 28.8984 40.618 28.8305 40.7786L28.8888 40.6438C28.8726 40.6798 28.8529 40.7144 28.83 40.7471L28.9206 40.6322C28.9012 40.6559 28.8789 40.6774 28.8544 40.6964L28.9741 40.6077C28.9491 40.6241 28.9229 40.6388 28.8957 40.6516L29.0378 40.5924C29.0011 40.6068 28.9629 40.6175 28.9238 40.6243L29.0834 40.6026C29.036 40.609 28.9879 40.6098 28.9403 40.6051L29.1006 40.6228C29.0585 40.6169 29.0171 40.6071 28.9772 40.5935L29.1212 40.6461C29.0557 40.6219 28.994 40.5896 28.9377 40.5501L29.0604 40.6345C28.9913 40.5843 28.9287 40.5268 28.8739 40.4631L28.9684 40.5747C28.9045 40.4968 28.8505 40.4122 28.8074 40.3226L28.8704 40.4553C28.8282 40.3652 28.7983 40.2705 28.7812 40.1735L28.8059 40.3305C28.7926 40.2413 28.791 40.1509 28.8012 40.0614L28.7819 40.2097C28.7858 40.1775 28.7931 40.1457 28.8038 40.1148L28.7455 40.2497C28.7543 40.2288 28.7658 40.209 28.7799 40.1908L28.6893 40.3057C28.7035 40.2887 28.7196 40.2732 28.7373 40.2592L28.6176 40.3495C28.643 40.332 28.6698 40.3163 28.6976 40.3024L28.5555 40.3616C28.6136 40.3389 28.6744 40.3231 28.7366 40.3144L28.577 40.3376C28.6529 40.3276 28.7298 40.3263 28.8059 40.3336L28.6457 40.3159C28.7292 40.3258 28.811 40.3455 28.8892 40.3746L28.7451 40.3205C28.8231 40.3504 28.8967 40.3893 28.9643 40.4363L28.8416 40.3503C28.9051 40.395 28.9626 40.4469 29.0127 40.5047L28.9181 40.393C28.9513 40.4322 28.9803 40.4744 29.0045 40.519L28.9416 40.3863C28.9488 40.399 28.9536 40.4128 28.9557 40.427L28.933 40.2794C28.9357 40.2929 28.936 40.3068 28.9337 40.3204L28.9513 40.1705L28.9516 40.1894L29.0099 40.0546L28.9967 40.0721L29.089 39.9572L29.0741 39.97L29.1937 39.8798L29.1753 39.888L29.3174 39.8288L29.2989 39.8292L29.4568 39.806C29.4076 39.8115 29.358 39.8124 29.3087 39.8085L29.4773 39.8245C29.3033 39.8063 29.1327 39.7664 28.9701 39.7058L29.1142 39.76C29.064 39.742 29.0152 39.7208 28.9683 39.6964L29.091 39.7809L29.0653 39.7593L29.1616 39.8709C29.1513 39.8578 29.1426 39.8437 29.1356 39.8289L29.1985 39.9616C29.1966 39.9528 29.1965 39.9437 29.198 39.9348L29.2225 40.0839L29.2223 40.0713L29.203 40.2212L29.2029 40.2118L29.0523 40.4599L28.9326 40.5486L28.9427 40.5484L28.6427 40.6308L28.6562 40.6306C28.8133 40.625 28.963 40.5665 29.0777 40.4658C29.1843 40.3568 29.2421 40.2138 29.2391 40.0663C29.2379 39.9191 29.175 39.7783 29.0638 39.6743C29.0072 39.6237 28.9402 39.5843 28.8668 39.5586C28.7935 39.5328 28.7153 39.5212 28.6369 39.5244L28.6195 39.4916Z" fill="#444444"/>
<path d="M42.482 53.1442C42.3892 53.2293 42.2692 53.3053 42.1849 53.3934C42.337 53.2333 42.2165 53.3676 42.1532 53.4097C42.0899 53.4517 42.0434 53.484 41.9867 53.5196C41.8701 53.5893 41.7517 53.6559 41.6299 53.7179C41.5715 53.7488 41.3219 53.8224 41.2958 53.8732L41.3476 53.8519L41.2456 53.8898L41.0397 53.9627C40.8974 54.0093 40.7533 54.0511 40.6092 54.0898C40.4651 54.1286 40.3074 54.1612 40.1546 54.1906L39.9196 54.2325C39.7518 54.2622 40.0977 54.2105 39.8708 54.2334C39.1962 54.3144 38.5143 54.3263 37.8373 54.2689L37.5911 54.248C37.807 54.2678 37.4966 54.2355 37.4578 54.2314C37.2632 54.2065 37.069 54.1768 36.8753 54.1424C36.4683 54.0724 36.066 53.9818 35.6668 53.8786C35.4506 53.8269 35.2211 53.8576 35.0288 53.9639C34.8364 54.0703 34.697 54.2437 34.6411 54.4459C34.5852 54.648 34.6175 54.8625 34.7309 55.0421C34.8442 55.2216 35.0293 55.3516 35.2455 55.4033C37.5441 55.9928 40.1419 56.16 42.3383 55.1379C42.8358 54.9023 43.2916 54.5965 43.6897 54.2312C43.845 54.081 43.9301 53.8793 43.9265 53.6707C43.9228 53.4621 43.8307 53.2635 43.6703 53.1187C43.5079 52.9778 43.2932 52.9012 43.0714 52.9051C42.8495 52.9089 42.6376 52.993 42.4802 53.1395L42.482 53.1442Z" fill="#444444"/>
<path d="M52.1348 20.1973C52.1348 20.1973 56.4515 22.5727 57.7071 25.628L58.9611 28.6849" stroke="#444444" stroke-width="0.556313" stroke-miterlimit="10" stroke-linecap="round"/>
<path d="M25.987 34.202C26.9493 34.1007 27.9189 34.0765 28.8853 34.1294C29.1128 34.1428 29.3405 34.1608 29.5598 34.1822C29.5985 34.1815 29.7419 34.1995 29.6373 34.1887L29.7976 34.2064L30.1554 34.2536C30.6483 34.3237 31.1348 34.4144 31.6183 34.5224C31.8132 34.5648 32.0183 34.5341 32.1897 34.437C32.361 34.3398 32.485 34.1838 32.5352 34.0025C32.5853 33.8212 32.5575 33.6289 32.4577 33.4668C32.358 33.3047 32.1943 33.1857 32.0016 33.1353C30.0249 32.6863 27.979 32.5622 25.9552 32.7687C25.5586 32.8102 25.1761 33.086 25.2018 33.498C25.2265 33.8549 25.5516 34.2443 25.9802 34.199L25.987 34.202Z" fill="#444444"/>
<path d="M42.0528 33.1966C42.724 33.1044 43.4013 33.0584 44.0795 33.0589C44.4296 33.0528 44.7819 33.0719 45.1309 33.0972C45.2995 33.11 45.4563 33.123 45.6199 33.1406C45.4732 33.1259 45.6841 33.1505 45.728 33.1561L46.0065 33.1937C46.6768 33.2904 47.3388 33.4319 47.9873 33.6172C48.3111 33.7102 48.6312 33.8137 48.9475 33.9278L49.078 33.9759C49.0492 33.9654 48.9508 33.9262 49.0881 33.9757L49.2814 34.0526C49.451 34.1221 49.6206 34.1947 49.7903 34.2704C50.4851 34.5835 51.1505 34.9504 51.7796 35.3674C52.1067 35.5836 52.6476 35.4121 52.8221 35.0927C52.9159 34.9259 52.938 34.7321 52.8838 34.551C52.8296 34.3699 52.7033 34.2152 52.5307 34.1187C50.1436 32.5615 47.3178 31.6956 44.4047 31.6287C43.61 31.6087 42.8147 31.6526 42.0277 31.76C41.633 31.8141 41.2468 32.0695 41.2743 32.4893C41.2972 32.8368 41.6244 33.2497 42.0527 33.1919L42.0528 33.1966Z" fill="#444444"/>
<path d="M55.5174 31.6331C55.8608 32.0128 55.6358 32.6258 55.4839 33.0913C55.2698 33.7514 55.0836 34.3669 55.1429 35.0632C55.2935 36.8098 55.5191 38.5483 55.8199 40.2787C55.9897 41.2643 56.1854 42.2462 56.4068 43.2245C56.4388 43.324 56.5115 43.4076 56.6091 43.4572C56.7068 43.5067 56.8214 43.5183 56.9283 43.4893C57.0344 43.4584 57.1236 43.3902 57.177 43.2991C57.2304 43.208 57.2438 43.1011 57.2145 43.0011C56.8214 41.2545 56.5101 39.4954 56.2804 37.7239C56.1639 36.835 56.067 35.9448 55.9897 35.0531C55.9543 34.7262 55.9775 34.396 56.0585 34.076C56.1405 33.7598 56.2515 33.4635 56.3472 33.1565C56.5736 32.43 56.67 31.6823 56.107 31.0703C56.0267 30.9986 55.9192 30.9594 55.8079 30.9614C55.6967 30.9633 55.5907 31.0062 55.5128 31.0807C55.437 31.1568 55.3956 31.2574 55.3974 31.3613C55.3993 31.4652 55.4441 31.5643 55.5226 31.6378L55.5174 31.6331Z" fill="#444444"/>
<path d="M21.2154 37.4185C20.9324 34.809 20.4064 32.1659 21.1206 29.5736C21.2785 28.9743 21.5193 28.3972 21.7348 27.8126C21.9356 27.2629 22.1331 26.7117 22.3662 26.1724C22.5604 25.6893 22.8134 25.2286 23.1202 24.7993C23.0593 24.8806 23.1597 24.7498 23.1762 24.7291L23.219 24.6748L23.3327 24.5296C23.4216 24.4163 23.5089 24.3014 23.5978 24.1865C24.6861 22.7698 25.749 21.3472 26.8922 19.9878C27.3062 19.4941 27.7165 18.9786 28.2501 18.5836C29.2377 17.834 30.3156 17.195 31.4617 16.6796C33.5253 15.7669 35.788 15.4519 38.0476 15.348C39.3481 15.2891 40.6514 15.2852 41.9529 15.2798C43.3281 15.2619 44.6994 15.4148 46.0307 15.7343C48.7027 16.3929 51.1686 17.6909 53.3329 19.2649C54.4845 20.088 55.5589 21.0013 56.5445 21.9949C57.5566 23.0499 58.3865 24.2462 59.0042 25.5408C60.2608 28.1384 60.9503 30.9452 61.0325 33.7974C61.0804 35.2138 60.9765 36.6314 60.7225 38.0291C60.6241 38.5675 60.546 39.1088 60.4442 39.6457C60.3794 40.1055 60.2336 40.5521 60.0127 40.9676C59.9179 41.1363 59.784 41.2832 59.6208 41.3974C59.4576 41.5117 59.2692 41.5904 59.0694 41.6278C58.5411 41.7441 58.7782 42.4986 59.3049 42.3824C60.4791 42.1242 60.9786 41.1255 61.2018 40.1158C61.3189 39.5927 61.382 39.0612 61.479 38.5369C61.6145 37.812 61.7264 37.0845 61.7961 36.3513C62.0684 33.3904 61.7102 30.4098 60.7422 27.5819C60.2701 26.1686 59.6249 24.8113 58.8193 23.5371C57.9817 22.2901 56.9591 21.1606 55.7821 20.1823C53.6657 18.3635 51.2654 16.7747 48.6021 15.743C47.2843 15.217 45.9002 14.8493 44.4828 14.6485C43.06 14.4561 41.626 14.4969 40.1917 14.5125C37.7573 14.5408 35.2786 14.6313 32.9347 15.3113C31.7771 15.6492 30.6683 16.1195 29.6336 16.7116C29.057 17.044 28.5012 17.4069 27.9687 17.7984C27.6566 18.0145 27.3661 18.2567 27.1007 18.5218C26.5185 19.1254 25.9962 19.783 25.4755 20.439C24.8516 21.2212 24.2367 22.01 23.6309 22.8055L22.8966 23.7628C22.8045 23.8856 22.7106 24.0068 22.6151 24.1281L22.5047 24.2702L22.4603 24.3276C22.4191 24.3787 22.4487 24.3404 22.4603 24.3276L22.4059 24.3962C22.0767 24.8464 21.8081 25.3327 21.6061 25.8441C21.3585 26.4167 21.143 26.9981 20.9293 27.5874C20.7156 28.1767 20.4749 28.7601 20.3053 29.3659C20.1224 30.0346 20.0014 30.7165 19.9435 31.4043C19.8302 32.7253 19.9611 34.0484 20.117 35.36C20.1999 36.0574 20.2895 36.7547 20.3657 37.4538C20.3697 37.5575 20.4164 37.6556 20.4962 37.7276C20.5759 37.7995 20.6824 37.8398 20.7934 37.8399C20.9046 37.8367 21.0101 37.793 21.0875 37.7181C21.1648 37.6432 21.2079 37.5431 21.2074 37.4391L21.2154 37.4185Z" fill="#444444"/>
<path d="M34.9195 17.2418C34.9195 17.2418 35.1038 19.7964 34.9648 20.9967L34.8174 22.1955C34.8174 22.1955 36.9292 21.0568 37.8512 21.4925" stroke="#444444" stroke-width="0.551678" stroke-linecap="round" stroke-linejoin="round"/>
</svg>
