<svg width="147" height="100" viewBox="0 0 147 100" fill="none" xmlns="http://www.w3.org/2000/svg">
<g clip-path="url(#clip0_1196_25494)">
<path d="M5.3 37.0821C5.28484 37.061 5.27023 37.0407 5.25619 37.0211C5.27455 37.0056 5.29365 36.9895 5.31346 36.9728C5.57915 36.7489 5.97489 36.4202 6.49278 36.0029C7.52858 35.1684 9.05275 33.9799 11.0019 32.5677C14.9009 29.7429 20.4975 26.0254 27.2854 22.4558C40.8717 15.3112 59.1768 8.78767 78.1761 11.1392C97.1752 13.4907 113.333 24.2901 124.763 34.5414C130.474 39.6632 134.993 44.6381 138.084 48.3319C139.629 50.1785 140.817 51.7043 141.617 52.7673C142.018 53.2988 142.321 53.7145 142.524 53.9967C142.539 54.0178 142.554 54.0382 142.568 54.0579C142.55 54.0735 142.53 54.0896 142.511 54.1064C142.245 54.3304 141.849 54.6592 141.331 55.0766C140.296 55.9114 138.772 57.1003 136.823 58.5129C132.924 61.3385 127.328 65.0571 120.54 68.6274C106.955 75.7734 88.6501 82.2969 69.6503 79.94C50.6505 77.583 34.492 66.7836 23.0617 56.5335C17.3509 51.4124 12.8315 46.4385 9.74047 42.7455C8.19515 40.8993 7.00738 39.3739 6.20675 38.3112C5.80645 37.7798 5.50297 37.3642 5.3 37.0821Z" fill="white" stroke="#2D1942"/>
<path d="M100.853 49.4819C100.197 54.7645 97.9923 59.734 94.5172 63.7621C91.0422 67.7902 86.453 70.6959 81.3302 72.112C76.2075 73.5281 70.7811 73.391 65.737 71.718C60.6929 70.045 56.2577 66.9113 52.9921 62.713C49.7265 58.5146 47.7772 53.4401 47.391 48.1312C47.0048 42.8223 48.1989 37.5174 50.8223 32.8875C53.4456 28.2575 57.3804 24.5104 62.1289 22.1199C66.8775 19.7294 72.2266 18.8027 77.4999 19.4571C81.0019 19.8916 84.384 21.013 87.453 22.757C90.522 24.5011 93.2178 26.8338 95.3864 29.6219C97.5551 32.41 99.1541 35.5989 100.092 39.0066C101.03 42.4142 101.289 45.9737 100.853 49.4819Z" fill="#85C99D" stroke="#2D1942"/>
<path d="M5.4522 36.5412C5.63077 36.2834 5.86335 35.9553 6.15024 35.5659C6.91958 34.5214 8.07925 33.0356 9.63528 31.2784C12.7478 27.7634 17.4432 23.1659 23.7695 18.8425C36.4147 10.2007 55.5845 2.64597 81.6964 7.0333C107.83 11.4243 123.089 23.2577 131.816 33.9655C136.183 39.3235 138.92 44.4061 140.564 48.1453C141.386 50.0148 141.934 51.5479 142.277 52.6107C142.397 52.9853 142.492 53.3014 142.565 53.5532L5.4522 36.5412Z" fill="#85C99D" stroke="#2D1942"/>
<path d="M123.58 80.9079L123.58 80.9072C121.907 75.2722 120.233 69.6365 118.56 64L118.081 64.1423L118.56 64.0003C118.513 63.8396 118.55 63.6411 118.692 63.4467C118.836 63.2494 119.045 63.1171 119.23 63.0833L119.23 63.0833L119.233 63.0828C119.663 63.0019 120.055 63.2744 120.209 63.7939L120.209 63.7947C121.884 69.4298 123.557 75.0648 125.229 80.6996C125.276 80.8602 125.239 81.0587 125.097 81.2534C124.953 81.4511 124.743 81.5842 124.557 81.6188L124.556 81.619C124.126 81.6999 123.734 81.4274 123.58 80.9079Z" fill="#2D1942" stroke="#2D1942"/>
<path d="M132.466 73.6841L132.462 73.6755L132.457 73.667C130.477 69.893 128.497 66.1183 126.517 62.3429C126.426 62.146 126.415 61.921 126.487 61.7162C126.56 61.5086 126.713 61.3389 126.911 61.2442C127.109 61.1495 127.336 61.1375 127.542 61.2106C127.749 61.2837 127.918 61.4362 128.013 61.6347L128.017 61.6433L128.022 61.6518L133.962 72.9759C134.006 73.0722 134.032 73.1761 134.038 73.2821C134.044 73.3909 134.028 73.4998 133.992 73.6026C133.955 73.7054 133.899 73.8 133.826 73.8809C133.754 73.962 133.666 74.0278 133.568 74.0746C133.47 74.1215 133.364 74.1486 133.255 74.1543C133.147 74.1601 133.039 74.1444 132.936 74.1082C132.834 74.072 132.74 74.0159 132.659 73.9432L132.324 74.3146L132.659 73.9432C132.578 73.8705 132.513 73.7825 132.466 73.6841Z" fill="#2D1942" stroke="#2D1942"/>
<path d="M112.191 88.8847L112.191 88.8852C112.313 89.1459 112.295 89.3576 112.222 89.5234C112.143 89.7013 111.984 89.8602 111.777 89.959C111.571 90.0578 111.35 90.0807 111.166 90.0305C110.996 89.9838 110.824 89.8662 110.701 89.6068C108.231 84.3278 106.743 78.6417 106.309 72.8273C106.269 72.2763 106.519 71.8924 106.965 71.804C107.145 71.7703 107.391 71.8175 107.6 71.9501C107.806 72.0811 107.91 72.2504 107.921 72.4102C108.33 78.1166 109.777 83.6998 112.191 88.8847Z" fill="#2D1942" stroke="#2D1942"/>
<path d="M99.9401 90.4914L99.9399 90.4908C98.3099 85.8219 97.5703 80.8875 97.7595 75.9445C97.7793 75.4224 97.4065 75.107 96.9429 75.067C96.7138 75.0472 96.5076 75.1045 96.3665 75.2111C96.2379 75.3081 96.1266 75.4723 96.1159 75.7615L99.9401 90.4914ZM99.9401 90.4914C100.122 91.0117 99.9745 91.453 99.5705 91.6474C99.4052 91.7261 99.1571 91.7423 98.9208 91.6662C98.6872 91.591 98.5414 91.4527 98.4877 91.3042M99.9401 90.4914L98.4877 91.3042M98.4877 91.3042C96.7259 86.3197 95.9212 81.0462 96.1159 75.7616L98.4877 91.3042Z" fill="#2D1942" stroke="#2D1942"/>
<path d="M83.7431 94.638L83.7422 94.6381C83.5497 94.6742 83.3136 94.6251 83.1152 94.4951C82.9193 94.3668 82.8044 94.1902 82.7828 94.0098C82.7828 94.0098 82.7828 94.0097 82.7828 94.0096L81.1636 80.3152L81.1652 80.2961L81.1547 80.2339C81.1178 80.016 81.1668 79.7921 81.2915 79.6097C81.4154 79.4283 81.6041 79.3022 81.8182 79.2571C82.0098 79.2218 82.2443 79.2706 82.4414 79.3997C82.6371 79.5278 82.7516 79.7043 82.7725 79.8848L82.7726 79.8861L84.3974 93.6353L84.3975 93.6366C84.4591 94.1457 84.1789 94.5571 83.7431 94.638Z" fill="#2D1942" stroke="#2D1942"/>
<path d="M67.8763 92.5067L67.8764 92.5066C68.8327 88.0612 69.7832 83.6167 70.7279 79.1731C70.7874 78.8964 70.9075 78.6764 71.0566 78.5375C71.1957 78.408 71.3776 78.3303 71.6295 78.3513C71.8095 78.3663 72.0381 78.4781 72.2075 78.6642C72.3744 78.8476 72.4265 79.0353 72.3951 79.1849C71.439 83.6272 70.4885 88.0713 69.5436 92.5174C69.4843 92.7928 69.3644 93.0123 69.2152 93.1509C69.0761 93.2802 68.8935 93.3582 68.6401 93.3371C68.4613 93.3222 68.2327 93.2105 68.063 93.0243C67.8955 92.8406 67.8446 92.6539 67.8763 92.5067Z" fill="#2D1942" stroke="#2D1942"/>
<path d="M57.6743 74.694L57.7253 74.6436C57.8505 74.5478 58.0275 74.5012 58.2334 74.5237C58.4717 74.5496 58.6876 74.6631 58.8121 74.8103C59.0953 75.1474 59.0518 75.6425 58.6851 76.008L58.6841 76.009C56.0402 78.6583 54.3605 82.1195 53.9139 85.838L53.9116 85.857L53.9108 85.8761C53.906 85.9879 53.8786 86.0977 53.8304 86.1987C53.7823 86.2996 53.7142 86.3898 53.6304 86.4638C53.5467 86.5377 53.4489 86.5939 53.343 86.629L53.4933 87.0824L53.343 86.629C53.2371 86.6641 53.1253 86.6774 53.0143 86.6682C52.9033 86.6589 52.7952 86.6272 52.6966 86.5751C52.5979 86.5229 52.5108 86.4513 52.4405 86.3646C52.3702 86.2779 52.3181 86.1777 52.2872 86.07C52.2564 85.9624 52.2476 85.8496 52.2614 85.7385L52.2616 85.7372C52.7694 81.5498 54.6773 77.6576 57.6743 74.694Z" fill="#2D1942" stroke="#2D1942"/>
<path d="M36.5154 80.1245C38.4001 75.7714 41.3122 71.9486 44.9941 68.9812L44.99 69.0301L45.9029 68.2831C46.0736 68.1435 46.2915 68.0758 46.5107 68.0941C46.7285 68.1123 46.931 68.2139 47.076 68.3779C47.202 68.529 47.275 68.7578 47.2603 68.9927C47.2457 69.2262 47.1492 69.4133 47.0026 69.5214C43.1109 72.3816 40.0379 76.2158 38.0914 80.6398L38.0869 80.6501L38.0828 80.6606C38.0028 80.8671 37.846 81.0342 37.6457 81.127C37.4469 81.2191 37.2204 81.2309 37.0134 81.16C36.8287 81.0906 36.6544 80.9288 36.5524 80.7182C36.4507 80.5084 36.4414 80.2953 36.5153 80.1248L36.5154 80.1245Z" fill="#2D1942" stroke="#2D1942"/>
<path d="M36.9701 59.1348L36.9703 59.1345C37.0907 59.0122 37.2838 58.9478 37.5203 58.9744C37.7606 59.0015 37.9781 59.1171 38.1008 59.2624C38.3844 59.5981 38.3415 60.0849 37.9708 60.4606L37.9704 60.461L27.8556 70.7332C27.8556 70.7332 27.8555 70.7333 27.8555 70.7333C27.7353 70.855 27.5412 70.9196 27.3038 70.8931C27.0627 70.8661 26.8461 70.7507 26.7252 70.6069L26.7244 70.606C26.4412 70.2707 26.4833 69.7838 26.855 69.4053C26.8551 69.4052 26.8552 69.4051 26.8553 69.405L36.9701 59.1348Z" fill="#2D1942" stroke="#2D1942"/>
<path d="M28.1078 52.0541L28.1092 52.0525C28.2957 51.8451 28.5094 51.7166 28.7086 51.6725C28.8952 51.6313 29.0926 51.6572 29.2978 51.802L29.2988 51.8027C29.4476 51.9071 29.5867 52.1176 29.6381 52.3629C29.689 52.6053 29.6393 52.7968 29.5362 52.9127L29.5356 52.9134C25.9548 56.9519 21.3877 59.989 16.2825 61.7269C16.0173 61.8149 15.7684 61.8213 15.5738 61.7618C15.3913 61.7061 15.2321 61.5867 15.124 61.3596L15.1237 61.3589C15.045 61.1942 15.0262 60.9404 15.1009 60.7009C15.1744 60.4649 15.3096 60.3252 15.4541 60.2762C20.3103 58.6767 24.6699 55.8438 28.1078 52.0541Z" fill="#2D1942" stroke="#2D1942"/>
<path d="M3.83776 49.4196L3.83717 49.4184C3.75687 49.2506 3.73965 49.0008 3.81458 48.7651C3.88851 48.5326 4.02614 48.3871 4.17857 48.3333C4.17858 48.3333 4.17858 48.3333 4.17859 48.3333L19.619 42.8788C19.619 42.8788 19.619 42.8788 19.6191 42.8788C20.1386 42.696 20.5792 42.8449 20.7709 43.2482L20.7715 43.2494C20.8518 43.4171 20.869 43.667 20.7941 43.9027C20.7201 44.1352 20.5825 44.2807 20.4301 44.3345C20.4301 44.3345 20.4301 44.3345 20.4301 44.3345L4.98957 49.789C4.98944 49.789 4.98932 49.7891 4.9892 49.7891C4.46979 49.9717 4.02943 49.8228 3.83776 49.4196Z" fill="#2D1942" stroke="#2D1942"/>
</g>
<defs>
<clipPath id="clip0_1196_25494">
<rect width="139.916" height="88.4883" fill="white" transform="translate(7.35254) rotate(4.76638)"/>
</clipPath>
</defs>
</svg>
