<svg width="58" height="57" viewBox="0 0 58 57" fill="none" xmlns="http://www.w3.org/2000/svg">
<g clip-path="url(#clip0_1196_25828)">
<path d="M53.0334 14.6025C54.3907 14.4526 55.7322 14.5663 56.589 15.3468C57.5596 16.2313 57.689 17.8861 57.0703 19.2074C56.4514 20.5291 55.2633 21.5332 53.9599 22.4373C48.9732 25.8787 43.0745 27.7581 37.0154 27.8359L36.9784 28.834C43.2071 29.3781 49.1458 31.7102 54.0797 35.5496C54.96 36.237 55.8174 37.1516 56.31 38.1056C56.8007 39.0559 56.8968 39.9683 56.4215 40.7632C55.8581 41.7053 54.6249 42.1267 53.3054 42.2956L53.3041 42.2957C46.3646 43.2023 39.4723 39.1677 35.3799 33.3081C34.8685 32.4449 34.3496 31.5934 33.8345 30.7536L32.9644 31.245C33.4255 32.135 33.9488 33.0001 34.5271 33.8318C37.7007 39.194 40.467 44.8184 40.2981 50.8432L40.2981 50.8434C40.272 51.784 40.1206 52.768 39.7786 53.6011C39.4377 54.4312 38.9229 55.0781 38.1837 55.4207L38.1833 55.4209C37.0435 55.9502 35.5584 55.5733 34.5027 54.678C33.4459 53.7818 32.7725 52.4849 32.1923 51.1028C29.9516 45.7195 29.1977 39.8482 29.988 34.0986C30.1216 33.3472 30.2497 32.598 30.3764 31.8536L29.3941 31.6676C29.237 32.4201 29.1061 33.1761 29.0012 33.9341C28.0169 39.4628 26.7679 44.9385 23.7111 49.4858C23.0995 50.3937 22.2749 51.2771 21.3752 51.8273C20.4791 52.3753 19.5657 52.563 18.7022 52.2135L18.7022 52.2134C17.7785 51.8397 17.2546 51.0025 17.0296 49.8933C16.8038 48.7802 16.8999 47.468 17.1607 46.3185C18.5989 40.04 21.8761 34.3324 26.574 29.9243L25.9918 29.1211C19.3698 32.7458 11.3339 33.722 4.04436 31.773L4.04377 31.7729C3.51277 31.6316 2.99161 31.4598 2.55522 31.2141C2.12205 30.9703 1.80171 30.6704 1.62656 30.284L1.62642 30.2837C1.4073 29.8013 1.44977 29.2539 1.69929 28.6873C1.95017 28.1176 2.39502 27.5705 2.8955 27.1502C5.95825 24.5792 10.4561 24.5733 14.6475 25.1354C18.7614 25.6868 22.8166 26.6114 26.7629 27.8977L27.0913 26.9534C20.322 24.4483 13.5142 21.2574 9.51319 15.4557C9.14826 14.9256 8.83164 14.3155 8.69776 13.7356C8.56482 13.1597 8.6224 12.6727 8.91388 12.2941L8.91416 12.2938C9.16169 11.9717 9.54047 11.7844 10.0289 11.7035C10.521 11.6219 11.0826 11.6565 11.6227 11.7439L11.625 11.7443C19.3677 12.9609 25.377 18.9872 30.9155 24.8478L31.9623 25.9554L31.7751 24.4429L31.748 24.2238L31.7267 24.0517L31.6035 23.9298C26.5137 18.8929 22.3837 12.1544 23.4364 5.27722C23.548 4.54977 23.7452 3.98038 24.1549 3.72284C24.4848 3.51711 24.885 3.53267 25.36 3.76542C25.8391 4.00021 26.3155 4.42458 26.6823 4.87291L26.6824 4.87295C30.9204 10.0508 31.8518 17.1312 32.6233 23.9767L33.6185 23.9614C34.2369 16.3772 35.127 8.37567 40.2186 3.04493L40.2187 3.04482C40.7744 2.46264 41.4849 1.93093 42.1971 1.65615C42.9051 1.38296 43.5492 1.38361 44.0783 1.73929L44.0784 1.73933C44.576 2.07373 44.8278 2.62535 44.8997 3.34071C44.972 4.0606 44.8528 4.88187 44.6684 5.63788C43.0229 12.3642 39.9791 18.6687 35.735 24.1413L36.4782 24.8067C41.3253 20.1071 46.5511 15.3195 53.0334 14.6025ZM53.0334 14.6025L52.9785 14.1055M53.0334 14.6025L52.9785 14.1055M52.9785 14.1055C47.2336 14.7409 42.4764 18.4735 38.1874 22.4824L54.2445 22.8484C55.5599 21.936 56.8445 20.8686 57.5231 19.4194C58.2017 17.9703 58.1093 16.0558 56.9257 14.9772C55.8986 14.0415 54.3603 13.9529 52.9785 14.1055Z" fill="#FEF568" stroke="#2D1942"/>
<path d="M37.0985 28.5562C37.0985 32.7691 33.6821 36.1847 29.4675 36.1847C25.2528 36.1847 21.8364 32.7691 21.8364 28.5562C21.8364 24.3433 25.2528 20.9277 29.4675 20.9277C33.6821 20.9277 37.0985 24.3433 37.0985 28.5562Z" fill="#F59AC3" stroke="#2D1942"/>
</g>
<defs>
<clipPath id="clip0_1196_25828">
<rect width="56.9591" height="55.2026" fill="white" transform="translate(0.987793 0.955078)"/>
</clipPath>
</defs>
</svg>
