<svg width="74" height="109" viewBox="0 0 74 109" fill="none" xmlns="http://www.w3.org/2000/svg">
<g clip-path="url(#clip0_1196_25514)">
<path d="M20.6701 61.4564C17.1133 38 29.9085 13.0319 50.7669 1.88783C38.4882 14.8803 36.729 36.8882 47.3305 51.4252L48.0093 52.356L48.2256 51.2245C50.1827 40.9855 58.0143 32.0957 67.8709 28.7592C63.3719 36.6595 65.0688 46.7729 67.7946 55.3454C68.2548 56.7925 68.7396 58.2361 69.2243 59.6797C70.256 62.7518 71.2876 65.8236 72.0811 68.928C73.2438 73.476 73.8755 78.0284 73.2211 82.6056C72.0983 90.4586 67.2447 96.8873 60.6352 101.381C54.0236 105.876 45.6858 108.411 37.6782 108.479C30.0509 108.59 22.5633 106.045 16.8223 101.048C9.56531 94.7315 4.19696 86.229 1.8603 76.8966L1.86027 76.8965C-1.41565 63.8262 1.32566 49.3906 9.04777 38.3661C7.10891 47.4256 11.6549 57.6757 19.9456 61.9752L20.8173 62.4273L20.6701 61.4564Z" fill="#F59AC3" stroke="#2D1942"/>
<path d="M51.272 106.535L51.2727 106.539C46.2773 108.409 40.8077 108.64 35.9618 106.99C29.8101 104.895 24.4406 101.035 20.8856 95.9706C16.0341 89.0527 14.649 79.997 17.0729 71.6963C18.0884 77.4519 23.2537 82.2733 29.4801 82.8889L30.432 82.983L29.9659 82.1477C22.7026 69.132 25.4115 51.5008 36.163 39.8047C31.5016 50.5271 35.2408 63.7886 45.2094 69.9534L46.1162 70.5142L45.9675 69.4584C45.0567 62.9902 48.1166 55.9416 53.6656 51.5732C52.658 57.3668 55.9649 62.9842 59.5444 67.4205C60.1687 68.1941 60.8063 68.957 61.4427 69.7183C62.7921 71.3329 64.1358 72.9406 65.3333 74.6285C67.0858 77.0988 68.4788 79.6822 69.0369 82.5734C69.9935 87.5291 68.2177 92.531 64.8439 96.8089C61.4708 101.086 56.5317 104.594 51.272 106.535Z" fill="#9492FF" stroke="#2D1942"/>
</g>
<defs>
<clipPath id="clip0_1196_25514">
<rect width="73.9857" height="108.979" fill="white"/>
</clipPath>
</defs>
</svg>
