<svg width="56" height="54" viewBox="0 0 56 54" fill="none" xmlns="http://www.w3.org/2000/svg">
<g clip-path="url(#clip0_1196_25530)">
<path d="M29.8658 22.5795L29.8445 22.4075L29.7213 22.2856C24.783 17.3987 20.7794 10.8639 21.7998 4.19724C21.9081 3.49121 22.099 2.9452 22.4903 2.69915C22.8045 2.50317 23.1871 2.51659 23.6454 2.74118C24.1079 2.96781 24.5686 3.37799 24.9238 3.81202L24.9238 3.81206C29.0333 8.83294 29.9371 15.6994 30.6858 22.3433L31.681 22.3279C32.2812 14.9671 33.1451 7.20767 38.0819 2.03894L38.082 2.03882C38.6203 1.47493 39.308 0.960452 39.9965 0.694794C40.6809 0.430729 41.3005 0.432401 41.8086 0.773954L41.8087 0.773996C42.2866 1.09518 42.5297 1.62556 42.5992 2.31723C42.6692 3.01344 42.5539 3.80853 42.3751 4.54149C40.7787 11.0669 37.8258 17.1831 33.7086 22.4923L34.4517 23.1576C39.1561 18.5964 44.224 13.9544 50.5087 13.2593C51.8252 13.1138 53.1212 13.225 53.9476 13.9778C54.8833 14.8304 55.0099 16.4286 54.4112 17.707C53.8124 18.9858 52.6623 19.9584 51.3978 20.8356C46.561 24.1736 40.8396 25.9964 34.9626 26.0719L34.9255 27.07C40.9673 27.5978 46.7277 29.8599 51.5135 33.584C52.3666 34.2502 53.1969 35.1362 53.6737 36.0595C54.1485 36.9792 54.24 37.8587 53.7824 38.6241C53.2394 39.532 52.0492 39.9404 50.7692 40.1041L50.7679 40.1043C44.0407 40.9831 37.3572 37.0719 33.3882 31.3893C32.8919 30.5516 32.3883 29.7253 31.8885 28.9104L31.0184 29.4018C31.466 30.2657 31.974 31.1056 32.5353 31.913C35.6149 37.1162 38.2974 42.571 38.1336 48.4133L38.1336 48.4134C38.1083 49.3252 37.9616 50.2782 37.6305 51.0845C37.3007 51.8877 36.8033 52.512 36.0902 52.8425L36.0899 52.8426C34.9906 53.3531 33.5556 52.9902 32.5339 52.1238C31.5112 51.2565 30.8588 50.0009 30.2959 48.6599C28.1226 43.4383 27.3912 37.7435 28.1577 32.1666C28.2873 31.4374 28.4117 30.7104 28.5346 29.9881L27.5523 29.802C27.3998 30.5325 27.2727 31.2663 27.1709 32.0021C26.2158 37.3671 25.0042 42.678 22.0395 47.0882C21.4468 47.9681 20.648 48.8236 19.7773 49.3561C18.9101 49.8864 18.0287 50.0666 17.1966 49.7298L17.1965 49.7297C16.3065 49.3696 15.8002 48.5626 15.5824 47.489C15.3638 46.4115 15.4567 45.1403 15.7095 44.0261C17.1045 37.9361 20.2833 32.3998 24.8401 28.1241L24.2579 27.3209C17.8351 30.8367 10.0408 31.7834 2.9704 29.8931L2.96981 29.893C2.45488 29.756 1.95057 29.5896 1.52872 29.3521C1.1101 29.1165 0.802001 28.8275 0.633731 28.4563L0.633596 28.456C0.423196 27.9928 0.463367 27.4662 0.704379 26.9188C0.946741 26.3685 1.37686 25.8393 1.8612 25.4326C4.82806 22.9421 9.18688 22.9352 13.2542 23.4806L13.2542 23.4806C17.2456 24.0157 21.18 24.9127 25.0088 26.1607L25.3372 25.2164C18.7682 22.7854 12.1657 19.6901 8.28588 14.0641C7.93233 13.5506 7.62615 12.9603 7.49679 12.4C7.36838 11.8437 7.42459 11.3761 7.70384 11.0135L7.70412 11.0131C7.94132 10.7045 8.30493 10.524 8.77659 10.4458C9.25192 10.367 9.7951 10.4004 10.3185 10.4851L10.3208 10.4855C17.8288 11.6652 23.6571 17.5091 29.0325 23.1971L30.0793 24.3047L29.8921 22.7922L29.8658 22.5795Z" fill="#77C1FF" stroke="#2D1942"/>
<path d="M35.0283 26.7861C35.0283 30.8663 31.7196 34.1742 27.6377 34.1742C23.5558 34.1742 20.2471 30.8663 20.2471 26.7861C20.2471 22.7059 23.5558 19.3979 27.6377 19.3979C31.7196 19.3979 35.0283 22.7059 35.0283 26.7861Z" fill="#FEF568" stroke="#2D1942"/>
</g>
<defs>
<clipPath id="clip0_1196_25530">
<rect width="55.2749" height="53.5704" fill="white"/>
</clipPath>
</defs>
</svg>
