<svg width="192" height="186" viewBox="0 0 192 186" fill="none" xmlns="http://www.w3.org/2000/svg">
<g clip-path="url(#clip0_1196_25527)">
<path d="M102.169 78.318L102.148 78.146L102.024 78.024C84.8426 61.0211 70.6257 38.0198 74.2503 14.3424C74.6234 11.9095 75.3323 9.47494 77.2038 8.29947C78.7847 7.31246 80.5935 7.49866 82.3979 8.38287C84.2065 9.26914 85.9332 10.8258 87.2344 12.4158L87.6213 12.0992L87.2344 12.4159C101.728 30.1234 104.868 54.2742 107.452 77.211L108.448 77.1957C110.519 51.7917 113.505 24.4654 130.944 6.20692L130.944 6.20681C132.893 4.16481 135.42 2.25827 138.019 1.25541C140.614 0.254132 143.216 0.173448 145.422 1.6563L145.422 1.65635C147.489 3.0453 148.435 5.29131 148.697 7.89753C148.96 10.5083 148.526 13.4169 147.892 16.0133C142.325 38.7715 132.026 60.1027 117.667 78.619L118.41 79.2844C134.643 63.5454 152.478 47.1374 174.719 44.6773C179.337 44.1672 184.308 44.4901 187.589 47.4785C191.352 50.9078 191.699 57.08 189.479 61.8207C187.259 66.5614 183.041 70.0842 178.634 73.1408C161.688 84.8365 141.642 91.2235 121.051 91.4879L121.014 92.486C142.167 94.3339 162.335 102.254 179.091 115.293C182.134 117.67 185.148 120.866 186.905 124.268C188.66 127.667 189.127 131.194 187.244 134.344C185.047 138.016 180.388 139.484 175.913 140.056L175.911 140.057C152.034 143.176 128.475 129.302 114.535 109.31C112.821 106.416 111.078 103.555 109.344 100.727L108.474 101.219C110.011 104.185 111.755 107.067 113.682 109.834C124.369 127.885 133.821 147.046 133.243 167.635C133.153 170.884 132.631 174.343 131.41 177.316C130.191 180.286 128.29 182.738 125.457 184.051L125.456 184.051C121.082 186.082 115.607 184.587 111.831 181.385C108.054 178.182 105.704 173.599 103.743 168.928C96.1303 150.638 93.5714 130.689 96.2626 111.154C96.7111 108.632 97.1421 106.114 97.5687 103.608L96.5863 103.422C96.0619 105.935 95.6252 108.459 95.2758 110.99C91.9669 129.586 87.7325 148.209 77.3175 163.701C75.1991 166.846 72.315 169.953 69.1074 171.915C65.9031 173.874 62.4331 174.661 59.0691 173.299L58.8814 173.763L59.069 173.299C55.4675 171.842 53.5377 168.596 52.7362 164.646C51.9338 160.691 52.2829 156.103 53.1832 152.137C58.0671 130.816 69.1964 111.433 85.1499 96.464L84.5677 95.6608C62.0556 107.983 34.747 111.301 9.96323 104.675L9.96264 104.675C8.14863 104.192 6.28342 103.584 4.68642 102.686C3.09264 101.788 1.79513 100.618 1.07074 99.0199L1.07061 99.0196C0.155496 97.0047 0.38105 94.8022 1.30987 92.693C2.24003 90.5806 3.86038 88.6035 5.64968 87.1011C16.3639 78.1069 31.9541 78.1766 46.0463 80.0663C59.9382 81.9284 73.6317 85.0506 86.9574 89.3941L87.2859 88.4498C64.5335 80.03 41.3387 69.2073 27.6694 49.3857C26.3963 47.5367 25.247 45.3484 24.7517 43.2029C24.2574 41.0616 24.4247 39.0218 25.6926 37.3751L25.6929 37.3748C26.7642 35.9807 28.3534 35.2495 30.1804 34.9466C32.0111 34.6432 34.0394 34.778 35.9163 35.0819L35.9186 35.0822C62.3906 39.2417 82.8429 59.8225 101.4 79.4591L102.447 80.5668L102.26 79.0542L102.169 78.318Z" fill="#F59AC3" stroke="#2D1942"/>
<path d="M122.495 92.7274C122.495 107.533 110.489 119.535 95.6784 119.535C80.8678 119.535 68.8618 107.533 68.8618 92.7274C68.8618 77.9219 80.8678 65.9194 95.6784 65.9194C110.489 65.9194 122.495 77.9219 122.495 92.7274Z" fill="#FEF568" stroke="#2D1942"/>
</g>
<defs>
<clipPath id="clip0_1196_25527">
<rect width="191.357" height="185.456" fill="white"/>
</clipPath>
</defs>
</svg>
