<svg width="70" height="68" viewBox="0 0 70 68" fill="none" xmlns="http://www.w3.org/2000/svg">
<g clip-path="url(#clip0_1196_25521)">
<path d="M37.3692 28.342L37.3479 28.1699L37.2245 28.0479C31.0155 21.9083 25.9522 13.6711 27.2428 5.24576C27.3786 4.36139 27.6231 3.62024 28.1677 3.27796C28.6136 2.99987 29.1444 3.03116 29.7426 3.32408C30.3448 3.61894 30.9369 4.14771 31.3902 4.70125L31.3903 4.70129C36.5773 11.0339 37.7132 19.6874 38.6524 28.0158L39.6476 28.0004C40.4005 18.7741 41.4846 8.99165 47.7188 2.46953L47.7189 2.46942C48.4036 1.75269 49.2822 1.09424 50.1691 0.752317C51.0519 0.411976 51.8773 0.405099 52.5617 0.864794L52.5617 0.864837C53.2045 1.29648 53.5206 2.00425 53.61 2.89375C53.6999 3.78784 53.5516 4.80141 53.3256 5.72702C51.3171 13.9307 47.6019 21.6201 42.4217 28.2948L43.1646 28.9604C49.0654 23.2435 55.4583 17.3848 63.3993 16.5072C65.0585 16.324 66.736 16.4571 67.8171 17.4412C69.046 18.5603 69.1955 20.6312 68.4287 22.2675C67.6617 23.9041 66.1934 25.1404 64.6028 26.2428C58.5091 30.4451 51.3009 32.74 43.8967 32.835L43.8596 33.8331C51.4698 34.4974 58.7255 37.3446 64.7535 42.0318C65.834 42.8749 66.891 43.9998 67.5005 45.1794C68.1082 46.3554 68.2386 47.5085 67.6331 48.5203C66.9186 49.7141 65.3683 50.232 63.7566 50.4381L63.7553 50.4382C55.248 51.5488 46.8131 46.6072 41.8094 39.4452C41.1867 38.3948 40.5545 37.3582 39.9265 36.3351L39.0565 36.8269C39.6173 37.9082 40.2536 38.9592 40.9567 39.9693C44.8257 46.5008 48.2107 53.3726 48.004 60.7396L48.004 60.7397C47.972 61.8931 47.7862 63.1051 47.3629 64.1353C46.9408 65.1626 46.2977 65.976 45.3646 66.4081L45.3643 66.4082C43.925 67.0761 42.0705 66.5959 40.763 65.488C39.4545 64.3792 38.6259 62.7795 37.918 61.0943C35.1802 54.5215 34.2591 47.3529 35.2254 40.333C35.3881 39.4185 35.5443 38.5062 35.6988 37.5995L34.7164 37.4133C34.5253 38.3281 34.3661 39.247 34.2386 40.1684C33.0392 46.9016 31.5138 53.5889 27.7759 59.1449C27.0249 60.2589 26.0098 61.3471 24.8966 62.0273C23.7869 62.7055 22.6367 62.9485 21.5417 62.5055L21.5416 62.5055C20.3701 62.0318 19.7162 60.9726 19.4378 59.6017C19.1587 58.2268 19.2782 56.6129 19.5982 55.2038C21.3551 47.539 25.3591 40.5711 31.0987 35.1897L30.5168 34.3863C22.424 38.8126 12.6044 40.0046 3.69554 37.6246L3.69496 37.6244C3.04519 37.4517 2.39962 37.2397 1.85579 36.9338C1.31517 36.6297 0.904453 36.2495 0.678525 35.7515L0.678389 35.7512C0.394956 35.1276 0.454313 34.4279 0.76666 33.7191C1.08036 33.0073 1.63394 32.3284 2.25369 31.8084C6.02466 28.6452 11.5492 28.6463 16.657 29.3307L16.6571 29.3307C21.676 30.003 26.6232 31.1301 31.4376 32.6982L31.7659 31.7538C23.5173 28.7036 15.1928 24.8093 10.2971 17.7156C9.84805 17.064 9.45438 16.3084 9.28706 15.5842C9.1207 14.8642 9.18843 14.2341 9.57016 13.7388L9.57044 13.7384C9.89417 13.3175 10.385 13.08 10.9974 12.9786C11.6134 12.8765 12.3108 12.9204 12.9747 13.0278L12.977 13.0281C22.4532 14.516 29.7993 21.8838 36.5427 29.0138L37.5894 30.1206L37.4022 28.6088L37.3692 28.342Z" fill="#FEF568" stroke="#2D1942"/>
<path d="M44.1059 33.603C44.1059 38.7918 39.8949 42.999 34.6992 42.999C29.5035 42.999 25.2925 38.7918 25.2925 33.603C25.2925 28.4143 29.5035 24.207 34.6992 24.207C39.8949 24.207 44.1059 28.4143 44.1059 33.603Z" fill="#F59AC3" stroke="#2D1942"/>
</g>
<defs>
<clipPath id="clip0_1196_25521">
<rect width="69.398" height="67.2065" fill="white"/>
</clipPath>
</defs>
</svg>
