<svg width="126" height="92" viewBox="0 0 126 92" fill="none" xmlns="http://www.w3.org/2000/svg">
<path d="M125.132 45.7177C125.132 58.1431 118.213 69.4358 106.939 77.6408C95.6661 85.8454 80.0678 90.9355 62.8159 90.9355C45.5641 90.9355 29.9657 85.8454 18.6926 77.6408C7.41897 69.4358 0.5 58.1431 0.5 45.7177C0.5 33.2923 7.41897 21.9997 18.6926 13.7947C29.9657 5.59003 45.5641 0.5 62.8159 0.5C80.0678 0.5 95.6661 5.59003 106.939 13.7947C118.213 21.9997 125.132 33.2923 125.132 45.7177Z" fill="#77C1FF" stroke="#2D1942"/>
<path d="M68.9531 45.7856L68.8653 46.7769L72.5198 47.4676L68.6949 46.8218L68.4279 47.7799L73.9822 49.9735L68.0983 47.7941L67.6483 48.6797L75.6768 54.0042L67.1786 48.6705L66.5453 49.433L74.1059 57.6272L66.0326 49.3683L65.228 49.9418L70.3972 60.2614L64.7593 49.8557L63.825 50.1665L65.8063 63.6627L63.3075 50.1315H62.3242L59.8254 63.6627L61.8067 50.1665L60.8724 49.8557L55.2345 60.2607L60.4037 49.9418L59.5991 49.3683L51.5257 57.6273L59.0864 49.433L58.4531 48.6705L49.955 54.0042L57.9834 48.6797L57.5334 47.7941L51.6494 49.9735L57.2037 47.7799L56.9368 46.8218L53.1119 47.4676L56.7663 46.7769L56.6786 45.7856L50.0427 45.7181L56.6786 45.6505L56.7663 44.6593L53.1119 43.9686L56.9368 44.6144L57.2037 43.6563L51.6494 41.4626L57.5334 43.6421L57.9834 42.7565L49.955 37.432L58.4531 42.7657L59.0864 42.0031L51.5257 33.8088L59.5991 42.0679L60.4037 41.4944L55.2345 31.1748L60.8724 41.5804L61.8067 41.2696L59.8254 27.7735L62.3242 41.3047H63.3075L65.8063 27.7735L63.825 41.2696L64.7593 41.5804L70.3972 31.1748L65.228 41.4944L66.0326 42.0679L74.1058 33.809L66.5453 42.0031L67.1786 42.7657L75.6768 37.432L67.6483 42.7565L68.0983 43.6421L73.9822 41.4627L68.4279 43.6563L68.6949 44.6144L72.5198 43.9686L68.8653 44.6593L68.9531 45.6505L75.589 45.7181L68.9531 45.7856Z" fill="white" stroke="#2D1942"/>
</svg>
