<svg width="265" height="266" viewBox="0 0 265 266" fill="none" xmlns="http://www.w3.org/2000/svg">
<g clip-path="url(#clip0_1196_25762)">
<path d="M60.747 180.253C57.8493 178.049 54.7714 172.921 52.5813 164.924C50.3978 156.95 49.117 146.197 49.7503 132.838C51.0225 106.004 49.6602 97.3471 47.9871 88.7413C46.3763 80.4364 47.5217 74.5735 51.4597 69.6187C55.4335 64.6189 62.293 60.4842 72.2823 55.777C82.2377 51.0858 99.2584 44.9041 116.3 41.1706C124.82 39.304 133.33 38.0526 140.956 37.9011C148.591 37.7494 155.29 38.7018 160.221 41.1988C163.665 42.9423 165.046 47.2428 164.819 53.3196C164.594 59.3555 162.784 66.9241 160.118 74.8554C154.789 90.713 146.092 107.875 140.081 116.833C139.009 118.43 137.725 120.409 136.255 122.675C129.412 133.222 118.531 149.992 106.26 163.414C98.805 171.568 90.8768 178.44 83.0733 181.934C75.2965 185.415 67.6899 185.529 60.747 180.253Z" fill="#FFA497" stroke="#2D1942"/>
<path d="M150.818 107.381C145.29 117.836 132.541 137.236 118.327 154.16C111.221 162.621 103.761 170.448 96.6666 176.225C89.5512 182.019 82.8845 185.683 77.3546 185.956C66.1802 186.507 58.8333 180.661 55.6291 172.349C52.4124 164.004 53.3657 153.142 58.9372 143.745C64.5368 134.301 73.9831 124.965 83.7272 115.598C84.4095 114.943 85.0932 114.286 85.7772 113.63C94.8346 104.94 103.922 96.2207 110.072 87.4222C113.118 83.0635 116.128 77.8062 119.219 72.4073C119.482 71.9482 119.745 71.488 120.009 71.0273C123.385 65.1381 126.873 59.1505 130.645 53.9756C134.42 48.7971 138.452 44.472 142.901 41.8777C147.329 39.2952 152.176 38.4225 157.64 40.1518C163.083 41.8746 166.123 45.4386 167.469 50.1933C168.825 54.9841 168.464 61.0049 167.011 67.585C164.106 80.7385 156.888 95.8958 150.818 107.381Z" fill="#F8DCD8" stroke="#2D1942"/>
<path d="M159.934 77.6517L159.934 77.6521C158.3 83.0598 152.546 94.9294 145.41 107.631C138.279 120.321 129.806 133.774 122.764 142.345L123.15 142.663L122.764 142.345C117.291 149.006 109.895 157.472 102.392 164.771C98.6412 168.42 94.8698 171.772 91.3042 174.459C87.7329 177.151 84.3946 179.155 81.508 180.136C74.867 182.388 67.0441 178.802 63.3584 171.453C61.5419 167.831 60.8861 161.05 62.8227 153.336C64.7537 145.644 69.2498 137.084 77.6521 129.912C94.6282 115.423 109.306 101.52 117.305 91.0236C119.326 88.3728 121.592 84.2631 124.052 79.6439C124.482 78.8363 124.919 78.0125 125.361 77.1771C127.459 73.2177 129.694 68.9982 132.053 65.0135C134.91 60.1854 137.929 55.7354 141.073 52.5361C144.226 49.3266 147.423 47.4573 150.642 47.6043C154.003 47.7578 156.56 48.6178 158.439 50.0527C160.314 51.485 161.557 53.5239 162.233 56.1195C163.592 61.3426 162.633 68.7455 159.934 77.6517Z" fill="#F8DCD8" stroke="#2D1942"/>
<path d="M130.158 101.989L130.158 101.989C132.368 102.778 135.08 104.785 138.263 107.621C141.014 110.071 144.07 113.096 147.408 116.4C147.919 116.905 148.436 117.418 148.96 117.935C156.839 125.719 166.159 134.708 176.434 141.044L176.434 141.044C184.751 146.16 196.133 150.244 206.212 153.86C206.55 153.982 206.887 154.102 207.222 154.223C212.395 156.08 217.178 157.816 220.997 159.515C222.906 160.364 224.563 161.198 225.9 162.028C227.243 162.861 228.235 163.671 228.843 164.46C229.676 165.543 229.959 167.052 229.726 168.939C229.493 170.826 228.751 173.032 227.611 175.435C225.333 180.237 221.516 185.724 217.243 190.831C212.972 195.936 208.267 200.637 204.231 203.87C202.211 205.489 200.376 206.726 198.858 207.466C198.098 207.836 197.436 208.073 196.882 208.176C196.324 208.281 195.917 208.242 195.634 208.114C183.755 202.75 171.299 190.529 161.024 178.625C153.418 169.814 147.056 161.237 143.021 155.798C141.606 153.891 140.477 152.37 139.682 151.359C129.016 137.785 119.201 116.544 118.027 113.821L118.027 113.821C117.504 112.61 117.741 111.226 118.545 109.778C119.348 108.33 120.684 106.888 122.212 105.633C123.737 104.38 125.427 103.337 126.911 102.676C127.653 102.345 128.332 102.116 128.904 102.002C129.488 101.884 129.904 101.898 130.158 101.989Z" fill="#FFA497" stroke="#2D1942"/>
<path d="M74.0755 68.2573C74.2516 68.4377 74.3216 68.5584 74.3461 68.6265C74.3627 68.6725 74.3568 68.6847 74.3532 68.692C74.3529 68.6926 74.3526 68.6932 74.3523 68.6937C74.3404 68.7206 74.2994 68.7825 74.1767 68.8772C74.0568 68.9698 73.8914 69.0692 73.6754 69.1833C73.5095 69.2709 73.3175 69.3643 73.1075 69.4664C72.2683 69.8746 71.141 70.4228 70.2363 71.3059C69.8674 71.6659 69.4983 72.0479 69.1299 72.4291C68.3903 73.1946 67.654 73.9567 66.9304 74.5296C66.3938 74.9545 65.9281 75.2198 65.5407 75.305C65.1945 75.3813 64.9132 75.3174 64.6424 75.04C64.3067 74.6961 63.918 74.044 63.5587 73.1814C63.2045 72.3311 62.8968 71.3201 62.7022 70.2959C62.5071 69.2691 62.4296 68.2496 62.5217 67.3769C62.6147 66.4948 62.8733 65.8283 63.2855 65.4261C63.6652 65.0555 64.3704 64.8662 65.384 64.9051C66.3745 64.9431 67.5474 65.1953 68.728 65.5696C69.9048 65.9427 71.0669 66.43 72.03 66.9231C73.0074 67.4236 73.7332 67.9065 74.0755 68.2573Z" fill="#F8DCD8" stroke="#2D1942"/>
<path d="M72.6157 120.593C73.2105 121.203 73.1627 121.471 73.1071 121.596C73.0609 121.699 72.9554 121.831 72.7446 121.994C72.5365 122.154 72.2595 122.32 71.9152 122.502C71.6421 122.646 71.331 122.797 70.9941 122.961C69.6751 123.604 67.96 124.439 66.5746 125.791C66.0089 126.343 65.436 126.936 64.8606 127.531C63.6886 128.744 62.506 129.967 61.3531 130.88C60.4991 131.557 59.7251 132.007 59.0514 132.155C58.4188 132.295 57.8733 132.172 57.373 131.66C57.1613 131.443 57.0037 131.088 56.937 130.558C56.8707 130.032 56.9004 129.378 57.0205 128.622C57.2605 127.11 57.848 125.271 58.6267 123.389C59.4039 121.511 60.3628 119.611 61.3325 117.982C62.307 116.344 63.2749 115.009 64.0637 114.239C64.4337 113.878 64.7805 113.683 65.1005 113.595C65.418 113.508 65.7398 113.519 66.0764 113.617C66.7718 113.82 67.5126 114.393 68.2891 115.216C69.057 116.029 69.8053 117.025 70.5335 118.002C70.5581 118.035 70.5827 118.068 70.6073 118.101C71.2989 119.028 71.9801 119.942 72.6157 120.593Z" fill="#F8DCD8" stroke="#2D1942"/>
<path d="M105.717 68.8903C106.692 69.8894 106.594 71.2699 105.806 72.8602C105.026 74.4356 103.646 76.0315 102.427 77.2206C101.787 77.8457 101.038 78.7623 100.26 79.7143L100.256 79.7193L100.249 79.7276C99.4617 80.6908 98.6345 81.7031 97.8124 82.563C96.9793 83.4344 96.1961 84.1006 95.5096 84.4114C95.1727 84.5639 94.8899 84.6163 94.6532 84.5906C94.427 84.5659 94.201 84.4657 93.9727 84.2318C93.3103 83.5531 92.0419 82.7848 90.6337 82.0004C89.9956 81.645 89.3304 81.2872 88.6577 80.9254C87.796 80.462 86.9222 79.992 86.0775 79.512C84.5831 78.6628 83.2944 77.8437 82.5323 77.1078C82.1469 76.7357 81.951 76.4358 81.8908 76.2133C81.8633 76.1118 81.8661 76.0341 81.8849 75.9686C81.904 75.9019 81.949 75.8165 82.0529 75.7151C82.3066 75.4675 82.8259 75.1244 83.5962 74.7126C84.3531 74.308 85.3122 73.8578 86.4101 73.3889C88.6053 72.4514 91.3327 71.449 94.0599 70.5977C96.7897 69.7456 99.5025 69.0503 101.672 68.7205C102.759 68.5553 103.689 68.485 104.408 68.5257C105.159 68.5682 105.556 68.7262 105.717 68.8903Z" fill="#F8DCD8" stroke="#2D1942"/>
<path d="M63.0227 89.7116C63.9781 90.6905 64.5979 92.4733 64.6941 94.3175C64.7907 96.1696 64.3511 97.8987 63.4043 98.8229C62.4882 99.717 60.9137 99.9026 59.1888 99.5256C57.483 99.1527 55.7988 98.2612 54.8073 97.2453C53.8345 96.2486 53.0388 94.3793 52.765 92.4674C52.6294 91.5201 52.6264 90.591 52.7803 89.7844C52.9346 88.9754 53.2398 88.3217 53.6927 87.8797C54.1369 87.4462 54.7859 87.1854 55.5926 87.094C56.3978 87.0027 57.324 87.0851 58.2691 87.3029C60.1728 87.7418 62.0369 88.7017 63.0227 89.7116Z" fill="#F8DCD8" stroke="#2D1942"/>
<path d="M92.5963 99.1515C93.0512 99.6175 93.2435 100.103 93.2703 100.599C93.2978 101.109 93.1522 101.669 92.8605 102.268C92.2724 103.474 91.1568 104.707 90.0636 105.774C89.1052 106.709 87.8142 107.226 86.4747 107.209C85.1351 107.193 83.8567 106.645 82.9209 105.686C82.4782 105.232 82.1408 104.491 81.9372 103.543C81.7356 102.604 81.6759 101.512 81.7485 100.409C81.8211 99.3071 82.0247 98.2129 82.3383 97.2724C82.6548 96.3235 83.0697 95.5721 83.5381 95.1149C83.9404 94.7222 84.5162 94.5769 85.2767 94.6729C86.0428 94.7695 86.9329 95.1063 87.8572 95.5952C89.7028 96.5715 91.5547 98.0843 92.5963 99.1515Z" fill="#F8DCD8" stroke="#2D1942"/>
<path d="M96.3351 53.3185C97.2672 54.2735 97.5947 55.7105 97.4039 57.2147C97.2133 58.7173 96.5126 60.2046 95.5049 61.1882C94.4944 62.1745 92.923 62.9009 91.3464 63.1134C89.7637 63.3267 88.2881 63.0113 87.3691 62.0698C86.3662 61.0422 85.4568 59.3865 85.0674 57.7355C84.6733 56.0651 84.8438 54.5659 85.7522 53.6794C86.2206 53.2221 86.9818 52.8256 87.9381 52.5322C88.8859 52.2414 89.9848 52.0644 91.0882 52.0186C92.1921 51.9727 93.2832 52.0589 94.2168 52.2832C95.1596 52.5097 95.8925 52.865 96.3351 53.3185Z" fill="#F8DCD8" stroke="#2D1942"/>
<path d="M122.432 45.7875C123.368 46.7463 123.884 48.0376 123.868 49.3772C123.852 50.7167 123.305 51.9948 122.346 52.9303C122.019 53.2496 121.677 53.6013 121.325 53.9642C120.448 54.8672 119.503 55.8391 118.549 56.5526C117.886 57.0489 117.278 57.3708 116.747 57.4627C116.253 57.5482 115.813 57.4401 115.399 57.0159C114.951 56.5573 114.569 55.7627 114.296 54.7337C114.027 53.7172 113.88 52.5253 113.864 51.3272C113.849 50.1287 113.965 48.9421 114.214 47.9354C114.466 46.9155 114.838 46.1399 115.289 45.6998C116.248 44.7643 117.539 44.248 118.878 44.2644C120.218 44.2808 121.496 44.8286 122.432 45.7875Z" fill="#F8DCD8" stroke="#2D1942"/>
</g>
<defs>
<clipPath id="clip0_1196_25762">
<rect width="170.208" height="204.298" fill="white" transform="translate(0 118.888) rotate(-44.3055)"/>
</clipPath>
</defs>
</svg>
