<svg width="184" height="184" viewBox="0 0 184 184" fill="none" xmlns="http://www.w3.org/2000/svg">
<g clip-path="url(#clip0_1196_25481)">
<path d="M137.908 46.8493C162.714 72.3328 162.165 113.101 136.681 137.907C111.198 162.713 70.4297 162.164 45.6235 136.68C20.8174 111.197 21.3665 70.429 46.85 45.6228C72.3335 20.8167 113.101 21.3658 137.908 46.8493Z" fill="#F59AC3" stroke="#2D1942"/>
<path d="M114.299 55.7009L114.321 55.7255L114.346 55.7466L114.346 55.7467L114.346 55.747L114.346 55.7471L114.35 55.7505L114.369 55.7673C114.387 55.7829 114.414 55.8074 114.45 55.8408C114.522 55.9077 114.63 56.0105 114.768 56.15C115.045 56.429 115.444 56.8548 115.923 57.4341C116.881 58.5928 118.161 60.3652 119.427 62.805C121.959 67.6817 124.446 75.2373 124.204 85.9101L124.204 85.915C124.078 95.6937 123.136 105.806 121.243 122.034C104.973 123.492 94.8397 124.161 85.0579 124.021L85.0527 124.021C74.3728 123.98 66.8848 121.292 62.077 118.631C59.6717 117.299 57.9341 115.973 56.8016 114.984C56.2353 114.489 55.8203 114.079 55.5489 113.795C55.4131 113.653 55.3133 113.542 55.2484 113.469C55.2159 113.432 55.1922 113.404 55.1771 113.386L55.1608 113.367L55.1575 113.363L55.1574 113.363L55.1571 113.362L55.1571 113.362L55.1312 113.33L55.1002 113.303C54.9007 113.127 54.7135 112.935 54.5091 112.725C46.5907 104.59 46.5845 90.8454 55.0543 82.6007C61.2358 76.5836 70.4549 75.367 77.8359 78.0953L78.8197 78.4589L78.4827 77.4656C75.9542 70.0138 77.4169 60.8325 83.5984 54.8154C92.0681 46.5708 105.808 46.9472 113.726 55.0818C113.921 55.2818 114.109 55.4883 114.299 55.7009Z" fill="#FFA497" stroke="#2D1942"/>
</g>
<defs>
<clipPath id="clip0_1196_25481">
<rect width="129.786" height="129.786" fill="white" transform="translate(0 90.5288) rotate(-44.2283)"/>
</clipPath>
</defs>
</svg>
