<svg width="153" height="209" viewBox="0 0 153 209" fill="none" xmlns="http://www.w3.org/2000/svg">
<path d="M3.43307 165.855C0.264116 162.446 -0.0766335 157.297 2.48155 153.409C12.8463 137.657 21.5735 120.882 28.5231 103.345C42.9344 65.7132 37.6222 32.0356 48.4394 30.1811C57.4333 28.6416 57.3281 41.3954 57.819 49.6355C57.819 49.6355 60.554 34.205 61.0449 24.0579C61.8864 6.56302 79.2606 2.22428 79.5762 25.5275C81.1716 2.22428 85.9403 0.159891 91.0245 0.00243705C96.1088 -0.155017 99.9308 7.29781 100.089 27.9943C100.246 48.6907 96.5822 76.5251 96.5822 76.5251C96.5822 76.5251 112.641 53.7817 134.101 63.054C155.56 72.3263 154.964 104.377 150.493 119.038C149.406 122.624 147.933 125.703 142.095 125.441C135.345 125.108 132.417 119.982 132.505 112.215C132.663 98.5687 130.436 89.4713 122.652 89.0515C114.868 88.6316 102.385 99.2685 102.385 124.654C102.385 150.039 107.645 157.159 115.885 157.789C124.125 158.419 130.103 149.899 133.049 138.23C136.853 123.236 146.548 124.129 149.984 128.835C153.824 134.083 149.318 151.578 143.217 162.075C132.26 180.952 114.623 199.024 73.6153 187.758C68.1874 193.319 62.3564 199.335 57.6498 204.203C52.5079 209.52 43.9565 209.442 38.9201 204.025L3.43307 165.855Z" fill="#9492FF"/>
<path d="M28.99 103.524L28.988 103.529C22.0258 121.098 13.2828 137.903 2.89925 153.684C0.462916 157.387 0.793024 162.281 3.79926 165.514L39.2862 203.684C44.1273 208.892 52.3474 208.967 57.2904 203.855C61.9972 198.988 67.8288 192.971 73.2575 187.408L73.4634 187.197L73.7478 187.276C94.1651 192.885 108.693 191.174 119.461 185.773C130.239 180.368 137.326 171.227 142.785 161.824L142.785 161.824C145.807 156.624 148.441 149.676 149.84 143.378C150.54 140.23 150.927 137.263 150.905 134.771C150.883 132.26 150.446 130.313 149.581 129.13L149.581 129.13C147.978 126.935 144.913 125.63 141.807 126.621C138.709 127.61 135.414 130.942 133.533 138.352C133.533 138.352 133.533 138.352 133.533 138.353L133.049 138.23C130.103 149.899 124.125 158.419 115.885 157.789C107.645 157.159 102.385 150.039 102.385 124.654C102.385 99.2685 114.868 88.6316 122.652 89.0515C130.436 89.4713 132.663 98.5687 132.505 112.215C132.417 119.982 135.345 125.108 142.095 125.441L28.99 103.524ZM28.99 103.524C35.9837 85.2614 38.3458 67.9303 40.1444 54.7335M28.99 103.524L40.1444 54.7335M150.493 119.038C154.964 104.377 155.56 72.3263 134.101 63.054C115.08 54.8354 100.302 71.7697 97.1886 75.7244L150.493 119.038ZM150.493 119.038C149.584 122.037 148.405 124.681 144.63 125.313M150.493 119.038L144.63 125.313M144.646 125.817C146.842 126.025 148.791 127.2 149.984 128.835C153.824 134.083 149.318 151.578 143.217 162.075C132.26 180.952 114.623 199.024 73.6153 187.758C68.1874 193.319 62.3564 199.335 57.6498 204.203C52.5079 209.52 43.9565 209.442 38.9201 204.025L3.43307 165.855C0.264116 162.446 -0.0766335 157.297 2.48155 153.409L144.646 125.817ZM144.646 125.817C143.967 125.926 143.215 125.973 142.381 125.951L144.646 125.817ZM144.63 125.313C143.886 125.249 143.115 125.288 142.335 125.45L144.63 125.313ZM40.1444 54.7335C40.205 54.289 40.265 53.8492 40.3244 53.4143M40.1444 54.7335L40.3244 53.4143M40.3244 53.4143C41.239 46.7231 42.0346 41.2099 43.2679 37.2521M40.3244 53.4143L43.2679 37.2521M43.2679 37.2521C44.5102 33.2656 46.126 31.0851 48.5238 30.674L43.2679 37.2521ZM147.729 123.322C146.621 124.387 144.943 125.068 142.119 124.941L48.5239 30.6739C50.6441 30.311 52.166 30.7929 53.3004 31.7884C54.459 32.8051 55.2692 34.406 55.8374 36.3793C56.7988 39.7182 57.0168 43.9193 57.2104 47.6502C57.2462 48.3408 57.2812 49.0153 57.3199 49.6652L58.3113 49.7227L57.819 49.6355C58.3113 49.7227 58.3113 49.7226 58.3114 49.7225L58.3115 49.7219L58.3119 49.7197L58.3134 49.7112L58.3193 49.6775L58.3424 49.5456C58.3626 49.4297 58.3923 49.2585 58.4303 49.0371C58.5062 48.5944 58.6152 47.9509 58.7474 47.1471C59.0118 45.5396 59.3696 43.2905 59.7427 40.7238C60.4882 35.5946 61.2976 29.1807 61.5443 24.0821L61.5443 24.0819C61.7509 19.7873 62.9708 16.3305 64.6606 13.9166C66.3546 11.4968 68.494 10.1559 70.5476 9.99183C72.5753 9.8298 74.6404 10.8056 76.2465 13.2789C77.8626 15.7675 78.998 19.7607 79.0762 25.5343L80.075 25.5616C80.8722 13.9171 82.4598 7.67871 84.4231 4.33868C85.3951 2.68494 86.4495 1.75946 87.5346 1.22941C88.628 0.695301 89.7965 0.540707 91.04 0.502197C93.254 0.433633 95.3496 1.99069 96.9341 6.34897C98.5153 10.6982 99.5098 17.667 99.5886 27.9981C99.6673 38.3208 98.7925 50.4337 97.8967 59.9741C97.449 64.7425 96.9963 68.8649 96.6556 71.7949C96.4852 73.2598 96.3429 74.4266 96.2431 75.2268C96.1933 75.627 96.1541 75.9355 96.1273 76.1438L96.0968 76.3802L96.089 76.44L96.0871 76.455L96.0866 76.4587L96.0865 76.4596C96.0864 76.4598 96.0864 76.4598 96.5822 76.5251L96.0864 76.4598L96.9903 76.8134L96.9905 76.8136L96.9906 76.8135L96.9909 76.8131L96.9926 76.8107L97.0004 76.7997L97.0335 76.7539C97.0632 76.713 97.1082 76.6516 97.1682 76.5714C97.2882 76.4109 97.468 76.1752 97.7052 75.8775C98.1795 75.2821 98.8826 74.4395 99.7935 73.4561C101.617 71.488 104.266 68.9629 107.574 66.7267C114.19 62.2551 123.386 58.9689 133.902 63.513C144.413 68.0548 149.568 78.1904 151.528 89.1135C153.488 100.035 152.228 111.632 150.015 118.892L150.014 118.893C149.472 120.681 148.862 122.234 147.729 123.322Z" stroke="black"/>
</svg>
