<svg width="154" height="196" viewBox="0 0 154 196" fill="none" xmlns="http://www.w3.org/2000/svg">
<path d="M109.792 100.856L108.892 100.419C109.265 99.6289 109.714 98.7437 110.228 97.7835C112.288 93.7782 114.859 89.003 117.606 83.8998C119.556 80.2774 121.595 76.4897 123.603 72.6947C129.094 62.3206 134.356 51.8918 137.012 44.5431L137.012 44.5428L137.012 44.5426L137.012 44.5423L137.013 44.5421L137.013 44.5419L137.013 44.5416L137.013 44.5414L137.013 44.5412L137.013 44.5409L137.013 44.5407L137.013 44.5405L137.013 44.5402L137.013 44.54L137.013 44.5397L137.013 44.5395L137.013 44.5393L137.013 44.539L137.013 44.5388L137.013 44.5386L137.013 44.5383L137.014 44.5381L137.014 44.5378L137.014 44.5376L137.014 44.5374L137.014 44.5371L137.014 44.5369L137.014 44.5367L137.014 44.5364L137.014 44.5362L137.014 44.536L137.014 44.5357L137.014 44.5355L137.014 44.5352L137.014 44.535L137.014 44.5348L137.014 44.5345L137.014 44.5343L137.015 44.5341L137.015 44.5338L137.015 44.5336L137.015 44.5334L137.015 44.5331L137.015 44.5329L137.015 44.5326L137.015 44.5324L137.015 44.5322L137.015 44.5319L137.015 44.5317L137.015 44.5315L137.015 44.5312L137.015 44.531L137.015 44.5308L137.015 44.5305L137.015 44.5303L137.016 44.53L137.016 44.5298L137.016 44.5296L137.016 44.5293L137.016 44.5291L137.016 44.5289L137.016 44.5286L137.016 44.5284L137.016 44.5282L137.016 44.5279L137.016 44.5277L137.016 44.5274L137.016 44.5272L137.016 44.527L137.016 44.5267L137.016 44.5265L137.016 44.5263L137.016 44.526L137.017 44.5258L137.017 44.5256L137.017 44.5253L137.017 44.5251L137.017 44.5249L137.017 44.5246L137.017 44.5244L137.017 44.5241L137.017 44.5239L137.017 44.5237L137.017 44.5234L137.017 44.5232L137.017 44.523L137.017 44.5227L137.017 44.5225L137.017 44.5223L137.017 44.522L137.018 44.5218L137.018 44.5216L137.018 44.5213L137.018 44.5211L137.018 44.5209L137.018 44.5206L137.018 44.5204L137.018 44.5201L137.018 44.5199L137.018 44.5197L137.018 44.5194L137.018 44.5192L137.018 44.519L137.018 44.5187L137.018 44.5185L137.018 44.5183L137.018 44.518L137.019 44.5178L137.019 44.5176L137.019 44.5173L137.019 44.5171L137.019 44.5169L137.019 44.5166L137.019 44.5164L137.019 44.5162L137.019 44.5159L137.019 44.5157L137.019 44.5154L137.019 44.5152L137.019 44.515L137.019 44.5147L137.019 44.5145L137.019 44.5143L137.019 44.514L137.019 44.5138L137.02 44.5136L137.02 44.5133L137.02 44.5131L137.02 44.5129L137.02 44.5126L137.02 44.5124L137.02 44.5122L137.02 44.5119L137.02 44.5117L137.02 44.5115L137.02 44.5112L137.02 44.511L137.02 44.5108L137.02 44.5105L137.02 44.5103L137.02 44.5101L137.02 44.5098L137.021 44.5096L137.021 44.5094L137.021 44.5091L137.021 44.5089L137.021 44.5087L137.021 44.5084L137.021 44.5082L137.021 44.508L137.021 44.5077L137.021 44.5075L137.021 44.5073L137.021 44.507L137.021 44.5068L137.021 44.5066L137.021 44.5063L137.021 44.5061L137.021 44.5059L137.022 44.5056L137.022 44.5054L137.022 44.5052L137.022 44.5049L137.022 44.5047L137.022 44.5045L137.022 44.5042L137.022 44.504L137.022 44.5038L137.022 44.5035L137.022 44.5033L137.022 44.5031L137.022 44.5028L137.022 44.5026L137.022 44.5024L137.022 44.5021L137.022 44.5019L137.022 44.5017L137.023 44.5014L137.023 44.5012L137.023 44.501L137.023 44.5007L137.023 44.5005L137.023 44.5003L137.023 44.5L137.023 44.4998L137.023 44.4996L137.023 44.4993L137.023 44.4991L137.023 44.4989L137.023 44.4986L137.023 44.4984L137.023 44.4982L137.023 44.4979L137.023 44.4977L137.024 44.4975L137.024 44.4973L137.024 44.497L137.024 44.4968L137.024 44.4966L137.024 44.4963L137.024 44.4961L137.024 44.4959L137.024 44.4956L137.024 44.4954L137.024 44.4952L137.024 44.4949L137.024 44.4947L137.024 44.4945L137.024 44.4942L137.024 44.494L137.024 44.4938L137.024 44.4935L137.025 44.4933L137.025 44.4931L137.025 44.4929L137.025 44.4926L137.025 44.4924L137.025 44.4922L137.025 44.4919L137.025 44.4917L137.025 44.4915L137.025 44.4912L137.025 44.491L137.025 44.4908L137.025 44.4905L137.025 44.4903L137.025 44.4901L137.025 44.4899L137.025 44.4896L137.025 44.4894L137.026 44.4892L137.026 44.4889L137.026 44.4887L137.026 44.4885L137.026 44.4882L137.026 44.488L137.026 44.4878L137.026 44.4875L137.026 44.4873L137.026 44.4871L137.026 44.4869L137.026 44.4866L137.026 44.4864L137.026 44.4862L137.026 44.4859L137.026 44.4857L137.026 44.4855L137.027 44.4853L137.027 44.485L137.027 44.4848L137.027 44.4846L137.027 44.4843L137.027 44.4841L137.027 44.4839L137.027 44.4836L137.027 44.4834L137.027 44.4832L137.027 44.483L137.027 44.4827L137.027 44.4825L137.027 44.4823L137.027 44.482L137.027 44.4818L137.027 44.4816L137.027 44.4814L137.028 44.4811L137.028 44.4809L137.028 44.4807L137.028 44.4804L137.028 44.4802L137.028 44.48L137.028 44.4798L137.028 44.4795L137.028 44.4793L137.028 44.4791L137.028 44.4788L137.028 44.4786L137.028 44.4784L137.028 44.4782L137.028 44.4779L137.028 44.4777L137.028 44.4775L137.028 44.4772L137.029 44.477L137.029 44.4768L137.029 44.4766L137.029 44.4763L137.029 44.4761L137.029 44.4759L137.029 44.4756L137.029 44.4754L137.029 44.4752L137.029 44.475L137.029 44.4747L137.029 44.4745L137.029 44.4743L137.029 44.4741L137.029 44.4738L137.029 44.4736L137.029 44.4734L137.029 44.4731L137.03 44.4729L137.03 44.4727L137.03 44.4725L137.03 44.4722L137.03 44.472L137.03 44.4718L137.03 44.4716L137.03 44.4713L137.03 44.4711L137.03 44.4709L137.03 44.4707L137.03 44.4704L137.03 44.4702L137.03 44.47L137.03 44.4697L137.03 44.4695L137.03 44.4693L137.03 44.4691L137.031 44.4688L137.031 44.4686L137.031 44.4684L137.031 44.4682L137.031 44.4679L137.031 44.4677L137.031 44.4675L137.031 44.4673L137.031 44.467L137.031 44.4668L137.031 44.4666L137.031 44.4664L137.031 44.4661L137.031 44.4659L137.031 44.4657L137.031 44.4655L137.031 44.4652L137.031 44.465L137.032 44.4648L137.032 44.4646L137.032 44.4643L137.032 44.4641L137.032 44.4639L137.032 44.4637L137.032 44.4634L137.032 44.4632L137.032 44.463L137.032 44.4628L137.032 44.4625L137.032 44.4623L137.032 44.4621L137.032 44.4619L137.032 44.4616L137.032 44.4614L137.032 44.4612L137.032 44.461L137.033 44.4607L137.033 44.4605L137.033 44.4603L137.033 44.4601L137.033 44.4598L137.033 44.4596L137.033 44.4594L137.033 44.4592L137.033 44.4589L137.033 44.4587L137.033 44.4585L137.033 44.4583L137.033 44.4581L137.033 44.4578L137.033 44.4576L137.033 44.4574L137.033 44.4572L137.033 44.4569L137.034 44.4567L137.034 44.4565L137.034 44.4563L137.034 44.456L137.034 44.4558L137.034 44.4556L137.034 44.4554L137.034 44.4552L137.034 44.4549L137.034 44.4547L137.034 44.4545L137.034 44.4543L137.034 44.454L137.034 44.4538L137.034 44.4536L137.034 44.4534L137.034 44.4532L137.034 44.4529L137.034 44.4527L137.035 44.4525L137.035 44.4523L137.035 44.452L137.035 44.4518L137.035 44.4516L137.035 44.4514L137.035 44.4512L137.035 44.4509L137.035 44.4507L137.035 44.4505L137.035 44.4503L137.035 44.4501L137.035 44.4498L137.041 44.4259L137.049 44.4027C138.533 40.1988 133.174 36.915 130.073 40.1574C125.123 45.3333 118.857 53.4493 113.074 62.1548C112.939 62.4118 112.803 62.6688 112.668 62.9257C110.844 66.3751 108.989 69.8061 107.193 73.1276C103.451 80.0474 99.967 86.4916 97.5627 91.6356L96.6322 91.2757C98.9519 83.7976 104.413 73.6921 110.635 64.0542C111.156 63.2472 111.683 62.4432 112.213 61.644C117.664 51.2946 122.708 40.9444 124.879 33.0956L125.361 33.2289L124.879 33.0956C125.673 30.2232 126.35 27.151 126.159 24.3185C126.107 23.6543 125.898 23.0121 125.548 22.4454C125.197 21.8782 124.716 21.403 124.145 21.0594C123.574 20.7158 122.929 20.5139 122.263 20.4703C121.598 20.4268 120.932 20.543 120.321 20.8091L120.316 20.8112C119.446 21.1796 118.236 22.2371 116.751 23.9339C115.283 25.61 113.6 27.8457 111.778 30.4825C108.136 35.7544 103.961 42.5936 99.8808 49.6811C94.2292 59.497 88.7697 69.7665 85.1608 76.9768C83.8135 79.6824 82.5993 82.2053 81.5882 84.4757L80.6723 84.0744C81.4137 82.3539 82.6765 79.7038 84.3102 76.4421C85.8596 73.3326 87.5815 69.9862 89.3682 66.5141C91.2612 62.8352 93.2269 59.0152 95.1369 55.1862C100.462 44.5101 105.358 33.7604 107.155 25.6495L107.158 25.6384L107.158 25.6384L107.191 25.5054C108.395 19.9725 101.435 16.4028 97.6525 20.6295L97.6521 20.63C89.982 29.1819 83.929 39.1103 78.3943 49.4896C75.7773 54.3973 73.2789 59.4004 70.7799 64.4048C70.6364 64.6921 70.4929 64.9794 70.3494 65.2667C67.7077 70.5557 65.0578 75.8397 62.2648 80.9936C61.8608 81.7415 61.4295 82.4974 60.9655 83.2439C60.9654 83.2441 60.9653 83.2443 60.9651 83.2446L60.5405 82.9806C57.3515 88.151 49.3773 85.2785 50.2605 79.2679L109.792 100.856ZM109.792 100.856C110.204 100.029 110.646 99.1579 111.115 98.2467M109.792 100.856L111.115 98.2467M82.3214 175.419L82.0185 175.022C69.1296 184.834 53.2892 183.234 40.0363 175.08C26.7767 166.923 16.2 152.25 13.9249 136.109L13.4298 136.179L13.9249 136.109C13.3332 131.918 13.1631 124.565 14.0021 116.67C14.8416 108.771 16.6854 100.389 20.0854 94.1084C21.3974 91.685 23.1291 88.0221 25.1572 83.7324C25.8044 82.3633 26.4819 80.9304 27.1855 79.4535C30.0996 73.337 33.4725 66.4452 37.0426 60.133C40.6168 53.8134 44.3703 48.108 48.0387 44.3441C51.7433 40.5431 55.1689 38.9089 58.1711 40.202L82.3214 175.419ZM82.3214 175.419L82.0186 175.022C97.449 163.279 108.407 146.844 118.496 129.938C122.888 122.577 130.428 107.68 135.421 93.9624C137.919 87.0996 139.768 80.5652 140.277 75.4302C140.532 72.861 140.448 70.679 139.967 68.9939C139.489 67.3196 138.632 66.1724 137.352 65.5793C136.985 65.4092 136.365 65.4773 135.414 66.0164C134.492 66.5387 133.391 67.4286 132.16 68.6209C129.702 71.0007 126.806 74.5041 123.895 78.4209C118.944 85.0798 113.991 92.874 111.115 98.2467M82.3214 175.419L111.115 98.2467" fill="#77C1FF" stroke="#2D1942"/>
<g clip-path="url(#clip0_1196_25817)">
<path d="M39.602 116.725C39.3251 115.884 39.1267 115.202 38.9978 114.73C39.4647 114.587 40.1468 114.388 41.0049 114.171C42.7321 113.735 45.1661 113.223 47.9883 112.926C53.6521 112.33 60.7803 112.606 66.9079 115.971C73.0352 119.336 77.0909 125.205 79.6241 130.306C80.8864 132.849 81.7595 135.178 82.3167 136.871C82.5935 137.712 82.7919 138.395 82.9208 138.867C82.4539 139.01 81.7716 139.209 80.9134 139.426C79.1862 139.863 76.7522 140.375 73.93 140.673C68.2664 141.269 61.1385 140.993 55.0115 137.626C48.8846 134.26 44.8286 128.391 42.2951 123.289C41.0327 120.747 40.1593 118.418 39.602 116.725Z" fill="white" stroke="#2D1942" stroke-width="1.64486"/>
<path d="M69.2379 131.602C68.3375 133.24 66.9723 134.574 65.315 135.437C63.6577 136.299 61.7828 136.65 59.9274 136.446C58.0721 136.242 56.3194 135.492 54.891 134.291C53.4625 133.09 52.4224 131.491 51.9022 129.697C51.382 127.903 51.4052 125.995 51.9689 124.213C52.5326 122.431 53.6115 120.855 55.0691 119.686C56.5267 118.517 58.2975 117.806 60.1574 117.643C62.0173 117.481 63.8829 117.874 65.5185 118.772C66.6046 119.369 67.5625 120.175 68.3373 121.142C69.1121 122.11 69.6887 123.221 70.0341 124.413C70.3796 125.604 70.4871 126.852 70.3505 128.086L71.1679 128.176L70.3505 128.086C70.2139 129.319 69.8358 130.514 69.2379 131.602Z" fill="black" stroke="#2D1942" stroke-width="1.64486"/>
<path d="M39.6266 114.138C39.9615 113.944 40.3668 113.722 40.8375 113.485C42.3721 112.711 44.5952 111.783 47.3368 111.169C52.8057 109.944 60.3562 109.966 68.6789 115.017C77.0331 120.087 80.6123 126.194 82.123 130.993C82.881 133.401 83.1221 135.492 83.1745 136.974C83.1892 137.391 83.1891 137.759 83.1813 138.072L39.6266 114.138Z" fill="black" stroke="#2D1942" stroke-width="1.64486"/>
<path d="M73.7619 139.402L74.125 139.435C74.125 139.435 74.125 139.435 74.125 139.434L73.7619 139.402ZM73.7793 146.141L74.1423 146.174L73.7793 146.141L73.7793 146.141ZM74.7379 139.593C74.7625 139.325 74.6284 139.064 74.3459 139.009L74.7379 139.593Z" fill="#2D1942" stroke="#2D1942" stroke-width="0.729051"/>
<path d="M77.6246 144.707L77.6249 144.707L77.6234 144.693C77.4573 143.106 77.2912 141.519 77.1253 139.932C77.1243 139.898 77.1361 139.865 77.1584 139.84C77.1818 139.813 77.2147 139.797 77.2499 139.794C77.285 139.792 77.3196 139.804 77.346 139.827C77.3725 139.85 77.3887 139.883 77.3911 139.918L77.3908 139.918L77.3923 139.932L77.8904 144.693C77.8909 144.709 77.8885 144.725 77.8834 144.74C77.8778 144.757 77.8689 144.772 77.8573 144.785C77.8457 144.799 77.8317 144.809 77.8159 144.817C77.8002 144.825 77.7831 144.83 77.7658 144.831L77.7902 145.194L77.7658 144.831C77.7484 144.832 77.731 144.83 77.7145 144.824C77.698 144.819 77.6828 144.81 77.6697 144.798C77.6565 144.787 77.6458 144.773 77.6381 144.757L77.3112 144.919L77.6381 144.757C77.6304 144.742 77.6258 144.725 77.6246 144.707Z" fill="#2D1942" stroke="#2D1942" stroke-width="0.729051"/>
<path d="M68.1037 147.208L68.1037 147.209C68.107 147.266 68.0898 147.287 68.0788 147.298C68.0609 147.316 68.0251 147.335 67.9757 147.338C67.9263 147.341 67.8898 147.327 67.8715 147.313C67.8613 147.306 67.8421 147.289 67.8384 147.232C67.7114 145.073 67.9787 142.909 68.6273 140.845C68.6491 140.777 68.6829 140.736 68.7088 140.717C68.728 140.703 68.7513 140.693 68.795 140.701C68.8013 140.702 68.8157 140.707 68.8346 140.72C68.8539 140.733 68.8721 140.75 68.886 140.77C68.9067 140.798 68.9083 140.815 68.9082 140.819C68.2535 142.882 67.9808 145.048 68.1037 147.208ZM68.9081 140.82C68.9081 140.82 68.9081 140.82 68.9082 140.819L68.9081 140.82Z" fill="#2D1942" stroke="#2D1942" stroke-width="0.729051"/>
<path d="M63.6136 146.05L63.6136 146.05C63.6942 144.176 64.1258 142.334 64.886 140.619L63.6136 146.05ZM63.6136 146.05C63.6106 146.121 63.5887 146.169 63.568 146.195C63.5523 146.214 63.5321 146.229 63.4898 146.232C63.484 146.232 63.4692 146.231 63.4476 146.224C63.426 146.216 63.404 146.204 63.3855 146.188C63.3553 146.164 63.35 146.146 63.3491 146.143M63.6136 146.05L63.3491 146.143M63.3491 146.143C63.4261 144.186 63.8719 142.262 64.6629 140.471L63.3491 146.143ZM64.6945 140.422C64.6889 140.427 64.6763 140.441 64.6629 140.471L64.6945 140.422ZM64.6945 140.422C64.7001 140.417 64.7051 140.415 64.7113 140.413M64.6945 140.422L64.7113 140.413M64.7113 140.413C64.7261 140.409 64.7609 140.408 64.8058 140.431M64.7113 140.413L64.8058 140.431M64.8058 140.431C64.8501 140.453 64.8799 140.486 64.8928 140.516M64.8058 140.431L64.8928 140.516M64.8928 140.516C64.9022 140.537 64.9091 140.567 64.8861 140.619L64.8928 140.516Z" fill="#2D1942" stroke="#2D1942" stroke-width="0.729051"/>
<path d="M57.1466 144.854C57.0774 145.114 57.2882 145.389 57.5387 145.438C57.8176 145.493 58.0538 145.306 58.123 145.044L59.4634 140.033C59.5337 139.773 59.3222 139.497 59.0714 139.449M57.1466 144.854L57.4988 144.948L57.4989 144.948C57.4975 144.953 57.4944 144.977 57.5212 145.016C57.5493 145.056 57.5871 145.076 57.6089 145.08L57.6095 145.08C57.6465 145.088 57.6742 145.08 57.6988 145.063C57.727 145.043 57.7563 145.005 57.7706 144.951L57.7708 144.95L59.1112 139.939L59.1115 139.938L59.1115 139.938C59.1128 139.933 59.1162 139.909 59.0895 139.871C59.0624 139.832 59.0262 139.812 59.0044 139.807M57.1466 144.854L57.4989 144.948L58.829 139.973M57.1466 144.854L58.4863 139.844M59.0044 139.807C59.0054 139.807 59.0064 139.807 59.0074 139.808L59.0714 139.449M59.0044 139.807C58.9694 139.802 58.9334 139.81 58.9036 139.83C58.873 139.85 58.8516 139.882 58.8438 139.918L58.8342 139.963L58.829 139.973M59.0044 139.807C59.0036 139.807 59.0029 139.807 59.0022 139.807L59.0714 139.449M59.0714 139.449C58.9422 139.426 58.8091 139.454 58.7002 139.527C58.5912 139.6 58.5149 139.713 58.4874 139.842L58.829 139.973M58.829 139.973L58.8385 139.938L58.498 139.847L58.4863 139.844M58.829 139.973L58.8137 140.004L58.8126 140.006L58.4863 139.844M58.829 139.973L58.4863 139.844" fill="#2D1942" stroke="#2D1942" stroke-width="0.729051"/>
<path d="M52.505 142.455C52.4944 142.427 52.4947 142.412 52.4956 142.406C53.4442 140.992 54.3905 139.578 55.3348 138.164C55.3785 138.099 55.4243 138.066 55.4543 138.055C55.468 138.049 55.4789 138.048 55.4884 138.048C55.4976 138.049 55.5132 138.051 55.5365 138.063C55.541 138.065 55.554 138.073 55.5701 138.092C55.5858 138.11 55.5991 138.133 55.6077 138.156C55.6187 138.185 55.6179 138.2 55.6169 138.206C54.6689 139.618 53.7226 141.032 52.778 142.448C52.7345 142.512 52.689 142.544 52.659 142.556C52.6453 142.561 52.6344 142.563 52.6248 142.562C52.6153 142.562 52.5994 142.559 52.5758 142.548C52.5717 142.546 52.5587 142.537 52.5427 142.519C52.5269 142.5 52.5135 142.478 52.505 142.455ZM55.6163 138.208C55.6163 138.208 55.6164 138.207 55.6167 138.207L55.6163 138.208ZM52.4958 142.405C52.496 142.404 52.4962 142.404 52.4962 142.404L52.4958 142.405Z" fill="#2D1942" stroke="#2D1942" stroke-width="0.729051"/>
<path d="M51.8196 134.834L51.4736 134.949C51.4853 134.984 51.4813 135.012 51.4666 135.04C51.4498 135.071 51.4149 135.107 51.3618 135.13L51.3609 135.13C50.0365 135.701 48.9416 136.701 48.2515 137.968L48.2449 137.98L48.2391 137.993C48.2317 138.009 48.2211 138.024 48.2078 138.037C48.1945 138.049 48.1789 138.058 48.1619 138.064C48.145 138.07 48.127 138.073 48.1091 138.072L48.0876 138.436L48.1091 138.072C48.0911 138.071 48.0737 138.066 48.0577 138.058C48.0417 138.05 48.0274 138.039 48.0158 138.026L47.7382 138.262L48.0158 138.026C48.0041 138.012 47.9954 137.996 47.99 137.979C47.9847 137.962 47.9828 137.944 47.9846 137.925C47.9864 137.907 47.9919 137.89 48.0006 137.874L48.001 137.873C48.7393 136.521 49.9129 135.458 51.3307 134.858L51.34 134.854C51.3497 134.853 51.3686 134.855 51.397 134.87C51.4416 134.893 51.4671 134.929 51.4738 134.95L51.8196 134.834ZM51.8196 134.834C51.7395 134.594 51.4381 134.415 51.1896 134.52L48.5717 138.142C49.2227 136.947 50.2558 136.004 51.5053 135.465M51.8196 134.834C51.909 135.104 51.752 135.359 51.5053 135.465M51.5053 135.465L51.5053 135.465L51.5053 135.465Z" fill="#2D1942" stroke="#2D1942" stroke-width="0.729051"/>
<path d="M43.2653 133.776C44.4048 132.641 45.7808 131.779 47.2901 131.248L47.285 131.258L48.1047 130.999C48.1397 130.988 48.1775 130.991 48.2102 131.007C48.2418 131.023 48.2664 131.05 48.279 131.083C48.2856 131.106 48.2856 131.147 48.2655 131.19C48.2457 131.232 48.2231 131.241 48.2177 131.242L48.31 131.595L48.2183 131.242C46.4363 131.706 44.807 132.63 43.4936 133.922L43.4878 133.928L43.4822 133.934C43.4569 133.961 43.4222 133.977 43.3854 133.979C43.3499 133.981 43.3151 133.97 43.2878 133.947C43.2709 133.931 43.2509 133.895 43.2476 133.849C43.2443 133.803 43.2592 133.782 43.2651 133.776L43.2653 133.776Z" fill="#2D1942" stroke="#2D1942" stroke-width="0.729051"/>
<path d="M46.2802 126.569L46.2804 126.569L46.2805 126.569C46.2811 126.568 46.2841 126.567 46.2928 126.568C46.303 126.569 46.3193 126.573 46.3393 126.583C46.3593 126.594 46.3781 126.609 46.3929 126.626C46.4078 126.642 46.4146 126.656 46.4171 126.664C46.4291 126.7 46.4248 126.726 46.4108 126.753C46.3942 126.783 46.3588 126.82 46.3027 126.845L46.3024 126.845L41.3559 129.017L41.3559 129.018C41.3558 129.018 41.3558 129.018 41.3557 129.018C41.3547 129.018 41.3514 129.019 41.3432 129.018C41.3328 129.017 41.3162 129.013 41.296 129.003C41.2758 128.992 41.2571 128.977 41.2424 128.96C41.2276 128.944 41.2211 128.93 41.2188 128.923L41.2186 128.922C41.2066 128.887 41.2109 128.86 41.2249 128.834C41.2416 128.803 41.2773 128.766 41.3339 128.741C41.3339 128.741 41.334 128.741 41.334 128.741L46.2802 126.569ZM41.1871 128.407C40.9407 128.516 40.7823 128.767 40.8728 129.038L41.1871 128.407Z" fill="#2D1942" stroke="#2D1942" stroke-width="0.729051"/>
<path d="M44.1818 122.871L44.1832 122.87C44.251 122.837 44.3059 122.832 44.3376 122.837C44.3523 122.84 44.3626 122.844 44.3709 122.849C44.3789 122.855 44.3911 122.865 44.405 122.886L44.4055 122.887C44.4084 122.891 44.4153 122.905 44.4196 122.928C44.4237 122.952 44.4238 122.977 44.4197 123.001C44.4137 123.035 44.4037 123.048 44.4004 123.052C42.6217 123.946 40.6418 124.363 38.6547 124.262C38.5788 124.257 38.5289 124.234 38.5039 124.214C38.4923 124.205 38.4855 124.196 38.4809 124.187C38.4764 124.179 38.4707 124.164 38.469 124.139L38.469 124.138C38.4686 124.133 38.4692 124.117 38.4773 124.094C38.4852 124.071 38.4978 124.048 38.5131 124.029C38.5328 124.005 38.5466 123.998 38.5517 123.996C40.4935 124.114 42.4331 123.726 44.1818 122.871ZM38.5538 123.995C38.5538 123.995 38.5534 123.996 38.5526 123.996L38.5538 123.995Z" fill="#2D1942" stroke="#2D1942" stroke-width="0.729051"/>
<path d="M36.1943 118.417L36.1942 118.416C36.1938 118.409 36.1945 118.394 36.2022 118.371C36.2099 118.35 36.2221 118.328 36.2371 118.309C36.261 118.28 36.2776 118.275 36.2813 118.274L42.4129 118.517C42.4129 118.517 42.413 118.517 42.4131 118.517C42.4831 118.52 42.5315 118.542 42.5569 118.563C42.5762 118.578 42.5906 118.598 42.5934 118.64L42.5934 118.641C42.5939 118.648 42.5931 118.663 42.5854 118.685C42.5777 118.707 42.5655 118.729 42.5505 118.747C42.5266 118.777 42.5101 118.782 42.5063 118.783L36.3747 118.539C36.3747 118.539 36.3746 118.539 36.3746 118.539C36.3045 118.537 36.2561 118.515 36.2307 118.494C36.2114 118.478 36.197 118.459 36.1943 118.417Z" fill="#2D1942" stroke="#2D1942" stroke-width="0.729051"/>
</g>
<defs>
<clipPath id="clip0_1196_25817">
<rect width="52.4492" height="33.1575" fill="white" transform="translate(44.0933 101.712) rotate(26.4838)"/>
</clipPath>
</defs>
</svg>
