<svg width="161" height="161" viewBox="0 0 161 161" fill="none" xmlns="http://www.w3.org/2000/svg">
<g clip-path="url(#clip0_1196_25485)">
<path d="M160.501 80.5C160.501 124.683 124.684 160.5 80.501 160.5C36.3182 160.5 0.500977 124.683 0.500977 80.5C0.500977 36.3172 36.3182 0.5 80.501 0.5C124.684 0.5 160.501 36.3172 160.501 80.5Z" fill="#FEF568" stroke="#2D1942"/>
<path d="M120.099 63.695L119.872 64.1866L120.38 64.3736C130.431 68.0732 135.284 74.3653 135.284 80.5001C135.284 86.635 130.431 92.9271 120.38 96.6266L119.873 96.8136L120.099 97.305C124.576 107.024 123.556 114.901 119.22 119.239C114.883 123.576 107.01 124.596 97.2906 120.114L96.7992 119.887L96.6121 120.395C92.9106 130.438 86.6196 135.286 80.4855 135.286C74.3514 135.286 68.0604 130.438 64.3589 120.395L64.1718 119.887L63.6806 120.114C53.9616 124.59 46.0845 123.57 41.7469 119.234C37.4094 114.898 36.3893 107.024 40.8719 97.3053L41.0986 96.8139L40.5908 96.6267C30.5481 92.9252 25.6992 86.6342 25.6992 80.5001C25.6992 74.3661 30.5481 68.0751 40.5908 64.3736L41.0983 64.1865L40.872 63.6952C36.3952 53.9762 37.4152 46.0992 41.7515 41.7615C46.0875 37.4241 53.9614 36.4039 63.6803 40.8866L64.1718 41.1132L64.3589 40.6054C68.0604 30.5627 74.3514 25.7139 80.4855 25.7139C86.6196 25.7139 92.9106 30.5627 96.6121 40.6054L96.7991 41.113L97.2904 40.8867C107.009 36.4099 114.886 37.4299 119.224 41.7661C123.562 46.1022 124.582 53.9761 120.099 63.695Z" fill="#F8DCD8" stroke="#2D1942"/>
</g>
<defs>
<clipPath id="clip0_1196_25485">
<rect width="161" height="161" fill="white"/>
</clipPath>
</defs>
</svg>
