<svg width="146" height="146" viewBox="0 0 146 146" fill="none" xmlns="http://www.w3.org/2000/svg">
<path d="M81.7251 109.709C81.7228 109.855 81.7231 110.018 81.7261 110.197C81.7428 111.188 81.8404 112.597 81.9941 114.294C82.2997 117.673 82.8222 122.146 83.3459 126.63L83.3523 126.685C83.8776 131.183 84.4032 135.686 84.7082 139.08C84.8606 140.775 84.9591 142.205 84.9738 143.223C84.9811 143.729 84.9683 144.155 84.9256 144.467C84.9048 144.619 84.8728 144.777 84.8164 144.911C84.7734 145.013 84.6402 145.284 84.3198 145.334C83.9993 145.384 83.7896 145.168 83.7174 145.084C83.6225 144.973 83.5438 144.833 83.4772 144.695C83.3407 144.411 83.1978 144.009 83.0497 143.526C82.7511 142.552 82.4059 141.16 82.0307 139.5C81.2796 136.176 80.3977 131.727 79.5172 127.285L79.511 127.254C78.6317 122.817 77.7541 118.39 77.0066 115.076C76.6316 113.413 76.292 112.043 76.0036 111.096C75.9517 110.925 75.9021 110.771 75.8551 110.633C75.83 110.777 75.8049 110.937 75.7799 111.114C75.6417 112.094 75.5184 113.501 75.4053 115.202C75.1804 118.586 74.9991 123.086 74.8174 127.597L74.8152 127.652C74.633 132.176 74.4502 136.707 74.2222 140.107C74.1084 141.805 73.9825 143.234 73.838 144.242C73.7663 144.743 73.6871 145.162 73.5959 145.464C73.5515 145.611 73.4953 145.761 73.4183 145.885C73.3596 145.98 73.1858 146.225 72.8621 146.225C72.5385 146.225 72.3647 145.98 72.3059 145.885C72.2289 145.762 72.1726 145.611 72.1281 145.464C72.0368 145.162 71.9574 144.743 71.8855 144.242C71.7405 143.234 71.6139 141.805 71.4994 140.107C71.27 136.707 71.0854 132.176 70.9022 127.651L70.8958 127.494C70.7145 123.017 70.534 118.559 70.312 115.2C70.1996 113.5 70.0772 112.093 69.9405 111.113C69.9171 110.944 69.8935 110.791 69.8699 110.653C69.8251 110.786 69.778 110.934 69.7287 111.096C69.4413 112.044 69.1019 113.414 68.7266 115.077C67.9801 118.384 67.1022 122.8 66.222 127.226L66.2103 127.286C65.3271 131.727 64.4423 136.175 63.69 139.499C63.3143 141.159 62.9689 142.551 62.671 143.525C62.523 144.008 62.3807 144.409 62.2451 144.693C62.1789 144.832 62.1009 144.972 62.0069 145.082C61.9366 145.164 61.7269 145.385 61.4045 145.334C61.0819 145.283 60.9499 145.009 60.9083 144.909C60.8527 144.775 60.8214 144.618 60.801 144.466C60.7591 144.154 60.7468 143.729 60.7546 143.223C60.7702 142.205 60.869 140.775 61.0213 139.079C61.3262 135.685 61.8503 131.181 62.3739 126.682L62.378 126.647C62.9008 122.156 63.4225 117.673 63.7278 114.29C63.8811 112.593 63.9787 111.184 63.9957 110.194C63.9987 110.02 63.9991 109.862 63.9971 109.719C63.9307 109.846 63.8595 109.987 63.7837 110.143C63.3508 111.033 62.8003 112.334 62.1687 113.917C60.9103 117.071 59.3476 121.302 57.7816 125.542L57.7679 125.579C56.199 129.827 54.6276 134.081 53.3634 137.246C52.732 138.826 52.1726 140.146 51.7255 141.061C51.5036 141.516 51.3001 141.89 51.1215 142.149C51.0344 142.275 50.9354 142.401 50.8252 142.495C50.7427 142.566 50.5012 142.75 50.1907 142.649C49.8801 142.549 49.7927 142.258 49.7673 142.152C49.7335 142.011 49.7272 141.851 49.731 141.698C49.7387 141.383 49.7936 140.961 49.8809 140.463C50.0567 139.46 50.3796 138.063 50.7971 136.413C51.6329 133.11 52.8603 128.745 54.0862 124.385L54.0939 124.358C55.3185 120.003 56.5408 115.657 57.3756 112.362C57.7944 110.71 58.1126 109.334 58.2853 108.359C58.3157 108.188 58.3411 108.031 58.3617 107.889C58.2758 108.003 58.1828 108.132 58.0828 108.275C57.515 109.086 56.7665 110.283 55.8934 111.747C54.1546 114.663 51.946 118.593 49.7326 122.533L49.7111 122.571C47.4928 126.519 45.2712 130.473 43.5243 133.398C42.6518 134.859 41.8913 136.075 41.3055 136.908C41.0147 137.322 40.7547 137.659 40.5374 137.887C40.4314 137.998 40.3136 138.106 40.1897 138.182C40.0967 138.239 39.8292 138.382 39.5389 138.234C39.2486 138.086 39.2077 137.785 39.1992 137.676C39.1877 137.532 39.2067 137.373 39.2344 137.222C39.2914 136.912 39.4119 136.504 39.5763 136.025C39.9075 135.062 40.446 133.733 41.1177 132.169C42.4625 129.038 44.3613 124.919 46.2578 120.807L46.2775 120.764C48.1694 116.661 50.0571 112.567 51.3984 109.449C52.072 107.882 52.6029 106.573 52.9271 105.637C52.9842 105.472 53.0341 105.321 53.0767 105.184C52.9746 105.283 52.8633 105.395 52.7431 105.52C52.0554 106.231 51.1288 107.296 50.0372 108.605C47.8636 111.212 45.0668 114.747 42.2636 118.291L42.2354 118.327C39.4258 121.879 36.6118 125.436 34.4277 128.052C33.3368 129.359 32.3951 130.441 31.6858 131.172C31.3336 131.535 31.0239 131.827 30.7734 132.018C30.6513 132.111 30.5179 132.2 30.3837 132.255C30.2827 132.297 29.9963 132.396 29.7329 132.205C29.4694 132.013 29.4758 131.71 29.4843 131.601C29.4955 131.456 29.5391 131.302 29.5901 131.157C29.6947 130.86 29.8774 130.476 30.1145 130.029C30.592 129.129 31.3315 127.901 32.2392 126.461C34.0565 123.578 36.5753 119.807 39.0908 116.041L39.1034 116.022C41.6173 112.258 44.1268 108.501 45.9413 105.625C46.8511 104.183 47.5795 102.973 48.0454 102.099C48.1285 101.943 48.2021 101.8 48.2661 101.67C48.1484 101.753 48.0193 101.847 47.8791 101.953C47.0887 102.548 46.0073 103.456 44.725 104.579C42.1693 106.817 38.8523 109.877 35.5285 112.944L35.5039 112.967C32.1755 116.038 28.8419 119.114 26.277 121.358C24.9959 122.479 23.8972 123.4 23.0825 124.012C22.678 124.316 22.3264 124.556 22.0491 124.706C21.9139 124.779 21.7681 124.845 21.6267 124.879C21.52 124.904 21.2221 124.957 20.992 124.727C20.762 124.497 20.8148 124.199 20.8402 124.093C20.8738 123.951 20.9407 123.805 21.0136 123.67C21.1631 123.393 21.4034 123.041 21.7071 122.637C22.3188 121.822 23.2404 120.724 24.3612 119.443C26.6051 116.878 29.6804 113.545 32.7515 110.216L32.7749 110.191C35.8414 106.868 38.9017 103.551 41.1394 100.995C42.2623 99.7131 43.17 98.6316 43.7658 97.841C43.8717 97.7004 43.9663 97.5711 44.0494 97.4531C43.9197 97.517 43.7771 97.5904 43.6215 97.6733C42.7477 98.139 41.538 98.8674 40.0965 99.7772C37.2273 101.588 33.4808 104.091 29.7253 106.6L29.6824 106.628C25.9166 109.144 22.1452 111.663 19.262 113.481C17.822 114.389 16.5929 115.128 15.6925 115.606C15.2455 115.843 14.8605 116.025 14.563 116.13C14.4179 116.181 14.2634 116.224 14.1184 116.235C14.0087 116.244 13.7073 116.249 13.5156 115.988C13.3233 115.725 13.421 115.439 13.4627 115.337C13.5177 115.202 13.6065 115.068 13.6995 114.946C13.8901 114.695 14.1822 114.385 14.5449 114.033C15.2757 113.324 16.3571 112.382 17.6636 111.292C20.2795 109.108 23.8368 106.295 27.3893 103.486L27.4279 103.455C30.9713 100.654 34.5067 97.8583 37.1129 95.6851C38.4221 94.5934 39.4873 93.6666 40.1992 92.9785C40.3259 92.856 40.4396 92.7428 40.5402 92.6391C40.402 92.6821 40.2493 92.7323 40.0823 92.7901C39.1464 93.1136 37.8378 93.6443 36.2719 94.3178C33.1557 95.6582 29.0651 97.5451 24.9648 99.4365L24.9165 99.4588C20.8045 101.356 16.6865 103.255 13.5557 104.599C11.992 105.271 10.663 105.809 9.69961 106.14C9.22135 106.304 8.81282 106.424 8.50287 106.481C8.35172 106.508 8.19227 106.527 8.04729 106.515C7.93731 106.506 7.6382 106.464 7.49067 106.175C7.34326 105.885 7.48464 105.619 7.5419 105.524C7.61741 105.4 7.7261 105.282 7.83717 105.176C8.06492 104.958 8.40202 104.698 8.81564 104.406C9.6488 103.82 10.8645 103.06 12.3258 102.187C15.2516 100.441 19.2054 98.22 23.1537 96.0027L23.1905 95.9821C27.1308 93.7694 31.0625 91.5615 33.9781 89.8227C35.442 88.9497 36.6392 88.2013 37.4501 87.6332C37.5955 87.5313 37.7263 87.4367 37.8425 87.3495C37.6987 87.3702 37.5393 87.396 37.3646 87.4269C36.3896 87.5993 35.014 87.9176 33.3619 88.3367C30.0749 89.1705 25.7401 90.3909 21.3948 91.6143L21.3404 91.6297C16.9816 92.8569 12.6165 94.0855 9.31322 94.9214C7.66339 95.3388 6.2662 95.6615 5.26266 95.8366C4.76448 95.9235 4.34202 95.978 4.02688 95.985C3.8732 95.9885 3.71271 95.9818 3.57131 95.9472C3.46375 95.9209 3.17563 95.8321 3.07539 95.5235C2.97509 95.2147 3.15621 94.9735 3.22784 94.889C3.322 94.778 3.448 94.6783 3.57442 94.5909C3.83367 94.4116 4.20763 94.2076 4.66198 93.9855C5.57719 93.538 6.89778 92.9788 8.47855 92.3479C11.6436 91.0849 15.8988 89.5163 20.1479 87.9503L20.1863 87.9361C24.4271 86.3731 28.6585 84.8136 31.8118 83.557C33.3949 82.9261 34.6947 82.3761 35.5844 81.9432C35.7436 81.8658 35.8873 81.7932 36.0155 81.7256C35.8692 81.7233 35.7066 81.7236 35.5277 81.7266C34.5371 81.7433 33.1281 81.841 31.4303 81.9946C28.0524 82.3002 23.5796 82.8226 19.0961 83.3462L19.0395 83.3529C14.542 83.8781 10.0382 84.4037 6.64486 84.7087C4.95004 84.8611 3.51961 84.9596 2.50112 84.9743C1.99551 84.9816 1.56977 84.9688 1.25745 84.9261C1.10514 84.9053 0.9477 84.8733 0.813491 84.8169C0.71129 84.7739 0.441032 84.6407 0.390665 84.3203C0.340291 83.9998 0.556725 83.7901 0.640784 83.7179C0.751202 83.6229 0.891271 83.5443 1.02987 83.4777C1.31406 83.3412 1.7154 83.1983 2.19897 83.0501C3.17305 82.7516 4.56496 82.4064 6.22506 82.0312C9.54889 81.2801 13.9973 80.3982 18.4394 79.5177L18.4712 79.5114C22.9074 78.6321 27.3347 77.7546 30.6487 77.0071C32.3114 76.6321 33.6818 76.2925 34.6288 76.0041C34.7995 75.9522 34.954 75.9026 35.0921 75.8556C34.9482 75.8304 34.7877 75.8054 34.6107 75.7804C33.6303 75.6422 32.2238 75.5189 30.5231 75.4058C27.1389 75.1809 22.6385 74.9996 18.1273 74.8179L18.0729 74.8157C13.5485 74.6335 9.01745 74.4507 5.61764 74.2227C3.91961 74.1089 2.49108 73.983 1.48252 73.8385C0.981843 73.7668 0.563158 73.6875 0.261171 73.5964C0.113886 73.552 -0.0367374 73.4957 -0.160566 73.4188C-0.255223 73.36 -0.500488 73.1863 -0.500488 72.8626C-0.500488 72.5389 -0.255309 72.3652 -0.160702 72.3064C-0.0369041 72.2294 0.113698 72.1731 0.26099 72.1286C0.562983 72.0373 0.981687 71.9579 1.4824 71.886C2.49104 71.741 3.91966 71.6144 5.61781 71.4999C9.01787 71.2705 13.5491 71.086 18.0738 70.9027L18.2319 70.8963C22.7085 70.715 27.1661 70.5345 30.5245 70.3125C32.2251 70.2001 33.6317 70.0778 34.6122 69.941C34.7803 69.9176 34.9335 69.8941 35.0718 69.8705L81.7251 109.709ZM81.7251 109.709C81.7926 109.837 81.8652 109.981 81.9427 110.14C82.3756 111.03 82.9256 112.33 83.5564 113.913C84.813 117.066 86.3723 121.297 87.9352 125.537L87.9497 125.577C89.5158 129.826 91.0844 134.081 92.3474 137.246C92.9783 138.827 93.5375 140.148 93.985 141.063C94.2071 141.517 94.4111 141.891 94.5904 142.15C94.6779 142.277 94.7775 142.403 94.8885 142.497C94.973 142.569 95.2142 142.75 95.523 142.649C95.8317 142.549 95.9205 142.261 95.9467 142.153C95.9812 142.012 95.9878 141.851 95.9843 141.698C95.9771 141.382 95.9224 140.96 95.8352 140.462C95.6595 139.458 95.3361 138.061 94.9178 136.411C94.0828 133.118 92.8572 128.77 91.6324 124.424L91.621 124.384C90.3912 120.021 89.1634 115.664 88.3271 112.363C87.9086 110.711 87.5912 109.335 87.4203 108.361C87.3884 108.179 87.362 108.013 87.3413 107.865C87.4324 107.985 87.5318 108.122 87.6392 108.275C88.2086 109.086 88.958 110.283 89.8314 111.747C91.5765 114.671 93.792 118.618 96.0103 122.571L96.0332 122.612C98.2415 126.546 100.451 130.483 102.19 133.399C103.061 134.86 103.821 136.076 104.407 136.909C104.697 137.323 104.958 137.66 105.175 137.887C105.281 137.999 105.4 138.107 105.524 138.183C105.618 138.24 105.885 138.382 106.174 138.234C106.464 138.087 106.506 137.787 106.515 137.677C106.527 137.532 106.508 137.373 106.48 137.222C106.424 136.912 106.304 136.503 106.139 136.025C105.809 135.062 105.27 133.733 104.599 132.169C103.254 129.038 101.355 124.92 99.4583 120.808L99.4359 120.76C97.5445 116.66 95.6577 112.569 94.3173 109.453C93.6438 107.887 93.1132 106.578 92.7896 105.642C92.7318 105.475 92.6816 105.323 92.6386 105.184L81.7251 109.709ZM87.306 38.6822C87.3107 38.6957 87.3104 38.7 87.3077 38.6896C87.1222 38.8838 86.986 38.9716 86.9057 38.9383C86.8255 38.905 86.7913 38.7465 86.7977 38.4781C86.8436 36.5423 88.9958 28.8887 91.1474 21.2372C93.283 13.643 95.4179 6.051 95.4922 4.05369L92.4592 41.3757C92.4603 41.3842 92.4594 41.3854 92.4587 41.3761C92.4585 41.3745 92.4584 41.3726 92.4583 41.3703C92.4582 41.3698 92.4582 41.3694 92.4582 41.3689M87.306 38.6822C87.3013 38.6589 87.2942 38.5944 87.2981 38.4711C87.3031 38.3117 87.3244 38.1 87.3625 37.8365M87.306 38.6822C87.2932 38.6447 87.2423 38.5367 87.0974 38.4765C86.9523 38.4163 86.8397 38.4567 86.8041 38.4741L87.306 38.6822ZM87.3625 37.8365C87.4484 37.7217 87.5414 37.5929 87.6414 37.4501C88.2092 36.639 88.9577 35.4417 89.8308 33.9778C91.5698 31.0622 93.7787 27.1309 95.9924 23.191L96.0131 23.1541C98.2314 19.2061 100.453 15.2526 102.2 12.327C103.072 10.8657 103.833 9.65006 104.419 8.81687C104.71 8.40323 104.969 8.06617 105.187 7.83842C105.293 7.72737 105.411 7.61869 105.534 7.54309C105.628 7.48627 105.895 7.34305 106.185 7.49129C106.476 7.63951 106.516 7.9401 106.525 8.0488C106.536 8.19344 106.518 8.3526 106.49 8.50358C106.433 8.81321 106.312 9.22152 106.148 9.69972C105.817 10.663 105.278 11.992 104.606 13.5559C103.262 16.687 101.363 20.8057 99.4664 24.9185L99.4467 24.9613C97.5548 29.0643 95.6671 33.1582 94.3258 36.2766C93.6522 37.8428 93.1212 39.1518 92.7971 40.088C92.74 40.253 92.6901 40.4041 92.6475 40.5412M87.3625 37.8365C87.3831 37.6946 87.4085 37.5376 87.4389 37.3657C87.6116 36.3907 87.9298 35.015 88.3485 33.3627C89.1834 30.0685 90.4057 25.7221 91.6302 21.3673L91.638 21.3397C92.8639 16.9804 94.0913 12.6149 94.9271 9.31176C95.3446 7.66197 95.6675 6.26506 95.8433 5.26202C95.9306 4.76406 95.9855 4.34206 95.9932 4.02751C95.997 3.87415 95.9907 3.7141 95.9568 3.57315C95.9315 3.46755 95.8441 3.17636 95.5335 3.0757C95.223 2.97511 94.9815 3.15944 94.899 3.22996C94.7888 3.32414 94.6898 3.45 94.6027 3.57636C94.4241 3.83552 94.2206 4.20934 93.9987 4.66367C93.5516 5.57881 92.9922 6.8991 92.3608 8.47956C91.0966 11.6439 89.5252 15.8979 87.9563 20.146L87.9426 20.183C86.3766 24.4232 84.8139 28.6545 83.5555 31.8083C82.9239 33.3914 82.3734 34.6917 81.9405 35.5822C81.8647 35.7382 81.7935 35.8794 81.7271 36.0058C81.7251 35.863 81.7255 35.7048 81.7285 35.5313C81.7455 34.5413 81.8431 33.1325 81.9964 31.4348C82.3017 28.0521 82.8234 23.5704 83.3461 19.0794L83.3503 19.0429C83.8739 14.5445 84.398 10.0397 84.7029 6.64577C84.8552 4.95062 84.954 3.52011 84.9696 2.50176C84.9774 1.99619 84.9651 1.57077 84.9232 1.2589C84.9028 1.10684 84.8715 0.949796 84.8159 0.815966C84.7743 0.715847 84.6423 0.441884 84.3197 0.391211C83.9973 0.340554 83.7876 0.560718 83.7173 0.643211C83.6233 0.753504 83.5453 0.893333 83.4791 1.03179C83.3435 1.31575 83.2011 1.71688 83.0532 2.20042C82.7553 3.1744 82.4099 4.56616 82.0342 6.22618C81.2819 9.54983 80.3971 13.9979 79.5139 18.4396L79.5022 18.4988C78.622 22.9255 77.7441 27.3411 76.9976 30.6483C76.6223 32.311 76.2829 33.6816 75.9955 34.629C75.9462 34.7915 75.8991 34.9392 75.8543 35.0722C75.8307 34.9339 75.8071 34.7807 75.7837 34.6127C75.647 33.6322 75.5246 32.2256 75.4122 30.5249C75.1902 27.1666 75.0097 22.709 74.8284 18.2324L74.822 18.0743C74.6388 13.5496 74.4542 9.01834 74.2248 5.61829C74.1103 3.92014 73.9837 2.49152 73.8387 1.48289C73.7668 0.982173 73.6873 0.563469 73.5961 0.261476C73.5516 0.114185 73.4953 -0.0364171 73.4183 -0.160214C73.3595 -0.254821 73.1857 -0.5 72.8621 -0.5C72.5384 -0.5 72.3646 -0.254736 72.3059 -0.160078C72.2289 -0.0362498 72.1727 0.114374 72.1283 0.261658C72.0371 0.563645 71.9579 0.982329 71.8862 1.48301C71.7417 2.49157 71.6158 3.92009 71.502 5.61812C71.274 9.01793 71.0912 13.5489 70.909 18.0734L70.9068 18.1278C70.7251 22.639 70.5438 27.1393 70.3189 30.5236C70.2058 32.2242 70.0825 33.6307 69.9443 34.6111C69.9193 34.7881 69.8942 34.9486 69.8691 35.0925L87.3625 37.8365ZM92.6475 40.5412C92.4557 40.7277 92.2961 40.8698 92.1696 40.9677C92.0723 41.0429 92.0163 41.0748 91.995 41.0844M92.6475 40.5412C92.7496 40.4419 92.8609 40.33 92.9811 40.2055C93.6688 39.4938 94.5954 38.4288 95.687 37.1199C97.8605 34.5137 100.657 30.978 103.46 27.4342L103.489 27.3982C106.298 23.8462 109.112 20.2891 111.297 17.6729C112.387 16.3662 113.329 15.2845 114.038 14.5533C114.391 14.1902 114.7 13.898 114.951 13.7071C115.073 13.614 115.206 13.5251 115.341 13.4699C115.441 13.4283 115.728 13.3289 115.991 13.5205C116.255 13.7121 116.248 14.0152 116.24 14.1241C116.229 14.2688 116.185 14.4231 116.134 14.568C116.03 14.8649 115.847 15.2495 115.61 15.6961C115.132 16.5958 114.393 17.8244 113.485 19.2641C111.668 22.1467 109.149 25.9181 106.633 29.6842L106.621 29.7024C104.107 33.4664 101.598 37.2238 99.7829 40.1C98.8731 41.5419 98.1447 42.752 97.6788 43.6263C97.5957 43.7823 97.5221 43.9254 97.4581 44.0554L92.4582 41.3689M92.6475 40.5412C92.5682 40.7955 92.5138 41.0015 92.4837 41.1584C92.4604 41.2799 92.4571 41.3449 92.4582 41.3689M91.995 41.0844C91.9813 41.0886 91.9781 41.0914 91.9883 41.0873C91.9897 41.0867 91.9915 41.086 91.9935 41.0851C91.994 41.0849 91.9945 41.0847 91.995 41.0844ZM91.995 41.0844C92.0329 41.0728 92.1513 41.0503 92.2857 41.1337C92.4183 41.2159 92.4514 41.3299 92.4582 41.3689M115.251 14.1073C115.265 14.1674 115.302 14.2561 115.403 14.3292C115.504 14.4023 115.6 14.4112 115.661 14.406C115.688 14.4037 115.708 14.3988 115.719 14.3953M115.251 14.1073L115.65 14.4356C115.687 14.4114 115.71 14.3997 115.719 14.3953M115.251 14.1073C115.244 14.0809 115.243 14.0601 115.243 14.0484M115.251 14.1073L115.226 14.1265C115.237 14.0842 115.242 14.0592 115.243 14.0484M115.719 14.3953C115.731 14.3917 115.733 14.3898 115.721 14.3946C115.721 14.3948 115.72 14.395 115.719 14.3953ZM101.242 49.0061C101.24 49.0135 101.242 49.0095 101.244 48.9967C101.244 48.9972 101.244 48.9977 101.243 48.9981C101.243 49.0015 101.242 49.0042 101.242 49.0061ZM101.242 49.0061C103.066 48.3668 109.668 43.9563 116.273 39.5438C122.847 35.1519 129.424 30.758 131.297 30.0778L101.242 49.0061ZM115.243 14.0484C115.243 14.0477 115.243 14.0471 115.243 14.0465C115.244 14.0341 115.243 14.0361 115.243 14.0484ZM139.278 83.01C140.852 83.3663 142.161 83.6901 143.091 83.9674C142.121 83.9457 140.776 83.8519 139.168 83.7074C135.791 83.404 131.301 82.8817 126.797 82.3576L126.75 82.3521C122.268 81.8303 117.776 81.3075 114.38 81.0009C112.678 80.8473 111.239 80.7469 110.211 80.7292C109.7 80.7204 109.27 80.7316 108.953 80.7718C108.798 80.7915 108.642 80.8216 108.508 80.8737C108.41 80.9118 108.143 81.0299 108.07 81.3332C107.998 81.6366 108.182 81.8627 108.252 81.941C108.348 82.048 108.474 82.1458 108.604 82.2335C108.868 82.4126 109.246 82.617 109.705 82.8404C110.63 83.29 111.959 83.8516 113.546 84.4849C116.712 85.748 120.953 87.3143 125.185 88.8774L125.232 88.8949C129.485 90.4655 133.725 92.0317 136.874 93.2899C138.372 93.8882 139.612 94.4127 140.487 94.8322C139.533 94.6578 138.221 94.3536 136.658 93.9582C133.371 93.1263 129.02 91.903 124.656 90.6758L124.618 90.6653C120.271 89.4429 115.915 88.2178 112.608 87.3797C110.951 86.9598 109.546 86.634 108.533 86.4547C108.03 86.3657 107.604 86.309 107.285 86.299C107.129 86.2941 106.969 86.2991 106.829 86.3297C106.726 86.352 106.444 86.4267 106.325 86.7145C106.205 87.0024 106.351 87.2547 106.408 87.3433C106.486 87.4643 106.595 87.5809 106.709 87.6879C106.941 87.9065 107.283 88.1681 107.701 88.4611C108.544 89.0509 109.767 89.8147 111.235 90.6901C114.161 92.4358 118.102 94.6498 122.034 96.8594L122.081 96.8854C126.033 99.106 129.973 101.32 132.885 103.059C134.274 103.888 135.419 104.603 136.217 105.156C135.301 104.834 134.05 104.326 132.563 103.688C129.447 102.35 125.342 100.457 121.225 98.5588L121.171 98.534C117.076 96.6458 112.973 94.754 109.843 93.4077C108.273 92.7323 106.936 92.1893 105.964 91.8526C105.481 91.6854 105.068 91.5623 104.755 91.5021C104.601 91.4726 104.443 91.4524 104.299 91.4603C104.194 91.466 103.905 91.495 103.741 91.7593C103.576 92.0249 103.681 92.2978 103.723 92.3945C103.781 92.5262 103.871 92.6585 103.966 92.782C104.161 93.0342 104.457 93.3459 104.824 93.7008C105.564 94.4151 106.652 95.361 107.964 96.4555C110.58 98.6372 114.124 101.44 117.661 104.238L117.706 104.274C121.262 107.086 124.807 109.891 127.411 112.065C128.655 113.104 129.676 113.991 130.378 114.663C129.523 114.202 128.365 113.504 126.994 112.64C124.125 110.831 120.366 108.32 116.596 105.802L116.567 105.783C112.81 103.274 109.045 100.759 106.158 98.9377C104.713 98.0256 103.477 97.2808 102.569 96.7969C102.118 96.5564 101.729 96.3707 101.429 96.2625C101.281 96.2095 101.128 96.1649 100.985 96.1506C100.879 96.14 100.589 96.1245 100.387 96.3597C100.183 96.5959 100.243 96.881 100.27 96.9839C100.306 97.1233 100.374 97.2682 100.449 97.4052C100.602 97.6852 100.846 98.0395 101.154 98.4474C101.772 99.2687 102.7 100.373 103.826 101.659C106.072 104.224 109.14 107.549 112.201 110.866L112.231 110.899C115.306 114.231 118.371 117.553 120.605 120.106C121.675 121.329 122.547 122.367 123.135 123.141C122.361 122.553 121.324 121.681 120.101 120.611C117.548 118.378 114.226 115.313 110.894 112.238L110.861 112.208C107.544 109.147 104.219 106.079 101.654 103.833C100.368 102.707 99.2637 101.779 98.4423 101.16C98.0343 100.853 97.6798 100.609 97.3998 100.456C97.2627 100.38 97.1178 100.312 96.9785 100.276C96.8757 100.249 96.5911 100.189 96.3548 100.392C96.1187 100.594 96.1339 100.884 96.1444 100.99C96.1586 101.133 96.2032 101.287 96.2561 101.434C96.3642 101.734 96.5499 102.123 96.7903 102.574C97.2741 103.481 98.0189 104.717 98.931 106.162C100.749 109.043 103.258 112.798 105.763 116.547L105.796 116.598C108.315 120.368 110.826 124.126 112.634 126.996C113.504 128.375 114.204 129.538 114.665 130.395C113.992 129.694 113.102 128.67 112.059 127.42C109.886 124.817 107.082 121.271 104.27 117.715L104.233 117.668C101.436 114.131 98.6342 110.588 96.4526 107.971C95.3581 106.659 94.4119 105.57 93.697 104.831C93.3419 104.463 93.0298 104.167 92.7771 103.972C92.6534 103.876 92.5208 103.787 92.3889 103.729C92.2914 103.687 92.0197 103.583 91.7546 103.746C91.4901 103.909 91.4598 104.198 91.4537 104.304C91.4454 104.448 91.4655 104.606 91.4948 104.76C91.5546 105.074 91.6775 105.486 91.8445 105.969C92.1806 106.941 92.7234 108.278 93.3987 109.848C94.7443 112.976 96.6356 117.076 98.5234 121.169L98.5502 121.227C100.449 125.344 102.342 129.448 103.68 132.564C104.321 134.057 104.83 135.312 105.152 136.229C104.598 135.431 103.881 134.282 103.049 132.887C101.316 129.982 99.1115 126.053 96.8986 122.111L96.8823 122.081C94.6664 118.133 92.4436 114.173 90.6902 111.234C89.8144 109.766 89.0494 108.543 88.4575 107.7C88.1635 107.282 87.9005 106.94 87.6801 106.708C87.5721 106.594 87.4544 106.484 87.3322 106.407C87.2402 106.349 86.9906 106.208 86.706 106.324C86.4194 106.441 86.341 106.718 86.3168 106.825C86.2847 106.966 86.2788 107.127 86.2829 107.283C86.2915 107.603 86.3471 108.03 86.4353 108.534C86.613 109.547 86.9381 110.952 87.3577 112.609C88.198 115.925 89.43 120.297 90.6585 124.655L90.6667 124.684C91.8938 129.038 93.1167 133.377 93.9484 136.657C94.348 138.233 94.6543 139.553 94.8278 140.509C94.4065 139.633 93.8787 138.385 93.2762 136.876C92.0192 133.726 90.4558 129.485 88.888 125.231L88.8697 125.181C87.3098 120.949 85.7468 116.708 84.4854 113.543C83.8529 111.955 83.2917 110.627 82.8419 109.703C82.6184 109.244 82.4136 108.865 82.2339 108.602C82.1459 108.472 82.0475 108.346 81.9396 108.25C81.8595 108.179 81.6326 107.997 81.33 108.072C81.0294 108.145 80.9114 108.409 80.8726 108.508C80.82 108.642 80.7897 108.8 80.7698 108.955C80.7291 109.272 80.7176 109.703 80.7262 110.214C80.7435 111.243 80.8441 112.682 80.9981 114.384C81.305 117.776 81.8286 122.259 82.3513 126.734L82.3591 126.801C82.8849 131.303 83.4087 135.792 83.7123 139.169C83.8582 140.793 83.9522 142.149 83.9719 143.121C83.6923 142.19 83.3657 140.87 83.0061 139.279C82.2586 135.971 81.3795 131.538 80.4981 127.091L80.4893 127.046C79.6118 122.619 78.7324 118.182 77.9821 114.856C77.6061 113.189 77.2599 111.789 76.9603 110.805C76.8114 110.316 76.6683 109.91 76.5319 109.621C76.4652 109.479 76.3877 109.339 76.2961 109.228C76.228 109.145 76.0332 108.93 75.7238 108.955C75.4148 108.979 75.2559 109.221 75.2015 109.313C75.1283 109.438 75.0736 109.588 75.0296 109.738C74.9396 110.045 74.8611 110.468 74.7897 110.974C74.6461 111.993 74.5209 113.43 74.4075 115.135C74.1817 118.533 74 123.043 73.8187 127.546L73.816 127.612C73.6336 132.141 73.4513 136.657 73.2245 140.04C73.1146 141.678 72.9951 143.039 72.8617 144.004C72.7278 143.039 72.6076 141.678 72.4971 140.04C72.2688 136.656 72.0848 132.14 71.9014 127.61L71.8946 127.443C71.7136 122.974 71.5327 118.506 71.3098 115.134C71.1971 113.429 71.0729 111.993 70.9309 110.974C70.8604 110.469 70.7828 110.046 70.6941 109.74C70.6508 109.59 70.5969 109.44 70.5248 109.316C70.4725 109.225 70.3144 108.979 70.0027 108.955C69.6909 108.93 69.4965 109.149 69.4308 109.23C69.3403 109.341 69.2638 109.481 69.1976 109.623C69.0625 109.911 68.9201 110.317 68.7718 110.806C68.4733 111.79 68.1274 113.19 67.7511 114.857C67.0018 118.177 66.1218 122.603 65.2432 127.021L65.2295 127.091C64.3454 131.537 63.4634 135.97 62.7147 139.278C62.3583 140.853 62.0346 142.161 61.7573 143.091C61.779 142.121 61.8728 140.777 62.0173 139.169C62.3207 135.791 62.843 131.301 63.3672 126.798L63.3726 126.751C63.8944 122.268 64.4173 117.776 64.7238 114.38C64.8774 112.678 64.9779 111.239 64.9955 110.211C65.0043 109.7 64.9931 109.27 64.9529 108.954C64.9332 108.799 64.9032 108.642 64.851 108.508C64.8129 108.41 64.6949 108.143 64.3915 108.071C64.0881 107.998 63.862 108.183 63.7838 108.253C63.6768 108.349 63.5789 108.475 63.4913 108.604C63.3122 108.868 63.1077 109.246 62.8843 109.706C62.4347 110.631 61.8731 111.959 61.2399 113.546C59.9768 116.712 58.4107 120.952 56.8477 125.184L56.8298 125.233C55.2593 129.485 53.693 133.725 52.4348 136.875C51.8365 138.372 51.312 139.613 50.8925 140.487C51.0669 139.533 51.371 138.222 51.7665 136.659C52.5984 133.371 53.8217 129.02 55.0489 124.656L55.0596 124.618C56.2819 120.271 57.5069 115.915 58.345 112.608C58.7648 110.952 59.0906 109.547 59.2699 108.534C59.359 108.031 59.4156 107.604 59.4256 107.285C59.4305 107.129 59.4255 106.969 59.395 106.829C59.3727 106.726 59.2979 106.445 59.0102 106.325C58.7223 106.206 58.47 106.352 58.3813 106.409C58.2604 106.486 58.1438 106.596 58.0368 106.709C57.8182 106.942 57.5566 107.283 57.2636 107.702C56.6738 108.544 55.91 109.767 55.0346 111.235C53.2891 114.162 51.0754 118.101 48.866 122.034L48.8393 122.081C46.6186 126.033 44.4043 129.974 42.6657 132.886C41.8365 134.274 41.1213 135.419 40.5684 136.217C40.8903 135.301 41.3981 134.05 42.0365 132.564C43.375 129.448 45.2674 125.343 47.1659 121.225L47.1902 121.173C49.0786 117.077 50.9706 112.974 52.317 109.844C52.9924 108.273 53.5354 106.937 53.872 105.964C54.0393 105.481 54.1624 105.069 54.2226 104.755C54.2521 104.602 54.2723 104.443 54.2644 104.3C54.2586 104.195 54.2296 103.905 53.9654 103.742C53.6998 103.577 53.4268 103.682 53.3302 103.724C53.1985 103.781 53.0661 103.871 52.9427 103.967C52.6905 104.162 52.3787 104.458 52.0239 104.825C51.3096 105.564 50.3636 106.653 49.2692 107.965C47.0873 110.581 44.2843 114.125 41.4865 117.662L41.4511 117.707C38.6385 121.262 35.8338 124.808 33.66 127.411C32.6211 128.656 31.7336 129.677 31.0618 130.378C31.5228 129.523 32.2207 128.365 33.0851 126.994C34.8938 124.125 37.4042 120.367 39.9224 116.596L39.9406 116.569C42.45 112.812 44.9654 109.046 46.7871 106.159C47.6992 104.713 48.4439 103.477 48.9279 102.569C49.1683 102.118 49.3541 101.73 49.4623 101.429C49.5152 101.282 49.5598 101.128 49.5742 100.985C49.5847 100.88 49.6002 100.59 49.365 100.387C49.1288 100.184 48.8437 100.244 48.7409 100.271C48.6015 100.307 48.4565 100.375 48.3195 100.45C48.0396 100.603 47.6852 100.847 47.2773 101.154C46.4561 101.773 45.3519 102.701 44.0662 103.826C41.5007 106.073 38.1762 109.14 34.8586 112.202L34.8258 112.232C31.4937 115.306 28.1713 118.372 25.6185 120.605C24.3953 121.675 23.3574 122.547 22.5838 123.135C23.1722 122.362 24.0437 121.324 25.1138 120.101C27.347 117.549 30.4121 114.226 33.4864 110.895L33.5164 110.862C36.5775 107.545 39.6451 104.22 41.8918 101.654C43.0176 100.369 43.9454 99.2642 44.5644 98.4428C44.8719 98.0348 45.1157 97.6804 45.2691 97.4003C45.3442 97.2633 45.4122 97.1183 45.4485 96.979C45.4752 96.8762 45.5352 96.5917 45.3328 96.3553C45.1306 96.1192 44.8405 96.1344 44.7349 96.1449C44.5916 96.1591 44.4379 96.2038 44.2908 96.2566C43.9902 96.3647 43.6021 96.5504 43.1512 96.7908C42.2433 97.2746 41.008 98.0194 39.5627 98.9315C36.6824 100.749 32.927 103.258 29.1783 105.763L29.1269 105.797C25.3571 108.315 21.5982 110.826 18.7287 112.635C17.35 113.504 16.1864 114.205 15.3297 114.666C16.0311 113.993 17.0547 113.102 18.3044 112.059C20.9078 109.886 24.4532 107.082 28.0096 104.27L28.0566 104.233C31.5935 101.437 35.137 98.6347 37.7533 96.4531C39.0659 95.3586 40.1546 94.4124 40.8942 93.6975C41.2616 93.3424 41.5576 93.0303 41.7528 92.7776C41.8484 92.6539 41.9381 92.5213 41.9957 92.3894C42.0381 92.2919 42.1417 92.0201 41.9785 91.7551C41.8156 91.4906 41.5268 91.4603 41.4208 91.4542C41.2771 91.4459 41.1183 91.466 40.9647 91.4953C40.6509 91.5551 40.2385 91.6779 39.7555 91.845C38.7832 92.1811 37.4468 92.7239 35.8768 93.3992C32.7485 94.7447 28.6485 96.636 24.5559 98.5238L24.4976 98.5507C20.3812 100.45 16.277 102.342 13.1611 103.68C11.6666 104.322 10.4102 104.832 9.493 105.153C10.2913 104.599 11.4415 103.88 12.8384 103.046C15.7502 101.308 19.6908 99.0943 23.6434 96.8747L23.6907 96.8481C27.6233 94.6397 31.5636 92.4269 34.4903 90.6816C35.958 89.8063 37.1815 89.0424 38.0239 88.4521C38.4424 88.1589 38.7837 87.897 39.0162 87.6779C39.1299 87.5707 39.2393 87.4537 39.3168 87.3324C39.3742 87.2426 39.5187 86.9909 39.3997 86.7039C39.2807 86.4168 39.0004 86.3412 38.8964 86.3184C38.7557 86.2875 38.5957 86.2823 38.4394 86.287C38.1201 86.2967 37.6936 86.3532 37.1904 86.4421C36.1775 86.6213 34.7725 86.9472 33.1161 87.3674C29.8159 88.2045 25.4708 89.4279 21.1332 90.6492L21.0694 90.6671C16.7059 91.8956 12.3554 93.12 9.06791 93.9519C7.49038 94.3511 6.16888 94.657 5.21247 94.8299C6.08825 94.4082 7.33769 93.8799 8.84919 93.2767C11.9991 92.0197 16.2401 90.4563 20.4937 88.8886L20.5453 88.8695C24.7772 87.3098 29.0172 85.7471 32.182 84.4859C33.7692 83.8534 35.0975 83.2922 36.022 82.8424C36.4812 82.619 36.8593 82.4142 37.1231 82.2344C37.2522 82.1465 37.3787 82.0481 37.4743 81.9401C37.5452 81.8601 37.7273 81.6332 37.6531 81.3305C37.5795 81.03 37.3155 80.912 37.2163 80.8731C37.0822 80.8206 36.925 80.7903 36.7697 80.7703C36.4525 80.7296 36.0221 80.7182 35.5109 80.7268C34.4817 80.7441 33.0424 80.8447 31.3402 80.9987C27.9488 81.3055 23.465 81.8292 18.9894 82.3519L18.9235 82.3596C14.4212 82.8854 9.93247 83.4092 6.55534 83.7128C4.93117 83.8587 3.57572 83.9527 2.60367 83.9724C3.5351 83.6928 4.85438 83.3662 6.44548 83.0066C9.75343 82.2591 14.187 81.38 18.6338 80.4986L18.6782 80.4898C23.1055 79.6123 27.5423 78.7329 30.8687 77.9826C32.5358 77.6066 33.936 77.2604 34.9201 76.9608C35.4089 76.8119 35.8148 76.6688 36.1038 76.5324C36.2453 76.4656 36.3856 76.3882 36.4971 76.2966C36.5799 76.2285 36.7945 76.0337 36.7701 75.7243C36.7457 75.4153 36.5037 75.2564 36.4114 75.202C36.2871 75.1288 36.1364 75.0741 35.9863 75.0301C35.6796 74.9401 35.2564 74.8615 34.7503 74.7902C33.7316 74.6466 32.2946 74.5214 30.5895 74.408C27.1922 74.1822 22.6816 74.0005 18.179 73.8192L18.1132 73.8165C13.5838 73.6341 9.06804 73.4518 5.68454 73.2249C4.0464 73.1151 2.68553 72.9956 1.72098 72.8622C2.68561 72.7283 4.04671 72.6081 5.68513 72.4976C9.0688 72.2693 13.5848 72.0853 18.1143 71.9019L18.2818 71.8951C22.7507 71.7141 27.219 71.5332 30.5904 71.3103C32.2954 71.1976 33.7321 71.0735 34.7504 70.9315C35.2562 70.8609 35.6789 70.7833 35.9851 70.6947C36.1349 70.6513 36.2852 70.5975 36.4091 70.5254C36.4992 70.473 36.7458 70.315 36.7701 70.0032C36.7945 69.6915 36.5755 69.4971 36.4946 69.4313C36.3834 69.3409 36.2433 69.2643 36.102 69.1982C35.8133 69.063 35.4077 68.9207 34.919 68.7724C33.935 68.4738 32.535 68.1279 30.868 67.7517C27.5481 67.0023 23.1221 66.1223 18.7034 65.2438L18.6341 65.23C14.1877 64.3459 9.75435 63.4639 6.44641 62.7152C4.87185 62.3588 3.56331 62.0351 2.6333 61.7578C3.60344 61.7795 4.94802 61.8733 6.55575 62.0177C9.93369 62.3212 14.4236 62.8435 18.9268 63.3676L18.9739 63.3731C23.4566 63.8949 27.9487 64.4177 31.3445 64.7242C33.0466 64.8779 34.4854 64.9783 35.5137 64.996C36.0245 65.0047 36.4544 64.9936 36.7709 64.9533C36.9257 64.9336 37.0827 64.9036 37.2164 64.8515C37.3142 64.8134 37.5812 64.6953 37.6538 64.3919C37.7264 64.0886 37.5418 63.8624 37.4718 63.7842C37.3761 63.6772 37.2498 63.5794 37.1206 63.4917C36.8566 63.3126 36.4784 63.1081 36.0189 62.8848C35.094 62.4351 33.7656 61.8736 32.1784 61.2403C29.0128 59.9773 24.7726 58.4112 20.5407 56.8483L20.492 56.8303C16.2394 55.2597 11.9995 53.6935 8.85013 52.4352C7.35265 51.837 6.11222 51.3125 5.23744 50.893C6.19159 51.0673 7.50316 51.3715 9.06601 51.767C12.3535 52.5989 16.7046 53.8222 21.0685 55.0493L21.1067 55.0601C25.4533 56.2824 29.8097 57.5074 33.1165 58.3455C34.7731 58.7653 36.1781 59.0911 37.1909 59.2704C37.694 59.3595 38.1203 59.4161 38.4393 59.4261C38.5954 59.431 38.7552 59.426 38.8956 59.3955C38.9984 59.3732 39.2802 59.2984 39.3996 59.0107C39.5191 58.7228 39.3729 58.4704 39.3161 58.3818C39.2385 58.2609 39.1291 58.1443 39.0153 58.0373C38.7829 57.8187 38.4416 57.5571 38.0231 57.2641C37.1806 56.6743 35.9573 55.9104 34.4896 55.0351C31.5631 53.2896 27.6234 51.076 23.6913 48.8667L23.6435 48.8398C19.6913 46.6192 15.751 44.4048 12.8392 42.6662C11.4505 41.837 10.3055 41.1218 9.50757 40.5689C10.4235 40.8909 11.6744 41.3987 13.1608 42.0371C16.2771 43.3755 20.3821 45.2679 24.4994 47.1664L24.5519 47.1906C28.6473 49.079 32.7506 50.9711 35.881 52.3175C37.4513 52.9929 38.788 53.5359 39.7604 53.8725C40.2435 54.0398 40.6558 54.1629 40.9694 54.2231C41.1229 54.2526 41.2815 54.2728 41.4248 54.2649C41.5298 54.2591 41.8193 54.2301 41.9831 53.9659C42.1478 53.7003 42.0431 53.4273 42.0009 53.3307C41.9433 53.199 41.8536 53.0666 41.7581 52.9432C41.563 52.691 41.2671 52.3792 40.8998 52.0244C40.1605 51.3101 39.0721 50.3641 37.7599 49.2697C35.1436 47.0878 31.6 44.2848 28.0628 41.487L28.0181 41.4516C24.4623 38.6389 20.9171 35.8342 18.3133 33.6605C17.0688 32.6216 16.0481 31.734 15.3464 31.0623C16.2013 31.5232 17.3593 32.2212 18.7303 33.0856C21.5992 34.8943 25.3582 37.4047 29.1283 39.9228L29.1561 39.9414C32.9129 42.4507 36.6787 44.9659 39.5659 46.7875C41.0116 47.6996 42.2473 48.4444 43.1555 48.9283C43.6067 49.1687 43.9949 49.3545 44.2956 49.4627C44.4428 49.5156 44.5965 49.5603 44.7396 49.5746C44.8451 49.5851 45.1349 49.6006 45.3374 49.3655C45.5407 49.1292 45.4809 48.8442 45.4542 48.7413C45.418 48.6019 45.3501 48.4569 45.275 48.32C45.1217 48.04 44.878 47.6857 44.5706 47.2777C43.9517 46.4565 43.0241 45.3523 41.8983 44.0667C39.6518 41.501 36.584 38.1763 33.5226 34.8585L33.4928 34.8262C30.4183 31.4942 27.353 28.1718 25.1196 25.619C24.0493 24.3957 23.1777 23.3579 22.5892 22.5843C23.3627 23.1727 24.4004 24.0442 25.6236 25.1143C28.1761 27.3475 31.4983 30.4126 34.8302 33.4869L34.8633 33.5174C38.1806 36.5784 41.5049 39.6458 44.0705 41.8923C45.3562 43.0181 46.4605 43.9459 47.2819 44.5649C47.6899 44.8724 48.0444 45.1162 48.3244 45.2696C48.4615 45.3447 48.6064 45.4127 48.7457 45.449C48.8485 45.4757 49.1331 45.5357 49.3694 45.3333C49.6055 45.1311 49.5903 44.841 49.5798 44.7353C49.5656 44.5921 49.521 44.4384 49.4681 44.2913C49.36 43.9907 49.1743 43.6026 48.9339 43.1517C48.4501 42.2438 47.7053 41.0085 46.7932 39.5632C44.9753 36.6827 42.4662 32.9271 39.9617 29.1782L39.9277 29.1274C37.4093 25.3576 34.8985 21.5987 33.0897 18.7292C32.2206 17.3505 31.5198 16.1868 31.059 15.3302C31.7317 16.0316 32.6222 17.0552 33.6654 18.3049C35.8386 20.9083 38.6424 24.4537 41.4544 28.01L41.4916 28.0571C44.2881 31.594 47.09 35.1375 49.2716 37.7538C50.3661 39.0664 51.3123 40.1551 52.0272 40.8947C52.3823 41.2621 52.6944 41.5581 52.9471 41.7533C53.0708 41.8489 53.2033 41.9386 53.3353 41.9961C53.4328 42.0386 53.7045 42.1422 53.9695 41.979C54.2341 41.8161 54.2643 41.5273 54.2705 41.4213C54.2788 41.2776 54.2587 41.1187 54.2294 40.9652C54.1696 40.6514 54.0467 40.239 53.8797 39.756C53.5436 38.7837 53.0008 37.4473 52.3255 35.8773C50.9798 32.7487 49.0884 28.6483 47.2004 24.5553L47.174 24.4981C45.2751 20.3816 43.3824 16.2774 42.0442 13.1615C41.4024 11.6671 40.8928 10.4106 40.5716 9.49344C41.1261 10.2918 41.8448 11.4419 42.6787 12.8388C44.4171 15.7507 46.6304 19.6913 48.85 23.6438L48.8767 23.6914C51.0851 27.6239 53.2978 31.5641 55.0431 34.4908C55.9183 35.9585 56.6823 37.1819 57.2725 38.0244C57.5657 38.4429 57.8277 38.7842 58.0468 39.0167C58.154 39.1304 58.2709 39.2398 58.3923 39.3173C58.482 39.3746 58.7338 39.5192 59.0208 39.4002C59.3078 39.2812 59.3834 39.0009 59.4063 38.8969C59.4372 38.7562 59.4424 38.5962 59.4377 38.4399C59.428 38.1206 59.3715 37.6941 59.2825 37.1909C59.1034 36.178 58.7775 34.773 58.3573 33.1165C57.5202 29.8167 56.297 25.4719 55.0758 21.1347L55.0576 21.0699C53.8291 16.7064 52.6046 12.3558 51.7728 9.06834C51.3736 7.49081 51.0677 6.16931 50.8948 5.21289C51.3165 6.08868 51.8448 7.33812 52.448 8.84962C53.705 11.9995 55.2684 16.2405 56.8361 20.4941L56.8548 20.5448C58.4147 24.777 59.9775 29.0174 61.2388 32.1825C61.8713 33.7697 62.4325 35.098 62.8823 36.0224C63.1058 36.4817 63.3106 36.8598 63.4903 37.1236C63.5783 37.2527 63.6767 37.3792 63.7846 37.4748C63.8647 37.5457 64.0916 37.7278 64.3942 37.6536C64.6948 37.5799 64.8128 37.316 64.8516 37.2168C64.9042 37.0827 64.9345 36.9255 64.9544 36.7702C64.9951 36.453 65.0066 36.0226 64.998 35.5114C64.9807 34.4822 64.8801 33.0429 64.7261 31.3407C64.4192 27.9496 63.8956 23.4663 63.3729 18.9911L63.3651 18.9241C62.8393 14.4217 62.3155 9.93301 62.0119 6.55589C61.866 4.93171 61.772 3.57626 61.7523 2.60421C62.0319 3.53564 62.3585 4.85491 62.7181 6.44601C63.4656 9.75395 64.3447 14.1875 65.2261 18.6343L65.2348 18.6787C66.1124 23.106 66.9918 27.5428 67.7421 30.8692C68.1181 32.5362 68.4643 33.9364 68.7639 34.9205C68.9128 35.4094 69.0559 35.8152 69.1923 36.1042C69.259 36.2457 69.3364 36.3861 69.4281 36.4975C69.4962 36.5803 69.6909 36.7949 70.0004 36.7705C70.3094 36.7462 70.4683 36.5042 70.5227 36.4118C70.5959 36.2875 70.6506 36.1369 70.6946 35.9867C70.7846 35.68 70.8631 35.2568 70.9345 34.7507C71.0781 33.732 71.2033 32.295 71.3167 30.5899C71.5425 27.1926 71.7242 22.682 71.9055 18.1794L71.9082 18.1136C72.0906 13.5843 72.2729 9.06851 72.4997 5.68502C72.6096 4.04687 72.7291 2.68598 72.8625 1.72144C72.9964 2.68607 73.1166 4.04717 73.2271 5.68561C73.4554 9.06927 73.6394 13.5853 73.8228 18.1148L73.8296 18.2834C74.0106 22.7519 74.1916 27.2197 74.4144 30.5908C74.5271 32.2959 74.6513 33.7325 74.7933 34.7508C74.8638 35.2566 74.9414 35.6793 75.0301 35.9855C75.0734 36.1353 75.1273 36.2856 75.1993 36.4096C75.2517 36.4997 75.4098 36.7462 75.7215 36.7705C76.0333 36.7949 76.2277 36.5759 76.2934 36.495C76.3839 36.3838 76.4604 36.2437 76.5266 36.1024C76.6617 35.8137 76.8041 35.4082 76.9524 34.9194C77.2509 33.9355 77.5968 32.5354 77.9731 30.8685C78.7224 27.5485 79.6024 23.1226 80.481 18.7039L80.4947 18.6346C81.3788 14.1882 82.2608 9.75487 83.0095 6.44694C83.3659 4.87241 83.6896 3.56389 83.9669 2.63389C83.9452 3.60402 83.8514 4.94859 83.7069 6.55629C83.4035 9.93423 82.8812 14.4241 82.357 18.9273L82.3516 18.9743C81.8298 23.4571 81.3069 27.9491 81.0004 31.3449C80.8468 33.047 80.7463 34.4859 80.7287 35.5142C80.7199 36.025 80.731 36.4549 80.7713 36.7713C80.791 36.9262 80.821 37.0832 80.8732 37.2169C80.9113 37.3147 81.0293 37.5817 81.3327 37.6543C81.6361 37.7269 81.8622 37.5422 81.9404 37.4723C82.0474 37.3766 82.1452 37.2503 82.2329 37.1211C82.412 36.8571 82.6165 36.4789 82.8399 36.0194C83.2895 35.0945 83.8511 33.7661 84.4843 32.1789C85.7473 29.0136 87.3131 24.7738 88.8759 20.5423L88.8943 20.4924C90.4649 16.2398 92.0312 12 93.2894 8.85056C93.8877 7.35307 94.4122 6.11263 94.8317 5.23785C94.6573 6.19201 94.3531 7.50358 93.9577 9.06644C93.1258 12.354 91.9025 16.705 90.6753 21.069L90.6647 21.1067C89.4424 25.4535 88.2173 29.81 87.3792 33.117C86.9594 34.7736 86.6336 36.1786 86.4543 37.1914C86.3652 37.6945 86.3086 38.1208 86.2986 38.4398C86.2937 38.5959 86.2987 38.7557 86.3292 38.8961C86.3515 38.9989 86.4262 39.2807 86.714 39.4001C87.0019 39.5196 87.2542 39.3734 87.3429 39.3166C87.4638 39.239 87.5804 39.1296 87.6874 39.0158C87.906 38.7834 88.1676 38.4421 88.4606 38.0236C89.0504 37.1811 89.8142 35.9577 90.6896 34.4901C92.4352 31.5634 94.649 27.6234 96.8584 23.6911L96.8849 23.6439C99.1056 19.6917 101.32 15.7514 103.059 12.8396C103.888 11.4509 104.603 10.3059 105.156 9.50798C104.834 10.4239 104.326 11.6749 103.688 13.1612C102.349 16.2775 100.457 20.3826 98.5583 24.4998L98.5338 24.5529C96.6455 28.6481 94.7536 32.7512 93.4072 35.8815C92.7318 37.4518 92.1888 38.7885 91.8522 39.7609C91.6849 40.244 91.5618 40.6562 91.5016 40.9699C91.4721 41.1234 91.4519 41.2819 91.4598 41.4253C91.4656 41.5303 91.4945 41.8198 91.7588 41.9836C92.0244 42.1483 92.2973 42.0436 92.394 42.0014C92.5257 41.9438 92.6581 41.8541 92.7815 41.7586C93.0337 41.5635 93.3455 41.2676 93.7003 40.9003C94.4146 40.161 95.3605 39.0726 96.455 37.7604C98.6367 35.1443 101.439 31.6009 104.237 28.064L104.273 28.0186C107.086 24.4628 109.89 20.9176 112.064 18.3138C113.103 17.0693 113.991 16.0486 114.662 15.3469C114.201 16.2017 113.503 17.3598 112.639 18.7308C110.83 21.5997 108.32 25.3586 105.802 29.1288L105.783 29.1565C103.274 32.9134 100.759 36.6792 98.9371 39.5664C98.025 41.0121 97.2803 42.2478 96.7963 43.156C96.5559 43.6072 96.3701 43.9954 96.2619 44.2961C96.209 44.4433 96.1644 44.597 96.15 44.7401C96.1395 44.8456 96.124 45.1353 96.3592 45.3378C96.5954 45.5412 96.8805 45.4814 96.9833 45.4547C97.1227 45.4185 97.2677 45.3506 97.4047 45.2755C97.6846 45.1222 98.039 44.8785 98.4469 44.5711C99.2681 43.9522 100.372 43.0246 101.658 41.8988C104.223 39.6524 107.548 36.5848 110.866 33.5236L110.898 33.4933C114.23 30.4188 117.553 27.3535 120.106 25.1201C121.329 24.0498 122.367 23.1781 123.14 22.5897C122.552 23.3632 121.681 24.4009 120.61 25.624C118.377 28.1766 115.312 31.4988 112.238 34.8306L112.207 34.8641C109.146 38.1813 106.079 41.5055 103.832 44.0709C102.707 45.3566 101.779 46.461 101.16 47.2823C100.852 47.6904 100.608 48.0448 100.455 48.3248C100.38 48.4619 100.312 48.6068 100.276 48.7461C100.249 48.849 100.189 49.1335 100.391 49.3699C100.594 49.6059 100.884 49.5908 100.989 49.5803C101.133 49.566 101.286 49.5214 101.433 49.4685C101.734 49.3604 102.122 49.1747 102.573 48.9344C103.481 48.4505 104.716 47.7058 106.161 46.7936C109.042 44.9757 112.798 42.4667 116.546 39.9623L116.597 39.9282C120.367 37.4097 124.126 34.899 126.995 33.0902C128.374 32.2211 129.538 31.5203 130.395 31.0595C129.693 31.7322 128.669 32.6227 127.42 33.6659C124.816 35.8391 121.271 38.6429 117.715 41.4549L117.667 41.4922C114.131 44.2887 110.587 47.0905 107.971 49.2721C106.658 50.3666 105.57 51.3128 104.83 52.0276C104.463 52.3828 104.167 52.6949 103.971 52.9476C103.876 53.0712 103.786 53.2038 103.729 53.3358C103.686 53.4332 103.582 53.705 103.746 53.97C103.909 54.2346 104.197 54.2648 104.303 54.271C104.447 54.2793 104.606 54.2592 104.76 54.2299C105.073 54.1701 105.486 54.0472 105.969 53.8802C106.941 53.544 108.277 53.0013 109.847 52.326C112.976 50.9803 117.076 49.0888 121.169 47.2008L121.227 47.1744C125.343 45.2756 129.447 43.3829 132.563 42.0447C134.056 41.4035 135.311 40.8943 136.228 40.5731C135.43 41.1267 134.281 41.844 132.886 42.6761C129.982 44.4082 126.054 46.6125 122.112 48.825L122.081 48.8423C118.133 51.0582 114.172 53.2811 111.234 55.0345C109.766 55.9103 108.542 56.6753 107.7 57.2672C107.281 57.5612 106.94 57.8242 106.707 58.0446C106.593 58.1526 106.484 58.2703 106.406 58.3925C106.348 58.4845 106.207 58.7341 106.323 59.0187C106.44 59.3052 106.718 59.3837 106.824 59.4079C106.966 59.44 107.126 59.4459 107.283 59.4417C107.603 59.4332 108.03 59.3776 108.533 59.2893C109.546 59.1117 110.952 58.7866 112.608 58.3669C115.924 57.5267 120.296 56.2947 124.655 55.0661L124.684 55.0579C129.038 53.8307 133.376 52.6079 136.657 51.7762C138.232 51.3767 139.552 51.0704 140.509 50.8968C139.633 51.3182 138.385 51.846 136.875 52.4485C133.725 53.7054 129.484 55.2689 125.231 56.8366L125.18 56.8553C120.948 58.4151 116.707 59.9779 113.542 61.2392C111.955 61.8717 110.627 62.4329 109.702 62.8828C109.243 63.1062 108.865 63.311 108.601 63.4907C108.472 63.5787 108.346 63.6771 108.25 63.785C108.179 63.8651 107.997 64.092 108.071 64.3946C108.145 64.6952 108.409 64.8132 108.508 64.8521C108.642 64.9046 108.799 64.9349 108.954 64.9548C109.272 64.9956 109.702 65.007 110.213 64.9984C111.242 64.9811 112.682 64.8805 114.384 64.7265C117.775 64.4197 122.258 63.8961 126.733 63.3734L126.801 63.3656C131.303 62.8397 135.792 62.316 139.169 62.0124C140.793 61.8664 142.148 61.7725 143.121 61.7528C142.189 62.0324 140.87 62.359 139.279 62.7185C135.971 63.4661 131.537 64.3451 127.09 65.2265L127.046 65.2353C122.619 66.1128 118.182 66.9923 114.855 67.7425C113.188 68.1185 111.788 68.4648 110.804 68.7644C110.315 68.9132 109.909 69.0564 109.62 69.1928C109.479 69.2595 109.339 69.3369 109.227 69.4286C109.144 69.4967 108.93 69.6914 108.954 70.0009C108.978 70.3099 109.22 70.4688 109.313 70.5232C109.437 70.5964 109.588 70.6511 109.738 70.6951C110.045 70.785 110.468 70.8636 110.974 70.935C111.993 71.0786 113.43 71.2038 115.135 71.3172C118.532 71.543 123.043 71.7246 127.545 71.906L127.611 71.9086C132.14 72.0911 136.656 72.2734 140.04 72.5002C141.678 72.6101 143.039 72.7296 144.003 72.863C143.039 72.9968 141.677 73.117 140.039 73.2276C136.655 73.4559 132.139 73.6398 127.61 73.8233L127.442 73.8301C122.974 74.011 118.505 74.192 115.134 74.4148C113.429 74.5275 111.992 74.6517 110.974 74.7937C110.468 74.8643 110.045 74.9418 109.739 75.0305C109.589 75.0739 109.439 75.1277 109.315 75.1998C109.225 75.2522 108.978 75.4102 108.954 75.722C108.93 76.0337 109.149 76.2281 109.23 76.2939C109.341 76.3843 109.481 76.4609 109.622 76.527C109.911 76.6621 110.316 76.8045 110.805 76.9528C111.789 77.2513 113.189 77.5973 114.856 77.9735C118.176 78.7229 122.602 79.6029 127.021 80.4815L127.09 80.4952C131.537 81.3793 135.97 82.2612 139.278 83.01ZM107.244 86.7928C107.244 86.7925 107.245 86.7944 107.247 86.7982C107.247 86.7982 107.247 86.7982 107.247 86.7982C107.245 86.7947 107.244 86.7929 107.244 86.7928ZM107.029 87.3101C107.029 87.31 107.031 87.3093 107.035 87.3082C107.035 87.3084 107.035 87.3085 107.036 87.3087C107.032 87.3098 107.03 87.3102 107.029 87.3101ZM104.64 91.994C104.639 91.992 104.638 91.9902 104.637 91.9888C104.633 91.9786 104.636 91.9818 104.64 91.9954C104.64 91.9949 104.64 91.9945 104.64 91.994ZM104.354 92.4587C104.355 92.4587 104.355 92.4587 104.356 92.4587L104.349 92.4597C104.34 92.4608 104.339 92.4599 104.349 92.4591C104.35 92.459 104.352 92.4589 104.354 92.4587ZM101.236 96.721C101.236 96.7209 101.236 96.7223 101.237 96.7249C101.237 96.7249 101.236 96.7248 101.236 96.7247C101.236 96.7223 101.235 96.7211 101.236 96.721ZM100.877 97.145C101.793 98.8488 107.183 104.69 112.573 110.532C117.928 116.335 123.283 122.139 124.249 123.883C124.222 123.871 124.187 123.854 124.144 123.831L100.877 97.145ZM97.1389 100.879C97.1391 100.879 97.1393 100.88 97.1395 100.883C97.1393 100.883 97.139 100.883 97.1388 100.883C97.1387 100.88 97.1388 100.879 97.1389 100.879ZM96.7186 101.242C97.3579 103.066 101.768 109.668 106.181 116.273C110.573 122.847 114.967 129.424 115.647 131.298C115.622 131.281 115.59 131.259 115.551 131.229L96.7186 101.242ZM92.4521 104.362C92.4523 104.358 92.4525 104.355 92.4527 104.353C92.4536 104.346 92.4542 104.35 92.452 104.363C92.452 104.363 92.452 104.362 92.4521 104.362ZM91.9892 104.646C91.9896 104.646 91.9901 104.646 91.9906 104.646C91.9783 104.643 91.9746 104.64 91.9815 104.643C91.9833 104.643 91.9859 104.644 91.9892 104.646ZM105.72 137.343C105.832 137.286 105.928 137.293 105.988 137.308C106.038 137.582 106.028 137.748 105.947 137.789C105.867 137.83 105.727 137.741 105.534 137.54C105.557 137.483 105.608 137.4 105.72 137.343ZM105.514 137.518C104.159 136.068 100.318 129.224 96.4663 122.362C92.0255 114.449 87.5706 106.511 86.8949 106.787C86.2193 107.062 88.688 115.821 91.1497 124.555C93.2858 132.134 95.4167 139.694 95.4835 141.677C95.4647 141.654 95.4412 141.622 95.4128 141.581L105.514 137.518ZM81.2777 109C81.2736 108.997 81.2707 108.995 81.2691 108.993C81.2655 108.99 81.2679 108.991 81.2766 108.999C81.2769 108.999 81.2773 109 81.2777 109ZM35.9066 69.6609C35.9061 69.6611 35.9056 69.6614 35.9052 69.6617C35.9062 69.6609 35.9072 69.6602 35.9081 69.6595C35.919 69.6517 35.9211 69.6524 35.9066 69.6609ZM44.4831 96.7155C44.4832 96.7158 44.483 96.717 44.4826 96.7191C44.4824 96.7192 44.4821 96.7193 44.4819 96.7194C44.4826 96.7164 44.4831 96.715 44.4831 96.7155ZM53.265 104.349C53.2639 104.341 53.2647 104.34 53.2655 104.349C53.2654 104.349 53.2652 104.349 53.265 104.349ZM69.6535 109.808C69.6537 109.808 69.6556 109.81 69.6592 109.816C69.6591 109.816 69.6591 109.817 69.659 109.817C69.6551 109.811 69.6534 109.808 69.6535 109.808ZM76.069 109.812C75.9529 109.571 75.8503 109.446 75.7631 109.453C75.6759 109.46 75.594 109.599 75.5166 109.855C75.5163 109.855 75.516 109.854 75.5159 109.854C75.5157 109.854 75.5159 109.855 75.5165 109.855L76.069 109.812ZM63.9143 108.86C63.9145 108.86 63.9156 108.862 63.9174 108.867C63.9173 108.867 63.9172 108.867 63.917 108.867C63.9149 108.863 63.914 108.86 63.9143 108.86ZM38.6903 87.2978C38.8839 87.1124 38.9713 86.976 38.9378 86.8954C38.9044 86.8148 38.7464 86.7803 38.4788 86.7862C38.4798 86.7845 38.4801 86.7837 38.4799 86.7837C38.4798 86.7837 38.4792 86.7845 38.4782 86.7862L38.6903 87.2978ZM36.7257 81.2771C36.7254 81.2775 36.725 81.2778 36.7247 81.2782C36.7275 81.2741 36.7298 81.2712 36.7313 81.2696C36.7343 81.2661 36.7334 81.2684 36.7257 81.2771ZM35.8705 75.5163C35.8705 75.5164 35.8703 75.5166 35.8699 75.5171C35.8698 75.5171 35.8696 75.517 35.8694 75.517C35.87 75.5165 35.8704 75.5163 35.8705 75.5163ZM36.7289 64.4546C36.9958 64.4187 37.1473 64.3601 37.1675 64.2756C37.1877 64.1912 37.0793 64.0704 36.858 63.9178C36.8626 63.9159 36.8646 63.9148 36.8644 63.9147C36.8642 63.9145 36.8617 63.9154 36.8574 63.9175C35.2623 62.8184 27.8124 60.0669 20.3616 57.3152C12.9572 54.5806 5.55201 51.8456 3.89118 50.7317C3.92008 50.7305 3.95683 50.7301 4.00254 50.7312L36.7289 64.4546ZM41.3821 53.265C41.3823 53.2652 41.3803 53.2656 41.3756 53.266C41.3755 53.2658 41.3753 53.2657 41.3752 53.2655C41.3794 53.2649 41.3818 53.2649 41.3821 53.265ZM44.8474 48.5802C44.8473 48.58 44.8471 48.5797 44.847 48.5795C44.8497 48.5797 44.8512 48.5799 44.8513 48.5801C44.8515 48.5802 44.8502 48.5803 44.8474 48.5802ZM58.4269 38.6908C58.6123 38.8843 58.7487 38.9718 58.8293 38.9383C58.9099 38.9049 58.9445 38.7466 58.9385 38.4786C58.8954 36.546 56.7449 28.9078 54.5931 21.2649C52.4503 13.6542 50.3062 6.03882 50.2404 4.04788C50.2592 4.07124 50.2829 4.10257 50.3113 4.1437L58.4269 38.6908ZM63.9205 36.852C63.916 36.8635 63.9143 36.8654 63.9163 36.8606C63.9171 36.8585 63.9187 36.8552 63.921 36.8508C63.9209 36.8512 63.9207 36.8516 63.9205 36.852ZM64.4551 36.7317C64.4562 36.7327 64.4568 36.7333 64.4567 36.7334C64.4566 36.7334 64.4561 36.7331 64.4551 36.7323C64.4551 36.7322 64.4551 36.7319 64.4551 36.7317ZM81.274 36.7268C81.2625 36.737 81.2615 36.7359 81.2701 36.7294C81.2715 36.7283 81.2732 36.7271 81.2751 36.7257C81.2747 36.7261 81.2743 36.7264 81.274 36.7268ZM81.8049 36.8538C81.8047 36.8533 81.8045 36.8528 81.8043 36.8523C81.8054 36.8544 81.8064 36.8563 81.8072 36.8579C81.8118 36.8676 81.8105 36.8681 81.8049 36.8538ZM95.2252 4.027C95.1076 3.98889 95.0439 3.91708 95.0116 3.86414C95.1698 3.63373 95.294 3.5237 95.3793 3.55135C95.4647 3.57902 95.5006 3.74104 95.4932 4.02053C95.4361 4.04436 95.3425 4.06503 95.2252 4.027ZM97.1445 44.8518C97.1444 44.8518 97.1443 44.8505 97.1444 44.8479C97.1446 44.8478 97.1449 44.8476 97.1451 44.8475C97.1449 44.8504 97.1447 44.8519 97.1445 44.8518ZM104.349 53.2712C104.349 53.2711 104.351 53.2711 104.353 53.2714C104.353 53.2715 104.353 53.2718 104.353 53.2719C104.35 53.2716 104.349 53.2714 104.349 53.2712ZM104.642 53.7432C106.544 53.3968 113.753 50.0713 120.965 46.7445C128.142 43.4339 135.322 40.1219 137.279 39.7423L104.642 53.7432ZM108.275 87.6419C108.132 87.5419 108.003 87.4489 107.888 87.363L97.8404 101.959C98.631 102.555 99.7126 103.462 100.995 104.585C103.551 106.823 106.868 109.884 110.191 112.95L110.216 112.973C113.544 116.044 116.877 119.12 119.442 121.364C120.723 122.484 121.822 123.406 122.636 124.018C123.041 124.321 123.392 124.562 123.67 124.711C123.805 124.784 123.951 124.851 124.092 124.884C124.199 124.91 124.497 124.963 124.727 124.733C124.957 124.503 124.904 124.205 124.879 124.098C124.845 123.957 124.778 123.811 124.705 123.676C124.556 123.398 124.315 123.047 124.012 122.642C123.4 121.828 122.478 120.729 121.357 119.448C119.113 116.883 116.038 113.549 112.966 110.221L112.944 110.197C109.877 106.873 106.816 103.555 104.578 101C103.455 99.7174 102.548 98.636 101.952 97.8456C101.847 97.7054 101.752 97.5764 101.669 97.4586C101.799 97.5227 101.942 97.5962 102.098 97.6794C102.973 98.1452 104.183 98.8737 105.625 99.7834C108.501 101.598 112.258 104.108 116.022 106.622L116.04 106.634C119.807 109.149 123.578 111.668 126.461 113.486C127.9 114.393 129.129 115.133 130.029 115.61C130.475 115.847 130.86 116.03 131.157 116.135C131.302 116.186 131.456 116.229 131.601 116.24C131.709 116.249 132.013 116.255 132.204 115.992C132.396 115.728 132.296 115.442 132.255 115.341C132.2 115.207 132.111 115.073 132.018 114.951C131.827 114.701 131.534 114.391 131.171 114.039C130.44 113.33 129.358 112.388 128.052 111.297C125.436 109.113 121.879 106.299 118.326 103.489L118.291 103.461C114.747 100.658 111.211 97.8612 108.605 95.6875C107.296 94.5959 106.231 93.6693 105.519 92.9816C105.395 92.8614 105.283 92.7501 105.184 92.6479C105.321 92.6906 105.472 92.7405 105.637 92.7976C106.573 93.1217 107.882 93.6527 109.448 94.3263C112.566 95.6675 116.66 97.555 120.762 99.4468L120.806 99.4669C124.919 101.363 129.038 103.262 132.169 104.607C133.733 105.279 135.062 105.817 136.025 106.148C136.503 106.313 136.911 106.433 137.221 106.49C137.372 106.518 137.531 106.537 137.676 106.525C137.785 106.517 138.085 106.476 138.233 106.186C138.382 105.895 138.238 105.628 138.182 105.535C138.106 105.411 137.997 105.293 137.886 105.187C137.658 104.97 137.321 104.71 136.908 104.419C136.075 103.833 134.859 103.073 133.398 102.2C130.472 100.453 126.519 98.2318 122.571 96.0136L122.532 95.9921C118.593 93.7787 114.662 91.5701 111.747 89.8313C110.283 88.9582 109.086 88.2097 108.275 87.6419ZM87.292 107.046C87.2956 107.03 87.2966 107.033 87.2917 107.048C87.2918 107.047 87.2919 107.047 87.292 107.046ZM86.798 107.252C86.784 107.245 86.7827 107.243 86.7971 107.252C86.7974 107.252 86.7977 107.252 86.798 107.252Z" fill="#FEF568" stroke="#2D1942"/>
</svg>
