<svg width="256" height="126" viewBox="0 0 256 126" fill="none" xmlns="http://www.w3.org/2000/svg">
<path d="M236.351 90.0589L236.351 90.0588C236.902 89.5796 237.634 89.3587 238.373 89.2441C239.09 89.1329 239.882 89.113 240.628 89.0942L240.706 89.0923C241.493 89.0724 242.223 89.0503 242.848 88.9391C243.478 88.8272 243.915 88.6382 244.18 88.3508C244.474 88.0305 244.638 87.5542 244.704 86.9148C244.769 86.2765 244.73 85.5457 244.676 84.7674C244.67 84.6866 244.665 84.6053 244.659 84.5235C244.61 83.8357 244.56 83.1183 244.587 82.4645C244.617 81.7383 244.743 81.0039 245.143 80.4303M236.351 90.0589L252.631 48.5618C253.154 49.6862 252.485 51.2116 251.821 52.7235C251.239 54.0511 250.661 55.3682 250.899 56.394L250.411 56.506C250.411 56.5064 250.412 56.5067 250.412 56.507C250.57 57.1956 251.018 57.8052 251.525 58.3433C251.971 58.8171 252.508 59.2793 253.021 59.7209C253.095 59.7839 253.167 59.8466 253.239 59.9088C253.829 60.4185 254.366 60.9006 254.758 61.3868C255.151 61.8741 255.349 62.307 255.349 62.7162C255.349 63.1254 255.151 63.5584 254.758 64.0457C254.366 64.5319 253.829 65.014 253.239 65.5237C253.167 65.586 253.094 65.6488 253.021 65.712C252.508 66.1534 251.971 66.6155 251.524 67.0891C251.016 67.6272 250.569 68.2369 250.409 68.9255M236.351 90.0589C235.822 90.5201 235.526 91.2038 235.33 91.9032C235.149 92.5514 235.035 93.2845 234.926 93.9858C234.917 94.0468 234.907 94.1076 234.898 94.168C234.777 94.9409 234.655 95.6669 234.454 96.2821C234.252 96.8992 233.991 97.3357 233.64 97.5905L236.351 90.0589ZM245.143 80.4303L245.553 80.716L245.142 80.4319C245.142 80.4314 245.143 80.4308 245.143 80.4303ZM245.143 80.4303C245.556 79.8338 246.206 79.4305 246.888 79.1235C247.529 78.8351 248.259 78.6067 248.948 78.3906L249.094 78.3451C249.842 78.1101 250.532 77.886 251.093 77.6042C251.656 77.3208 252.012 77.0155 252.175 76.6624C252.353 76.2792 252.359 75.792 252.215 75.1784C252.07 74.5658 251.793 73.897 251.482 73.1842C251.442 73.0934 251.402 73.0019 251.362 72.9097C251.092 72.2952 250.81 71.654 250.614 71.043C250.391 70.3448 250.251 69.6076 250.409 68.9255M250.409 68.9255L250.896 69.0385L250.409 68.926C250.409 68.9258 250.409 68.9257 250.409 68.9255ZM221.779 104.907L221.781 104.907C222.164 104.704 222.486 104.307 222.777 103.724C223.068 103.142 223.297 102.441 223.534 101.694L223.578 101.554C223.796 100.865 224.024 100.144 224.31 99.5204C224.613 98.8595 225.015 98.2311 225.617 97.861M221.779 104.907L233.639 97.591C233.318 97.8228 232.845 97.9252 232.201 97.9178C231.562 97.9105 230.836 97.7978 230.059 97.6745L230.012 97.6671C229.265 97.5487 228.473 97.4229 227.74 97.4056C226.996 97.388 226.239 97.4786 225.617 97.861M221.779 104.907C221.424 105.097 220.936 105.136 220.296 105.045C219.659 104.954 218.953 104.748 218.197 104.525L218.156 104.513C217.43 104.299 216.659 104.072 215.935 103.961C215.2 103.849 214.44 103.844 213.777 104.149L213.777 104.149M221.779 104.907L213.777 104.149M225.617 97.861L225.879 98.2871L225.617 97.8613C225.617 97.8612 225.617 97.8611 225.617 97.861ZM213.777 104.149C213.132 104.446 212.659 105.024 212.282 105.647C211.921 106.241 211.61 106.943 211.313 107.612L211.265 107.721C210.946 108.438 210.641 109.111 210.289 109.658C209.936 110.209 209.574 110.569 209.175 110.73L209.174 110.73M213.777 104.149L209.174 110.73M209.174 110.73C208.797 110.883 208.304 110.872 207.673 110.717C207.047 110.562 206.364 110.288 205.634 109.992L205.601 109.978C204.897 109.693 204.151 109.391 203.441 109.211C202.723 109.029 201.969 108.951 201.283 109.193L201.282 109.193M209.174 110.73L201.282 109.193M201.282 109.193C200.613 109.43 200.089 109.963 199.656 110.549C199.241 111.112 198.866 111.788 198.509 112.431L198.457 112.524C198.076 113.211 197.712 113.855 197.313 114.371C196.912 114.89 196.521 115.218 196.111 115.344C195.72 115.465 195.227 115.412 194.609 115.206C193.996 115.001 193.336 114.672 192.632 114.319L192.603 114.304C191.924 113.964 191.204 113.603 190.51 113.367C189.811 113.128 189.066 112.991 188.364 113.179L188.364 113.179M201.282 109.193L188.364 113.179M188.364 113.179C187.674 113.364 187.109 113.856 186.632 114.409C186.169 114.945 185.74 115.599 185.333 116.22L185.286 116.291C184.855 116.948 184.446 117.565 184.012 118.051C183.575 118.54 183.163 118.839 182.748 118.936C182.348 119.028 181.858 118.94 181.255 118.692C180.657 118.444 180.021 118.07 179.343 117.669L179.316 117.653C178.661 117.266 177.968 116.856 177.293 116.573C176.612 116.288 175.88 116.101 175.168 116.242C174.466 116.381 173.869 116.834 173.356 117.354C172.858 117.86 172.387 118.487 171.939 119.081L171.891 119.145C171.418 119.772 170.97 120.361 170.506 120.818C170.039 121.278 169.608 121.55 169.188 121.62L169.187 121.62M188.364 113.179L169.187 121.62M169.187 121.62C168.781 121.687 168.296 121.57 167.709 121.284C167.127 121 166.515 120.587 165.863 120.146L165.836 120.127C165.207 119.701 164.541 119.249 163.886 118.926C163.224 118.599 162.505 118.367 161.786 118.465L161.786 118.465M169.187 121.62L161.786 118.465M161.786 118.465C161.076 118.562 160.452 118.978 159.909 119.467C159.378 119.945 158.867 120.546 158.382 121.116L158.337 121.168C157.828 121.767 157.346 122.328 156.856 122.758C156.363 123.19 155.919 123.437 155.498 123.483C155.087 123.526 154.608 123.38 154.038 123.061C153.472 122.744 152.884 122.297 152.259 121.819L152.232 121.799C151.628 121.337 150.989 120.849 150.354 120.489C149.713 120.126 149.009 119.853 148.286 119.91L148.286 119.91M161.786 118.465L148.286 119.91M148.286 119.91C147.571 119.967 146.925 120.348 146.355 120.807C145.798 121.255 145.254 121.827 144.739 122.37L144.693 122.419C144.152 122.989 143.64 123.523 143.127 123.926C142.611 124.33 142.154 124.552 141.731 124.574C141.317 124.596 140.846 124.424 140.293 124.075C139.744 123.728 139.181 123.25 138.583 122.739L138.555 122.715C137.978 122.223 137.367 121.702 136.753 121.309C136.133 120.912 135.445 120.602 134.721 120.621C133.997 120.639 133.327 120.984 132.73 121.413C132.144 121.835 131.567 122.383 131.021 122.902L130.985 122.936C130.415 123.477 129.879 123.984 129.348 124.359C128.814 124.735 128.348 124.932 127.924 124.932C127.501 124.932 127.033 124.735 126.496 124.358C125.963 123.983 125.424 123.476 124.854 122.936L124.807 122.892C124.263 122.376 123.689 121.832 123.108 121.414C122.514 120.985 121.848 120.639 121.13 120.621C120.412 120.602 119.728 120.913 119.11 121.309C118.501 121.699 117.893 122.217 117.318 122.707L117.28 122.738C116.68 123.249 116.115 123.727 115.564 124.074C115.009 124.424 114.536 124.596 114.122 124.574C113.698 124.552 113.241 124.33 112.725 123.926C112.212 123.523 111.7 122.989 111.158 122.419L111.111 122.369C110.596 121.827 110.053 121.255 109.497 120.807C108.926 120.348 108.28 119.967 107.565 119.91L107.565 119.91M148.286 119.91L107.565 119.91M107.565 119.91C106.843 119.853 106.139 120.125 105.497 120.487C104.86 120.847 104.22 121.336 103.615 121.798L103.593 121.815C102.967 122.292 102.379 122.74 101.813 123.057C101.243 123.377 100.763 123.524 100.351 123.482C99.9291 123.436 99.4846 123.189 98.9925 122.758C98.5021 122.328 98.0204 121.767 97.5114 121.168L97.4645 121.113C96.9808 120.544 96.4712 119.945 95.9417 119.467C95.3983 118.978 94.7749 118.562 94.065 118.465L94.0646 118.465M107.565 119.91L94.0646 118.465M94.0646 118.465C93.3462 118.367 92.6275 118.599 91.9661 118.926C91.3111 119.249 90.6453 119.7 90.0166 120.127L89.9884 120.146C89.3368 120.587 88.7248 121 88.1419 121.284C87.5552 121.57 87.0699 121.687 86.6637 121.62L86.6634 121.62M94.0646 118.465L86.6634 121.62M86.6634 121.62C86.2426 121.55 85.812 121.278 85.3451 120.818C84.8806 120.361 84.4326 119.772 83.96 119.145L83.9122 119.081C83.4644 118.487 82.9928 117.86 82.4946 117.354C81.9817 116.834 81.3849 116.381 80.6826 116.242M86.6634 121.62L67.4847 113.179M67.4847 113.179L67.4849 113.179C68.175 113.364 68.7398 113.856 69.2167 114.409C69.6783 114.944 70.1062 115.597 70.5129 116.217L70.5615 116.291C70.9924 116.948 71.4017 117.564 71.8363 118.051C72.2729 118.539 72.686 118.839 73.1028 118.936C73.5025 119.028 73.9929 118.941 74.5954 118.692C75.194 118.444 75.8297 118.07 76.5071 117.669L76.5338 117.654C77.1883 117.267 77.8817 116.856 78.5569 116.573C79.2379 116.288 79.9704 116.101 80.6826 116.242M67.4847 113.179C66.7832 112.991 66.039 113.128 65.3393 113.367C64.6461 113.603 63.9261 113.964 63.2468 114.304L63.2176 114.319C62.5139 114.672 61.8542 115.001 61.2408 115.206C60.6234 115.412 60.1301 115.465 59.7402 115.344C59.3301 115.218 58.9392 114.89 58.5393 114.371C58.1412 113.855 57.7783 113.211 57.3974 112.525L57.3482 112.436C56.9906 111.791 56.6147 111.114 56.1979 110.549C55.7648 109.962 55.2401 109.43 54.5684 109.193M67.4847 113.179L19.4972 90.0565M80.6826 116.242L80.5855 116.732L80.6825 116.242C80.6826 116.242 80.6826 116.242 80.6826 116.242ZM11.3034 36.7429C10.4604 37.6576 10.5774 39.3142 10.6925 40.9434C10.7961 42.4094 10.8981 43.8532 10.2977 44.7144M11.3034 36.7429L5.44156 56.507L4.9545 56.394M11.3034 36.7429C12.064 35.9173 13.6177 35.8779 15.1969 35.8379M11.3034 36.7429L15.1969 35.8379M10.2977 44.7144C9.64775 45.6566 8.18596 46.1146 6.74534 46.5659C5.21239 47.0462 3.70341 47.519 3.22198 48.5597C2.69871 49.6878 3.36882 51.2143 4.03256 52.7263C4.61497 54.053 5.19248 55.3685 4.9545 56.394M10.2977 44.7144L10.7079 45.0003C10.7081 45 10.7084 44.9996 10.7086 44.9993M10.2977 44.7144L10.7093 44.9983C10.7091 44.9986 10.7088 44.999 10.7086 44.9993M4.9545 56.394L5.44158 56.5069M4.9545 56.394L5.44158 56.5069M5.44158 56.5069C5.59984 55.8249 5.46034 55.0877 5.2366 54.3895C5.04081 53.7786 4.75924 53.1374 4.4894 52.523C4.4489 52.4307 4.40867 52.3391 4.36902 52.2483C4.05791 51.5355 3.78091 50.8667 3.63648 50.2541C3.49184 49.6405 3.49779 49.1533 3.67556 48.7701L3.67578 48.7696C3.83926 48.4162 4.19451 48.1108 4.75768 47.8273C5.31766 47.5454 6.00794 47.3213 6.75666 47.0864C6.80498 47.0712 6.85355 47.056 6.90231 47.0407C7.59191 46.8247 8.32146 46.5963 8.96264 46.3078C9.64552 46.0005 10.296 45.5968 10.7086 44.9993M5.44158 56.5069L22.2089 27.8398M10.7086 44.9993C11.1077 44.4262 11.2343 43.6923 11.264 42.9667C11.2908 42.3134 11.2401 41.5966 11.1914 40.9093C11.1856 40.8271 11.1798 40.7452 11.1742 40.664C11.1203 39.8857 11.0809 39.1549 11.1463 38.5168C11.2117 37.8773 11.3763 37.4015 11.671 37.0817L11.6711 37.0817C11.9359 36.7942 12.3734 36.6051 13.0025 36.4931C13.6271 36.3818 14.3573 36.3594 15.1436 36.3394L15.2235 36.3374C15.9689 36.3186 16.7599 36.2986 17.4763 36.1875C18.2149 36.073 18.9466 35.8524 19.4972 35.3739L19.4973 35.3738C20.0277 34.9126 20.3233 34.2288 20.5193 33.5293C20.701 32.8805 20.8148 32.1466 20.9237 31.4447C20.9331 31.3842 20.9424 31.324 20.9518 31.2641C21.0724 30.4911 21.1941 29.7648 21.3953 29.1493C21.5971 28.5321 21.8579 28.0951 22.2089 27.8398M22.2089 27.8398C22.5301 27.6076 23.0031 27.5052 23.6472 27.5126C24.2868 27.5199 25.0116 27.6327 25.7891 27.7561L25.8369 27.7637C26.5831 27.8822 27.3753 28.008 28.1077 28.0257C28.8524 28.0436 29.609 27.9534 30.2313 27.5715L30.2314 27.5714C30.8339 27.2014 31.2357 26.573 31.539 25.9121C31.8251 25.2887 32.0533 24.567 32.271 23.8783C32.2858 23.8316 32.3005 23.7851 32.3152 23.7387C32.5518 22.9918 32.781 22.2903 33.0714 21.7089C33.363 21.1252 33.6849 20.7286 34.0679 20.5259L34.0697 20.5249C34.4241 20.3355 34.9116 20.2962 35.5522 20.3875C36.1884 20.4782 36.8943 20.6842 37.6499 20.907L37.6901 20.9188C38.4169 21.1331 39.1882 21.3606 39.9129 21.4712C40.6476 21.5833 41.4081 21.5885 42.0714 21.2837L42.0717 21.2836C42.717 20.9865 43.1902 20.4086 43.5681 19.7857C43.9288 19.191 44.2404 18.4892 44.5371 17.8206C44.5533 17.7842 44.5694 17.748 44.5855 17.7118C44.904 16.9949 45.2091 16.3218 45.561 15.7741C45.9144 15.2239 46.2762 14.8636 46.6761 14.7028L46.6774 14.7023C47.0531 14.5499 47.5461 14.5609 48.1766 14.7159C48.8029 14.87 49.4862 15.145 50.216 15.4406L50.2491 15.454C50.9528 15.7391 51.6992 16.0415 52.4095 16.2217C53.1276 16.4038 53.8819 16.4816 54.5684 16.2392C55.2405 16.0024 55.7656 15.4701 56.1988 14.8835C56.616 14.3185 56.992 13.6404 57.3497 12.9953L57.3982 12.9078C57.779 12.2214 58.1418 11.5771 58.5396 11.0611C58.9394 10.5427 59.3301 10.2144 59.7402 10.088L59.7406 10.0879C60.1303 9.96746 60.6235 10.0196 61.2409 10.2257C61.8543 10.4303 62.514 10.7595 63.2178 11.1124L63.2463 11.1267C63.926 11.4675 64.6464 11.8288 65.3403 12.0648C66.0404 12.3029 66.785 12.4397 67.4871 12.2512L67.3575 11.7683L67.4871 12.2512C68.1765 12.066 68.7413 11.5749 69.2183 11.022C69.6805 10.4865 70.1092 9.83338 70.5166 9.21276L70.564 9.14051C70.9952 8.48385 71.4047 7.86752 71.8391 7.38135C72.2755 6.89291 72.6877 6.59365 73.1028 6.49692L22.2089 27.8398ZM201.283 16.2392C200.61 16.0024 200.085 15.4701 199.652 14.8835C199.235 14.3185 198.859 13.6403 198.501 12.9952L198.453 12.9078C198.072 12.2214 197.709 11.5771 197.311 11.0611C196.912 10.5427 196.521 10.2144 196.111 10.088L196.111 10.0879C195.72 9.96742 195.227 10.0196 194.609 10.2257C193.996 10.4303 193.336 10.7595 192.632 11.1124L192.603 11.127C191.924 11.4677 191.204 11.8289 190.51 12.0648C189.81 12.3029 189.066 12.4397 188.364 12.2512C187.674 12.0661 187.109 11.5749 186.633 11.0219C186.171 10.4868 185.743 9.83442 185.337 9.21443L185.288 9.14027C184.858 8.48364 184.449 7.86743 184.014 7.3814C183.578 6.89298 183.165 6.59353 182.748 6.49685C182.348 6.40456 181.858 6.49198 181.255 6.74081C180.657 6.9881 180.021 7.36244 179.343 7.76311L179.316 7.77923C178.661 8.16621 177.968 8.57619 177.293 8.859C176.612 9.1443 175.88 9.33159 175.168 9.19048C174.466 9.05153 173.869 8.59879 173.356 8.07807C172.858 7.57191 172.386 6.94534 171.937 6.35039L171.89 6.28768C171.417 5.66018 170.969 5.07152 170.505 4.61423C170.038 4.15457 169.608 3.88245 169.188 3.81279L169.187 3.81275C168.781 3.74512 168.295 3.86298 167.708 4.14856C167.125 4.43234 166.513 4.84519 165.862 5.28678L165.833 5.30634C165.205 5.73231 164.539 6.18335 163.885 6.50661C163.223 6.83314 162.505 7.06514 161.786 6.96767L161.786 6.96763C161.076 6.87083 160.453 6.45431 159.909 5.96464C159.38 5.48787 158.871 4.88878 158.388 4.32012L158.339 4.26341C157.83 3.66462 157.348 3.10307 156.858 2.67355C156.365 2.24215 155.92 1.99556 155.497 1.9501C155.086 1.90794 154.607 2.05515 154.037 2.37445C153.47 2.69187 152.883 3.13896 152.257 3.61637L152.235 3.63357C151.63 4.09528 150.99 4.58416 150.353 4.94404C149.712 5.30652 149.008 5.57765 148.286 5.51994C147.571 5.46313 146.925 5.08238 146.355 4.6238C145.798 4.17609 145.255 3.60444 144.74 3.06212L144.693 3.01249C144.151 2.44278 143.639 1.90866 143.126 1.50661C142.61 1.10242 142.153 0.880461 141.729 0.858294C141.314 0.836696 140.841 1.00867 140.286 1.3577C139.734 1.70441 139.168 2.18238 138.568 2.69248L138.528 2.72611C137.953 3.21498 137.346 3.73105 136.738 4.12081C136.121 4.51699 135.436 4.82772 134.719 4.80972C134.002 4.7917 133.336 4.44597 132.741 4.01818C132.16 3.59962 131.586 3.05584 131.041 2.54017L130.995 2.49662C130.425 1.95601 129.885 1.4493 129.352 1.07448C128.816 0.697593 128.348 0.5 127.924 0.5C127.501 0.5 127.033 0.697592 126.497 1.07448C125.964 1.4493 125.424 1.95601 124.853 2.49661L124.808 2.53993C124.263 3.05567 123.689 3.59956 123.108 4.01817C122.513 4.4459 121.848 4.79158 121.13 4.80971L201.283 16.2392ZM201.283 16.2392C201.969 16.4815 202.723 16.4041 203.441 16.2223C204.152 16.0422 204.9 15.7398 205.604 15.4547L205.635 15.4422C206.365 15.1469 207.048 14.872 207.675 14.7177C208.305 14.5624 208.799 14.551 209.174 14.7026L209.175 14.7028M201.283 16.2392L209.175 14.7028M19.4972 90.0565L19.4983 90.0574C20.026 90.5187 20.3204 91.2023 20.5158 91.9013C20.6965 92.5479 20.8104 93.2792 20.9194 93.9791C20.9291 94.0416 20.9388 94.1039 20.9486 94.1659C21.0696 94.9388 21.1921 95.6651 21.394 96.2807C21.5965 96.8982 21.8578 97.3355 22.2093 97.5909C22.5304 97.8228 23.0034 97.9252 23.6475 97.9178C24.2872 97.9105 25.0123 97.7977 25.7899 97.6743L25.8379 97.6667C26.5841 97.5481 27.3763 97.4223 28.1086 97.4047C28.8531 97.3868 29.6096 97.477 30.2314 97.8589C30.834 98.229 31.2357 98.8576 31.539 99.5187C31.8251 100.142 32.0533 100.864 32.2711 101.553C32.2858 101.6 32.3005 101.646 32.3152 101.693C32.5518 102.44 32.781 103.142 33.0715 103.723C33.363 104.307 33.6849 104.704 34.0679 104.907C34.4238 105.095 34.9128 105.133 35.5543 105.041C36.1914 104.95 36.8978 104.744 37.6534 104.522L37.6899 104.511C38.4178 104.297 39.1902 104.07 39.9157 103.96C40.6498 103.849 41.4096 103.844 42.0717 104.149C42.7169 104.446 43.1902 105.024 43.568 105.646C43.9289 106.241 44.2405 106.943 44.5373 107.612L44.5854 107.72C44.904 108.437 45.2091 109.11 45.561 109.658C45.9144 110.208 46.2762 110.568 46.6762 110.73C47.0522 110.881 47.5456 110.869 48.1764 110.714C48.8029 110.56 49.4864 110.285 50.2162 109.989L50.2456 109.978C50.9505 109.692 51.6982 109.39 52.4099 109.21C53.1279 109.028 53.8821 108.951 54.5684 109.193M19.4972 90.0565C18.9465 89.5779 18.2147 89.3573 17.476 89.2429C16.7594 89.1318 15.9682 89.1118 15.2225 89.093L15.1426 89.091C14.3561 89.071 13.6255 89.0486 13.0007 88.9373C12.3717 88.8253 11.9343 88.6363 11.6694 88.3492C11.3748 88.0286 11.21 87.5521 11.1442 86.9124C11.0784 86.2741 11.1171 85.5433 11.1705 84.7653C11.1761 84.6828 11.182 84.5996 11.1878 84.5161C11.236 83.8302 11.2861 83.1151 11.2595 82.4635C11.2299 81.7381 11.104 81.0045 10.7067 80.4315M19.4972 90.0565L3.67343 76.6602M54.5684 109.193L54.4019 109.665M54.5684 109.193C54.5683 109.193 54.5682 109.193 54.5681 109.193L54.4019 109.665M54.4019 109.665C53.3073 109.278 51.8549 109.866 50.4154 110.448C48.9682 111.034 47.534 111.614 46.4896 111.194M54.4019 109.665C55.4425 110.031 56.1769 111.355 56.9173 112.69L46.4896 111.194M46.4896 111.194C45.383 110.748 44.7308 109.279 44.0851 107.825C43.4683 106.436 42.8576 105.061 41.8626 104.603C40.8054 104.116 39.3015 104.559 37.8135 104.996L46.4896 111.194ZM3.67343 76.6602L3.67354 76.6604C3.83759 77.0142 4.19344 77.3201 4.75676 77.6041C5.31687 77.8865 6.00714 78.1111 6.75559 78.3465C6.80523 78.3621 6.85512 78.3777 6.90522 78.3935C7.59342 78.6094 8.32106 78.8377 8.96066 79.1252C9.64349 79.4323 10.2941 79.8353 10.7067 80.4315M3.67343 76.6602C3.49642 76.2789 3.4906 75.7928 3.63558 75.1793C3.7803 74.5668 4.05753 73.8977 4.3688 73.1844C4.40809 73.0944 4.44796 73.0036 4.48809 72.9122C4.75839 72.2965 5.04051 71.6539 5.2366 71.0417C5.46035 70.3431 5.59984 69.6054 5.44156 68.9234L4.9545 69.0364L3.67343 76.6602ZM10.7067 80.4315L10.2956 80.716L10.7064 80.431C10.7065 80.4312 10.7066 80.4313 10.7067 80.4315ZM209.175 14.7028C209.575 14.8636 209.937 15.2239 210.29 15.7741C210.642 16.3218 210.947 16.9949 211.266 17.7118L211.314 17.8201C211.61 18.4888 211.922 19.1909 212.283 19.7857C212.661 20.4086 213.134 20.9865 213.779 21.2836C214.441 21.5884 215.201 21.5838 215.935 21.4724C216.661 21.3623 217.433 21.1351 218.161 20.921L218.198 20.9102C218.953 20.688 219.66 20.4821 220.297 20.391C220.938 20.2993 221.427 20.3376 221.783 20.5259C222.166 20.7286 222.488 21.1253 222.78 21.7093C223.071 22.2909 223.3 22.9927 223.537 23.7399L223.581 23.8794C223.799 24.5684 224.027 25.2903 224.314 25.9139C224.617 26.575 225.019 27.2036 225.622 27.5736C226.243 27.9555 227 28.0457 227.744 28.0278C228.476 28.0102 229.268 27.8844 230.014 27.7659L230.062 27.7582C230.84 27.6348 231.565 27.522 232.205 27.5147C232.849 27.5073 233.322 27.6096 233.644 27.8415C233.995 28.0969 234.257 28.5343 234.459 29.1518C234.661 29.7673 234.783 30.4935 234.905 31.2663C234.914 31.3283 234.924 31.3905 234.934 31.453C235.043 32.1528 235.157 32.884 235.337 33.5303C235.533 34.2291 235.827 34.9124 236.355 35.3732L236.356 35.3737M209.175 14.7028L236.356 35.3737M236.356 35.3737C236.906 35.8529 237.638 36.0738 238.377 36.1884C239.094 36.2996 239.885 36.3196 240.631 36.3385L240.711 36.3405C241.497 36.3605 242.228 36.3828 242.852 36.4942C243.482 36.6064 243.919 36.7957 244.184 37.0835L244.552 36.745L236.356 35.3737ZM15.1969 35.8379C16.7321 35.799 18.2913 35.7595 19.1692 34.9965L15.1969 35.8379ZM98.9939 2.67345C99.487 2.24149 99.9315 1.99507 100.353 1.94997L73.1034 6.49678C73.5031 6.40461 73.9932 6.49203 74.5954 6.7408C75.194 6.98807 75.8297 7.36241 76.5071 7.76308L76.5338 7.77883C77.1882 8.16593 77.8817 8.57609 78.5569 8.85902C79.2379 9.14434 79.9704 9.33155 80.6826 9.1905C81.3844 9.05156 81.981 8.59868 82.4937 8.07796C82.9918 7.57205 83.4633 6.94584 83.9111 6.35117L83.9589 6.28763C84.4315 5.66014 84.8795 5.07149 85.3439 4.61422C85.8108 4.15457 86.2411 3.88245 86.6613 3.81279L86.6615 3.81275C87.0683 3.74512 87.5539 3.86298 88.1406 4.14856C88.7237 4.43234 89.3356 4.84519 89.9871 5.28678L90.0158 5.30628C90.6442 5.73227 91.3096 6.18334 91.9643 6.50661C92.6255 6.83314 93.3441 7.06514 94.0626 6.96767L94.0629 6.96763C94.7728 6.87084 95.3965 6.45441 95.9404 5.9648C96.4707 5.48734 96.9812 4.88724 97.4657 4.31777L97.5118 4.26356C98.0213 3.66471 98.5035 3.10308 98.9939 2.67345ZM100.353 1.94996C100.764 1.90615 101.242 2.0521 101.812 2.37101C102.378 2.68791 102.966 3.13514 103.591 3.61304L103.618 3.63308C104.221 4.09441 104.86 4.58285 105.496 4.94265C106.137 5.30573 106.841 5.5776 107.563 5.51996C107.563 5.51996 107.563 5.51995 107.563 5.51994L107.523 5.02153L100.353 1.94996Z" fill="#FEF568" stroke="black"/>
<path d="M61.7352 52.3174C61.7611 50.1954 61.787 48.4615 61.8128 47.1159C61.8387 45.7443 61.8517 44.6445 61.8517 43.8164C61.8775 42.9624 61.8905 42.2766 61.8905 41.7591C61.8905 41.2156 61.8905 40.724 61.8905 40.284C61.8905 39.8441 61.8905 39.3265 61.8905 38.7313C61.8905 38.1361 61.8905 37.6186 61.8905 37.1786C61.8905 36.7387 61.8905 36.26 61.8905 35.7424C61.8905 35.199 61.8775 34.5132 61.8517 33.6851C61.8517 32.8311 61.8387 31.7313 61.8128 30.3856C61.8128 29.0141 61.7999 27.2673 61.774 25.1453H72.3323C75.1272 25.1453 77.2751 25.9216 78.776 27.4743C80.3028 29.027 81.0662 31.162 81.0662 33.8792C81.0662 35.5613 80.691 37.0492 79.9405 38.3432C79.2159 39.6371 78.1291 40.6463 76.6799 41.3709C75.2307 42.0955 73.3933 42.4578 71.1678 42.4578C69.2528 42.4578 67.8166 42.4837 66.8591 42.5354C65.9016 42.5872 65.2288 42.6778 64.8406 42.8071C64.4783 42.9365 64.2066 43.1306 64.0254 43.3894C63.8702 43.6223 63.7537 43.9975 63.6761 44.5151C63.6243 45.0327 63.5984 45.7314 63.5984 46.6112C63.5984 46.9994 63.5984 47.3617 63.5984 47.6981C63.6243 48.0345 63.6373 48.3968 63.6373 48.785C63.6631 49.1732 63.689 49.6519 63.7149 50.2212C63.7408 50.7647 63.7796 51.4634 63.8313 52.3174H61.7352ZM70.7408 40.711C72.5523 40.711 73.9497 40.5299 74.9331 40.1676C75.9423 39.8053 76.7187 39.3783 77.2621 38.8866C77.7797 38.4467 78.1549 37.942 78.3878 37.3727C78.6207 36.7775 78.7372 36.1306 78.7372 35.4319C78.7372 34.7073 78.6207 34.0603 78.3878 33.491C78.1549 32.8958 77.7797 32.3782 77.2621 31.9383C76.6928 31.3949 75.8906 30.9549 74.8555 30.6185C73.8203 30.2821 72.4488 30.1139 70.7408 30.1139C69.5763 30.1139 68.6059 30.1268 67.8295 30.1527C67.0532 30.1786 66.4321 30.2174 65.9663 30.2692C65.5005 30.3209 65.1382 30.3856 64.8794 30.4632C64.6465 30.5409 64.4524 30.6315 64.2972 30.735C64.116 30.8644 63.9607 31.0843 63.8313 31.3949C63.7278 31.7054 63.6502 32.1712 63.5984 32.7923C63.5726 33.3875 63.5596 34.2673 63.5596 35.4319C63.5596 36.5705 63.5726 37.4633 63.5984 38.1103C63.6502 38.7313 63.7278 39.1842 63.8313 39.4689C63.9607 39.7535 64.116 39.9605 64.2972 40.0899C64.5042 40.2193 64.8406 40.3358 65.3064 40.4393C65.7722 40.5428 66.4321 40.6204 67.2861 40.6722C68.1659 40.6981 69.3175 40.711 70.7408 40.711ZM84.0934 52.3174C84.1192 51.0494 84.1322 49.9366 84.1322 48.9791C84.1581 48.0216 84.171 47.1676 84.171 46.4172C84.1969 45.6408 84.2098 44.9292 84.2098 44.2822C84.2098 43.6094 84.2098 42.9365 84.2098 42.2637C84.2098 41.6167 84.2098 40.9569 84.2098 40.284C84.2098 39.6112 84.1969 38.9254 84.171 38.2267C84.171 37.5021 84.1581 36.7516 84.1322 35.9753C84.1322 35.1731 84.1192 34.2932 84.0934 33.3357H85.9566C85.9307 33.8015 85.9048 34.2673 85.879 34.7331C85.8531 35.199 85.8401 35.5871 85.8401 35.8977C85.8401 36.4929 85.8531 36.894 85.879 37.101C85.9048 37.308 85.9954 37.4115 86.1507 37.4115C86.2801 37.4115 86.4224 37.321 86.5777 37.1398C86.7588 36.9587 87.0176 36.6093 87.354 36.0918C87.6128 35.7036 87.988 35.2637 88.4797 34.772C88.9714 34.2544 89.6184 33.8145 90.4206 33.4522C91.2228 33.064 92.2062 32.8699 93.3707 32.8699C93.8106 32.8699 94.2376 32.9087 94.6517 32.9864C95.0916 33.0381 95.4798 33.1028 95.8162 33.1805V38.1103C95.4021 38.0326 94.8975 37.9679 94.3023 37.9162C93.733 37.8385 92.892 37.7997 91.7792 37.7997C90.4594 37.7997 89.3466 38.0585 88.4409 38.5761C87.561 39.0677 86.8882 39.7665 86.4224 40.6722C85.9825 41.5779 85.7625 42.626 85.7625 43.8164C85.7625 44.3598 85.7625 44.8903 85.7625 45.4079C85.7625 45.8996 85.7625 46.456 85.7625 47.077C85.7884 47.6981 85.8143 48.4227 85.8401 49.2508C85.866 50.0789 85.9048 51.1011 85.9566 52.3174H84.0934ZM106.021 52.822C104.08 52.822 102.462 52.4338 101.168 51.6575C99.9004 50.8811 98.9558 49.7554 98.3348 48.2804C97.7137 46.7794 97.4032 44.968 97.4032 42.846C97.4032 40.6981 97.7137 38.8866 98.3348 37.4115C98.9558 35.9106 99.9133 34.7849 101.207 34.0344C102.501 33.2581 104.106 32.8699 106.021 32.8699C107.987 32.8699 109.605 33.2581 110.873 34.0344C112.167 34.7849 113.137 35.9106 113.784 37.4115C114.431 38.8866 114.754 40.6981 114.754 42.846C114.754 44.968 114.431 46.7794 113.784 48.2804C113.163 49.7554 112.205 50.8811 110.912 51.6575C109.618 52.4338 107.987 52.822 106.021 52.822ZM106.021 48.8238C107.703 48.8238 109.074 48.578 110.135 48.0863C111.222 47.5946 112.011 46.8959 112.503 45.9902C113.021 45.0844 113.279 44.0364 113.279 42.846C113.279 41.6297 113.021 40.5816 112.503 39.7018C112.011 38.796 111.222 38.0973 110.135 37.6056C109.074 37.0881 107.703 36.8293 106.021 36.8293C104.339 36.8293 102.967 37.0881 101.906 37.6056C100.845 38.0973 100.069 38.796 99.5769 39.7018C99.0852 40.5816 98.8394 41.6297 98.8394 42.846C98.8394 44.0364 99.0852 45.0844 99.5769 45.9902C100.069 46.8959 100.845 47.5946 101.906 48.0863C102.967 48.578 104.339 48.8238 106.021 48.8238ZM125.979 52.822C123.391 52.822 121.411 51.968 120.04 50.2601C118.668 48.5521 117.982 46.0807 117.982 42.846C117.982 39.5853 118.668 37.1139 120.04 35.4319C121.411 33.7239 123.391 32.8699 125.979 32.8699C127.195 32.8699 128.191 33.0252 128.968 33.3357C129.77 33.6204 130.417 33.9827 130.909 34.4226C131.4 34.8625 131.775 35.2895 132.034 35.7036C132.345 36.1176 132.565 36.4023 132.694 36.5576C132.849 36.7128 132.992 36.7905 133.121 36.7905C133.276 36.7905 133.367 36.6999 133.393 36.5187C133.419 36.3376 133.432 36.0271 133.432 35.5871C133.432 35.0178 133.432 34.2803 133.432 33.3745C133.432 32.4688 133.419 31.4596 133.393 30.3468C133.393 29.234 133.38 28.0954 133.354 26.9309C133.328 25.7664 133.315 24.6536 133.315 23.5926H135.178C135.153 25.5076 135.127 27.1508 135.101 28.5224C135.101 29.868 135.088 31.0196 135.062 31.9771C135.062 32.9346 135.049 33.7627 135.023 34.4614C135.023 35.1343 135.023 35.7424 135.023 36.2858C135.023 36.8034 135.023 37.3339 135.023 37.8774C135.023 38.4208 135.023 38.9772 135.023 39.5465C135.023 40.0899 135.023 40.711 135.023 41.4097C135.049 42.0826 135.062 42.9107 135.062 43.894C135.088 44.8515 135.101 46.016 135.101 47.3876C135.127 48.7591 135.153 50.4024 135.178 52.3174H133.315C133.341 51.9033 133.367 51.5022 133.393 51.114C133.419 50.7 133.432 50.3506 133.432 50.066C133.432 49.6261 133.419 49.3155 133.393 49.1344C133.367 48.9532 133.276 48.8626 133.121 48.8626C132.992 48.8626 132.849 48.9403 132.694 49.0955C132.565 49.2508 132.345 49.5484 132.034 49.9883C131.775 50.3765 131.4 50.7906 130.909 51.2305C130.417 51.6704 129.77 52.0457 128.968 52.3562C128.191 52.6667 127.195 52.822 125.979 52.822ZM126.406 48.785C128.787 48.785 130.559 48.2933 131.724 47.31C132.914 46.3266 133.509 44.8386 133.509 42.846C133.509 40.8275 132.914 39.3265 131.724 38.3432C130.559 37.3598 128.787 36.8681 126.406 36.8681C124.077 36.8681 122.33 37.3857 121.165 38.4208C120.001 39.43 119.419 40.9051 119.419 42.846C119.419 44.7609 120.001 46.236 121.165 47.2711C122.33 48.2804 124.077 48.785 126.406 48.785ZM146.577 52.822C145.335 52.822 144.235 52.5762 143.277 52.0845C142.32 51.5928 141.582 50.8682 141.065 49.9107C140.547 48.9532 140.288 47.8016 140.288 46.456C140.288 45.2656 140.288 44.2046 140.288 43.273C140.288 42.3413 140.275 41.4874 140.25 40.711C140.25 39.9347 140.237 39.1713 140.211 38.4208C140.211 37.6703 140.198 36.894 140.172 36.0918C140.172 35.2895 140.159 34.3709 140.133 33.3357H141.996C141.97 34.3191 141.945 35.1731 141.919 35.8977C141.893 36.5964 141.867 37.2433 141.841 37.8385C141.841 38.4337 141.841 39.0031 141.841 39.5465C141.841 40.0641 141.841 40.6075 141.841 41.1768C141.841 41.7203 141.841 42.3413 141.841 43.04C141.841 44.0493 141.958 44.8774 142.19 45.5244C142.423 46.1713 142.773 46.663 143.238 46.9994C143.704 47.31 144.287 47.5429 144.985 47.6981C145.684 47.8275 146.499 47.8922 147.431 47.8922C148.699 47.8922 149.773 47.7628 150.653 47.504C151.532 47.2453 152.231 46.87 152.749 46.3783C153.266 45.8608 153.629 45.2268 153.836 44.4763C154.069 43.6999 154.185 42.8071 154.185 41.7979C154.185 41.2545 154.185 40.7369 154.185 40.2452C154.185 39.7276 154.172 39.1713 154.146 38.5761C154.146 37.955 154.133 37.2304 154.107 36.4023C154.081 35.5483 154.056 34.5261 154.03 33.3357H155.893C155.867 34.6555 155.841 35.82 155.815 36.8293C155.815 37.8127 155.802 38.6925 155.776 39.4689C155.776 40.2193 155.776 40.9051 155.776 41.5262C155.776 42.1214 155.776 42.6778 155.776 43.1953C155.776 43.7129 155.776 44.2175 155.776 44.7092C155.776 45.4079 155.776 46.0807 155.776 46.7277C155.776 47.3746 155.776 48.0087 155.776 48.6297C155.802 49.2508 155.815 49.8719 155.815 50.493C155.841 51.114 155.854 51.7222 155.854 52.3174H154.03C154.081 51.8516 154.107 51.4375 154.107 51.0752C154.107 50.6871 154.107 50.3506 154.107 50.066C154.107 49.4708 154.094 49.0697 154.069 48.8626C154.043 48.6297 153.952 48.5133 153.797 48.5133C153.667 48.5133 153.525 48.578 153.37 48.7074C153.24 48.8368 153.02 49.1344 152.71 49.6002C152.451 49.9883 152.063 50.4412 151.545 50.9588C151.054 51.4505 150.407 51.8904 149.605 52.2786C148.802 52.6409 147.793 52.822 146.577 52.822ZM169.213 52.822C167.298 52.822 165.642 52.4597 164.245 51.7351C162.873 51.0105 161.812 49.9107 161.062 48.4357C160.337 46.9347 159.975 45.0715 159.975 42.846C159.975 40.5946 160.337 38.7313 161.062 37.2563C161.812 35.7812 162.886 34.6814 164.284 33.9568C165.681 33.2322 167.363 32.8699 169.33 32.8699C170.365 32.8699 171.297 32.9476 172.125 33.1028C172.953 33.2322 173.742 33.4263 174.492 33.6851V37.6833C174.078 37.528 173.548 37.3857 172.901 37.2563C172.28 37.1269 171.594 37.0234 170.844 36.9457C170.119 36.8422 169.394 36.7905 168.67 36.7905C167.272 36.7905 166.03 36.9846 164.943 37.3727C163.857 37.7609 162.99 38.3949 162.343 39.2748C161.722 40.1288 161.411 41.3191 161.411 42.846C161.411 44.3469 161.722 45.5373 162.343 46.4172C162.99 47.297 163.857 47.931 164.943 48.3192C166.03 48.6815 167.272 48.8626 168.67 48.8626C169.446 48.8626 170.197 48.8238 170.921 48.7462C171.646 48.6427 172.319 48.5262 172.94 48.3968C173.561 48.2674 174.078 48.151 174.492 48.0475V51.9292C173.742 52.188 172.914 52.395 172.008 52.5503C171.128 52.7314 170.197 52.822 169.213 52.822ZM184.709 52.822C183.493 52.822 182.496 52.6279 181.72 52.2397C180.944 51.8516 180.323 51.2305 179.857 50.3765C179.676 50.0142 179.533 49.6002 179.43 49.1344C179.326 48.6686 179.249 48.0992 179.197 47.4264C179.171 46.7536 179.158 45.8996 179.158 44.8645C179.158 44.1916 179.158 43.48 179.158 42.7295C179.158 41.9532 179.158 41.2156 179.158 40.5169C179.158 39.7923 179.158 39.1713 179.158 38.6537C179.158 38.1361 179.158 37.7738 179.158 37.5668H176.363V33.3357H179.158L179.003 27.7072H180.827L180.672 33.3357H187.038V37.5668H180.633C180.633 38.0326 180.633 38.4855 180.633 38.9254C180.633 39.3395 180.633 39.7276 180.633 40.0899C180.659 41.4874 180.672 42.6519 180.672 43.5835C180.698 44.4892 180.737 45.2397 180.788 45.8349C180.866 46.4042 180.97 46.87 181.099 47.2323C181.306 47.8793 181.668 48.3451 182.186 48.6297C182.703 48.9144 183.312 49.0567 184.01 49.0567C184.502 49.0567 184.994 49.005 185.485 48.9015C186.003 48.7979 186.482 48.6686 186.922 48.5133V52.6279C186.637 52.6797 186.301 52.7185 185.912 52.7444C185.524 52.7961 185.123 52.822 184.709 52.822ZM56.0301 91.3174C56.056 89.4542 56.0819 87.9273 56.1078 86.7369C56.1336 85.5465 56.1466 84.5632 56.1466 83.7868C56.1725 83.0105 56.1854 82.3247 56.1854 81.7295C56.1854 81.1343 56.1854 80.5391 56.1854 79.9439C56.1854 79.3228 56.1854 78.5853 56.1854 77.7313C56.1854 76.8773 56.1854 76.1528 56.1854 75.5576C56.1854 74.9365 56.1854 74.3413 56.1854 73.772C56.1854 73.1768 56.1725 72.491 56.1466 71.7147C56.1466 70.9124 56.1336 69.9161 56.1078 68.7257C56.0819 67.5353 56.056 66.0085 56.0301 64.1453H65.8509C67.1966 64.1453 68.3482 64.2488 69.3057 64.4558C70.289 64.6628 71.1559 65.0122 71.9064 65.5039C72.6569 65.9697 73.3168 66.6296 73.8861 67.4836C74.4813 68.234 74.9212 69.0751 75.2059 70.0067C75.5164 70.9383 75.7234 72.0381 75.827 73.3062C75.9563 74.5483 76.021 76.0234 76.021 77.7313C76.021 79.4393 75.9563 80.9273 75.827 82.1953C75.7234 83.4375 75.5164 84.5244 75.2059 85.456C74.9212 86.3617 74.4813 87.2027 73.8861 87.9791C73.3168 88.8072 72.6569 89.4671 71.9064 89.9588C71.1559 90.4505 70.289 90.7998 69.3057 91.0068C68.3482 91.2139 67.1966 91.3174 65.8509 91.3174H56.0301ZM65.5404 86.2323C67.1966 86.2323 68.5164 86.1288 69.4997 85.9218C70.509 85.6889 71.2853 85.3783 71.8288 84.9902C72.3981 84.5761 72.851 84.1103 73.1874 83.5927C73.7049 82.7905 74.0414 81.8848 74.1966 80.8755C74.3519 79.8663 74.4295 78.8182 74.4295 77.7313C74.4295 76.6186 74.3519 75.5446 74.1966 74.5095C74.0414 73.4744 73.7049 72.5686 73.1874 71.7923C72.851 71.2747 72.3981 70.8219 71.8288 70.4337C71.2853 70.0455 70.509 69.7479 69.4997 69.5409C68.5164 69.308 67.1966 69.1915 65.5404 69.1915C63.8583 69.1915 62.5385 69.2045 61.581 69.2303C60.6494 69.2562 59.9377 69.295 59.4461 69.3468C58.9803 69.3986 58.6309 69.515 58.398 69.6961C58.2686 69.7997 58.1521 69.9549 58.0486 70.162C57.971 70.3431 57.9063 70.6925 57.8545 71.21C57.8028 71.7276 57.764 72.5039 57.7381 73.5391C57.7122 74.5483 57.6993 75.9457 57.6993 77.7313C57.6993 79.4652 57.7122 80.8367 57.7381 81.846C57.764 82.8552 57.7899 83.6186 57.8157 84.1362C57.8675 84.6279 57.9322 84.9772 58.0098 85.1843C58.1133 85.3913 58.2298 85.5465 58.3592 85.6501C58.618 85.8053 58.9932 85.9347 59.4849 86.0382C59.9766 86.1159 60.6882 86.1676 61.6198 86.1935C62.5773 86.2194 63.8842 86.2323 65.5404 86.2323ZM89.5501 91.822C87.6869 91.822 86.1083 91.5762 84.8144 91.0845C83.5463 90.5669 82.5112 89.8553 81.709 88.9495C80.9326 88.0179 80.3633 86.931 80.001 85.6889C79.6646 84.4208 79.4964 83.0493 79.4964 81.5742C79.4964 79.4264 79.8587 77.6408 80.5833 76.2175C81.3338 74.7683 82.343 73.6814 83.611 72.9568C84.8791 72.2322 86.2765 71.8699 87.8033 71.8699C89.9253 71.8699 91.5945 72.2581 92.8107 73.0344C94.027 73.8108 94.881 74.9494 95.3727 76.4504C95.8902 77.9254 96.149 79.7498 96.149 81.9236H81.0491C81.1267 82.7517 81.3079 83.528 81.5925 84.2526C81.8772 84.9772 82.3042 85.6112 82.8735 86.1547C83.4687 86.6981 84.2321 87.1251 85.1637 87.4357C86.1212 87.7462 87.2857 87.9015 88.6573 87.9015C89.77 87.9015 90.8311 87.8238 91.8403 87.6686C92.8496 87.4874 93.9753 87.2416 95.2174 86.931V91.0068C94.234 91.3174 93.3154 91.5244 92.4614 91.6279C91.6074 91.7573 90.637 91.822 89.5501 91.822ZM94.4799 80.3709C94.4799 78.87 93.8847 77.6796 92.6943 76.7997C91.5298 75.894 89.8994 75.4411 87.8033 75.4411C86.587 75.4411 85.4872 75.6481 84.5038 76.0622C83.5205 76.4762 82.7312 77.0585 82.136 77.809C81.5408 78.5336 81.2173 79.3875 81.1655 80.3709H94.4799ZM98.9809 91.0068V87.0863C100.042 87.4745 101.103 87.7721 102.164 87.9791C103.251 88.1861 104.286 88.2896 105.269 88.2896C106.693 88.2896 107.754 88.0826 108.452 87.6686C109.177 87.2286 109.539 86.6076 109.539 85.8053C109.539 85.2878 109.41 84.8349 109.151 84.4467C108.892 84.0585 108.439 83.6963 107.792 83.3598C107.171 82.9975 106.291 82.6223 105.153 82.2341C103.626 81.7166 102.397 81.2119 101.465 80.7203C100.559 80.2286 99.9125 79.6722 99.5243 79.0511C99.1361 78.43 98.942 77.6666 98.942 76.7609C98.942 75.1823 99.5502 73.979 100.766 73.1509C102.009 72.2969 103.781 71.8699 106.084 71.8699C106.576 71.8699 107.107 71.9087 107.676 71.9864C108.271 72.0381 108.866 72.1158 109.462 72.2193C110.057 72.3228 110.6 72.4392 111.092 72.5686V76.7997C110.083 76.5151 109.125 76.2822 108.219 76.101C107.314 75.9199 106.447 75.8293 105.619 75.8293C104.351 75.8293 103.393 76.0104 102.746 76.3727C102.099 76.735 101.776 77.2655 101.776 77.9642C101.776 78.6371 102.086 79.1934 102.707 79.6334C103.328 80.0474 104.441 80.5521 106.046 81.1473C107.495 81.6131 108.646 82.1177 109.5 82.6611C110.354 83.1787 110.975 83.7739 111.364 84.4467C111.752 85.0937 111.946 85.8441 111.946 86.6981C111.946 88.2249 111.338 89.4671 110.121 90.4246C108.931 91.3562 107.145 91.822 104.765 91.822C103.574 91.822 102.487 91.7444 101.504 91.5891C100.546 91.4338 99.7055 91.2397 98.9809 91.0068ZM114.352 91.3174V87.9403C114.766 87.9662 115.154 87.992 115.517 88.0179C115.879 88.0179 116.241 88.0179 116.604 88.0179C117.328 88.0179 117.846 87.992 118.156 87.9403C118.467 87.8885 118.687 87.7979 118.816 87.6686C118.92 87.5909 118.997 87.4615 119.049 87.2804C119.127 87.0992 119.178 86.8275 119.204 86.4652C119.256 86.077 119.282 85.5595 119.282 84.9125C119.308 84.2397 119.321 83.3469 119.321 82.2341C119.321 81.1731 119.308 80.3062 119.282 79.6334C119.282 78.9605 119.256 78.443 119.204 78.0807C119.178 77.6925 119.127 77.4079 119.049 77.2267C118.997 77.0456 118.92 76.9162 118.816 76.8385C118.687 76.7091 118.48 76.6315 118.195 76.6056C117.91 76.5539 117.458 76.528 116.837 76.528C116.5 76.528 116.177 76.528 115.866 76.528C115.581 76.528 115.258 76.5409 114.896 76.5668V72.3357H120.796C120.77 73.1121 120.744 73.9143 120.718 74.7424C120.718 75.5446 120.705 76.3468 120.679 77.1491C120.679 77.9254 120.679 78.6759 120.679 79.4005C120.679 80.0992 120.679 80.7203 120.679 81.2637C120.679 82.6094 120.679 83.6833 120.679 84.4855C120.705 85.2878 120.731 85.9088 120.757 86.3488C120.809 86.7887 120.861 87.0992 120.912 87.2804C120.99 87.4615 121.093 87.5909 121.223 87.6686C121.352 87.7979 121.559 87.8885 121.844 87.9403C122.129 87.992 122.646 88.0179 123.397 88.0179C123.707 88.0179 124.031 88.0179 124.367 88.0179C124.703 87.992 125.053 87.9662 125.415 87.9403V91.3174H114.352ZM119.631 68.2599C117.975 68.2599 117.147 67.5224 117.147 66.0473C117.147 64.5723 117.975 63.8347 119.631 63.8347C121.236 63.8347 122.038 64.5723 122.038 66.0473C122.038 67.5224 121.236 68.2599 119.631 68.2599ZM134.548 99.3137C133.41 99.3137 132.31 99.2361 131.249 99.0808C130.188 98.9256 129.218 98.7185 128.338 98.4598V94.1122C128.907 94.3193 129.541 94.5133 130.24 94.6945C130.938 94.9015 131.65 95.0697 132.375 95.1991C133.099 95.3285 133.824 95.3932 134.548 95.3932C136.463 95.3932 138.003 95.0697 139.168 94.4228C140.332 93.7758 141.173 92.896 141.691 91.7832C142.208 90.6963 142.467 89.493 142.467 88.1732C142.467 87.785 142.454 87.5003 142.428 87.3192C142.402 87.1381 142.312 87.0475 142.157 87.0475C142.027 87.0475 141.885 87.1251 141.73 87.2804C141.574 87.4357 141.329 87.7203 140.992 88.1344C140.707 88.5225 140.319 88.9366 139.828 89.3765C139.362 89.8164 138.741 90.1917 137.964 90.5022C137.188 90.8128 136.23 90.968 135.092 90.968C132.478 90.968 130.486 90.1787 129.114 88.6002C127.742 86.9957 127.057 84.6149 127.057 81.4578C127.057 78.3524 127.717 75.9846 129.036 74.3542C130.356 72.698 132.375 71.8699 135.092 71.8699C136.282 71.8699 137.266 72.0252 138.042 72.3357C138.844 72.6204 139.478 72.9827 139.944 73.4226C140.436 73.8625 140.811 74.2895 141.07 74.7036C141.38 75.1176 141.6 75.4023 141.73 75.5576C141.885 75.7128 142.027 75.7905 142.157 75.7905C142.312 75.7905 142.402 75.6999 142.428 75.5187C142.454 75.3117 142.467 74.9753 142.467 74.5095C142.467 74.2507 142.454 73.9272 142.428 73.5391C142.428 73.1509 142.415 72.7498 142.39 72.3357H144.214C144.188 73.7331 144.149 75.1435 144.097 76.5668C144.072 77.9642 144.046 79.3099 144.02 80.6038C144.02 81.8718 144.02 82.9846 144.02 83.9421C144.02 84.5891 144.02 85.1454 144.02 85.6112C144.02 86.077 144.02 86.5299 144.02 86.9698C144.02 87.4098 144.02 87.9403 144.02 88.5614C144.02 92.0808 143.256 94.7462 141.73 96.5577C140.203 98.3951 137.809 99.3137 134.548 99.3137ZM135.441 87.6297C136.968 87.6297 138.262 87.4098 139.323 86.9698C140.384 86.504 141.186 85.8441 141.73 84.9902C142.299 84.1103 142.584 83.0234 142.584 81.7295C142.584 79.7886 142.001 78.3265 140.837 77.3432C139.698 76.3598 137.9 75.8681 135.441 75.8681C133.035 75.8681 131.275 76.3857 130.162 77.4208C129.049 78.4559 128.493 79.8922 128.493 81.7295C128.493 83.5669 129.049 85.016 130.162 86.077C131.275 87.1122 133.035 87.6297 135.441 87.6297ZM149.371 91.3174C149.397 90.0494 149.41 88.9366 149.41 87.9791C149.436 87.0216 149.448 86.1676 149.448 85.4172C149.474 84.6408 149.487 83.9292 149.487 83.2822C149.487 82.6094 149.487 81.9365 149.487 81.2637C149.487 80.5909 149.487 79.931 149.487 79.284C149.487 78.6112 149.474 77.9254 149.448 77.2267C149.448 76.5021 149.436 75.7387 149.41 74.9365C149.41 74.1343 149.397 73.2673 149.371 72.3357H151.195C151.169 72.8015 151.144 73.2285 151.118 73.6167C151.118 74.0049 151.118 74.3413 151.118 74.6259C151.118 75.2211 151.131 75.6352 151.156 75.8681C151.182 76.0751 151.273 76.1786 151.428 76.1786C151.558 76.1786 151.687 76.101 151.816 75.9457C151.972 75.7905 152.205 75.4929 152.515 75.0529C152.774 74.6648 153.175 74.2248 153.718 73.7331C154.262 73.2156 154.961 72.7757 155.815 72.4134C156.669 72.0511 157.704 71.8699 158.92 71.8699C160.291 71.8699 161.469 72.1158 162.452 72.6074C163.462 73.0991 164.238 73.8237 164.781 74.7812C165.351 75.7128 165.635 76.8644 165.635 78.236C165.635 79.4005 165.635 80.4485 165.635 81.3802C165.635 82.3118 165.635 83.1787 165.635 83.9809C165.635 84.7573 165.635 85.5207 165.635 86.2711C165.661 86.9957 165.687 87.7721 165.713 88.6002C165.739 89.4024 165.765 90.3081 165.791 91.3174H163.889C163.914 90.3599 163.94 89.5188 163.966 88.7943C163.992 88.0438 164.005 87.371 164.005 86.7758C164.031 86.1806 164.044 85.6242 164.044 85.1066C164.044 84.5632 164.044 84.0197 164.044 83.4763C164.044 82.907 164.044 82.2859 164.044 81.6131C164.044 80.5779 163.927 79.7369 163.694 79.0899C163.462 78.443 163.086 77.9642 162.569 77.6537C162.077 77.3173 161.456 77.0844 160.706 76.955C159.981 76.8256 159.101 76.7609 158.066 76.7609C156.746 76.7609 155.633 76.8903 154.728 77.1491C153.848 77.382 153.136 77.7572 152.593 78.2748C152.049 78.7665 151.661 79.4005 151.428 80.1768C151.195 80.9273 151.079 81.8071 151.079 82.8164C151.079 83.3598 151.079 83.8903 151.079 84.4079C151.079 84.8996 151.079 85.456 151.079 86.077C151.105 86.6981 151.131 87.4227 151.156 88.2508C151.182 89.0789 151.208 90.1011 151.234 91.3174H149.371ZM179.633 91.822C177.77 91.822 176.192 91.5762 174.898 91.0845C173.63 90.5669 172.595 89.8553 171.792 88.9495C171.016 88.0179 170.447 86.931 170.084 85.6889C169.748 84.4208 169.58 83.0493 169.58 81.5742C169.58 79.4264 169.942 77.6408 170.667 76.2175C171.417 74.7683 172.426 73.6814 173.694 72.9568C174.962 72.2322 176.36 71.8699 177.887 71.8699C180.009 71.8699 181.678 72.2581 182.894 73.0344C184.11 73.8108 184.964 74.9494 185.456 76.4504C185.974 77.9254 186.232 79.7498 186.232 81.9236H171.133C171.21 82.7517 171.391 83.528 171.676 84.2526C171.961 84.9772 172.388 85.6112 172.957 86.1547C173.552 86.6981 174.316 87.1251 175.247 87.4357C176.205 87.7462 177.369 87.9015 178.741 87.9015C179.853 87.9015 180.914 87.8238 181.924 87.6686C182.933 87.4874 184.059 87.2416 185.301 86.931V91.0068C184.317 91.3174 183.399 91.5244 182.545 91.6279C181.691 91.7573 180.72 91.822 179.633 91.822ZM184.563 80.3709C184.563 78.87 183.968 77.6796 182.778 76.7997C181.613 75.894 179.983 75.4411 177.887 75.4411C176.67 75.4411 175.571 75.6481 174.587 76.0622C173.604 76.4762 172.815 77.0585 172.219 77.809C171.624 78.5336 171.301 79.3875 171.249 80.3709H184.563ZM189.847 91.3174C189.873 90.0494 189.886 88.9366 189.886 87.9791C189.912 87.0216 189.925 86.1676 189.925 85.4172C189.951 84.6408 189.963 83.9292 189.963 83.2822C189.963 82.6094 189.963 81.9365 189.963 81.2637C189.963 80.6167 189.963 79.9569 189.963 79.284C189.963 78.6112 189.951 77.9254 189.925 77.2267C189.925 76.5021 189.912 75.7516 189.886 74.9753C189.886 74.1731 189.873 73.2932 189.847 72.3357H191.71C191.684 72.8015 191.658 73.2673 191.633 73.7331C191.607 74.199 191.594 74.5871 191.594 74.8977C191.594 75.4929 191.607 75.894 191.633 76.101C191.658 76.308 191.749 76.4115 191.904 76.4115C192.034 76.4115 192.176 76.321 192.331 76.1398C192.512 75.9587 192.771 75.6093 193.108 75.0918C193.366 74.7036 193.742 74.2637 194.233 73.772C194.725 73.2544 195.372 72.8145 196.174 72.4522C196.976 72.064 197.96 71.8699 199.124 71.8699C199.564 71.8699 199.991 71.9087 200.405 71.9864C200.845 72.0381 201.233 72.1028 201.57 72.1805V77.1103C201.156 77.0326 200.651 76.9679 200.056 76.9162C199.487 76.8385 198.646 76.7997 197.533 76.7997C196.213 76.7997 195.1 77.0585 194.195 77.5761C193.315 78.0677 192.642 78.7665 192.176 79.6722C191.736 80.5779 191.516 81.626 191.516 82.8164C191.516 83.3598 191.516 83.8903 191.516 84.4079C191.516 84.8996 191.516 85.456 191.516 86.077C191.542 86.6981 191.568 87.4227 191.594 88.2508C191.62 89.0789 191.658 90.1011 191.71 91.3174H189.847Z" fill="black"/>
</svg>
