<svg width="256" height="126" viewBox="0 0 256 126" fill="none" xmlns="http://www.w3.org/2000/svg">
<path d="M236.351 90.0589L236.351 90.0588C236.902 89.5796 237.634 89.3587 238.373 89.2441C239.09 89.1329 239.882 89.113 240.628 89.0942L240.706 89.0923C241.493 89.0724 242.223 89.0503 242.848 88.9391C243.478 88.8272 243.915 88.6382 244.18 88.3508C244.474 88.0305 244.638 87.5542 244.704 86.9148C244.769 86.2765 244.73 85.5457 244.676 84.7674C244.67 84.6864 244.665 84.6049 244.659 84.523C244.61 83.8354 244.56 83.1182 244.587 82.4645C244.617 81.7383 244.743 81.0039 245.143 80.4303M236.351 90.0589L252.631 48.5618C253.154 49.6862 252.485 51.2116 251.821 52.7235C251.239 54.0511 250.661 55.3682 250.899 56.394L250.411 56.506C250.411 56.5064 250.412 56.5067 250.412 56.507C250.57 57.1956 251.018 57.8052 251.525 58.3433C251.971 58.8171 252.508 59.2793 253.021 59.7209C253.095 59.784 253.167 59.8466 253.239 59.9088C253.829 60.4185 254.366 60.9006 254.758 61.3868C255.151 61.8741 255.349 62.307 255.349 62.7162C255.349 63.1254 255.151 63.5584 254.758 64.0457C254.366 64.5319 253.829 65.014 253.239 65.5237C253.167 65.586 253.094 65.6488 253.02 65.7121C252.508 66.1535 251.971 66.6155 251.524 67.0891C251.016 67.6272 250.569 68.2369 250.409 68.9255M236.351 90.0589C235.822 90.5201 235.526 91.2038 235.33 91.9032C235.149 92.5514 235.035 93.2845 234.926 93.9858C234.917 94.0468 234.907 94.1076 234.898 94.168C234.777 94.9409 234.655 95.6669 234.454 96.2821C234.252 96.8992 233.991 97.3357 233.64 97.5905L236.351 90.0589ZM245.143 80.4303L245.553 80.716L245.142 80.4319C245.142 80.4314 245.143 80.4308 245.143 80.4303ZM245.143 80.4303C245.556 79.8338 246.206 79.4305 246.888 79.1235C247.529 78.8351 248.259 78.6067 248.948 78.3906L249.094 78.3451C249.842 78.1101 250.532 77.886 251.093 77.6042C251.656 77.3208 252.012 77.0155 252.175 76.6624C252.353 76.2792 252.359 75.792 252.215 75.1784C252.07 74.5658 251.793 73.897 251.482 73.1842C251.442 73.0934 251.402 73.0019 251.362 72.9097C251.092 72.2952 250.81 71.654 250.614 71.043C250.391 70.3448 250.251 69.6076 250.409 68.9255M250.409 68.9255L250.896 69.0385L250.409 68.926C250.409 68.9258 250.409 68.9257 250.409 68.9255ZM221.779 104.907L221.781 104.907C222.164 104.704 222.486 104.307 222.777 103.724C223.068 103.142 223.297 102.441 223.534 101.694L223.578 101.554C223.796 100.865 224.024 100.144 224.31 99.5204C224.613 98.8595 225.015 98.2311 225.617 97.861M221.779 104.907L233.639 97.591C233.318 97.8228 232.845 97.9252 232.201 97.9178C231.562 97.9105 230.836 97.7978 230.059 97.6745L230.012 97.6672C229.266 97.5487 228.473 97.4229 227.74 97.4056C226.996 97.3879 226.239 97.4786 225.617 97.861M221.779 104.907C221.424 105.097 220.936 105.136 220.296 105.045C219.659 104.954 218.953 104.748 218.197 104.525L218.156 104.513C217.43 104.299 216.659 104.072 215.935 103.961C215.2 103.849 214.44 103.844 213.777 104.149L213.777 104.149M221.779 104.907L213.777 104.149M225.617 97.861L225.879 98.2871L225.617 97.8613C225.617 97.8612 225.617 97.8611 225.617 97.861ZM213.777 104.149C213.132 104.446 212.659 105.024 212.282 105.647C211.921 106.241 211.61 106.943 211.313 107.612L211.265 107.721C210.946 108.438 210.641 109.111 210.289 109.658C209.936 110.209 209.574 110.569 209.175 110.73L209.174 110.73M213.777 104.149L209.174 110.73M209.174 110.73C208.797 110.883 208.304 110.872 207.673 110.717C207.047 110.562 206.364 110.288 205.634 109.992L205.601 109.978C204.897 109.693 204.151 109.391 203.441 109.211C202.723 109.029 201.969 108.951 201.283 109.193L201.282 109.193M209.174 110.73L201.282 109.193M201.282 109.193C200.613 109.43 200.089 109.963 199.656 110.549M201.282 109.193L199.656 110.549M188.364 113.179L188.364 113.179C189.066 112.991 189.811 113.128 190.51 113.367C191.204 113.603 191.924 113.964 192.603 114.304L192.632 114.319C193.336 114.672 193.996 115.001 194.609 115.206C195.227 115.412 195.72 115.465 196.111 115.345L188.364 113.179ZM188.364 113.179C187.674 113.364 187.109 113.856 186.632 114.409C186.169 114.945 185.74 115.599 185.333 116.22L185.286 116.291C184.855 116.948 184.446 117.565 184.012 118.051C183.575 118.54 183.163 118.839 182.748 118.936C182.348 119.028 181.858 118.94 181.255 118.692C180.657 118.444 180.021 118.07 179.343 117.669L179.316 117.653C178.661 117.266 177.968 116.856 177.293 116.573C176.612 116.288 175.88 116.101 175.168 116.242C174.466 116.381 173.869 116.834 173.356 117.354C172.858 117.86 172.387 118.487 171.939 119.082L171.891 119.145C171.418 119.772 170.97 120.361 170.506 120.818C170.039 121.278 169.608 121.55 169.188 121.62L169.187 121.62M188.364 113.179L169.187 121.62M169.187 121.62C168.781 121.687 168.296 121.57 167.709 121.284C167.127 121 166.515 120.587 165.863 120.146L165.836 120.127C165.207 119.701 164.541 119.249 163.886 118.926C163.224 118.599 162.505 118.367 161.786 118.465L161.786 118.465M169.187 121.62L161.786 118.465M161.786 118.465C161.076 118.562 160.452 118.978 159.909 119.467C159.378 119.945 158.867 120.546 158.382 121.115L158.337 121.168C157.828 121.767 157.346 122.328 156.856 122.758C156.363 123.19 155.919 123.437 155.498 123.483C155.087 123.526 154.608 123.38 154.038 123.061C153.472 122.744 152.884 122.297 152.259 121.819L152.231 121.799C151.628 121.337 150.989 120.849 150.354 120.489C149.713 120.126 149.009 119.853 148.286 119.91L148.286 119.91M161.786 118.465L148.286 119.91M148.286 119.91C147.571 119.967 146.925 120.348 146.354 120.807C145.798 121.255 145.254 121.827 144.739 122.37L144.693 122.419C144.152 122.989 143.64 123.523 143.127 123.926C142.611 124.33 142.154 124.552 141.731 124.574C141.317 124.596 140.846 124.424 140.293 124.075C139.744 123.728 139.181 123.25 138.583 122.739L138.555 122.715C137.978 122.223 137.367 121.702 136.753 121.309C136.133 120.912 135.445 120.602 134.721 120.621C133.997 120.639 133.327 120.984 132.73 121.413C132.144 121.835 131.567 122.383 131.021 122.902L130.985 122.936C130.415 123.477 129.879 123.984 129.348 124.359C128.814 124.735 128.348 124.932 127.924 124.932C127.501 124.932 127.033 124.735 126.496 124.358C125.963 123.983 125.424 123.476 124.854 122.936L124.807 122.892C124.263 122.376 123.689 121.832 123.108 121.414C122.514 120.985 121.848 120.639 121.13 120.621C120.412 120.602 119.728 120.913 119.11 121.309C118.501 121.699 117.893 122.217 117.318 122.707L117.28 122.738C116.68 123.249 116.115 123.727 115.564 124.074C115.009 124.424 114.536 124.596 114.122 124.574C113.698 124.552 113.241 124.33 112.725 123.926C112.212 123.523 111.7 122.989 111.158 122.419L111.111 122.369C110.596 121.827 110.053 121.255 109.497 120.807C108.926 120.348 108.28 119.967 107.565 119.91L107.565 119.91M148.286 119.91L107.565 119.91M107.565 119.91C106.843 119.853 106.139 120.125 105.497 120.487C104.86 120.847 104.22 121.336 103.615 121.798L103.593 121.815C102.967 122.292 102.379 122.74 101.813 123.057C101.243 123.377 100.763 123.524 100.351 123.482C99.9291 123.436 99.4846 123.189 98.9925 122.758C98.5021 122.328 98.0204 121.767 97.5114 121.168L97.4645 121.113C96.9808 120.544 96.4712 119.945 95.9417 119.467C95.3983 118.978 94.7749 118.562 94.065 118.465L94.0646 118.465M107.565 119.91L94.0646 118.465M94.0646 118.465C93.3462 118.367 92.6275 118.599 91.9661 118.926C91.3111 119.249 90.6453 119.7 90.0166 120.127L89.9884 120.146C89.3368 120.587 88.7248 121 88.1419 121.284C87.5552 121.57 87.0699 121.687 86.6637 121.62L86.6634 121.62M94.0646 118.465L86.6634 121.62M86.6634 121.62C86.2426 121.55 85.812 121.278 85.3451 120.818C84.8806 120.361 84.4326 119.772 83.96 119.145L83.9122 119.081C83.4644 118.487 82.9928 117.86 82.4946 117.354C81.9817 116.834 81.3849 116.381 80.6826 116.242M86.6634 121.62L67.4847 113.179M67.4847 113.179L67.4849 113.179C68.175 113.364 68.7398 113.856 69.2167 114.409C69.6783 114.944 70.1063 115.597 70.513 116.217L70.5615 116.291C70.9924 116.948 71.4017 117.564 71.8363 118.051C72.2729 118.539 72.686 118.839 73.1028 118.936C73.5025 119.028 73.9929 118.941 74.5954 118.692C75.194 118.444 75.8297 118.07 76.5071 117.669L76.534 117.654C77.1883 117.266 77.8817 116.856 78.5569 116.573C79.2379 116.288 79.9704 116.101 80.6826 116.242M67.4847 113.179C66.7832 112.991 66.039 113.128 65.3393 113.367C64.646 113.603 63.9259 113.964 63.2465 114.305L63.2176 114.319C62.5139 114.672 61.8542 115.001 61.2408 115.206C60.6234 115.412 60.13 115.465 59.7402 115.344C59.33 115.218 58.9392 114.89 58.5393 114.371C58.1412 113.855 57.7783 113.211 57.3974 112.525L57.3482 112.436C56.9906 111.791 56.6147 111.114 56.1979 110.549C55.7648 109.962 55.2401 109.43 54.5684 109.193M67.4847 113.179L19.4972 90.0565M80.6826 116.242L80.5855 116.732L80.6825 116.242C80.6826 116.242 80.6826 116.242 80.6826 116.242ZM19.4972 90.0565L19.4983 90.0574C20.026 90.5187 20.3204 91.2023 20.5158 91.9013C20.6965 92.5479 20.8104 93.2792 20.9194 93.979C20.9291 94.0416 20.9388 94.1039 20.9486 94.1659C21.0696 94.9388 21.1921 95.6651 21.394 96.2807C21.5965 96.8982 21.8578 97.3355 22.2093 97.5909C22.5304 97.8228 23.0034 97.9252 23.6475 97.9178C24.2872 97.9105 25.0123 97.7977 25.7899 97.6743L25.838 97.6666C26.5842 97.5481 27.3764 97.4223 28.1086 97.4047C28.8531 97.3867 29.6096 97.477 30.2314 97.8589C30.834 98.229 31.2357 98.8576 31.539 99.5187C31.8251 100.142 32.0533 100.864 32.2711 101.553C32.2858 101.6 32.3005 101.646 32.3152 101.693C32.5518 102.44 32.781 103.142 33.0715 103.723C33.363 104.307 33.6849 104.704 34.0679 104.907C34.4238 105.095 34.9128 105.133 35.5543 105.041C36.1914 104.95 36.8978 104.744 37.6534 104.522L37.6899 104.511C38.4178 104.297 39.1902 104.07 39.9157 103.96C40.6498 103.849 41.4096 103.844 42.0717 104.149C42.7169 104.446 43.1902 105.024 43.568 105.646C43.9289 106.241 44.2405 106.943 44.5373 107.612L44.5854 107.72C44.904 108.437 45.2091 109.11 45.561 109.658C45.9144 110.208 46.2762 110.568 46.6762 110.73C47.0522 110.881 47.5456 110.869 48.1764 110.714C48.8029 110.56 49.4864 110.285 50.2162 109.989L50.2456 109.978C50.9505 109.692 51.6982 109.39 52.4099 109.21C53.1279 109.028 53.8821 108.951 54.5684 109.193M19.4972 90.0565C18.9465 89.5779 18.2147 89.3573 17.476 89.2429C16.7594 89.1318 15.9682 89.1118 15.2225 89.093L15.1426 89.091C14.3561 89.071 13.6255 89.0486 13.0007 88.9373C12.3717 88.8253 11.9343 88.6363 11.6694 88.3492C11.3748 88.0286 11.21 87.5521 11.1442 86.9124C11.0784 86.2741 11.1171 85.5433 11.1705 84.7653C11.1761 84.6828 11.182 84.5996 11.1878 84.5161C11.236 83.8302 11.2861 83.1151 11.2595 82.4635C11.2299 81.7381 11.104 81.0045 10.7067 80.4315M19.4972 90.0565L3.67343 76.6602M54.5684 109.193L54.4019 109.665M54.5684 109.193C54.5683 109.193 54.5682 109.193 54.5681 109.193L54.4019 109.665M54.4019 109.665C53.3073 109.278 51.8549 109.866 50.4154 110.448C48.9682 111.034 47.534 111.614 46.4896 111.194M54.4019 109.665C55.4425 110.031 56.1769 111.355 56.9173 112.69L46.4896 111.194M46.4896 111.194C45.383 110.748 44.7308 109.279 44.0851 107.825C43.4683 106.436 42.8576 105.061 41.8626 104.603C40.8054 104.116 39.3015 104.559 37.8135 104.996L46.4896 111.194ZM3.67343 76.6602L3.67354 76.6604C3.83759 77.0142 4.19344 77.3201 4.75676 77.6041C5.31687 77.8865 6.00714 78.1111 6.75559 78.3465C6.80527 78.3621 6.85521 78.3778 6.90535 78.3935C7.59351 78.6094 8.3211 78.8377 8.96066 79.1252C9.64349 79.4323 10.2941 79.8353 10.7067 80.4315M3.67343 76.6602C3.49642 76.2789 3.4906 75.7928 3.63558 75.1793C3.7803 74.5668 4.05753 73.8977 4.3688 73.1844C4.4081 73.0944 4.44799 73.0035 4.48813 72.9121C4.75842 72.2964 5.04052 71.6539 5.2366 71.0417C5.46035 70.3431 5.59984 69.6054 5.44156 68.9234L4.9545 69.0364L3.67343 76.6602ZM10.7067 80.4315L10.2956 80.716L10.7064 80.431C10.7065 80.4312 10.7066 80.4313 10.7067 80.4315ZM11.3034 36.7429C10.4604 37.6576 10.5774 39.3142 10.6925 40.9434C10.7961 42.4094 10.8981 43.8532 10.2977 44.7144M11.3034 36.7429L5.44156 56.507L4.9545 56.394M11.3034 36.7429C12.064 35.9173 13.6177 35.8779 15.1969 35.8379M11.3034 36.7429L15.1969 35.8379M10.2977 44.7144C9.64775 45.6566 8.18596 46.1146 6.74534 46.5659C5.21239 47.0462 3.70341 47.519 3.22198 48.5597C2.69871 49.6878 3.36882 51.2143 4.03256 52.7263C4.61497 54.053 5.19248 55.3685 4.9545 56.394M10.2977 44.7144L10.7079 45.0003C10.7081 45 10.7084 44.9996 10.7086 44.9993M10.2977 44.7144L10.7093 44.9983C10.7091 44.9986 10.7088 44.999 10.7086 44.9993M4.9545 56.394L5.44158 56.5069M4.9545 56.394L5.44158 56.5069M5.44158 56.5069C5.59984 55.8249 5.46034 55.0877 5.2366 54.3895C5.04081 53.7786 4.75923 53.1374 4.48939 52.523C4.4489 52.4307 4.40866 52.3391 4.36902 52.2483C4.05791 51.5355 3.78091 50.8667 3.63648 50.254C3.49184 49.6405 3.49779 49.1533 3.67556 48.7701L3.67578 48.7696C3.83926 48.4162 4.19451 48.1108 4.75768 47.8273C5.31766 47.5454 6.00794 47.3213 6.75666 47.0864C6.80498 47.0712 6.85355 47.056 6.90231 47.0407C7.59191 46.8247 8.32146 46.5963 8.96264 46.3078C9.64552 46.0005 10.296 45.5968 10.7086 44.9993M5.44158 56.5069L10.7086 44.9993M10.7086 44.9993C11.1077 44.4262 11.2343 43.6923 11.264 42.9667C11.2908 42.3134 11.2401 41.5966 11.1914 40.9093C11.1856 40.8271 11.1798 40.7452 11.1742 40.664C11.1203 39.8857 11.0809 39.1549 11.1463 38.5168C11.2117 37.8773 11.3763 37.4015 11.671 37.0817L11.6711 37.0817C11.9359 36.7942 12.3734 36.6051 13.0025 36.493C13.6271 36.3818 14.3574 36.3594 15.1436 36.3394L15.2236 36.3374C15.969 36.3186 16.76 36.2986 17.4763 36.1875C18.2149 36.073 18.9466 35.8524 19.4972 35.3739L19.4973 35.3738C20.0277 34.9126 20.3233 34.2288 20.5193 33.5293C20.701 32.8805 20.8148 32.1466 20.9237 31.4447C20.9331 31.3842 20.9424 31.324 20.9518 31.2641C21.0724 30.4911 21.1941 29.7648 21.3953 29.1493C21.5971 28.5321 21.8579 28.0951 22.2089 27.8398C22.5301 27.6076 23.0031 27.5052 23.6472 27.5126C24.2868 27.5199 25.0116 27.6327 25.7891 27.7561L25.8369 27.7637C26.5831 27.8822 27.3753 28.008 28.1077 28.0257C28.8524 28.0436 29.609 27.9534 30.2313 27.5715L30.2314 27.5714C30.8339 27.2014 31.2357 26.573 31.539 25.9121C31.8251 25.2887 32.0533 24.567 32.271 23.8783C32.2858 23.8316 32.3005 23.7851 32.3152 23.7387C32.5518 22.9918 32.781 22.2903 33.0714 21.7089C33.363 21.1252 33.6849 20.7286 34.0679 20.5259L34.0697 20.5249C34.4241 20.3355 34.9116 20.2962 35.5522 20.3875C36.1884 20.4782 36.8943 20.6842 37.6499 20.907L37.6901 20.9188C38.4169 21.1331 39.1882 21.3606 39.9129 21.4712C40.6476 21.5833 41.4081 21.5885 42.0714 21.2837L42.0717 21.2836C42.717 20.9865 43.1902 20.4086 43.5681 19.7857C43.9288 19.191 44.2404 18.4892 44.5371 17.8206C44.5533 17.7842 44.5694 17.748 44.5855 17.7118C44.904 16.9949 45.2091 16.3218 45.561 15.7741C45.9144 15.2239 46.2762 14.8636 46.6761 14.7028L46.6774 14.7023C47.0531 14.5499 47.5461 14.5609 48.1766 14.7159C48.8029 14.87 49.4862 15.145 50.216 15.4406L50.249 15.454C50.9528 15.7391 51.6991 16.0415 52.4095 16.2217C53.1276 16.4038 53.8819 16.4816 54.5684 16.2392C55.2405 16.0024 55.7656 15.4701 56.1988 14.8835C56.616 14.3185 56.992 13.6404 57.3497 12.9953L57.3982 12.9078C57.779 12.2214 58.1418 11.5771 58.5396 11.0611C58.9394 10.5427 59.3301 10.2144 59.7402 10.088L59.7406 10.0879C60.1303 9.96746 60.6235 10.0196 61.2409 10.2257C61.8543 10.4303 62.514 10.7595 63.2178 11.1124L63.2463 11.1267C63.926 11.4675 64.6464 11.8288 65.3403 12.0648C66.0404 12.3029 66.785 12.4397 67.4871 12.2512L67.3575 11.7683L67.4871 12.2512C68.1765 12.066 68.7413 11.5749 69.2183 11.022C69.6806 10.4864 70.1093 9.83322 70.5167 9.21253L70.564 9.14051C70.9952 8.48385 71.4047 7.86752 71.8391 7.38135C72.2755 6.89291 72.6877 6.59365 73.1028 6.49692L10.7086 44.9993ZM201.283 16.2392C200.61 16.0024 200.085 15.4701 199.652 14.8835C199.235 14.3185 198.859 13.6403 198.501 12.9952L198.453 12.9078C198.072 12.2214 197.709 11.5771 197.311 11.0611C196.912 10.5427 196.521 10.2144 196.111 10.088L196.111 10.0879C195.72 9.96741 195.227 10.0196 194.609 10.2257C193.996 10.4303 193.336 10.7595 192.632 11.1124L192.603 11.127C191.924 11.4677 191.204 11.8289 190.51 12.0648C189.81 12.3029 189.066 12.4397 188.364 12.2512C187.674 12.0661 187.109 11.5749 186.633 11.0219C186.171 10.4868 185.743 9.83442 185.337 9.21443L185.288 9.14027C184.858 8.48364 184.449 7.86743 184.014 7.3814C183.578 6.89298 183.165 6.59353 182.748 6.49685C182.348 6.40456 181.858 6.49198 181.255 6.74081C180.657 6.9881 180.021 7.36244 179.343 7.76311L179.316 7.77923C178.661 8.16621 177.968 8.57618 177.293 8.859C176.612 9.1443 175.88 9.33159 175.168 9.19048C174.466 9.05153 173.869 8.59879 173.356 8.07807C172.858 7.57191 172.386 6.94533 171.937 6.35039L171.89 6.28769C171.417 5.66018 170.969 5.07152 170.505 4.61423C170.038 4.15457 169.608 3.88245 169.188 3.81279L169.187 3.81275C168.781 3.74512 168.295 3.86298 167.708 4.14856C167.125 4.43234 166.513 4.84519 165.862 5.28678L165.833 5.30635C165.205 5.73231 164.539 6.18335 163.885 6.50661C163.223 6.83314 162.505 7.06514 161.786 6.96767L161.786 6.96763C161.076 6.87083 160.453 6.45431 159.909 5.96464C159.38 5.48787 158.871 4.88878 158.388 4.32012L158.339 4.26341C157.83 3.66462 157.348 3.10307 156.858 2.67355C156.365 2.24215 155.92 1.99556 155.497 1.9501C155.086 1.90794 154.607 2.05515 154.037 2.37445C153.47 2.69187 152.883 3.13896 152.257 3.61637L152.235 3.63356C151.63 4.09527 150.99 4.58416 150.353 4.94404C149.712 5.30652 149.008 5.57765 148.286 5.51994C147.571 5.46313 146.925 5.08238 146.355 4.6238C145.798 4.17609 145.255 3.60444 144.74 3.06212L144.693 3.01249C144.151 2.44278 143.639 1.90866 143.126 1.50661C142.61 1.10242 142.153 0.88046 141.729 0.858294C141.314 0.836696 140.841 1.00867 140.286 1.3577C139.734 1.70441 139.168 2.18238 138.568 2.69248L138.528 2.72611C137.953 3.21498 137.346 3.73105 136.738 4.12081C136.121 4.51699 135.436 4.82772 134.719 4.80972C134.002 4.7917 133.336 4.44597 132.741 4.01818C132.16 3.59962 131.586 3.05584 131.041 2.54017L130.995 2.49662C130.425 1.95601 129.885 1.4493 129.352 1.07448C128.816 0.697593 128.348 0.5 127.924 0.5C127.501 0.5 127.033 0.697592 126.497 1.07448C125.964 1.4493 125.424 1.95601 124.853 2.49661L124.808 2.54C124.263 3.05572 123.689 3.59958 123.108 4.01817C122.513 4.4459 121.848 4.79158 121.13 4.80971L201.283 16.2392ZM201.283 16.2392C201.969 16.4815 202.723 16.4041 203.441 16.2223C204.152 16.0422 204.9 15.7398 205.604 15.4546L205.635 15.4422C206.365 15.1469 207.048 14.872 207.675 14.7177C208.305 14.5624 208.799 14.551 209.174 14.7026L209.175 14.7028M201.283 16.2392L209.175 14.7028M209.175 14.7028C209.575 14.8636 209.937 15.2239 210.29 15.7741C210.642 16.3218 210.947 16.9949 211.266 17.7118L211.314 17.8207C211.611 18.4892 211.922 19.1911 212.283 19.7857C212.661 20.4086 213.134 20.9865 213.779 21.2836C214.441 21.5884 215.201 21.5838 215.935 21.4724C216.661 21.3623 217.433 21.1351 218.161 20.9209L218.198 20.9102C218.953 20.688 219.66 20.4821 220.297 20.391C220.938 20.2993 221.427 20.3376 221.783 20.5259C222.166 20.7286 222.488 21.1253 222.78 21.7093C223.071 22.2909 223.3 22.9927 223.537 23.7399L223.581 23.8794C223.799 24.5684 224.027 25.2903 224.314 25.9139C224.617 26.575 225.019 27.2036 225.622 27.5736C226.243 27.9555 227 28.0457 227.744 28.0278C228.476 28.0102 229.268 27.8844 230.014 27.7659L230.062 27.7582C230.84 27.6348 231.565 27.522 232.205 27.5147C232.849 27.5073 233.322 27.6096 233.644 27.8415C233.995 28.0969 234.257 28.5343 234.459 29.1518C234.661 29.7673 234.783 30.4935 234.905 31.2663C234.914 31.3281 234.924 31.3901 234.934 31.4524C235.043 32.1524 235.157 32.8838 235.337 33.5303C235.533 34.2291 235.827 34.9124 236.355 35.3732L236.356 35.3737M209.175 14.7028L236.356 35.3737M236.356 35.3737C236.906 35.8529 237.638 36.0738 238.377 36.1884C239.094 36.2996 239.885 36.3196 240.631 36.3385L240.711 36.3405C241.497 36.3605 242.228 36.3828 242.852 36.4942C243.482 36.6064 243.919 36.7957 244.184 37.0835L244.552 36.745L236.356 35.3737ZM199.656 110.549C199.241 111.112 198.866 111.788 198.509 112.431M199.656 110.549L198.509 112.431M198.509 112.431L198.457 112.524M198.509 112.431L198.457 112.524M198.457 112.524C198.076 113.211 197.712 113.855 197.313 114.371M198.457 112.524L197.313 114.371M197.313 114.371C196.913 114.889 196.521 115.218 196.111 115.344L197.313 114.371ZM15.1969 35.8379C16.7321 35.799 18.2913 35.7595 19.1692 34.9965L15.1969 35.8379ZM98.9939 2.67345C99.487 2.24149 99.9315 1.99507 100.353 1.94997L73.1034 6.49678C73.5031 6.40461 73.9932 6.49203 74.5954 6.7408C75.194 6.98807 75.8297 7.36241 76.5071 7.76308L76.5338 7.77884C77.1882 8.16594 77.8817 8.57609 78.5569 8.85902C79.2379 9.14434 79.9704 9.33156 80.6826 9.1905C81.3844 9.05156 81.981 8.59868 82.4937 8.07796C82.9918 7.57202 83.4634 6.94576 83.9111 6.35105L83.9589 6.28763C84.4315 5.66014 84.8795 5.07149 85.3439 4.61422C85.8108 4.15457 86.2411 3.88245 86.6613 3.81279L86.6615 3.81275C87.0683 3.74512 87.5539 3.86298 88.1406 4.14856C88.7237 4.43234 89.3356 4.84519 89.9871 5.28678L90.0158 5.30629C90.6442 5.73227 91.3096 6.18334 91.9643 6.50661C92.6255 6.83314 93.3441 7.06514 94.0626 6.96767L94.0629 6.96763C94.7728 6.87084 95.3965 6.45441 95.9404 5.9648C96.4707 5.48737 96.9812 4.88731 97.4656 4.31787L97.5118 4.26356C98.0213 3.66471 98.5035 3.10308 98.9939 2.67345ZM100.353 1.94996C100.764 1.90615 101.242 2.0521 101.812 2.37101C102.378 2.68791 102.966 3.13514 103.591 3.61304L103.618 3.63308C104.221 4.09441 104.86 4.58285 105.496 4.94265C106.137 5.30573 106.841 5.5776 107.563 5.51996C107.563 5.51996 107.563 5.51995 107.563 5.51994L107.523 5.02153L100.353 1.94996Z" fill="#FEF568" stroke="black"/>
<path d="M62.2235 60C62.2494 57.878 62.2753 56.1441 62.3011 54.7985C62.327 53.4269 62.3399 52.3271 62.3399 51.499C62.3658 50.645 62.3788 49.9593 62.3788 49.4417C62.3788 48.8983 62.3788 48.4066 62.3788 47.9666C62.3788 47.5267 62.3788 47.0091 62.3788 46.4139C62.3788 45.8187 62.3788 45.3012 62.3788 44.8613C62.3788 44.4213 62.3788 43.9426 62.3788 43.425C62.3788 42.8816 62.3658 42.1958 62.3399 41.3677C62.3399 40.5137 62.327 39.4139 62.3011 38.0682C62.3011 36.6967 62.2882 34.9499 62.2623 32.8279H72.8206C75.6155 32.8279 77.7634 33.6042 79.2643 35.1569C80.7911 36.7096 81.5545 38.8446 81.5545 41.5618C81.5545 43.2439 81.1793 44.7319 80.4288 46.0258C79.7042 47.3197 78.6173 48.3289 77.1682 49.0535C75.719 49.7781 73.8816 50.1404 71.6561 50.1404C69.7411 50.1404 68.3049 50.1663 67.3474 50.218C66.3899 50.2698 65.7171 50.3604 65.3289 50.4898C64.9666 50.6192 64.6949 50.8132 64.5137 51.072C64.3584 51.3049 64.242 51.6802 64.1644 52.1977C64.1126 52.7153 64.0867 53.414 64.0867 54.2939C64.0867 54.682 64.0867 55.0443 64.0867 55.3807C64.1126 55.7172 64.1255 56.0795 64.1255 56.4676C64.1514 56.8558 64.1773 57.3345 64.2032 57.9039C64.2291 58.4473 64.2679 59.146 64.3196 60H62.2235ZM71.2291 48.3936C73.0406 48.3936 74.438 48.2125 75.4214 47.8502C76.4306 47.4879 77.207 47.0609 77.7504 46.5692C78.268 46.1293 78.6432 45.6247 78.8761 45.0553C79.109 44.4601 79.2255 43.8132 79.2255 43.1145C79.2255 42.3899 79.109 41.7429 78.8761 41.1736C78.6432 40.5784 78.268 40.0609 77.7504 39.6209C77.1811 39.0775 76.3789 38.6376 75.3437 38.3011C74.3086 37.9647 72.9371 37.7965 71.2291 37.7965C70.0646 37.7965 69.0942 37.8094 68.3178 37.8353C67.5415 37.8612 66.9204 37.9 66.4546 37.9518C65.9888 38.0035 65.6265 38.0682 65.3677 38.1459C65.1348 38.2235 64.9407 38.3141 64.7854 38.4176C64.6043 38.547 64.449 38.7669 64.3196 39.0775C64.2161 39.388 64.1385 39.8538 64.0867 40.4749C64.0608 41.0701 64.0479 41.95 64.0479 43.1145C64.0479 44.2531 64.0608 45.1459 64.0867 45.7929C64.1385 46.4139 64.2161 46.8668 64.3196 47.1515C64.449 47.4361 64.6043 47.6432 64.7854 47.7726C64.9925 47.9019 65.3289 48.0184 65.7947 48.1219C66.2605 48.2254 66.9204 48.3031 67.7744 48.3548C68.6542 48.3807 69.8058 48.3936 71.2291 48.3936ZM84.5816 60C84.6075 58.732 84.6205 57.6192 84.6205 56.6617C84.6463 55.7042 84.6593 54.8502 84.6593 54.0998C84.6852 53.3234 84.6981 52.6118 84.6981 51.9648C84.6981 51.292 84.6981 50.6192 84.6981 49.9463C84.6981 49.2994 84.6981 48.6395 84.6981 47.9666C84.6981 47.2938 84.6852 46.608 84.6593 45.9093C84.6593 45.1847 84.6463 44.4343 84.6205 43.6579C84.6205 42.8557 84.6075 41.9758 84.5816 41.0183H86.4449C86.419 41.4842 86.3931 41.95 86.3672 42.4158C86.3414 42.8816 86.3284 43.2697 86.3284 43.5803C86.3284 44.1755 86.3414 44.5766 86.3672 44.7836C86.3931 44.9906 86.4837 45.0942 86.639 45.0942C86.7684 45.0942 86.9107 45.0036 87.066 44.8224C87.2471 44.6413 87.5059 44.2919 87.8423 43.7744C88.1011 43.3862 88.4763 42.9463 88.968 42.4546C89.4597 41.937 90.1066 41.4971 90.9089 41.1348C91.7111 40.7466 92.6945 40.5525 93.859 40.5525C94.2989 40.5525 94.7259 40.5914 95.14 40.669C95.5799 40.7207 95.9681 40.7854 96.3045 40.8631V45.7929C95.8904 45.7152 95.3858 45.6505 94.7906 45.5988C94.2213 45.5211 93.3802 45.4823 92.2675 45.4823C90.9477 45.4823 89.8349 45.7411 88.9292 46.2587C88.0493 46.7504 87.3765 47.4491 86.9107 48.3548C86.4708 49.2605 86.2508 50.3086 86.2508 51.499C86.2508 52.0425 86.2508 52.573 86.2508 53.0905C86.2508 53.5822 86.2508 54.1386 86.2508 54.7597C86.2767 55.3807 86.3025 56.1053 86.3284 56.9334C86.3543 57.7615 86.3931 58.7837 86.4449 60H84.5816ZM106.509 60.5046C104.568 60.5046 102.951 60.1165 101.657 59.3401C100.389 58.5638 99.4441 57.4381 98.823 55.963C98.202 54.4621 97.8914 52.6506 97.8914 50.5286C97.8914 48.3807 98.202 46.5692 98.823 45.0942C99.4441 43.5932 100.402 42.4675 101.696 41.7171C102.989 40.9407 104.594 40.5525 106.509 40.5525C108.476 40.5525 110.093 40.9407 111.361 41.7171C112.655 42.4675 113.625 43.5932 114.272 45.0942C114.919 46.5692 115.243 48.3807 115.243 50.5286C115.243 52.6506 114.919 54.4621 114.272 55.963C113.651 57.4381 112.694 58.5638 111.4 59.3401C110.106 60.1165 108.476 60.5046 106.509 60.5046ZM106.509 56.5064C108.191 56.5064 109.562 56.2606 110.624 55.7689C111.71 55.2772 112.5 54.5785 112.991 53.6728C113.509 52.767 113.768 51.719 113.768 50.5286C113.768 49.3123 113.509 48.2642 112.991 47.3844C112.5 46.4786 111.71 45.7799 110.624 45.2882C109.562 44.7707 108.191 44.5119 106.509 44.5119C104.827 44.5119 103.455 44.7707 102.394 45.2882C101.333 45.7799 100.557 46.4786 100.065 47.3844C99.5735 48.2642 99.3277 49.3123 99.3277 50.5286C99.3277 51.719 99.5735 52.767 100.065 53.6728C100.557 54.5785 101.333 55.2772 102.394 55.7689C103.455 56.2606 104.827 56.5064 106.509 56.5064ZM126.467 60.5046C123.879 60.5046 121.9 59.6506 120.528 57.9427C119.156 56.2347 118.471 53.7634 118.471 50.5286C118.471 47.2679 119.156 44.7966 120.528 43.1145C121.9 41.4065 123.879 40.5525 126.467 40.5525C127.683 40.5525 128.68 40.7078 129.456 41.0183C130.258 41.303 130.905 41.6653 131.397 42.1052C131.889 42.5452 132.264 42.9721 132.523 43.3862C132.833 43.8002 133.053 44.0849 133.182 44.2402C133.338 44.3954 133.48 44.4731 133.609 44.4731C133.765 44.4731 133.855 44.3825 133.881 44.2014C133.907 44.0202 133.92 43.7097 133.92 43.2697C133.92 42.7004 133.92 41.9629 133.92 41.0572C133.92 40.1514 133.907 39.1422 133.881 38.0294C133.881 36.9166 133.868 35.778 133.842 34.6135C133.816 33.449 133.803 32.3362 133.803 31.2752H135.667C135.641 33.1902 135.615 34.8335 135.589 36.205C135.589 37.5507 135.576 38.7022 135.55 39.6597C135.55 40.6172 135.537 41.4453 135.511 42.144C135.511 42.8169 135.511 43.425 135.511 43.9685C135.511 44.486 135.511 45.0165 135.511 45.56C135.511 46.1034 135.511 46.6598 135.511 47.2291C135.511 47.7726 135.511 48.3936 135.511 49.0923C135.537 49.7652 135.55 50.5933 135.55 51.5766C135.576 52.5341 135.589 53.6987 135.589 55.0702C135.615 56.4417 135.641 58.085 135.667 60H133.803C133.829 59.5859 133.855 59.1848 133.881 58.7967C133.907 58.3826 133.92 58.0333 133.92 57.7486C133.92 57.3087 133.907 56.9981 133.881 56.817C133.855 56.6358 133.765 56.5453 133.609 56.5453C133.48 56.5453 133.338 56.6229 133.182 56.7782C133.053 56.9334 132.833 57.231 132.523 57.671C132.264 58.0591 131.889 58.4732 131.397 58.9131C130.905 59.353 130.258 59.7283 129.456 60.0388C128.68 60.3494 127.683 60.5046 126.467 60.5046ZM126.894 56.4676C129.275 56.4676 131.047 55.9759 132.212 54.9926C133.402 54.0092 133.998 52.5212 133.998 50.5286C133.998 48.5101 133.402 47.0091 132.212 46.0258C131.047 45.0424 129.275 44.5507 126.894 44.5507C124.565 44.5507 122.818 45.0683 121.654 46.1034C120.489 47.1127 119.907 48.5877 119.907 50.5286C119.907 52.4436 120.489 53.9186 121.654 54.9538C122.818 55.963 124.565 56.4676 126.894 56.4676ZM147.065 60.5046C145.823 60.5046 144.723 60.2588 143.766 59.7671C142.808 59.2754 142.071 58.5508 141.553 57.5933C141.035 56.6358 140.777 55.4843 140.777 54.1386C140.777 52.9482 140.777 51.8872 140.777 50.9556C140.777 50.024 140.764 49.17 140.738 48.3936C140.738 47.6173 140.725 46.8539 140.699 46.1034C140.699 45.3529 140.686 44.5766 140.66 43.7744C140.66 42.9721 140.647 42.0535 140.621 41.0183H142.485C142.459 42.0017 142.433 42.8557 142.407 43.5803C142.381 44.279 142.355 44.926 142.329 45.5211C142.329 46.1163 142.329 46.6857 142.329 47.2291C142.329 47.7467 142.329 48.2901 142.329 48.8594C142.329 49.4029 142.329 50.024 142.329 50.7227C142.329 51.7319 142.446 52.56 142.679 53.207C142.912 53.8539 143.261 54.3456 143.727 54.682C144.193 54.9926 144.775 55.2255 145.474 55.3807C146.172 55.5101 146.987 55.5748 147.919 55.5748C149.187 55.5748 150.261 55.4454 151.141 55.1867C152.021 54.9279 152.719 54.5526 153.237 54.061C153.755 53.5434 154.117 52.9094 154.324 52.1589C154.557 51.3826 154.673 50.4898 154.673 49.4805C154.673 48.9371 154.673 48.4195 154.673 47.9278C154.673 47.4103 154.66 46.8539 154.634 46.2587C154.634 45.6376 154.621 44.913 154.596 44.0849C154.57 43.2309 154.544 42.2087 154.518 41.0183H156.381C156.355 42.3381 156.329 43.5027 156.304 44.5119C156.304 45.4953 156.291 46.3751 156.265 47.1515C156.265 47.9019 156.265 48.5877 156.265 49.2088C156.265 49.804 156.265 50.3604 156.265 50.8779C156.265 51.3955 156.265 51.9001 156.265 52.3918C156.265 53.0905 156.265 53.7634 156.265 54.4103C156.265 55.0573 156.265 55.6913 156.265 56.3124C156.291 56.9334 156.304 57.5545 156.304 58.1756C156.329 58.7967 156.342 59.4048 156.342 60H154.518C154.57 59.5342 154.596 59.1201 154.596 58.7578C154.596 58.3697 154.596 58.0333 154.596 57.7486C154.596 57.1534 154.583 56.7523 154.557 56.5453C154.531 56.3124 154.44 56.1959 154.285 56.1959C154.156 56.1959 154.013 56.2606 153.858 56.39C153.729 56.5194 153.509 56.817 153.198 57.2828C152.939 57.671 152.551 58.1238 152.034 58.6414C151.542 59.1331 150.895 59.573 150.093 59.9612C149.291 60.3235 148.281 60.5046 147.065 60.5046ZM169.702 60.5046C167.787 60.5046 166.13 60.1423 164.733 59.4177C163.361 58.6932 162.3 57.5933 161.55 56.1183C160.825 54.6173 160.463 52.7541 160.463 50.5286C160.463 48.2772 160.825 46.4139 161.55 44.9389C162.3 43.4638 163.374 42.364 164.772 41.6394C166.169 40.9148 167.851 40.5525 169.818 40.5525C170.853 40.5525 171.785 40.6302 172.613 40.7854C173.441 40.9148 174.23 41.1089 174.981 41.3677V45.3659C174.567 45.2106 174.036 45.0683 173.389 44.9389C172.768 44.8095 172.082 44.706 171.332 44.6284C170.607 44.5248 169.883 44.4731 169.158 44.4731C167.761 44.4731 166.519 44.6672 165.432 45.0553C164.345 45.4435 163.478 46.0775 162.831 46.9574C162.21 47.8114 161.899 49.0018 161.899 50.5286C161.899 52.0295 162.21 53.2199 162.831 54.0998C163.478 54.9796 164.345 55.6136 165.432 56.0018C166.519 56.3641 167.761 56.5453 169.158 56.5453C169.934 56.5453 170.685 56.5064 171.41 56.4288C172.134 56.3253 172.807 56.2088 173.428 56.0795C174.049 55.9501 174.567 55.8336 174.981 55.7301V59.6118C174.23 59.8706 173.402 60.0776 172.496 60.2329C171.617 60.4141 170.685 60.5046 169.702 60.5046ZM185.197 60.5046C183.981 60.5046 182.985 60.3105 182.208 59.9224C181.432 59.5342 180.811 58.9131 180.345 58.0591C180.164 57.6968 180.022 57.2828 179.918 56.817C179.815 56.3512 179.737 55.7819 179.685 55.109C179.659 54.4362 179.646 53.5822 179.646 52.5471C179.646 51.8742 179.646 51.1626 179.646 50.4121C179.646 49.6358 179.646 48.8983 179.646 48.1995C179.646 47.475 179.646 46.8539 179.646 46.3363C179.646 45.8187 179.646 45.4565 179.646 45.2494H176.852V41.0183H179.646L179.491 35.3898H181.316L181.16 41.0183H187.526V45.2494H181.121C181.121 45.7152 181.121 46.1681 181.121 46.608C181.121 47.0221 181.121 47.4103 181.121 47.7726C181.147 49.17 181.16 50.3345 181.16 51.2661C181.186 52.1718 181.225 52.9223 181.277 53.5175C181.354 54.0868 181.458 54.5526 181.587 54.9149C181.794 55.5619 182.157 56.0277 182.674 56.3124C183.192 56.597 183.8 56.7393 184.499 56.7393C184.99 56.7393 185.482 56.6876 185.974 56.5841C186.491 56.4806 186.97 56.3512 187.41 56.1959V60.3105C187.125 60.3623 186.789 60.4011 186.401 60.427C186.012 60.4787 185.611 60.5046 185.197 60.5046ZM56.5184 99C56.5443 97.1368 56.5702 95.61 56.5961 94.4196C56.6219 93.2292 56.6349 92.2458 56.6349 91.4694C56.6607 90.6931 56.6737 90.0073 56.6737 89.4121C56.6737 88.8169 56.6737 88.2217 56.6737 87.6265C56.6737 87.0055 56.6737 86.2679 56.6737 85.4139C56.6737 84.56 56.6737 83.8354 56.6737 83.2402C56.6737 82.6191 56.6737 82.0239 56.6737 81.4546C56.6737 80.8594 56.6607 80.1736 56.6349 79.3973C56.6349 78.595 56.6219 77.5987 56.5961 76.4083C56.5702 75.2179 56.5443 73.6911 56.5184 71.8279H66.3392C67.6849 71.8279 68.8364 71.9314 69.7939 72.1384C70.7773 72.3455 71.6442 72.6948 72.3947 73.1865C73.1452 73.6523 73.8051 74.3122 74.3744 75.1662C74.9696 75.9166 75.4095 76.7577 75.6942 77.6893C76.0047 78.6209 76.2117 79.7207 76.3152 80.9888C76.4446 82.2309 76.5093 83.706 76.5093 85.4139C76.5093 87.1219 76.4446 88.6099 76.3152 89.8779C76.2117 91.1201 76.0047 92.207 75.6942 93.1386C75.4095 94.0443 74.9696 94.8854 74.3744 95.6617C73.8051 96.4898 73.1452 97.1497 72.3947 97.6414C71.6442 98.1331 70.7773 98.4824 69.7939 98.6895C68.8364 98.8965 67.6849 99 66.3392 99H56.5184ZM66.0287 93.9149C67.6849 93.9149 69.0046 93.8114 69.988 93.6044C70.9973 93.3715 71.7736 93.061 72.3171 92.6728C72.8864 92.2587 73.3392 91.7929 73.6757 91.2754C74.1932 90.4731 74.5296 89.5674 74.6849 88.5581C74.8402 87.5489 74.9178 86.5008 74.9178 85.4139C74.9178 84.3012 74.8402 83.2272 74.6849 82.1921C74.5296 81.157 74.1932 80.2512 73.6757 79.4749C73.3392 78.9573 72.8864 78.5045 72.3171 78.1163C71.7736 77.7281 70.9973 77.4305 69.988 77.2235C69.0046 76.9906 67.6849 76.8741 66.0287 76.8741C64.3466 76.8741 63.0268 76.8871 62.0693 76.913C61.1377 76.9388 60.426 76.9777 59.9343 77.0294C59.4685 77.0812 59.1192 77.1976 58.8863 77.3788C58.7569 77.4823 58.6404 77.6375 58.5369 77.8446C58.4593 78.0257 58.3946 78.3751 58.3428 78.8926C58.2911 79.4102 58.2523 80.1866 58.2264 81.2217C58.2005 82.2309 58.1876 83.6284 58.1876 85.4139C58.1876 87.1478 58.2005 88.5193 58.2264 89.5286C58.2523 90.5378 58.2781 91.3012 58.304 91.8188C58.3558 92.3105 58.4205 92.6598 58.4981 92.8669C58.6016 93.0739 58.7181 93.2292 58.8475 93.3327C59.1062 93.4879 59.4815 93.6173 59.9732 93.7208C60.4648 93.7985 61.1765 93.8502 62.1081 93.8761C63.0656 93.902 64.3724 93.9149 66.0287 93.9149ZM90.0384 99.5046C88.1751 99.5046 86.5966 99.2588 85.3027 98.7671C84.0346 98.2495 82.9995 97.5379 82.1973 96.6321C81.4209 95.7005 80.8516 94.6136 80.4893 93.3715C80.1529 92.1035 79.9847 90.7319 79.9847 89.2569C79.9847 87.109 80.347 85.3234 81.0716 83.9001C81.822 82.4509 82.8313 81.364 84.0993 80.6394C85.3673 79.9148 86.7648 79.5525 88.2916 79.5525C90.4136 79.5525 92.0827 79.9407 93.299 80.7171C94.5153 81.4934 95.3693 82.632 95.861 84.133C96.3785 85.608 96.6373 87.4324 96.6373 89.6062H81.5374C81.615 90.4343 81.7962 91.2107 82.0808 91.9353C82.3655 92.6598 82.7925 93.2939 83.3618 93.8373C83.957 94.3807 84.7204 94.8077 85.652 95.1183C86.6095 95.4288 87.774 95.5841 89.1456 95.5841C90.2583 95.5841 91.3193 95.5064 92.3286 95.3512C93.3378 95.17 94.4635 94.9242 95.7057 94.6136V98.6895C94.7223 99 93.8036 99.207 92.9497 99.3105C92.0957 99.4399 91.1252 99.5046 90.0384 99.5046ZM94.9682 88.0535C94.9682 86.5526 94.373 85.3622 93.1826 84.4823C92.018 83.5766 90.3877 83.1237 88.2916 83.1237C87.0753 83.1237 85.9755 83.3308 84.9921 83.7448C84.0087 84.1589 83.2195 84.7411 82.6243 85.4916C82.0291 86.2162 81.7056 87.0702 81.6538 88.0535H94.9682ZM99.4691 98.6895V94.7689C100.53 95.1571 101.591 95.4547 102.652 95.6617C103.739 95.8687 104.774 95.9723 105.758 95.9723C107.181 95.9723 108.242 95.7652 108.941 95.3512C109.665 94.9112 110.027 94.2902 110.027 93.4879C110.027 92.9704 109.898 92.5175 109.639 92.1293C109.38 91.7412 108.928 91.3789 108.281 91.0425C107.66 90.6802 106.78 90.3049 105.641 89.9168C104.114 89.3992 102.885 88.8946 101.953 88.4029C101.048 87.9112 100.401 87.3548 100.013 86.7337C99.6244 86.1127 99.4303 85.3493 99.4303 84.4435C99.4303 82.8649 100.038 81.6616 101.255 80.8335C102.497 79.9795 104.27 79.5525 106.573 79.5525C107.064 79.5525 107.595 79.5914 108.164 79.669C108.759 79.7207 109.355 79.7984 109.95 79.9019C110.545 80.0054 111.088 80.1219 111.58 80.2512V84.4823C110.571 84.1977 109.613 83.9648 108.708 83.7836C107.802 83.6025 106.935 83.5119 106.107 83.5119C104.839 83.5119 103.881 83.693 103.234 84.0553C102.587 84.4176 102.264 84.9481 102.264 85.6469C102.264 86.3197 102.575 86.8761 103.196 87.316C103.817 87.73 104.929 88.2347 106.534 88.8299C107.983 89.2957 109.135 89.8003 109.989 90.3437C110.843 90.8613 111.464 91.4565 111.852 92.1293C112.24 92.7763 112.434 93.5268 112.434 94.3807C112.434 95.9076 111.826 97.1497 110.61 98.1072C109.419 99.0388 107.634 99.5046 105.253 99.5046C104.063 99.5046 102.976 99.427 101.992 99.2717C101.035 99.1165 100.194 98.9224 99.4691 98.6895ZM114.84 99V95.6229C115.255 95.6488 115.643 95.6747 116.005 95.7005C116.367 95.7005 116.73 95.7005 117.092 95.7005C117.816 95.7005 118.334 95.6747 118.645 95.6229C118.955 95.5711 119.175 95.4806 119.304 95.3512C119.408 95.2735 119.486 95.1441 119.537 94.963C119.615 94.7819 119.667 94.5101 119.693 94.1478C119.744 93.7597 119.77 93.2421 119.77 92.5951C119.796 91.9223 119.809 91.0295 119.809 89.9168C119.809 88.8557 119.796 87.9888 119.77 87.316C119.77 86.6432 119.744 86.1256 119.693 85.7633C119.667 85.3751 119.615 85.0905 119.537 84.9093C119.486 84.7282 119.408 84.5988 119.304 84.5211C119.175 84.3918 118.968 84.3141 118.683 84.2882C118.399 84.2365 117.946 84.2106 117.325 84.2106C116.988 84.2106 116.665 84.2106 116.354 84.2106C116.07 84.2106 115.746 84.2236 115.384 84.2494V80.0183H121.284C121.258 80.7947 121.232 81.5969 121.207 82.425C121.207 83.2272 121.194 84.0295 121.168 84.8317C121.168 85.608 121.168 86.3585 121.168 87.0831C121.168 87.7818 121.168 88.4029 121.168 88.9463C121.168 90.292 121.168 91.3659 121.168 92.1682C121.194 92.9704 121.219 93.5915 121.245 94.0314C121.297 94.4713 121.349 94.7819 121.401 94.963C121.478 95.1441 121.582 95.2735 121.711 95.3512C121.841 95.4806 122.048 95.5711 122.332 95.6229C122.617 95.6747 123.134 95.7005 123.885 95.7005C124.195 95.7005 124.519 95.7005 124.855 95.7005C125.192 95.6747 125.541 95.6488 125.903 95.6229V99H114.84ZM120.12 75.9425C118.463 75.9425 117.635 75.205 117.635 73.7299C117.635 72.2549 118.463 71.5174 120.12 71.5174C121.724 71.5174 122.526 72.2549 122.526 73.7299C122.526 75.205 121.724 75.9425 120.12 75.9425ZM135.037 106.996C133.898 106.996 132.798 106.919 131.737 106.763C130.676 106.608 129.706 106.401 128.826 106.142V101.795C129.395 102.002 130.029 102.196 130.728 102.377C131.427 102.584 132.138 102.752 132.863 102.882C133.588 103.011 134.312 103.076 135.037 103.076C136.952 103.076 138.491 102.752 139.656 102.105C140.82 101.458 141.662 100.579 142.179 99.4658C142.697 98.3789 142.955 97.1756 142.955 95.8558C142.955 95.4676 142.942 95.183 142.917 95.0018C142.891 94.8207 142.8 94.7301 142.645 94.7301C142.515 94.7301 142.373 94.8077 142.218 94.963C142.063 95.1183 141.817 95.4029 141.48 95.817C141.196 96.2052 140.808 96.6192 140.316 97.0591C139.85 97.4991 139.229 97.8743 138.453 98.1848C137.676 98.4954 136.719 98.6506 135.58 98.6506C132.966 98.6506 130.974 97.8614 129.602 96.2828C128.231 94.6783 127.545 92.2975 127.545 89.1404C127.545 86.035 128.205 83.6672 129.525 82.0368C130.844 80.3806 132.863 79.5525 135.58 79.5525C136.771 79.5525 137.754 79.7078 138.53 80.0183C139.332 80.303 139.966 80.6653 140.432 81.1052C140.924 81.5452 141.299 81.9721 141.558 82.3862C141.869 82.8002 142.089 83.0849 142.218 83.2402C142.373 83.3954 142.515 83.4731 142.645 83.4731C142.8 83.4731 142.891 83.3825 142.917 83.2014C142.942 82.9943 142.955 82.6579 142.955 82.1921C142.955 81.9333 142.942 81.6099 142.917 81.2217C142.917 80.8335 142.904 80.4324 142.878 80.0183H144.702C144.676 81.4158 144.638 82.8261 144.586 84.2494C144.56 85.6469 144.534 86.9925 144.508 88.2864C144.508 89.5545 144.508 90.6672 144.508 91.6247C144.508 92.2717 144.508 92.8281 144.508 93.2939C144.508 93.7597 144.508 94.2125 144.508 94.6525C144.508 95.0924 144.508 95.6229 144.508 96.244C144.508 99.7634 143.745 102.429 142.218 104.24C140.691 106.078 138.297 106.996 135.037 106.996ZM135.929 95.3124C137.456 95.3124 138.75 95.0924 139.811 94.6525C140.872 94.1867 141.674 93.5268 142.218 92.6728C142.787 91.7929 143.072 90.706 143.072 89.4121C143.072 87.4713 142.49 86.0091 141.325 85.0258C140.186 84.0424 138.388 83.5507 135.929 83.5507C133.523 83.5507 131.763 84.0683 130.65 85.1034C129.538 86.1385 128.981 87.5748 128.981 89.4121C128.981 91.2495 129.538 92.6987 130.65 93.7597C131.763 94.7948 133.523 95.3124 135.929 95.3124ZM149.859 99C149.885 97.732 149.898 96.6192 149.898 95.6617C149.924 94.7042 149.937 93.8502 149.937 93.0998C149.963 92.3234 149.976 91.6118 149.976 90.9648C149.976 90.292 149.976 89.6192 149.976 88.9463C149.976 88.2735 149.976 87.6136 149.976 86.9666C149.976 86.2938 149.963 85.608 149.937 84.9093C149.937 84.1847 149.924 83.4213 149.898 82.6191C149.898 81.8169 149.885 80.95 149.859 80.0183H151.684C151.658 80.4842 151.632 80.9111 151.606 81.2993C151.606 81.6875 151.606 82.0239 151.606 82.3086C151.606 82.9038 151.619 83.3178 151.645 83.5507C151.671 83.7577 151.761 83.8613 151.916 83.8613C152.046 83.8613 152.175 83.7836 152.305 83.6284C152.46 83.4731 152.693 83.1755 153.003 82.7356C153.262 82.3474 153.663 81.9075 154.207 81.4158C154.75 80.8982 155.449 80.4583 156.303 80.096C157.157 79.7337 158.192 79.5525 159.408 79.5525C160.78 79.5525 161.957 79.7984 162.941 80.2901C163.95 80.7818 164.726 81.5063 165.27 82.4638C165.839 83.3954 166.124 84.547 166.124 85.9186C166.124 87.0831 166.124 88.1312 166.124 89.0628C166.124 89.9944 166.124 90.8613 166.124 91.6635C166.124 92.4399 166.124 93.2033 166.124 93.9538C166.149 94.6783 166.175 95.4547 166.201 96.2828C166.227 97.085 166.253 97.9908 166.279 99H164.377C164.403 98.0425 164.429 97.2015 164.454 96.4769C164.48 95.7264 164.493 95.0536 164.493 94.4584C164.519 93.8632 164.532 93.3068 164.532 92.7892C164.532 92.2458 164.532 91.7023 164.532 91.1589C164.532 90.5896 164.532 89.9685 164.532 89.2957C164.532 88.2605 164.416 87.4195 164.183 86.7726C163.95 86.1256 163.575 85.6469 163.057 85.3363C162.565 84.9999 161.944 84.767 161.194 84.6376C160.469 84.5082 159.589 84.4435 158.554 84.4435C157.234 84.4435 156.122 84.5729 155.216 84.8317C154.336 85.0646 153.624 85.4398 153.081 85.9574C152.538 86.4491 152.149 87.0831 151.916 87.8594C151.684 88.6099 151.567 89.4898 151.567 90.499C151.567 91.0425 151.567 91.573 151.567 92.0905C151.567 92.5822 151.567 93.1386 151.567 93.7597C151.593 94.3807 151.619 95.1053 151.645 95.9334C151.671 96.7615 151.696 97.7837 151.722 99H149.859ZM180.122 99.5046C178.259 99.5046 176.68 99.2588 175.386 98.7671C174.118 98.2495 173.083 97.5379 172.281 96.6321C171.504 95.7005 170.935 94.6136 170.573 93.3715C170.236 92.1035 170.068 90.7319 170.068 89.2569C170.068 87.109 170.43 85.3234 171.155 83.9001C171.905 82.4509 172.915 81.364 174.183 80.6394C175.451 79.9148 176.848 79.5525 178.375 79.5525C180.497 79.5525 182.166 79.9407 183.382 80.7171C184.599 81.4934 185.453 82.632 185.944 84.133C186.462 85.608 186.721 87.4324 186.721 89.6062H171.621C171.698 90.4343 171.88 91.2107 172.164 91.9353C172.449 92.6598 172.876 93.2939 173.445 93.8373C174.04 94.3807 174.804 94.8077 175.735 95.1183C176.693 95.4288 177.857 95.5841 179.229 95.5841C180.342 95.5841 181.403 95.5064 182.412 95.3512C183.421 95.17 184.547 94.9242 185.789 94.6136V98.6895C184.806 99 183.887 99.207 183.033 99.3105C182.179 99.4399 181.209 99.5046 180.122 99.5046ZM185.052 88.0535C185.052 86.5526 184.456 85.3622 183.266 84.4823C182.101 83.5766 180.471 83.1237 178.375 83.1237C177.159 83.1237 176.059 83.3308 175.076 83.7448C174.092 84.1589 173.303 84.7411 172.708 85.4916C172.112 86.2162 171.789 87.0702 171.737 88.0535H185.052ZM190.335 99C190.361 97.732 190.374 96.6192 190.374 95.6617C190.4 94.7042 190.413 93.8502 190.413 93.0998C190.439 92.3234 190.452 91.6118 190.452 90.9648C190.452 90.292 190.452 89.6192 190.452 88.9463C190.452 88.2994 190.452 87.6395 190.452 86.9666C190.452 86.2938 190.439 85.608 190.413 84.9093C190.413 84.1847 190.4 83.4343 190.374 82.6579C190.374 81.8557 190.361 80.9758 190.335 80.0183H192.199C192.173 80.4842 192.147 80.95 192.121 81.4158C192.095 81.8816 192.082 82.2697 192.082 82.5803C192.082 83.1755 192.095 83.5766 192.121 83.7836C192.147 83.9906 192.237 84.0942 192.393 84.0942C192.522 84.0942 192.664 84.0036 192.82 83.8224C193.001 83.6413 193.26 83.2919 193.596 82.7744C193.855 82.3862 194.23 81.9463 194.722 81.4546C195.213 80.937 195.86 80.4971 196.662 80.1348C197.465 79.7466 198.448 79.5525 199.613 79.5525C200.053 79.5525 200.48 79.5914 200.894 79.669C201.334 79.7207 201.722 79.7854 202.058 79.8631V84.7929C201.644 84.7152 201.139 84.6505 200.544 84.5988C199.975 84.5211 199.134 84.4823 198.021 84.4823C196.701 84.4823 195.589 84.7411 194.683 85.2587C193.803 85.7504 193.13 86.4491 192.664 87.3548C192.224 88.2605 192.004 89.3086 192.004 90.499C192.004 91.0425 192.004 91.573 192.004 92.0905C192.004 92.5822 192.004 93.1386 192.004 93.7597C192.03 94.3807 192.056 95.1053 192.082 95.9334C192.108 96.7615 192.147 97.7837 192.199 99H190.335Z" fill="black"/>
</svg>
