<svg width="113" height="88" viewBox="0 0 113 88" fill="none" xmlns="http://www.w3.org/2000/svg">
<g clip-path="url(#clip0_1196_25824)">
<path d="M60.4269 37.1149L60.3972 36.9217L60.2442 36.7998C55.1989 32.7808 50.5928 28.056 47.5182 22.9474C44.445 17.8412 42.9189 12.3824 43.9683 6.86388C44.1832 5.73621 44.575 4.6919 45.5777 4.18462C46.4547 3.74374 47.4776 3.82054 48.5173 4.23065C49.5561 4.64038 50.5506 5.3617 51.2994 6.09834L51.2995 6.09838C59.7693 14.4282 61.6128 25.7891 63.1373 36.6793L64.13 36.6603C65.3516 24.6001 67.1068 11.7515 77.2958 3.16457L77.2959 3.16447C78.4257 2.21167 79.8923 1.32091 81.3994 0.852845C82.9086 0.384148 84.4005 0.354987 85.6475 1.02976L85.6475 1.02979C86.7933 1.64958 87.3047 2.63327 87.4486 3.78648C87.5954 4.96278 87.3533 6.29472 86.9848 7.51042C83.7179 18.2595 77.6724 28.3433 69.2332 37.1031L69.9009 37.8441C79.4674 30.3778 89.9418 22.6248 103.002 21.462C105.727 21.2196 108.605 21.3827 110.479 22.7567C112.567 24.2883 112.774 27.0366 111.525 29.1832C110.256 31.3645 107.825 33.0105 105.222 34.4635C95.2623 39.9967 83.4718 43.0227 71.3539 43.1479L71.324 44.1467C83.7735 45.0221 95.6352 48.774 105.482 54.9422C107.264 56.0625 109.008 57.557 110.014 59.1257C111.014 60.6842 111.234 62.2096 110.225 63.5687C109.62 64.3823 108.66 64.9748 107.488 65.3982C106.32 65.8204 104.983 66.0594 103.68 66.1937L103.679 66.1938C89.6441 67.6696 75.8207 61.1025 67.6554 51.6807C66.6462 50.3091 65.6207 48.954 64.6009 47.6156L63.7828 48.1892C64.6949 49.6061 65.7291 50.9817 66.8711 52.3023C69.5081 55.8877 72.013 59.5603 74.0083 63.3369C76.766 68.5566 78.5318 73.9417 78.3371 79.5308L78.3371 79.531C78.2321 82.5828 77.1251 85.8748 73.9014 87.0774L73.9011 87.0775C71.3743 88.0219 68.1953 87.324 66.0119 85.8336C63.8338 84.3468 62.4733 82.2181 61.3253 80.0167C56.8678 71.3961 55.3708 62.0012 56.943 52.8031C57.2074 51.6064 57.4612 50.4124 57.7122 49.2251L56.7391 48.9962C56.4285 50.1937 56.1699 51.3966 55.9628 52.6028C54.0141 61.416 51.5316 70.1895 45.4373 77.4868C44.2073 78.9565 42.5316 80.4094 40.6699 81.3259C38.8099 82.2415 36.8023 82.6052 34.8642 81.9735L34.8641 81.9735C32.8079 81.3037 31.7325 79.8316 31.2829 78.048C30.8273 76.2401 31.0225 74.1214 31.5441 72.2715C34.4027 62.2261 40.9222 53.0754 50.293 45.9977L49.79 45.1412C36.5532 50.9736 20.4857 52.5464 5.90328 49.4081L5.90278 49.408C4.83566 49.1795 3.74979 48.8939 2.82555 48.4751C1.89756 48.0546 1.18657 47.524 0.799714 46.8371L0.799531 46.8368C0.326307 45.9981 0.426118 45.0705 0.942362 44.1268C1.46328 43.1746 2.38447 42.2631 3.42203 41.5618C9.67821 37.3343 18.8163 37.356 27.129 38.2533L27.1827 37.7561L27.1291 38.2533C35.311 39.1361 43.3757 40.6163 51.2232 42.6753L51.4928 41.7125C38.0707 37.7142 24.4556 32.59 16.4481 23.2431C15.7082 22.3779 15.0601 21.3755 14.7848 20.4157C14.515 19.4749 14.6116 18.628 15.2737 17.9358L15.274 17.9355C15.8545 17.3275 16.741 16.9868 17.8092 16.8442C18.8718 16.7025 20.0545 16.7651 21.1548 16.9085L21.1567 16.9087C36.7088 18.8757 48.7255 28.6054 59.6622 37.9209L60.6847 38.7918L60.4806 37.4643L60.4269 37.1149Z" fill="#77C1FF" stroke="#2D1942"/>
<path d="M72.0006 43.9997C72.0006 50.7837 65.1223 56.4569 56.3987 56.4569C47.6752 56.4569 40.7969 50.7837 40.7969 43.9997C40.7969 37.2157 47.6752 31.5425 56.3987 31.5425C65.1223 31.5425 72.0006 37.2157 72.0006 43.9997Z" fill="#FEF568" stroke="#2D1942"/>
</g>
<defs>
<clipPath id="clip0_1196_25824">
<rect width="112.796" height="87.996" fill="white"/>
</clipPath>
</defs>
</svg>
