<svg width="217" height="219" viewBox="0 0 217 219" fill="none" xmlns="http://www.w3.org/2000/svg">
<g clip-path="url(#clip0_1196_25510)">
<path d="M75.7511 82.2619C107.091 70.4357 141.898 74.3693 174.585 82.7815C176.389 83.2456 176.141 86.2266 174.311 86.5709C167.033 87.9404 159.989 90.42 153.429 93.9399C171.654 102.696 188.699 113.708 204.165 126.711C205.415 127.762 204.504 129.767 202.885 129.556C185.929 127.345 168.872 125.99 151.778 125.495C159.392 134.998 165.834 145.376 170.967 156.404C171.635 157.837 170.068 159.24 168.692 158.461C137.95 141.064 105.505 126.852 71.8651 116.05L75.7511 82.2619Z" fill="#77C1FF"/>
<path d="M153.192 93.4993L152.325 93.9645L153.212 94.3906C171.4 103.129 188.41 114.117 203.843 127.093C204.693 127.808 204.097 129.21 202.949 129.06C185.977 126.847 168.903 125.49 151.793 124.995L150.712 124.964L151.388 125.808C158.977 135.279 165.397 145.623 170.514 156.615C170.964 157.583 169.915 158.579 168.939 158.026C138.285 140.679 105.942 126.497 72.4087 115.7L76.2129 82.6225C107.333 70.9823 141.905 74.8874 174.461 83.2657C175.05 83.4173 175.366 83.9882 175.312 84.6827C175.258 85.379 174.845 85.9617 174.219 86.0795C166.891 87.4584 159.798 89.9551 153.192 93.4993Z" stroke="#2D1942"/>
<path d="M83.6251 81.7996C83.3038 83.3437 84.5222 84.7773 86.0979 84.7092L103.73 83.9467C105.106 83.8872 105.752 85.6264 104.669 86.479L90.8071 97.4001C89.568 98.3763 89.5797 100.258 90.8308 101.219L104.829 111.968C105.922 112.807 105.298 114.555 103.921 114.512L86.281 113.968C84.7044 113.919 83.5038 115.368 83.8445 116.908L87.658 134.145C87.9556 135.49 86.3549 136.428 85.3273 135.51L72.1618 123.753C70.9852 122.702 69.1339 123.04 68.4051 124.439L60.2522 140.091C59.6157 141.312 57.7868 141.002 57.5894 139.638L55.06 122.171C54.834 120.61 53.1986 119.679 51.7411 120.282L35.4318 127.03C34.1589 127.557 32.9577 126.144 33.6827 124.972L42.9729 109.963C43.8029 108.622 43.1483 106.858 41.6444 106.383L24.8134 101.068C23.4996 100.653 23.4882 98.7981 24.7968 98.3671L41.5585 92.8466C43.0568 92.3532 43.6895 90.5807 42.8424 89.25L33.3634 74.3598C32.6235 73.1976 33.807 71.7691 35.0865 72.2798L51.4824 78.8248C52.9474 79.4096 54.5711 78.4585 54.7774 76.8947L57.0866 59.398C57.2668 58.0321 59.0917 57.6986 59.7435 58.9124L68.0933 74.4618C68.8396 75.8515 70.6949 76.1667 71.8582 75.1013L84.8739 63.1821C85.8899 62.2517 87.5022 63.169 87.2215 64.5177L83.6251 81.7996Z" fill="#F59AC3" stroke="#2D1942"/>
</g>
<defs>
<clipPath id="clip0_1196_25510">
<rect width="162.325" height="146.162" fill="white" transform="translate(111.663 0.000244141) rotate(49.643)"/>
</clipPath>
</defs>
</svg>
