<svg width="36" height="37" viewBox="0 0 36 37" fill="none" xmlns="http://www.w3.org/2000/svg">
<path d="M23.8344 23.8573C26.3444 21.3441 29.8435 19.8808 35.0822 18.5673C35.2017 18.5358 35.3074 18.4657 35.3829 18.3681C35.4588 18.2699 35.5 18.1494 35.5 18.0254C35.5 17.9014 35.4588 17.7809 35.3829 17.6827C35.3074 17.5851 35.2017 17.515 35.0822 17.4835C29.8435 16.17 26.3444 14.7067 23.8344 12.1934C21.3246 9.68038 19.865 6.17869 18.551 0.942845M23.8344 23.8573L19.0353 0.818676M23.8344 23.8573C21.3246 26.3704 19.865 29.8721 18.551 35.1079C18.5195 35.2272 18.4495 35.3328 18.3517 35.4083C18.2535 35.4842 18.1328 35.5254 18.0086 35.5254C17.8843 35.5254 17.7636 35.4842 17.6654 35.4083C17.5677 35.3328 17.4976 35.2272 17.4661 35.1079C16.152 29.8717 14.688 26.37 12.1738 23.857C9.65964 21.3441 6.15638 19.8808 0.917689 18.5673M23.8344 23.8573L0.79365 19.0517M18.551 0.942845C18.5507 0.942021 18.5505 0.941197 18.5503 0.940373L19.0353 0.818676M18.551 0.942845C18.5511 0.943465 18.5513 0.944084 18.5514 0.944704L19.0353 0.818676M18.551 0.942845C18.5195 0.823607 18.4495 0.718013 18.3517 0.642501C18.2535 0.566593 18.1328 0.525391 18.0086 0.525391C17.8843 0.525391 17.7636 0.566593 17.6654 0.6425C17.5677 0.718013 17.4976 0.823607 17.4662 0.942845M19.0353 0.818676C18.9761 0.591515 18.8432 0.390397 18.6574 0.246839C18.4716 0.103281 18.2434 0.0253906 18.0086 0.0253906C17.7737 0.0253906 17.5455 0.103281 17.3597 0.246839C17.1739 0.390397 17.041 0.591515 16.9818 0.818676M17.4662 0.942845C17.4664 0.942021 17.4666 0.941197 17.4668 0.940373L16.9818 0.818676M17.4662 0.942845C17.466 0.943465 17.4658 0.944084 17.4657 0.944704L16.9818 0.818676M17.4662 0.942845C16.152 6.1791 14.688 9.68076 12.1738 12.1938C9.65964 14.7067 6.15638 16.17 0.91769 17.4835M16.9818 0.818676L0.79365 16.9991M0.91769 17.4835C0.916873 17.4837 0.916055 17.4839 0.915237 17.4841L0.79365 16.9991M0.91769 17.4835C0.918315 17.4834 0.918939 17.4832 0.919565 17.483L0.79365 16.9991M0.91769 17.4835C0.798249 17.515 0.692566 17.5851 0.617048 17.6827C0.541158 17.7809 0.5 17.9014 0.5 18.0254C0.5 18.1494 0.541158 18.2699 0.617048 18.3681C0.692565 18.4657 0.798248 18.5358 0.917689 18.5673M0.79365 16.9991C0.56638 17.0583 0.365154 17.1911 0.221527 17.3768C0.0779011 17.5626 0 17.7907 0 18.0254C0 18.2601 0.0779011 18.4882 0.221527 18.674C0.365154 18.8597 0.56638 18.9925 0.79365 19.0517M0.917689 18.5673C0.916872 18.5671 0.916055 18.5669 0.915237 18.5667L0.79365 19.0517M0.917689 18.5673C0.918314 18.5674 0.918939 18.5676 0.919565 18.5678L0.79365 19.0517" fill="#9492FF" stroke="#2D1942"/>
</svg>
