<svg width="219" height="218" viewBox="0 0 219 218" fill="none" xmlns="http://www.w3.org/2000/svg">
<g clip-path="url(#clip0_1207_6968)">
<path d="M30.0035 114.417C27.3553 114.618 24.6263 115.163 21.8778 115.712C20.6022 115.966 19.3225 116.222 18.0448 116.444L18.0406 116.445C17.0771 116.604 15.9488 116.745 14.9382 116.632C13.9267 116.519 12.9265 116.138 12.3863 115.153L12.3807 115.143L12.3808 115.143C12.006 114.42 11.9978 113.6 12.1622 112.824C12.3269 112.046 12.6736 111.267 13.0706 110.579L13.0708 110.579C15.22 106.859 18.9487 104.248 22.6942 102.38L22.6978 102.378C31.6073 98.0265 41.7733 97.1607 50.028 100.165L30.0035 114.417ZM30.0035 114.417C29.9774 114.963 29.7763 115.374 29.4947 115.798C29.4044 115.934 29.2981 116.08 29.1842 116.236C28.8604 116.68 28.4739 117.21 28.2106 117.85L28.2094 117.853C27.4853 119.643 27.1587 121.569 27.2514 123.499C27.3586 127.541 28.6572 131.278 30.1898 134.692C39.1926 155.31 57.2393 171.012 79.9136 175.738L79.9144 175.739C93.4092 178.527 108.397 177.542 122.583 172.442C129.759 169.89 136.534 166.322 142.701 161.845C143.241 161.46 143.715 161.086 144.13 160.758L144.143 160.748C144.568 160.412 144.92 160.135 145.234 159.927C145.552 159.718 145.783 159.612 145.962 159.58C146.11 159.554 146.233 159.575 146.376 159.675C146.666 159.898 146.898 160.189 147.053 160.522L147.057 160.531L147.061 160.539C147.596 161.588 147.885 162.639 148.185 163.727C148.294 164.123 148.404 164.525 148.528 164.932C148.983 166.426 149.606 167.919 151.036 169.231C151.361 169.591 151.786 169.846 152.257 169.962L152.267 169.965L152.277 169.967C152.847 170.082 153.396 169.91 153.859 169.658C154.324 169.405 154.754 169.044 155.116 168.695C159.277 164.75 161.82 159.39 162.248 153.665C163.333 150.28 162.411 146.836 160.63 143.985C158.841 141.121 156.147 138.79 153.588 137.629L153.583 137.627C152.544 137.169 150.311 136.208 148.029 135.614C146.889 135.318 145.714 135.107 144.657 135.104C143.61 135.102 142.601 135.304 141.874 135.915L141.872 135.917C140.891 136.754 140.538 137.858 140.547 139.027C140.556 140.178 140.914 141.418 141.375 142.603C141.769 143.616 142.253 144.625 142.691 145.537C142.767 145.695 142.841 145.849 142.913 146C143.416 147.054 143.797 147.906 143.913 148.504L143.916 148.519L143.92 148.534C144.049 149.034 144.07 149.556 143.98 150.064C143.83 150.778 143.257 151.453 142.557 152.176L142.553 152.181C135.288 159.889 125.927 163.011 116.581 166.128C115.399 166.522 114.217 166.916 113.039 167.32C103.412 170.571 93.0266 170.808 83.2624 167.999L83.2607 167.998C62.6739 162.15 47.0896 146.031 39.5164 126.536L39.516 126.535C38.9705 125.14 38.1459 122.48 37.6799 119.767C37.4471 118.411 37.3063 117.056 37.3303 115.847C37.3545 114.629 37.5454 113.608 37.936 112.885L37.937 112.883C38.6848 111.484 40.355 110.74 42.0355 110.124L42.0423 110.121C45.9711 108.616 49.8873 107.169 53.8171 105.826L54.0756 105.737L54.1409 105.472C54.4866 104.067 53.9817 102.911 53.134 102.034C52.3026 101.175 51.127 100.563 50.0288 100.165L30.0035 114.417ZM80.7903 92.6217C79.142 92.8989 77.4508 92.5193 76.0776 91.5635L76.0687 91.5573L76.0602 91.5508C74.9452 90.7013 74.2526 89.4484 73.844 88.033C73.4354 86.618 73.3004 85.0073 73.3238 83.3901C73.3704 80.156 74.0527 76.8065 74.556 74.7511C76.5313 66.6086 80.9598 59.2736 87.2389 53.7436L87.2424 53.7405C88.6687 52.5081 90.2444 51.3859 91.8446 50.2899C92.2654 50.0017 92.6872 49.7157 93.1088 49.4299C94.2973 48.6241 95.4829 47.8204 96.633 46.9747C99.7445 44.6868 102.512 42.15 104.13 38.6645L104.13 38.664C104.664 37.5168 105.109 35.9408 105.589 34.1598C105.635 33.9908 105.681 33.8202 105.727 33.6481C106.163 32.0249 106.632 30.2765 107.222 28.629C108.509 25.0312 110.461 21.6401 114.197 21.1966C116.308 20.9453 117.948 21.3883 119.162 22.3328C120.367 23.2703 121.091 24.6552 121.472 26.1797C122.23 29.2127 121.672 32.9615 120.602 35.4802M80.7903 92.6217L120.141 35.2848M80.7903 92.6217C83.034 92.3925 84.8058 91.1419 86.2195 89.3687C87.6288 87.601 88.708 85.2844 89.5789 82.8432C90.4513 80.3978 91.126 77.7941 91.7109 75.4377C91.7945 75.1009 91.8761 74.7696 91.9562 74.4449C92.4398 72.4827 92.8649 70.7583 93.3057 69.4847L93.3061 69.4834C94.3426 66.4617 95.6854 64.4115 97.4303 62.7424C99.187 61.0621 101.369 59.7499 104.129 58.2256M80.7903 92.6217L103.889 57.7869M120.602 35.4802C120.602 35.4802 120.602 35.4802 120.602 35.4803L120.141 35.2848M120.602 35.4802C120.602 35.4796 120.602 35.479 120.602 35.4784L120.141 35.2848M120.602 35.4802C120.474 35.7847 120.346 36.089 120.219 36.393C116.601 45.029 113.105 53.3732 104.129 58.2256M120.141 35.2848C120.02 35.5745 119.899 35.8637 119.778 36.1524C116.142 44.8275 112.709 53.0201 103.889 57.7869M104.129 58.2256C104.13 58.2253 104.13 58.2249 104.131 58.2246L103.889 57.7869M104.129 58.2256C104.128 58.226 104.127 58.2264 104.127 58.2268L103.889 57.7869M167.116 54.9865L167.577 55.18C167.577 55.1805 167.577 55.1809 167.577 55.1814C167.461 55.4575 167.345 55.7335 167.23 56.009C163.582 64.7152 160.076 73.0849 151.129 77.969L151.128 77.9697C148.355 79.4732 146.156 80.7818 144.392 82.46C142.641 84.1266 141.3 86.1758 140.287 89.1825L140.286 89.1864C139.845 90.459 139.42 92.1818 138.937 94.1421C138.856 94.4683 138.774 94.8011 138.69 95.1395C138.105 97.4959 137.429 100.1 136.556 102.545C135.685 104.986 134.605 107.303 133.195 109.07C131.781 110.844 130.008 112.094 127.765 112.323C126.109 112.599 124.411 112.213 123.035 111.249L123.027 111.243L123.019 111.237C121.906 110.388 121.212 109.137 120.8 107.724C120.388 106.312 120.248 104.705 120.267 103.091C120.304 99.863 120.976 96.5198 121.479 94.4632C123.471 86.328 127.896 78.9978 134.161 73.4564L134.166 73.4519C135.606 72.2118 137.193 71.0866 138.802 69.991C139.232 69.6977 139.663 69.4069 140.094 69.1166C141.28 68.3174 142.46 67.5216 143.604 66.6853C146.719 64.4084 149.476 61.8905 151.073 58.4199C151.655 57.1383 152.075 55.7989 152.468 54.425C152.566 54.0803 152.663 53.7322 152.761 53.3824C153.049 52.3485 153.342 51.2987 153.69 50.2705C153.69 50.2702 153.691 50.2699 153.691 50.2696L154.164 50.43M167.116 54.9865C168.453 51.8276 169.707 47.9621 167.634 44.7148C162.454 36.672 155.946 45.0473 154.164 50.43M167.116 54.9865C167.007 55.2467 166.898 55.5066 166.79 55.7659C163.124 64.5122 159.68 72.7315 150.89 77.5302M167.116 54.9865L150.89 77.5302M154.164 50.43C153.821 51.4444 153.533 52.4753 153.246 53.506C152.762 55.2414 152.278 56.976 151.527 58.6286M154.164 50.43L151.527 58.6286M151.527 58.6286C149.271 63.534 144.789 66.5549 140.367 69.5358C138.32 70.9151 136.287 72.2859 134.492 73.8309C128.304 79.3047 123.932 86.5456 121.965 94.5822L151.527 58.6286ZM150.89 77.5302C145.341 80.5384 141.885 82.8713 139.813 89.0229L150.89 77.5302ZM62.878 21.6064L62.8793 21.6055C70.9047 16.2699 79.4065 11.693 88.2755 7.93372C131.304 -10.103 178.387 9.96949 205.721 41.9004C221.317 69.7941 221.548 107.572 206.036 139.362C191.461 169.148 164.374 193.307 129.776 207.367C111.348 214.817 94.2648 217.928 79.0084 216.56C66.022 215.397 54.9222 209.535 45.9997 202.416C45.3586 201.902 44.7525 201.387 44.1406 200.867L44.1377 200.864C41.8685 198.965 39.7455 196.961 37.7466 194.982C35.4642 192.657 33.3817 190.3 31.5353 188.06L31.2043 187.659L30.9619 187.875C5.12191 158.553 -4.48988 122.829 5.07459 92.3784C14.3388 63.0132 37.97 38.0481 62.878 21.6064Z" fill="#9492FF" stroke="#2D1942"/>
<path d="M12.8669 114.918C13.7218 116.477 16.0843 116.274 18.0013 115.957C22.1097 115.204 26.4149 114.097 30.4819 113.879C30.7098 115.791 29.3368 116.425 28.6736 118.035C27.9761 119.76 27.6617 121.616 27.7518 123.475C27.8554 127.424 29.1246 131.092 30.6478 134.484C39.59 154.966 57.5106 170.552 80.0163 175.244C93.4192 178.013 108.314 177.036 122.416 171.965C129.548 169.43 136.28 165.883 142.409 161.434C144.549 159.912 145.648 158.535 146.673 159.267C147.031 159.541 147.317 159.897 147.507 160.307C149.02 163.273 148.699 166.417 151.393 168.874C151.653 169.169 151.996 169.377 152.377 169.472C153.196 169.638 154.077 168.999 154.771 168.329C158.857 164.455 161.349 159.187 161.755 153.563C163.863 147.125 158.309 140.314 153.382 138.08C151.31 137.165 144.575 134.292 142.197 136.293C138.829 139.166 143.881 145.712 144.404 148.403C144.553 148.975 144.576 149.573 144.472 150.154C144.29 151.032 143.606 151.807 142.917 152.518C134.628 161.315 123.634 164.214 113.2 167.788C103.476 171.073 92.9868 171.312 83.1248 168.474C62.3651 162.577 46.6721 146.33 39.051 126.712C37.9372 123.865 35.7146 115.941 37.4968 112.642C38.3464 111.052 40.2062 110.257 41.8641 109.649C45.7964 108.143 49.7187 106.693 53.6561 105.348C54.2467 102.947 51.9827 101.399 49.8585 100.63C41.7505 97.6788 31.7255 98.5205 22.918 102.822C19.2085 104.672 15.582 107.228 13.5044 110.824C12.7843 112.154 12.2608 113.749 12.8669 114.918Z" fill="#FFA497"/>
<path d="M75.0366 74.8704C74.0367 78.9541 72.3476 88.0984 76.3576 91.1534C77.6315 92.0404 79.2023 92.3894 80.7305 92.125C89.0199 91.2833 90.7346 75.3692 92.8276 69.3215C94.9466 63.1439 98.3607 60.837 103.884 57.7872C112.997 52.8618 116.359 44.2787 120.136 35.2851C122.208 30.4065 122.281 20.7374 114.251 21.6934C107.422 22.5039 106.801 34.1006 104.578 38.8753C101.237 46.0764 93.1798 49.2665 87.5638 54.1192C81.3615 59.5815 76.9876 66.827 75.0366 74.8704Z" fill="#FFA497"/>
<path d="M121.976 94.5762C120.976 98.6599 119.328 107.778 123.333 110.833C124.607 111.719 126.177 112.068 127.706 111.805C135.995 110.963 137.715 95.049 139.808 89.0013C141.881 82.8497 145.336 80.5169 150.885 77.5087C159.936 72.5677 163.319 64.0001 167.111 54.965C168.448 51.806 169.701 47.9405 167.629 44.6933C162.448 36.6505 155.941 45.0258 154.159 50.4084C153.237 53.1309 152.719 55.9729 151.522 58.6071C148.222 65.7822 140.16 68.9255 134.487 73.8094C128.302 79.2895 123.936 86.536 121.976 94.5762Z" fill="#FFA497"/>
</g>
<defs>
<clipPath id="clip0_1207_6968">
<rect width="217.099" height="216.74" fill="white" transform="translate(0.950684 0.630371)"/>
</clipPath>
</defs>
</svg>
