<svg width="108" height="73" viewBox="0 0 108 73" fill="none" xmlns="http://www.w3.org/2000/svg">
<g clip-path="url(#clip0_1207_6975)">
<path d="M13.6316 43.4815L13.6305 43.4823C13.5993 43.5044 13.5746 43.5227 13.5473 43.5431C13.5284 43.5571 13.5083 43.572 13.4838 43.5899C9.6703 46.5698 12.0772 52.746 16.965 52.4446C22.9925 52.0718 27.0361 52.0509 31.1498 54.6896L31.1503 54.6899C32.3999 55.4934 33.3933 56.5847 34.3291 57.6427C34.3919 57.7136 34.4543 57.7843 34.5165 57.8548C35.3976 58.8527 36.2389 59.8056 37.2474 60.5559C39.409 62.1638 42.0238 62.6644 44.8132 62.5644C47.6075 62.4642 50.5315 61.763 53.2735 61.0113C53.2735 61.0113 53.2735 61.0113 53.2736 61.0113L53.4057 61.4935C55.1938 61.0031 57.1663 60.5518 59.2195 60.0821C67.1002 58.2792 76.169 56.2046 80.5554 50.6011L13.6316 43.4815ZM13.6316 43.4815C14.6489 42.7543 15.7833 42.2037 16.9626 41.6313L17.0378 41.5948C18.2302 41.0159 19.4659 40.4109 20.574 39.5877L20.574 39.5877M13.6316 43.4815L20.574 39.5877M20.574 39.5877C22.8599 37.8893 24.3167 35.526 25.4688 32.9992M20.574 39.5877L25.4688 32.9992M25.4688 32.9992C26.0451 31.7354 26.5499 30.4194 27.0425 29.1173M25.4688 32.9992L27.0425 29.1173M27.0425 29.1173C27.0846 29.0061 27.1265 28.8951 27.1685 28.7841M27.0425 29.1173L27.1685 28.7841M27.1685 28.7841C27.6193 27.5911 28.0639 26.4144 28.5542 25.2824M27.1685 28.7841L28.5542 25.2824M28.5542 25.2824C29.6123 22.8394 31.31 20.3919 33.3619 18.7422M28.5542 25.2824L33.3619 18.7422M33.3619 18.7422C35.4107 17.095 37.7602 16.2787 40.1799 16.9546L33.3619 18.7422Z" fill="#FA543C" stroke="#26103D"/>
<path d="M11.8672 52.4516C18.8434 51.934 25.6675 49.8059 31.6249 46.1178C34.3599 44.4261 36.936 42.2246 40.1815 41.6375C43.304 41.0728 46.5605 41.9944 49.6761 42.1941C53.0451 42.4099 56.5422 41.8875 59.1547 39.5922C60.3612 38.5321 61.2366 37.1433 62.5129 36.153C63.611 35.3237 64.8433 34.689 66.1561 34.2766C72.4889 32.2141 79.3123 34.079 85.8123 33.6049C89.1354 33.3633 92.6721 33.0224 95.5077 31.1341C97.1313 30.0409 98.6373 28.7824 100.002 27.3787C101.565 25.7787 99.0974 23.325 97.5268 24.9314C97.1886 25.2772 96.8361 25.6088 96.4793 25.9355C95.7821 26.584 95.0476 27.1912 94.2796 27.754C93.8328 28.0787 93.3693 28.3796 92.891 28.6558C92.0916 29.0651 92.428 28.8999 92.1944 29.0195C92.982 28.6029 92.5716 28.7824 92.8707 28.6662C92.7239 28.7235 91.8758 29.1469 91.7256 29.1916C90.1966 29.6477 88.5366 29.8612 86.9506 30.0203C80.3546 30.6852 73.6661 29.0153 67.1297 30.4073C64.0457 31.0653 61.0579 32.4749 58.8742 34.7905C57.8336 35.8933 56.9628 37.1367 55.5949 37.8633C54.3127 38.546 52.8107 38.7382 51.3768 38.759C48.1626 38.8078 45.0061 37.9511 41.7938 38.0235C38.3139 38.1 35.3753 39.5025 32.5196 41.3826C29.4113 43.4295 26.2686 45.3085 22.7612 46.5991C19.2659 47.89 15.6082 48.6888 11.893 48.9728C10.9569 49.0419 10.146 49.7079 10.1401 50.7001C10.1345 51.5812 10.9286 52.5228 11.8675 52.453L11.8672 52.4516Z" fill="#FFADE3" stroke="#26103D"/>
</g>
<defs>
<clipPath id="clip0_1207_6975">
<rect width="98.7233" height="48.8493" fill="white" transform="translate(0 25.542) rotate(-14.9944)"/>
</clipPath>
</defs>
</svg>
