<svg width="144" height="80" viewBox="0 0 144 80" fill="none" xmlns="http://www.w3.org/2000/svg">
<path d="M117.921 76.6709L117.923 76.6708C118.28 76.6636 118.632 76.5837 118.957 76.4358C119.282 76.288 119.574 76.0753 119.814 75.811C120.054 75.5466 120.238 75.236 120.354 74.8982L120.827 75.0606L120.354 74.8982C120.47 74.5607 120.516 74.2032 120.489 73.8475C118.3 45.8512 96.4092 24.1196 70.4223 24.7085C44.4357 25.2974 23.5518 47.9994 22.6349 76.0654C22.6246 76.4216 22.687 76.7762 22.8181 77.1076C22.9493 77.4392 23.1468 77.7406 23.3983 77.9935C23.6499 78.2464 23.9503 78.4454 24.2812 78.5783C24.6122 78.7113 24.9667 78.7755 25.3233 78.767L25.3352 78.7667V78.7668H25.4112C26.6975 78.7331 27.9261 78.225 28.8605 77.34C29.7963 76.4536 30.3706 75.252 30.4727 73.9671L30.4728 73.9654C32.3282 51.5528 49.4059 33.676 70.6145 33.1946L70.6146 33.1946C92.5164 32.7001 110.859 50.9368 112.796 74.3142C112.852 74.9822 113.16 75.604 113.658 76.0525C114.156 76.5009 114.806 76.7423 115.476 76.7275L115.477 76.7275M117.921 76.6709L115.488 77.2274L115.477 76.7275M117.921 76.6709L115.477 76.7275M117.921 76.6709L115.477 76.7275" fill="#85C99D" stroke="#2D1942"/>
<path d="M129.091 76.385L129.09 76.385L126.128 76.4518L126.126 76.4518C125.474 76.4682 124.84 76.2328 124.356 75.7943C123.873 75.3561 123.576 74.7486 123.528 74.0978C121.457 44.2446 98.1764 20.8442 70.344 21.4765C42.5115 22.1088 20.3153 46.5384 19.5986 76.4538C19.5804 77.1062 19.3121 77.7266 18.8491 78.1867C18.3859 78.647 17.7635 78.9114 17.1106 78.9252L17.1099 78.9252L14.1474 78.9921L14.1469 78.9921C13.8061 79.0001 13.4673 78.9391 13.1506 78.8129C12.834 78.6866 12.5461 78.4976 12.3044 78.2573C12.0626 78.017 11.8719 77.7303 11.7437 77.4145C11.6156 77.0988 11.5526 76.7604 11.5585 76.4198C11.8864 60.0524 17.7094 44.6572 28.1192 32.7769L28.1193 32.7768C39.1883 20.1381 54.1126 12.9881 70.1435 12.6253C86.1742 12.2625 101.399 18.7275 113.037 30.8506C123.975 42.2538 130.49 57.3667 131.56 73.6985C131.581 74.0384 131.534 74.3791 131.42 74.7002C131.307 75.0216 131.129 75.3167 130.898 75.5678C130.668 75.8188 130.389 76.0207 130.078 76.1611C129.768 76.3015 129.432 76.3777 129.091 76.385Z" fill="#F8DCD8" stroke="#2D1942"/>
<path d="M134.553 73.2655C133.397 56.2272 126.58 40.4498 115.14 28.5319C102.932 15.8122 86.9283 9.00735 70.0651 9.38931C53.2019 9.77127 37.5208 17.2953 25.9066 30.5562C15.025 42.9802 8.93066 59.0498 8.54799 76.1226C8.5276 76.9197 8.20129 77.6784 7.63669 78.2415C7.07193 78.8047 6.31206 79.1289 5.51465 79.1469L3.685 79.1882C3.26457 79.1976 2.84661 79.1218 2.45625 78.9653C2.0659 78.8088 1.71127 78.5749 1.41374 78.2777C1.1162 77.9805 0.881923 77.6261 0.725005 77.236C0.568088 76.8458 0.491787 76.4279 0.5007 76.0075L0.500706 76.0072C0.900415 56.6486 7.79214 38.439 20.108 24.3791C33.2132 9.41806 50.8867 0.949031 69.8717 0.517307C88.8566 0.0855839 106.895 7.7441 120.666 22.0993L121.027 21.7532L120.666 22.0993C133.606 35.5861 141.317 53.4645 142.593 72.7847L142.593 72.7852C142.621 73.2047 142.564 73.6257 142.425 74.0226C142.286 74.4194 142.068 74.7841 141.784 75.0945C141.501 75.4049 141.157 75.6546 140.774 75.8286C140.391 76.0026 139.977 76.0973 139.557 76.1069L139.557 76.1069L137.727 76.1496L137.726 76.1496C136.928 76.169 136.153 75.88 135.562 75.3427C134.971 74.8057 134.61 74.0618 134.553 73.2655ZM134.553 73.2655C134.553 73.2656 134.553 73.2658 134.553 73.2659L134.054 73.2997M134.553 73.2655C134.553 73.2651 134.553 73.2647 134.553 73.2643L134.054 73.2997M134.054 73.2997C134.12 74.2247 134.539 75.0888 135.225 75.7127C135.911 76.3365 136.812 76.672 137.739 76.6495M134.054 73.2997C132.906 56.3732 126.135 40.7078 114.779 28.8782C102.663 16.2542 86.7923 9.51056 70.0764 9.88918C53.3605 10.2678 37.8094 17.7246 26.2828 30.8856C15.4817 43.2177 9.42785 59.1736 9.04785 76.1345C9.02438 77.0603 8.64548 77.9416 7.98976 78.5955C7.33403 79.2494 6.45178 79.6259 5.52595 79.6468L137.739 76.6495M137.739 76.6495L139.568 76.6068M137.739 76.6495L139.568 76.6068M139.568 76.6068C140.056 76.5956 140.537 76.4858 140.981 76.2838M139.568 76.6068L140.981 76.2838M142.897 74.1878C143.058 73.7272 143.124 73.2387 143.092 72.7517L142.897 74.1878ZM142.897 74.1878C142.736 74.6484 142.483 75.0715 142.153 75.4318M142.897 74.1878L142.153 75.4318M142.153 75.4318C141.824 75.792 141.425 76.0819 140.981 76.2838M142.153 75.4318L140.981 76.2838" fill="#85C99D" stroke="#2D1942"/>
</svg>
