<svg width="53" height="56" viewBox="0 0 53 56" fill="none" xmlns="http://www.w3.org/2000/svg">
<path d="M35.247 37.2781C38.8942 33.4195 43.9945 31.1553 51.7009 29.1138C51.9223 29.0524 52.1237 28.9139 52.2704 28.7136C52.4178 28.5122 52.5 28.2613 52.5 28C52.5 27.7388 52.4178 27.4878 52.2704 27.2865C52.1237 27.0861 51.9223 26.9476 51.701 26.8863C43.9946 24.8447 38.8942 22.5806 35.247 18.7219C31.6035 14.8671 29.4696 9.48311 27.5382 1.35177C27.476 1.10096 27.3381 0.883993 27.1517 0.7318C26.9653 0.57966 26.7404 0.5 26.5126 0.5C26.2847 0.5 26.0599 0.57966 25.8735 0.731799L25.5573 0.344475L25.8735 0.7318C25.6871 0.883968 25.5492 1.10089 25.487 1.35165C23.5555 9.48345 21.4152 14.8675 17.7652 18.7223C14.1118 22.5806 9.00531 24.8447 1.29895 26.8863C1.07763 26.9476 0.876256 27.0861 0.72961 27.2865L0.328273 26.9927L0.72961 27.2865C0.582223 27.4878 0.5 27.7388 0.5 28C0.5 28.2613 0.582224 28.5122 0.72961 28.7136L0.328273 29.0073L0.72961 28.7136C0.876267 28.9139 1.07766 29.0524 1.29901 29.1138C9.00534 31.1553 14.1118 33.4194 17.7652 37.2778C21.4152 41.1326 23.5555 46.5166 25.487 54.6484M35.247 37.2781L25.001 54.766M35.247 37.2781C31.6035 41.1329 29.4696 46.5169 27.5382 54.6483M35.247 37.2781L28.0242 54.766M25.487 54.6484C25.4871 54.6491 25.4873 54.6498 25.4875 54.6505L25.001 54.766M25.487 54.6484C25.4868 54.6477 25.4866 54.647 25.4865 54.6463L25.001 54.766M25.487 54.6484C25.5492 54.8992 25.6871 55.1161 25.8735 55.2682C26.0598 55.4204 26.2847 55.5 26.5126 55.5C26.7405 55.5 26.9653 55.4204 27.1517 55.2682C27.3381 55.1161 27.476 54.8991 27.5382 54.6483M25.001 54.766C25.0881 55.1194 25.2838 55.4323 25.5573 55.6556C25.8309 55.8789 26.1668 56 26.5126 56C26.8583 56 27.1943 55.8789 27.4679 55.6556C27.7414 55.4323 27.9371 55.1194 28.0242 54.766M27.5382 54.6483C27.5381 54.649 27.5379 54.6498 27.5377 54.6505L28.0242 54.766M27.5382 54.6483C27.5384 54.6477 27.5386 54.647 27.5387 54.6464L28.0242 54.766" fill="#FEF568" stroke="#2D1942"/>
</svg>
