<svg width="230" height="104" viewBox="0 0 230 104" fill="none" xmlns="http://www.w3.org/2000/svg">
<g clip-path="url(#clip0_1196_25460)">
<path d="M82.2393 56.4795V47.2539H155.018V56.4795H82.2393Z" fill="#F8DCD8" stroke="#2D1942"/>
<path d="M89.0025 36.0777L88.776 36.5689L89.2834 36.7562C98.6974 40.231 103.232 46.1267 103.232 51.8637C103.232 57.6005 98.6976 63.4923 89.2837 66.9595L88.7758 67.1465L89.0025 67.6381C93.2049 76.7487 92.2439 84.1224 88.1875 88.1787C84.1311 92.2351 76.7574 93.1961 67.6466 88.9938L67.1553 88.7672L66.9681 89.2749C63.4971 98.6886 57.6033 103.223 51.8663 103.223C46.1293 103.223 40.2355 98.6886 36.7645 89.2749L36.5773 88.7672L36.086 88.9938C26.9753 93.1961 19.6015 92.2351 15.5451 88.1787C11.4886 84.1223 10.5276 76.7487 14.73 67.6381L14.9566 67.1467L14.4489 66.9595C5.03504 63.4886 0.500488 57.5948 0.500488 51.8579C0.500488 46.121 5.03504 40.2273 14.4489 36.7563L14.9567 36.5691L14.7299 36.0777C10.5277 26.971 11.4892 19.5993 15.546 15.5429C19.6029 11.4863 26.9767 10.5236 36.0861 14.7221L36.5774 14.9485L36.7645 14.441C40.2355 5.02718 46.1293 0.492676 51.8663 0.492676C57.6033 0.492676 63.4971 5.02718 66.9681 14.441L67.1553 14.9487L67.6466 14.722C76.7574 10.5197 84.1311 11.4807 88.1875 15.5371C92.2439 19.5935 93.2049 26.9671 89.0025 36.0777Z" fill="#85C99D" stroke="#2D1942"/>
<path d="M79.3332 51.867C79.3332 67.0366 67.0356 79.334 51.8658 79.334C36.696 79.334 24.3984 67.0366 24.3984 51.867C24.3984 36.6973 36.696 24.3999 51.8658 24.3999C67.0356 24.3999 79.3332 36.6973 79.3332 51.867Z" fill="#F8DCD8" stroke="#2D1942"/>
<path d="M214.403 36.0787L214.176 36.5699L214.684 36.7572C224.099 40.232 228.634 46.1277 228.634 51.8646C228.634 57.6014 224.099 63.4933 214.684 66.9604L214.176 67.1475L214.403 67.6391C218.606 76.7498 217.646 84.1234 213.59 88.1797C209.533 92.2361 202.159 93.1971 193.047 88.9948L192.555 88.7682L192.368 89.2759C188.898 98.6897 183.005 103.224 177.269 103.224C171.532 103.224 165.638 98.6896 162.167 89.2758L161.98 88.7682L161.489 88.9948C152.378 93.1971 145.004 92.2361 140.947 88.1797C136.89 84.1233 135.929 76.7497 140.133 67.6391L140.359 67.1477L139.852 66.9605C130.437 63.4895 125.901 57.5958 125.901 51.8589C125.901 46.122 130.437 40.2283 139.852 36.7573L140.359 36.5701L140.133 36.0787C135.929 26.968 136.89 19.5944 140.947 15.5381C145.004 11.4817 152.378 10.5207 161.489 14.723L161.98 14.9496L162.167 14.4419C165.638 5.02816 171.532 0.493652 177.269 0.493652C183.005 0.493652 188.898 5.02812 192.368 14.4419L192.555 14.9496L193.047 14.723C202.159 10.5207 209.533 11.4817 213.59 15.5381C217.646 19.5944 218.606 26.968 214.403 36.0787Z" fill="#85C99D" stroke="#2D1942"/>
<path d="M204.736 51.867C204.736 67.0366 192.439 79.334 177.269 79.334C162.099 79.334 149.802 67.0366 149.802 51.867C149.802 36.6973 162.099 24.3999 177.269 24.3999C192.439 24.3999 204.736 36.6973 204.736 51.867Z" fill="#F8DCD8" stroke="#2D1942"/>
</g>
<defs>
<clipPath id="clip0_1196_25460">
<rect width="229.135" height="103.732" fill="white"/>
</clipPath>
</defs>
</svg>
