<svg width="147" height="51" viewBox="0 0 147 51" fill="none" xmlns="http://www.w3.org/2000/svg">
<path d="M18.7016 38.5324C9.38852 38.5324 0.128696 32.1463 0.128696 19.6402C0.128696 7.13415 9.38852 0.748067 18.7016 0.748067C28.0146 0.748067 37.2744 7.13415 37.2744 19.6402C37.2744 27.5164 28.5468 29.1662 18.063 29.1662V30.7627C26.2584 30.7627 33.1767 30.8691 36.1569 37.0955L37.647 40.1822L28.5468 44.5992L27.9082 43.2688C25.7263 38.7453 24.0765 38.5324 18.7016 38.5324ZM26.897 19.6402C26.897 14.2653 23.1186 11.3915 18.7016 11.3915C14.2845 11.3915 10.5061 14.2653 10.5061 19.6402C10.5061 25.0152 14.2845 27.8889 18.7016 27.8889C23.1186 27.8889 26.897 25.0152 26.897 19.6402ZM64.4872 38.0002H55.1742C54.7485 36.8295 54.3759 35.499 54.3759 34.1154C54.3759 32.1463 54.8017 31.0288 56.2918 26.7182H54.6952C52.8858 31.3481 49.9057 38.5324 46.1804 38.5324C42.0295 38.5324 39.2622 35.1265 39.2622 29.5387V11.3915H49.3735V25.1749C49.3735 27.5696 50.1718 28.3147 51.6086 28.3147C53.0455 28.3147 53.8438 27.5696 53.8438 25.1749V11.3915H63.9551V27.8357C63.9551 33.7961 64.2744 36.0312 64.4872 38.0002ZM94.748 11.3915L84.6367 36.8827C80.1132 48.3244 79.0488 50.7724 72.0241 50.7724C70.5341 50.7724 68.4586 50.5595 66.596 50.2935V40.1822C68.9908 40.2886 70.3744 40.395 72.0241 40.395C75.5897 40.395 76.388 38.5856 76.388 38.0535C76.388 37.5745 75.5897 35.7651 73.4078 30.2305L65.9041 11.3915H78.0909L79.4214 27.7293C79.581 29.6451 79.5278 34.5411 79.5278 35.6055H81.1243C81.1243 34.5411 81.0711 29.6451 81.2308 27.7293L82.5612 11.3915H94.748ZM119.526 23.6848V25.0684H102.55C102.709 26.7182 103.827 28.5808 106.328 28.5808C108.084 28.5808 109.255 27.6229 109.521 26.4521L119.526 26.8778C119.313 32.8382 115.375 38.5324 106.328 38.5324C99.3035 38.5324 92.8642 33.7961 92.8642 24.6959C92.8642 15.5957 99.3035 10.8594 106.328 10.8594C115.641 10.8594 119.526 18.3098 119.526 23.6848ZM102.55 24.2169H109.628C109.628 22.6736 108.51 20.811 106.328 20.811C103.88 20.811 102.763 22.5672 102.55 24.2169ZM121.117 11.3915H130.164C130.537 13.1477 130.483 14.4782 130.483 15.5957C130.483 16.6069 130.217 20.4385 128.727 24.7491H130.324C131.867 18.4162 132.985 10.8594 135.592 10.8594C142.936 10.8594 146.874 14.7442 146.874 20.3853V38.0002H136.763V24.2169C136.763 21.5561 135.379 21.0771 134.209 21.0771C132.506 21.0771 131.761 22.6736 131.761 24.2169V38.0002H121.649V21.5561C121.649 15.5957 121.33 13.3606 121.117 11.3915Z" fill="#444444"/>
</svg>
