<svg width="32" height="33" viewBox="0 0 32 33" fill="none" xmlns="http://www.w3.org/2000/svg">
<path d="M24.5714 2.71582C25.988 2.71582 27.1993 3.2188 28.2053 4.22475C29.2112 5.2307 29.7142 6.44201 29.7142 7.85868V25.0015C29.7142 26.4182 29.2112 27.6295 28.2053 28.6355C27.1993 29.6414 25.988 30.1444 24.5714 30.1444H7.4285C6.01183 30.1444 4.80053 29.6414 3.79457 28.6355C2.78862 27.6295 2.28564 26.4182 2.28564 25.0015V7.85868C2.28564 6.44201 2.78862 5.2307 3.79457 4.22475C4.80053 3.2188 6.01183 2.71582 7.4285 2.71582H24.5714ZM11.1964 9.26939H4.57136V23.323H11.3928C12.7856 23.323 13.9583 22.9807 14.9106 22.2962C15.863 21.6117 16.3392 20.5968 16.3392 19.2515C16.3392 17.3706 15.488 16.1801 13.7856 15.6801C15.0595 15.0611 15.6964 14.0849 15.6964 12.7515C15.6964 12.073 15.5803 11.4986 15.3481 11.0283C15.116 10.5581 14.7797 10.198 14.3392 9.94796C13.8987 9.69796 13.4285 9.52237 12.9285 9.42118C12.4285 9.31999 11.8511 9.26939 11.1964 9.26939ZM10.8035 14.948H7.66064V11.6622H10.5714C11.988 11.6622 12.6964 12.198 12.6964 13.2694C12.6964 14.3884 12.0654 14.948 10.8035 14.948ZM10.9642 20.9301H7.66064V17.0551H11.0356C12.5118 17.0551 13.2499 17.7277 13.2499 19.073C13.2499 20.3111 12.488 20.9301 10.9642 20.9301ZM22.5714 21.5015C21.7618 21.5015 21.1428 21.2753 20.7142 20.823C20.2856 20.3706 20.0714 19.7337 20.0714 18.9122H27.4106C27.4225 18.7932 27.4285 18.6146 27.4285 18.3765C27.4285 16.8051 26.985 15.4926 26.0981 14.439C25.2112 13.3855 23.9999 12.8587 22.4642 12.8587C20.9404 12.8587 19.6904 13.3706 18.7142 14.3944C17.738 15.4182 17.2499 16.7039 17.2499 18.2515C17.2499 19.8587 17.7202 21.1503 18.6606 22.1265C19.6011 23.1027 20.869 23.5908 22.4642 23.5908C24.9047 23.5908 26.494 22.4539 27.2321 20.1801H24.7678C24.6368 20.5849 24.3541 20.9063 23.9196 21.1444C23.485 21.3825 23.0356 21.5015 22.5714 21.5015ZM22.3928 14.9658C23.738 14.9658 24.4761 15.692 24.6071 17.1444H20.0714C20.119 16.4777 20.3511 15.948 20.7678 15.5551C21.1845 15.1622 21.7261 14.9658 22.3928 14.9658ZM19.4999 10.2158H25.1964V11.5908H19.4999V10.2158Z" fill="#444444"/>
</svg>
