<svg width="32" height="33" viewBox="0 0 32 33" fill="none" xmlns="http://www.w3.org/2000/svg">
<g clip-path="url(#clip0_1209_22397)">
<path d="M31.9667 17.1204C28.6053 16.0617 24.6853 15.9364 20.7787 16.7924C20.1626 15.2706 19.4688 13.7816 18.7 12.331C22.528 10.9137 25.796 8.80302 27.864 5.73502C30.424 8.57369 32 12.319 32 16.4297C32 16.663 31.9733 16.8897 31.9667 17.1204ZM26.8267 4.68569C24.924 7.66569 21.7493 9.69635 17.9987 11.0537C15.995 7.52616 13.5632 4.25965 10.7587 1.32835C12.443 0.736933 14.2149 0.433137 16 0.429688C20.1773 0.429687 23.9733 2.05235 26.8267 4.68569ZM9.21733 1.95902C12.0324 4.8365 14.4616 8.06754 16.444 11.571C11.3427 13.119 5.432 13.595 0.264 13.6084C1.18933 8.43902 4.6 4.13369 9.21733 1.95902ZM0 16.4297C0 15.9684 0.0293333 15.515 0.0693333 15.0657C5.49067 15.063 11.74 14.5577 17.1467 12.8644C17.896 14.2732 18.5755 15.718 19.1827 17.1937C13.7053 18.779 8.44267 22.347 5.02133 28.0404C1.93733 25.1204 0 21.0004 0 16.4297ZM6.132 29.0004C9.376 23.4724 14.448 20.0284 19.7053 18.5337C21.2467 22.6217 22.2187 26.8644 22.5147 31.0284C20.4667 31.9512 18.2463 32.4289 16 32.4297C12.276 32.4297 8.85333 31.1404 6.132 29.0004ZM23.972 30.2817C23.6853 26.183 22.7693 22.0884 21.308 18.1457C24.9747 17.3804 28.6467 17.5337 31.7707 18.575C31.7933 18.583 31.816 18.5777 31.8387 18.583C31.5066 21.0039 30.6251 23.3167 29.2616 25.3444C27.8981 27.3721 26.0887 29.0609 23.972 30.2817Z" fill="#444444"/>
</g>
<defs>
<clipPath id="clip0_1209_22397">
<rect width="32" height="32" fill="white" transform="translate(0 0.429688)"/>
</clipPath>
</defs>
</svg>
