<svg width="32" height="33" viewBox="0 0 32 33" fill="none" xmlns="http://www.w3.org/2000/svg">
<path d="M24.5714 2.71582C25.988 2.71582 27.1993 3.2188 28.2053 4.22475C29.2112 5.2307 29.7142 6.44201 29.7142 7.85868V25.0015C29.7142 26.4182 29.2112 27.6295 28.2053 28.6355C27.1993 29.6414 25.988 30.1444 24.5714 30.1444H21.2142V19.5194H24.7678L25.3035 15.3765H21.2142V12.7337C21.2142 12.067 21.3541 11.567 21.6339 11.2337C21.9136 10.9003 22.4583 10.7337 23.2678 10.7337L25.4464 10.7158V7.01939C24.6964 6.91225 23.6368 6.85868 22.2678 6.85868C20.6487 6.85868 19.3541 7.33487 18.3839 8.28725C17.4136 9.23963 16.9285 10.5849 16.9285 12.323V15.3765H13.3571V19.5194H16.9285V30.1444H7.4285C6.01183 30.1444 4.80053 29.6414 3.79457 28.6355C2.78862 27.6295 2.28564 26.4182 2.28564 25.0015V7.85868C2.28564 6.44201 2.78862 5.2307 3.79457 4.22475C4.80053 3.2188 6.01183 2.71582 7.4285 2.71582H24.5714Z" fill="#444444"/>
</svg>
