<svg width="265" height="232" viewBox="0 0 265 232" fill="none" xmlns="http://www.w3.org/2000/svg">
<g clip-path="url(#clip0_1209_22374)">
<path d="M136.484 83.2454C137.647 83.2454 137.647 81.5615 136.484 81.5615C135.321 81.5615 135.321 83.2454 136.484 83.2454Z" fill="#444444"/>
<path d="M134.394 81.4099C130.714 86.2629 126.882 91.0486 122.746 95.5716C119.178 99.4715 115.194 103.216 110.286 105.631C107.764 106.877 105.016 107.677 102.182 107.989C98.96 108.325 95.6806 108.208 92.4518 107.989C89.483 107.78 86.4348 107.342 83.8163 105.941C81.2629 104.574 79.215 102.503 77.0661 100.657C75.4576 99.3154 73.9322 97.8896 72.4973 96.3866C71.1466 94.9283 69.9258 93.3758 68.6112 91.8872C67.3694 90.5199 66.2656 89.0487 65.3137 87.4922C63.8979 85.1347 63.0853 82.5651 62.5219 79.9113C61.9068 76.9056 61.5445 73.8596 61.4384 70.8013C61.2891 67.7202 61.3277 64.6337 61.554 61.5567C61.6804 59.994 61.8501 58.4314 61.8501 56.862C61.8501 55.4037 61.5612 53.9656 61.6984 52.5074C61.9657 49.6953 63.4754 47.1189 64.8406 44.6536C67.8021 39.2996 71.1017 34.1141 74.7221 29.1247C75.5627 27.891 76.4804 26.7046 77.4706 25.5716C78.3004 24.6862 79.2756 23.9291 80.3599 23.3287C82.4005 22.1735 84.6398 21.3383 86.4998 19.9306C87.4048 19.2633 88.1503 18.4271 88.6884 17.4754L87.0054 17.0477L87.3666 22.773C87.4135 23.5611 88.6018 23.9787 89.046 23.1973C89.3965 22.6003 89.9088 22.0995 90.5318 21.7449C91.1548 21.3904 91.8666 21.1944 92.5963 21.1766C94.4743 21.1228 95.6517 22.3554 96.9303 23.4701C100.069 26.2351 104.515 27.1747 108.589 28.1244C110.873 28.6945 113.207 29.0721 115.563 29.2526C116.722 29.3318 117.886 29.325 119.045 29.2324C119.583 29.1887 120.128 29.0977 120.652 29.0438C121.175 28.99 121.23 29.0438 121.475 29.4918C122.306 30.9399 123.928 31.5124 125.343 32.3409C126.066 32.7653 126.636 33.3513 127.38 33.7722C127.68 33.8918 127.948 34.0698 128.168 34.2943C128.387 34.5755 128.628 34.8412 128.89 35.0891C129.493 35.5198 130.197 35.8096 130.945 35.9344C131.667 36.1095 132.419 36.2712 133.152 36.4463C133.942 36.6292 134.718 36.8633 135.474 37.1468C135.722 37.2545 135.964 37.3759 136.196 37.5105C136.196 37.5105 136.413 37.6553 136.312 37.5812C136.211 37.5072 136.384 37.6385 136.399 37.6553C136.413 37.6722 136.485 37.7328 136.525 37.7766C136.565 37.8204 136.456 37.6654 136.554 37.8305C137.114 38.7802 138.674 37.9315 138.111 36.9818C137.464 35.8839 135.835 35.4427 134.643 35.1025C133.34 34.7354 131.996 34.5064 130.692 34.1393C130.017 33.9474 129.753 33.4658 129.298 33.001C128.985 32.7309 128.633 32.5041 128.251 32.3275C127.853 32.0877 127.478 31.8162 127.131 31.5158C126.448 31.0229 125.716 30.591 124.946 30.2259C124.264 29.9356 123.662 29.5036 123.187 28.963C122.898 28.5791 122.75 28.148 122.364 27.8247C122.141 27.6509 121.883 27.5203 121.605 27.4405C121.327 27.3607 121.035 27.3333 120.746 27.3599C119.561 27.434 118.409 27.6327 117.213 27.6327C114.828 27.6009 112.455 27.3105 110.142 26.7672C107.856 26.2688 105.562 25.6962 103.334 24.9957C101.374 24.4371 99.5711 23.4788 98.0571 22.1903C97.1939 21.4225 96.3452 20.5839 95.2689 20.0754C94.3971 19.659 93.4227 19.4649 92.4446 19.5129C91.4242 19.5528 90.4316 19.8348 89.5607 20.3322C88.6898 20.8296 87.9694 21.5259 87.4677 22.3554L89.1507 22.7797L88.7896 17.0544C88.7426 16.2765 87.5435 15.842 87.1065 16.6301C86.023 18.5969 83.8813 19.6342 81.866 20.6243C80.7902 21.1268 79.7437 21.6821 78.7311 22.288C77.548 23.0405 76.5008 23.9635 75.6286 25.0227C73.6433 27.4831 71.7929 30.0358 70.0847 32.671C68.3367 35.2709 66.6729 37.918 65.0934 40.6123C63.544 43.256 61.9007 45.9435 60.7991 48.7826C60.2589 50.1278 59.9398 51.5414 59.8529 52.9755C59.777 54.5045 60.0768 56.0267 60.0298 57.5591C59.9829 59.0914 59.7987 60.6912 59.6903 62.2572C59.582 63.8232 59.5639 65.4263 59.5603 67.0092C59.535 70.1764 59.7268 73.3418 60.1346 76.4862C60.5355 79.4768 61.0917 82.5483 62.2727 85.3536C63.1782 87.4918 64.3933 89.5042 65.8844 91.3349C67.0437 92.7696 68.2825 94.1537 69.496 95.5581C70.7659 97.0766 72.1374 98.5186 73.6025 99.8756C74.5596 100.748 75.5492 101.59 76.5352 102.439C77.6187 103.385 78.7022 104.368 79.8362 105.278C80.9875 106.232 82.2584 107.053 83.6213 107.723C85.0268 108.367 86.5166 108.836 88.0528 109.12C91.2058 109.726 94.5141 109.858 97.7248 109.878C100.936 109.898 104.226 109.615 107.328 108.652C112.746 106.968 117.286 103.56 121.183 99.7544C125.517 95.5143 129.338 90.7691 133.058 86.0575C134.052 84.8002 135.031 83.5339 135.994 82.2586C136.113 82.0657 136.146 81.8368 136.086 81.6214C136.026 81.4059 135.878 81.2211 135.673 81.1068C135.465 80.9986 135.22 80.9698 134.99 81.0263C134.759 81.0828 134.561 81.2203 134.437 81.4099H134.394Z" fill="#444444"/>
<path d="M132.89 70.7816C133.637 69.4344 134.916 68.4477 136.119 67.471C136.776 66.9389 137.437 66.4101 138.051 65.8309C138.644 65.2493 139.183 64.6218 139.662 63.955C140.156 63.2317 140.788 62.5984 141.525 62.0859C142.277 61.6393 143.121 61.3456 144.003 61.2237C144.921 61.0912 145.851 61.0326 146.78 61.0486C147.158 61.004 147.541 61.0516 147.893 61.1867C148.147 61.3818 148.309 61.6624 148.344 61.968C148.567 62.853 148.706 63.7545 148.759 64.6622C148.854 65.6051 148.731 66.556 148.398 67.4508C147.777 69.0135 146.488 70.3269 146.502 72.0815C146.52 72.5283 146.596 72.9715 146.726 73.4017C146.883 73.7905 146.95 74.2062 146.921 74.6209C146.831 75.0654 146.368 75.4056 145.928 75.6918C145.307 76.0444 144.724 76.4515 144.187 76.9076C143.571 77.5162 143.201 78.3055 143.14 79.1405C143.042 79.9117 143.122 80.8075 142.298 81.2453C141.475 81.6832 140.395 81.5047 139.488 81.3194C137.07 80.7812 134.573 80.6218 132.099 80.8479C131.861 80.8539 131.635 80.9445 131.467 81.1011C131.299 81.2578 131.202 81.4685 131.196 81.6899C131.198 81.9127 131.293 82.1258 131.462 82.2833C131.631 82.4408 131.86 82.5301 132.099 82.5319C134.443 82.3094 136.811 82.4516 139.105 82.9528C140.189 83.1684 141.29 83.3199 142.356 83.0303C142.86 82.9075 143.326 82.6767 143.717 82.3563C144.108 82.0359 144.414 81.6347 144.61 81.1847C144.971 80.3529 144.74 79.3998 145.104 78.5848C145.35 78.0426 145.946 77.7058 146.488 77.3656C147.192 76.984 147.807 76.473 148.293 75.8636C148.857 75.062 148.785 74.1191 148.546 73.2266C148.405 72.8121 148.326 72.3815 148.312 71.9468C148.338 71.5497 148.442 71.1605 148.618 70.7984C148.98 69.9699 149.536 69.2189 149.919 68.3938C150.876 66.336 150.58 64.1335 150.175 61.9949C150.009 61.1126 149.666 60.2066 148.788 59.7284C147.853 59.2199 146.621 59.3411 145.585 59.3916C143.468 59.4826 141.377 59.8867 139.759 61.2439C138.878 61.9848 138.289 62.9278 137.57 63.7967C136.962 64.4889 136.283 65.1249 135.544 65.6962C134.006 66.9658 132.294 68.1951 131.319 69.9295C130.784 70.8927 132.341 71.7447 132.875 70.7816H132.89Z" fill="#444444"/>
<path d="M74.9443 101.034C74.3051 103.489 74.9154 105.975 75.822 108.299C76.7285 110.622 77.7217 112.838 78.8088 115.034C80.8169 119.123 83.3487 123.08 86.9495 126.125C88.8786 127.779 91.1129 129.095 93.5444 130.008C93.7752 130.066 94.0213 130.037 94.2294 129.927C94.4376 129.818 94.5911 129.636 94.6568 129.422C94.7152 129.206 94.6821 128.978 94.5643 128.785C94.4465 128.591 94.2532 128.448 94.0248 128.384C85.3279 125.165 81.1528 116.442 77.9781 108.851C77.0066 106.531 76.0314 103.968 76.6888 101.442C76.9633 100.391 75.2224 99.9398 74.9443 100.994V101.034Z" fill="#444444"/>
<path d="M95.0098 129.524C102.118 123.402 110.612 118.969 118.392 113.662C125.341 108.923 132.019 103.245 135.804 95.8966C137.971 91.6767 139.654 86.4297 137.266 81.9774C136.746 81.0075 135.19 81.8596 135.706 82.8261C137.664 86.4768 136.248 90.956 134.55 94.4451C132.771 97.9834 130.392 101.231 127.504 104.064C121.407 110.179 113.78 114.622 106.43 119.269C102.013 122.054 97.6535 124.954 93.7313 128.335C92.8753 129.073 94.1538 130.262 95.0098 129.524Z" fill="#444444"/>
<path d="M148.259 75.5764C149.635 74.8792 151.528 74.7849 153.048 74.9937C155.074 75.2766 156.161 76.8292 157.021 78.439C157.96 80.1768 158.415 82.1436 160.633 82.8172C162.54 83.3729 164.606 82.8172 166.512 83.3089C170.579 84.3697 173.472 88.3235 175.408 91.5836C176.524 93.4628 177.481 95.6519 177.181 97.8443C176.882 100.037 175.227 101.626 174.111 103.462C173.097 105.126 172.443 107.214 173.31 109.056C173.743 109.972 175.061 110.191 176 110.528C177.204 110.965 178.423 111.375 179.655 111.757C184.051 113.127 188.594 113.976 192.972 115.391C197.511 116.862 202.022 118.58 206.053 121.049C209.784 123.339 213.088 126.183 215.833 129.468C218.578 132.755 221.081 136.254 223.552 139.726C226.906 144.441 230.095 149.262 233.119 154.188C240.87 166.787 247.566 179.989 252.709 193.706C258.632 209.487 262.55 226.037 263.121 242.775C263.197 244.893 263.211 247.015 263.179 249.137C263.179 250.221 264.985 250.221 264.985 249.137C265.198 235.787 263.233 222.457 259.722 209.528C256.38 197.468 251.885 185.712 246.291 174.401C241.618 164.861 236.322 155.596 230.432 146.661C226.387 140.514 222.15 134.392 217.43 128.67C213.207 123.527 207.701 119.424 201.39 116.718C197.905 115.23 194.319 113.955 190.657 112.902C187.168 111.891 183.596 111.201 180.128 110.12C178.229 109.527 176.354 108.867 174.505 108.157L175.043 108.541C173.996 106.584 175.502 104.455 176.643 102.862C177.785 101.269 178.77 99.7404 178.98 97.8309C179.413 93.8973 176.813 90.0512 174.371 87.0539C172.111 84.2822 169.156 81.699 165.256 81.3926C163.63 81.2612 161.088 81.8843 159.983 80.4193C159.405 79.6582 159.134 78.6781 158.7 77.8429C158.258 76.9736 157.71 76.1544 157.068 75.4012C155.833 73.9733 154.388 73.3806 152.449 73.2593C150.744 73.1515 148.837 73.3536 147.324 74.1215C146.302 74.6368 147.212 76.0916 148.234 75.5764H148.259Z" fill="#444444"/>
<path d="M73.5005 45.5641C71.2647 46.4803 69.4348 48.0856 68.3177 50.1107C67.0139 52.5086 66.985 55.2028 67.5954 57.7859C67.9426 59.1422 68.4263 60.4648 69.04 61.7364C69.5438 62.9034 70.2053 64.0058 71.0084 65.0166C71.8962 66.0394 73.0927 66.7903 74.4431 67.172C75.718 67.5526 77.0832 67.6132 78.4159 67.721C79.2069 67.7883 79.6042 67.8591 80.3735 67.9399C80.9419 67.9982 81.5148 68.0095 82.0854 67.9736C83.3284 67.8937 84.544 67.5955 85.6682 67.0946C86.6518 66.6526 87.5299 66.0307 88.2505 65.2658C88.6346 64.8601 88.9768 64.4214 89.2726 63.9558C89.4893 63.6021 89.6338 63.2216 89.8577 62.868C90.3918 62.0562 90.7775 61.1674 90.999 60.2377C91.1667 59.4989 91.2933 58.7525 91.3782 58.0015C91.4324 57.2942 91.4252 56.5769 91.4505 55.8663C91.4938 54.4114 91.6057 52.9497 91.3277 51.5117C91.1061 50.4222 90.622 49.3938 89.9119 48.5042C86.6614 44.409 80.5649 43.3144 75.5302 44.8232C74.8332 45.032 74.1542 45.2913 73.4824 45.5641C72.8106 45.8369 72.6373 46.7833 72.984 47.339C73.3993 48.0125 74.1939 48.0833 74.8873 47.8037C75.2268 47.6656 75.9022 47.4299 76.4151 47.2817C76.9915 47.113 77.579 46.9791 78.174 46.881C78.652 46.8088 79.1346 46.7661 79.6186 46.753C80.2497 46.7322 80.8815 46.7604 81.5075 46.8372C81.2981 46.8102 81.8326 46.8911 81.7856 46.881C81.9518 46.9079 82.1143 46.9382 82.2804 46.9719C82.5621 47.0291 82.8402 47.0931 83.1183 47.1706C83.3278 47.2278 83.5373 47.2918 83.7468 47.3592L84.1079 47.4905C84.2596 47.5478 84.2704 47.5545 84.1404 47.4905L84.3824 47.5949C84.8241 47.7907 85.2502 48.0158 85.6573 48.2685L85.9824 48.4739C85.9824 48.4739 86.3436 48.7265 86.1232 48.5682C86.3291 48.7164 86.5277 48.8781 86.7155 49.0431C86.9034 49.2081 87.0767 49.3799 87.2609 49.5651C87.3476 49.6527 87.4307 49.747 87.5101 49.8379C87.3295 49.6325 87.5896 49.9389 87.604 49.9591C87.7268 50.1208 87.8424 50.2959 87.9652 50.4609C88.0278 50.562 88.0892 50.6664 88.1494 50.7741C88.1711 50.8179 88.3805 51.2524 88.2722 51.0065C88.7164 52.0371 88.7453 52.9598 88.72 54.0746C88.6875 55.3779 88.6875 56.6981 88.59 58.0015C88.5611 58.4292 88.413 59.0455 88.3155 59.5473C88.2648 59.8082 88.1961 60.0659 88.1097 60.3185C88.0735 60.4263 88.0266 60.5307 87.9905 60.6385C88.0844 60.3623 87.9905 60.6385 87.9543 60.7025C87.799 61.0089 87.5932 61.2952 87.4307 61.5916C87.2681 61.8879 87.0948 62.2651 86.8925 62.6019C86.7914 62.7737 86.6758 62.9387 86.5566 63.1003L86.3905 63.3192C86.5855 63.0768 86.3508 63.3563 86.3183 63.39C86.0186 63.7166 85.6847 64.0144 85.3215 64.2791C85.5779 64.0938 85.2673 64.3094 85.2275 64.333C85.1336 64.3936 85.0361 64.4542 84.935 64.5114C84.7327 64.626 84.5269 64.7337 84.3138 64.8482L84.0971 64.9425C83.7359 65.0974 84.3571 64.8684 83.9851 64.9829C83.7143 65.0671 83.4434 65.1581 83.1653 65.2221C82.9594 65.2726 82.7535 65.3062 82.5477 65.3467C82.1432 65.4241 82.8258 65.3298 82.4068 65.3669L82.0168 65.4005C81.4675 65.4292 80.9167 65.4157 80.3699 65.3601C79.9039 65.3164 80.6552 65.4039 80.1568 65.3332C79.9328 65.2995 79.7053 65.2726 79.4778 65.249C79.1744 65.212 78.871 65.1816 78.564 65.1581C77.9717 65.1075 77.3794 65.0604 76.7871 65.0065C76.3176 64.9627 77.0435 65.0503 76.5812 64.9829L76.2995 64.9392C76.0178 64.892 75.7361 64.8348 75.4616 64.764C75.3243 64.727 75.1871 64.6899 75.0499 64.6462C75.0499 64.6462 74.6237 64.4879 74.8476 64.5788C74.5744 64.4658 74.3111 64.3329 74.0603 64.1814C74.0603 64.1814 73.663 63.912 73.858 64.0568C73.7497 63.976 73.6449 63.885 73.5438 63.7941C73.4427 63.7032 73.3415 63.6055 73.2476 63.5045C73.2476 63.5045 72.9659 63.1677 73.1104 63.3529C72.7711 62.9174 72.4727 62.4554 72.2183 61.9721C71.6776 61.0008 71.2153 59.9933 70.835 58.9579C70.3548 57.7236 70.0642 56.4322 69.9719 55.122C69.9719 54.8189 69.9538 54.5158 69.9719 54.2093C69.9719 54.0578 69.9719 53.9062 69.9971 53.7547L70.0296 53.4482C70.008 53.5863 70.008 53.5762 70.0296 53.4212C70.132 52.8911 70.2843 52.3705 70.4847 51.8653C70.6328 51.4915 70.3655 52.0741 70.5533 51.7171L70.7267 51.3803C70.8712 51.1244 71.0265 50.8718 71.1962 50.6293C71.2721 50.5249 71.3443 50.4239 71.4237 50.3229C71.5032 50.2218 71.5285 50.1881 71.5827 50.1242C71.4996 50.2218 71.5104 50.2151 71.6116 50.0938C71.7849 49.9086 71.9727 49.72 72.1461 49.5415C72.9169 48.792 73.8502 48.2042 74.8837 47.8172C75.5736 47.541 75.7289 46.5947 75.3821 46.0424C74.9668 45.3688 74.1722 45.2981 73.4788 45.5776L73.5005 45.5641Z" fill="#444444"/>
<path d="M110.937 44.9478C108.16 44.8164 105.314 46.2107 103.533 48.1573C101.798 50.0553 100.912 52.5033 101.059 54.994C101.156 55.9825 101.331 56.9629 101.583 57.9273C101.818 59.0656 102.16 60.1824 102.605 61.2648C103.095 62.472 103.83 63.5791 104.772 64.5249C105.759 65.4337 106.953 66.1242 108.265 66.5456C110.749 67.4043 113.595 67.4212 116.21 67.1888C119.139 66.9261 121.989 66.1616 124.261 64.3262C126.532 62.4907 127.425 59.911 127.248 57.2201C127.128 55.8101 126.864 54.414 126.46 53.0507C126.155 51.8767 125.734 50.7313 125.203 49.629C124.686 48.5254 123.904 47.5473 122.917 46.7698C121.725 45.9145 120.331 45.3371 118.85 45.0859C115.799 44.5 112.653 44.4897 109.597 45.0556C108.866 45.1924 108.143 45.3644 107.43 45.5708C107.251 45.613 107.082 45.6883 106.934 45.7921C106.786 45.896 106.661 46.0264 106.568 46.1757C106.475 46.325 106.415 46.4902 106.391 46.6616C106.367 46.8329 106.38 47.007 106.43 47.1735C106.479 47.34 106.563 47.4957 106.678 47.6313C106.793 47.767 106.936 47.8798 107.098 47.9633C107.26 48.0468 107.439 48.0993 107.623 48.1175C107.807 48.1358 107.993 48.1196 108.171 48.0697C110.715 47.3348 113.389 47.0739 116.041 47.3019C116.637 47.3456 117.231 47.422 117.818 47.5309C118.436 47.6354 119.046 47.7829 119.641 47.9721C120.159 48.1451 120.646 48.3892 121.086 48.6962C120.873 48.5446 121.216 48.8039 121.223 48.8107C121.321 48.8915 121.418 48.9791 121.512 49.07C121.606 49.1609 121.696 49.2485 121.783 49.3428L121.953 49.5347C121.873 49.4371 121.881 49.4505 121.978 49.5718C122.256 49.955 122.506 50.3544 122.729 50.7674C122.787 50.8819 122.845 50.9997 122.899 51.1041C122.791 50.8751 122.971 51.2658 122.971 51.2692C123.091 51.5521 123.199 51.835 123.3 52.1246C123.662 53.1793 123.961 54.2519 124.196 55.3375C124.472 56.4814 124.558 57.6581 124.452 58.8265C124.409 59.2711 124.51 58.6245 124.416 59.0589C124.387 59.2004 124.358 59.3452 124.322 59.4866C124.261 59.7223 124.188 59.955 124.102 60.1838C124.034 60.3789 123.943 60.5664 123.831 60.7428C123.678 61.0003 123.511 61.2499 123.329 61.4905C122.749 62.1907 122.026 62.7768 121.202 63.2148C120.152 63.7826 119.002 64.1726 117.807 64.3666C116.596 64.5854 115.367 64.6981 114.134 64.7034C113.567 64.7034 113.003 64.7034 112.436 64.6764C112.201 64.6764 111.963 64.6461 111.714 64.6259L111.291 64.5821C111.54 64.6124 111.01 64.5383 110.963 64.5316C110.412 64.4429 109.869 64.3168 109.337 64.1544C108.836 64.0175 108.359 63.8132 107.922 63.5482C107.727 63.4404 107.535 63.3192 107.351 63.1946C107.56 63.336 107.203 63.0801 107.199 63.0767C107.094 62.9925 106.993 62.905 106.892 62.814C106.506 62.4879 106.179 62.1058 105.924 61.6824C104.888 60.113 104.458 58.1159 104.035 56.139L103.96 55.7854C103.934 55.6574 103.909 55.5294 103.887 55.4015C103.931 55.6507 103.862 55.1556 103.858 55.1085C103.834 54.8116 103.825 54.5137 103.833 54.216C103.833 54.088 103.833 53.9634 103.855 53.8354C103.855 53.7883 103.916 53.2899 103.876 53.5525C103.961 53.0114 104.102 52.4791 104.295 51.9629C104.342 51.8451 104.389 51.7272 104.44 51.6262C104.342 51.8451 104.555 51.4039 104.577 51.3635C104.716 51.0996 104.87 50.8433 105.039 50.5956C105.654 49.7413 106.458 49.0201 107.398 48.4806C108.441 47.8208 109.685 47.4925 110.945 47.5444C111.313 47.5426 111.666 47.4055 111.927 47.1629C112.188 46.9202 112.336 46.5914 112.339 46.2478C112.325 45.9073 112.174 45.5843 111.915 45.3437C111.656 45.1031 111.31 44.9628 110.945 44.9511L110.937 44.9478Z" fill="#444444"/>
<path d="M90.171 56.1959H102.451C102.63 56.2046 102.81 56.1792 102.979 56.1211C103.148 56.063 103.302 55.9735 103.432 55.8581C103.563 55.7426 103.667 55.6035 103.738 55.4494C103.809 55.2953 103.845 55.1293 103.845 54.9616C103.845 54.7938 103.809 54.6278 103.738 54.4737C103.667 54.3196 103.563 54.1806 103.432 54.0651C103.302 53.9496 103.148 53.8601 102.979 53.802C102.81 53.744 102.63 53.7185 102.451 53.7273H90.171C89.9914 53.7185 89.8117 53.744 89.6429 53.802C89.4742 53.8601 89.3199 53.9496 89.1894 54.0651C89.0589 54.1806 88.955 54.3196 88.884 54.4737C88.813 54.6278 88.7764 54.7938 88.7764 54.9616C88.7764 55.1293 88.813 55.2953 88.884 55.4494C88.955 55.6035 89.0589 55.7426 89.1894 55.8581C89.3199 55.9735 89.4742 56.063 89.6429 56.1211C89.8117 56.1792 89.9914 56.2046 90.171 56.1959Z" fill="#444444"/>
<path d="M125.533 56.924C128.781 57.5402 131.814 58.9014 134.356 60.8846C134.615 61.1124 134.957 61.2393 135.313 61.2393C135.669 61.2393 136.012 61.1124 136.27 60.8846C136.754 60.4333 136.83 59.5375 136.27 59.0996C133.394 56.8098 129.951 55.2261 126.252 54.4925C125.906 54.4098 125.54 54.4552 125.229 54.6191C124.919 54.783 124.688 55.0527 124.587 55.3715C124.435 56.0046 124.792 56.7826 125.533 56.924Z" fill="#444444"/>
<path d="M145.171 64.0117C143.954 64.7173 142.821 65.5439 141.795 66.477C140.552 67.6288 139.433 69.0769 139.389 70.5722" stroke="#444444" stroke-miterlimit="10" stroke-linecap="round"/>
<path d="M142.716 66.0146C142.716 66.0146 144.082 67.19 143.645 70.056C143.208 72.922 143.702 73.7606 144.32 74.0671" stroke="#444444" stroke-miterlimit="10" stroke-linecap="round"/>
<path d="M67.8748 53.5219L61.6519 52.9932C61.4125 52.9932 61.1828 53.0819 61.0135 53.2398C60.8442 53.3977 60.749 53.6118 60.749 53.8351C60.749 54.0584 60.8442 54.2726 61.0135 54.4305C61.1828 54.5884 61.4125 54.6771 61.6519 54.6771L67.8748 55.2058C68.1137 55.2041 68.3423 55.1148 68.5112 54.9573C68.6801 54.7998 68.7759 54.5866 68.7778 54.3639C68.7731 54.1419 68.6765 53.9303 68.5082 53.7733C68.3399 53.6163 68.1129 53.5262 67.8748 53.5219Z" fill="#444444"/>
<path d="M110.125 54.465C109.958 54.988 109.949 55.5441 110.1 56.0714C110.178 56.3324 110.3 56.5802 110.461 56.8056C110.698 57.1356 110.999 57.4211 111.349 57.6476C111.782 57.9108 112.269 58.0867 112.779 58.1639C113.289 58.241 113.811 58.2177 114.311 58.0955C114.915 57.961 115.452 57.6378 115.831 57.1795C116.061 56.9144 116.224 56.6049 116.308 56.2735C116.371 55.9689 116.411 55.6606 116.427 55.3507C116.427 55.1588 116.471 54.9668 116.471 54.7748C116.471 54.4511 116.382 54.1328 116.213 53.8499C116.045 53.5671 115.801 53.329 115.506 53.1583C115.023 52.9154 114.497 52.7556 113.953 52.6868C113.375 52.5563 112.777 52.5142 112.184 52.5622C111.851 52.5857 111.522 52.6467 111.205 52.744C110.776 52.881 110.381 53.0988 110.046 53.3839C109.889 53.5286 109.764 53.7009 109.679 53.8908C109.594 54.0807 109.55 54.2845 109.55 54.4903C109.55 54.696 109.594 54.8998 109.679 55.0897C109.764 55.2796 109.889 55.4519 110.046 55.5966C110.201 55.742 110.386 55.8573 110.589 55.936C110.792 56.0146 111.01 56.0549 111.23 56.0546C111.673 56.0412 112.095 55.8784 112.418 55.5966L112.491 55.5393L112.151 55.7852C112.245 55.7217 112.345 55.6675 112.451 55.6235L112.05 55.7818C112.237 55.7121 112.432 55.6635 112.632 55.637L112.184 55.6943C112.491 55.6589 112.801 55.6589 113.108 55.6943L112.66 55.6404C113.154 55.6923 113.639 55.7997 114.105 55.9603L113.704 55.802C113.75 55.821 113.794 55.8448 113.834 55.8727L113.491 55.6269L113.527 55.6572L113.264 55.3406C113.289 55.3646 113.309 55.3933 113.321 55.4248L113.152 55.051C113.163 55.0804 113.17 55.1109 113.173 55.1419L113.112 54.7243C113.117 55.0523 113.093 55.3801 113.04 55.7044L113.101 55.2901C113.084 55.4054 113.053 55.5185 113.007 55.6269L113.177 55.2531C113.147 55.3175 113.11 55.3786 113.065 55.4349L113.329 55.1183C113.279 55.1749 113.223 55.2268 113.162 55.2733L113.502 55.0274C113.424 55.0789 113.34 55.1229 113.253 55.1588L113.654 55.0005C113.514 55.0502 113.368 55.0852 113.22 55.1049L113.668 55.0476C113.479 55.0677 113.287 55.0677 113.097 55.0476L113.542 55.1015C113.357 55.0792 113.177 55.0362 113.004 54.9735L113.404 55.1318C113.277 55.0796 113.155 55.0141 113.043 54.9365L113.383 55.1823C113.288 55.111 113.202 55.0296 113.126 54.9399L113.39 55.2564C113.333 55.1822 113.283 55.1033 113.242 55.0207L113.412 55.3945C113.365 55.2859 113.331 55.173 113.311 55.0577L113.372 55.472C113.358 55.3601 113.358 55.2471 113.372 55.1352L113.314 55.5494C113.327 55.4627 113.348 55.3772 113.376 55.2935C113.489 54.8863 113.428 54.454 113.206 54.0878C113.038 53.8229 112.791 53.6098 112.494 53.475C112.198 53.3401 111.866 53.2895 111.538 53.3293C111.211 53.3691 110.904 53.4977 110.655 53.699C110.405 53.9003 110.225 54.1655 110.136 54.4616L110.125 54.465Z" fill="#444444"/>
<path d="M78.7142 53.8216C78.349 53.825 77.9995 53.9602 77.739 54.1988C77.4959 54.4426 77.3582 54.7617 77.3526 55.0946C77.3587 55.3423 77.4313 55.5846 77.5638 55.7993C77.6963 56.0141 77.8845 56.1944 78.111 56.3239C78.5773 56.5748 79.087 56.7481 79.6171 56.8358C80.004 56.9299 80.4084 56.9437 80.8017 56.8762C81.1125 56.7949 81.3863 56.6214 81.5818 56.382C81.7774 56.1425 81.8839 55.8502 81.8852 55.5493C81.8571 55.2474 81.7627 54.9541 81.608 54.6876C81.4533 54.4211 81.2416 54.1871 80.9859 54.0001C80.5718 53.6519 80.0685 53.4089 79.5245 53.2945C78.9806 53.18 78.4142 53.198 77.8799 53.3467C77.4681 53.4636 77.1083 53.7024 76.8548 54.0268C76.6014 54.3512 76.468 54.7438 76.4749 55.1451C76.4457 55.6211 76.5295 56.0972 76.7205 56.5394C76.9225 57.0657 77.2569 57.5393 77.6957 57.9202C78.1924 58.3707 78.8556 58.6262 79.5485 58.6342C79.9254 58.6309 80.2949 58.5359 80.6205 58.3588C80.946 58.1816 81.2164 57.9283 81.4049 57.6238C81.6448 57.1805 81.8116 56.7059 81.8997 56.2161C82.0419 55.5754 81.953 54.9088 81.6468 54.32C81.4833 54.0467 81.2625 53.8069 80.9976 53.6149C80.7326 53.4228 80.429 53.2823 80.1047 53.2019C79.46 53.0356 78.7832 53.0079 78.1255 53.1211C77.8923 53.1552 77.6705 53.238 77.4766 53.3634C77.2827 53.4888 77.1218 53.6535 77.0058 53.8451C76.8364 54.1935 76.7584 54.5745 76.7783 54.9565C76.7476 55.2069 76.7367 55.4591 76.7458 55.7109C76.7579 56.0001 76.8486 56.2817 77.0095 56.5293C77.1714 56.7567 77.3831 56.9495 77.6307 57.0951C78.1048 57.4054 78.6258 57.6483 79.1765 57.8158C80.4947 58.1829 82.1597 57.6238 82.51 56.2801C82.595 55.9683 82.5485 55.638 82.38 55.3573C82.2532 55.1529 82.0644 54.988 81.8373 54.8836C81.6101 54.7791 81.3549 54.7397 81.1038 54.7703C80.8527 54.8009 80.617 54.9002 80.4263 55.0556C80.2356 55.211 80.0986 55.4156 80.0324 55.6436C80.0186 55.6979 79.9993 55.7509 79.9746 55.8018L80.1047 55.5189C80.0731 55.5811 80.0343 55.6398 79.9891 55.6941L80.1913 55.4516C80.1337 55.5177 80.0683 55.5776 79.9963 55.6301L80.2563 55.4415C80.17 55.5015 80.0767 55.5523 79.9782 55.593L80.2852 55.4718C80.1693 55.5173 80.0481 55.5501 79.9241 55.5695L80.2852 55.5257C80.1355 55.5459 79.9835 55.5459 79.8338 55.5257L80.1769 55.5695C79.9773 55.5373 79.7822 55.4842 79.5954 55.4112L79.9024 55.5324C79.5548 55.3847 79.2244 55.2042 78.9164 54.9936L79.1728 55.1822C79.1317 55.15 79.0931 55.1151 79.0573 55.0778L79.2595 55.3202C79.238 55.293 79.2199 55.2637 79.2053 55.2327L79.3354 55.5189C79.3224 55.4862 79.3127 55.4524 79.3065 55.4179L79.3534 55.7379C79.3318 55.5419 79.3318 55.3444 79.3534 55.1485C79.3534 54.9464 79.3534 54.741 79.3932 54.5389L79.3462 54.8589C79.3529 54.8282 79.3614 54.7978 79.3715 54.7679L79.2415 55.0542C79.2527 55.0265 79.2699 55.0013 79.292 54.9801L79.0898 55.2226L79.1295 55.1923L78.8695 55.3775L78.9164 55.3304L78.6094 55.4482C78.6811 55.4269 78.7549 55.4122 78.8297 55.4044L78.4686 55.4449C78.76 55.4112 79.0548 55.4112 79.3462 55.4449L79.0031 55.4011C79.2022 55.4248 79.3975 55.4711 79.5846 55.5392L79.2776 55.4179C79.3818 55.4584 79.4811 55.5092 79.5737 55.5695L79.3137 55.3842C79.3863 55.4348 79.4518 55.4936 79.5087 55.5594L79.3065 55.3169C79.3697 55.3951 79.423 55.4798 79.4654 55.5695L79.339 55.2832C79.39 55.4069 79.4251 55.5358 79.4437 55.6671L79.4004 55.3506C79.4221 55.5127 79.4221 55.6767 79.4004 55.8389L79.4473 55.5223C79.3805 55.8863 79.2703 56.2421 79.1187 56.5832L79.2487 56.2969C79.2125 56.3734 79.169 56.4466 79.1187 56.5158L79.3173 56.2733C79.2747 56.3232 79.2263 56.3684 79.1728 56.4081L79.4329 56.2228C79.3788 56.2571 79.3221 56.2875 79.2631 56.3138L79.5701 56.1925C79.491 56.222 79.4086 56.2435 79.3245 56.2565L79.6676 56.2161C79.5657 56.2279 79.4626 56.2279 79.3606 56.2161L79.7038 56.2599C79.6137 56.2457 79.5253 56.2232 79.4401 56.1925L79.7471 56.3104C79.6075 56.2562 79.4763 56.1849 79.357 56.0982L79.6171 56.2834C79.4708 56.1734 79.3387 56.048 79.2234 55.9096L79.422 56.1521C79.2879 55.9829 79.1752 55.7998 79.0862 55.6065L79.2162 55.8928C79.1292 55.6985 79.0685 55.4949 79.0356 55.2866L79.0826 55.6234C79.0573 55.4321 79.0573 55.2387 79.0826 55.0475L79.0356 55.364C79.0452 55.2953 79.0621 55.2276 79.0862 55.162L78.9561 55.4482C78.9757 55.4039 79.0011 55.362 79.032 55.3236L78.8333 55.5661C78.8646 55.5303 78.8997 55.4976 78.9381 55.4684L78.678 55.657C78.7332 55.6206 78.7911 55.5879 78.8514 55.5594L78.5444 55.6806C78.6698 55.6343 78.8008 55.6026 78.9345 55.5863L78.5914 55.6301C78.7545 55.6116 78.9194 55.6116 79.0826 55.6301L78.7394 55.5863C78.9182 55.6105 79.093 55.6558 79.2595 55.721L78.9525 55.5998C79.1187 55.6666 79.2752 55.7526 79.4184 55.8557L79.1584 55.6671C79.293 55.7653 79.4143 55.8784 79.5196 56.0039L79.3209 55.7614C79.3907 55.8465 79.4512 55.9379 79.5015 56.0342L79.3715 55.748C79.3865 55.7754 79.3962 55.805 79.4004 55.8355L79.357 55.5189C79.3625 55.5479 79.3625 55.5776 79.357 55.6065L79.4004 55.2866V55.327L79.5304 55.0407L79.5015 55.0778L79.7038 54.8353L79.6713 54.8622L79.9313 54.6736L79.8916 54.6905L80.1986 54.5692H80.1588L80.4983 54.5254C80.3927 54.5355 80.2862 54.5355 80.1805 54.5254L80.5417 54.5659C80.1691 54.5204 79.8047 54.4286 79.4582 54.2931L79.7652 54.4143C79.6582 54.374 79.5544 54.3267 79.4546 54.2729L79.7146 54.4581L79.6604 54.4109L79.8627 54.6534C79.8411 54.625 79.823 54.5945 79.8085 54.5625L79.9385 54.8488C79.9348 54.8298 79.9348 54.8104 79.9385 54.7915L79.9855 55.1114V55.0845L79.9385 55.4044V55.3842L79.6062 55.9096L79.3462 56.0948H79.3679L78.7214 56.2599H78.7503C79.0873 56.2539 79.4107 56.1343 79.6604 55.9231C79.8932 55.6939 80.0225 55.39 80.0216 55.0744C80.0246 54.7594 79.8949 54.4559 79.6604 54.2291C79.5408 54.1187 79.3986 54.032 79.2422 53.9741C79.0858 53.9162 78.9185 53.8884 78.7503 53.8923L78.7142 53.8216Z" fill="#444444"/>
<path d="M107.941 83.5538C107.739 83.7323 107.479 83.8906 107.295 84.0758C107.627 83.739 107.364 84.0219 107.226 84.1095C107.089 84.197 106.988 84.2644 106.865 84.3385C106.612 84.4833 106.356 84.6214 106.092 84.7494C105.966 84.8134 105.428 84.9615 105.37 85.0693L105.482 85.0255L105.262 85.103L104.817 85.2512C104.51 85.3455 104.2 85.4297 103.889 85.5071C103.579 85.5846 103.239 85.6486 102.91 85.7058L102.405 85.7866C102.044 85.8439 102.788 85.7462 102.3 85.7866C100.85 85.9348 99.3871 85.9348 97.9371 85.7866L97.4098 85.7328C97.8721 85.7833 97.2076 85.7024 97.1245 85.6923C96.708 85.6317 96.2926 85.561 95.8785 85.4802C95.0081 85.3151 94.1485 85.1063 93.2961 84.8706C92.8344 84.7518 92.341 84.8089 91.9245 85.0293C91.5079 85.2497 91.2024 85.6154 91.075 86.046C90.9476 86.4765 91.0088 86.9366 91.2452 87.325C91.4816 87.7134 91.8737 87.9984 92.3354 88.1172C97.2437 89.4643 102.809 89.9189 107.559 87.8141C108.635 87.3286 109.624 86.6914 110.491 85.9247C110.83 85.6089 111.02 85.1807 111.02 84.7342C111.02 84.2877 110.83 83.8595 110.491 83.5437C110.148 83.236 109.691 83.0641 109.215 83.0641C108.739 83.0641 108.281 83.236 107.938 83.5437L107.941 83.5538Z" fill="#444444"/>
<path d="M55.3084 125.066C55.0339 128.918 57.9702 132.094 61.1701 134.159C64.5795 136.351 68.6715 137.392 72.0846 139.584C74.1613 140.931 75.5915 142.726 76.9675 144.66C77.6068 145.559 79.1743 144.717 78.5278 143.811C77.2781 142.056 75.9996 140.322 74.2227 138.985C72.5882 137.807 70.8126 136.81 68.9316 136.014C65.3669 134.421 61.6107 133.037 59.0284 130.117C57.7175 128.726 57.032 126.916 57.1142 125.066C57.1142 124.842 57.0191 124.628 56.8497 124.47C56.6804 124.312 56.4507 124.224 56.2113 124.224C55.9718 124.224 55.7421 124.312 55.5728 124.47C55.4035 124.628 55.3084 124.842 55.3084 125.066Z" fill="#444444"/>
<path d="M76.347 145.02C83.3789 147.068 90.1761 142.902 97.1972 143C99.1655 143.023 101.123 143.293 103.088 143.384C104.944 143.472 106.805 143.346 108.628 143.01C110.407 142.675 112.136 142.138 113.775 141.41C115.376 140.657 116.902 139.773 118.336 138.77C119.803 137.803 121.291 136.927 123.031 136.436C124.772 135.944 126.578 135.722 128.351 135.365C132.046 134.624 135.575 133.297 138.988 131.802C142.401 130.306 145.778 128.636 149.133 126.996C152.488 125.356 155.88 123.645 159.148 121.803C162.265 120.041 165.44 118.196 168.203 115.97C169.485 114.998 170.538 113.791 171.298 112.423C171.471 112.086 171.594 111.75 171.746 111.393C171.681 111.517 171.796 111.282 171.746 111.393L171.832 111.251C171.879 111.181 172.002 111.012 172.002 111.009C172.333 110.603 172.732 110.249 173.183 109.961C173.284 109.897 173.389 109.837 173.497 109.783C173.554 109.751 173.613 109.723 173.674 109.699C173.559 109.742 173.696 109.699 173.714 109.699C173.732 109.699 173.826 109.678 173.877 109.658C173.765 109.702 173.808 109.608 173.877 109.658C173.877 109.658 173.732 109.588 173.808 109.658C173.884 109.729 173.667 109.567 173.671 109.571C173.843 109.724 174.072 109.81 174.31 109.81C174.548 109.81 174.777 109.724 174.949 109.571C175.116 109.412 175.21 109.199 175.21 108.976C175.21 108.754 175.116 108.541 174.949 108.382C173.866 107.52 172.519 108.284 171.608 109.002C171.143 109.372 170.733 109.797 170.388 110.268C170.027 110.766 169.882 111.369 169.579 111.898C168.762 113.186 167.681 114.311 166.397 115.208C164.999 116.263 163.507 117.209 162.009 118.135C155.627 122.085 148.768 125.332 141.957 128.575C138.619 130.162 135.239 131.69 131.674 132.782C129.868 133.323 128.026 133.752 126.159 134.065C124.324 134.402 122.504 134.738 120.789 135.439C119.149 136.112 117.722 137.153 116.256 138.106C114.815 139.068 113.253 139.859 111.604 140.464C109.953 141.059 108.225 141.451 106.465 141.629C104.523 141.769 102.57 141.734 100.636 141.525C98.7178 141.31 96.782 141.275 94.8568 141.42C93.067 141.621 91.2942 141.937 89.5513 142.366C86.1888 143.144 82.7541 144.148 79.2508 143.862C78.4376 143.79 77.6349 143.638 76.8563 143.407C75.7439 143.07 75.2671 144.707 76.3759 145.03L76.347 145.02Z" fill="#444444"/>
<path d="M183.559 114.13C182.316 131.799 184.518 149.532 190.06 166.469C191.432 170.645 193.137 174.754 193.964 179.065C194.385 181.235 194.496 183.448 194.296 185.645C194.094 187.814 193.657 189.956 193.35 192.112C192.979 194.279 192.919 196.483 193.169 198.665C193.462 200.74 194.191 202.707 194.943 204.67C195.694 206.634 196.441 208.584 196.73 210.641C197.048 212.878 196.943 215.147 197.092 217.394C197.384 221.866 198.731 226.184 200.068 230.464L205.146 246.286L206.182 249.607C206.504 250.644 208.248 250.203 207.923 249.159L202.885 233.462C201.53 229.134 199.995 224.803 199.24 220.327C198.518 215.949 199.129 211.514 197.771 207.23C197.149 205.27 196.304 203.38 195.672 201.42C195.004 199.373 194.726 197.232 194.852 195.096C195.091 190.717 196.463 186.45 196.171 182.042C195.878 177.633 194.401 173.498 192.953 169.369C190.002 161.017 187.849 152.438 186.517 143.733C185.211 135.011 184.766 126.195 185.187 117.397C185.238 116.312 185.303 115.226 185.383 114.137C185.458 113.056 183.653 113.059 183.577 114.137L183.559 114.13Z" fill="#444444"/>
<path d="M155.556 121.916C154.054 126.9 154.613 132.11 155.798 137.095C157.033 142.308 158.749 147.434 160.291 152.587C163.44 163.099 166.592 173.608 169.746 184.113C170.526 186.72 171.292 189.333 172.09 191.936C172.814 194.11 173.828 196.189 175.11 198.126C176.352 200.103 177.667 202.033 178.765 204.087C179.035 204.596 178.747 203.98 178.855 204.273C178.887 204.357 178.916 204.444 178.945 204.532C179.028 204.784 179.093 205.04 179.158 205.296C179.332 205.97 179.48 206.617 179.624 207.28C179.956 208.782 180.26 210.287 180.607 211.786C180.791 212.584 181.062 213.342 181.289 214.144C181.427 214.717 181.53 215.297 181.596 215.881C181.813 217.316 182.116 218.737 182.441 220.152C184.428 228.784 186.645 237.382 189.473 245.811C189.875 247.003 190.283 248.193 190.698 249.381C191.059 250.391 192.8 249.967 192.438 248.933C189.527 240.598 187.212 232.151 185.125 223.607C184.384 220.576 183.68 217.565 183.196 214.491C183.095 213.955 182.947 213.428 182.755 212.914C182.406 211.746 182.123 210.561 181.91 209.365C181.596 207.917 181.304 206.462 180.942 205.024C180.581 203.586 179.826 202.282 179.017 200.982C177.804 199.009 176.453 197.106 175.352 195.072C174.145 192.852 173.52 190.475 172.805 188.09C169.675 177.663 166.545 167.236 163.415 156.807C161.858 151.627 160.273 146.454 158.76 141.268C157.315 136.354 156.029 131.258 156.535 126.129C156.66 124.851 156.913 123.586 157.29 122.351C157.604 121.307 155.863 120.859 155.549 121.903L155.556 121.916Z" fill="#444444"/>
<path d="M75.8042 143.786C71.1921 151.512 66.9195 159.419 63.0767 167.502C59.0908 175.794 55.6462 184.303 52.7618 192.983C51.3749 197.22 50.1505 201.504 49.1501 205.831C48.0955 210.314 47.319 214.847 46.5822 219.38C45.0039 229.093 43.7795 238.853 42.6527 248.616C41.5259 258.379 40.5074 268.109 39.3155 277.845C39.1662 279.053 39.0145 280.263 38.8605 281.476C38.7232 282.55 40.5327 282.54 40.6663 281.476C41.8979 271.79 42.9344 262.087 44.0287 252.388C45.1231 242.689 46.2824 232.972 47.7704 223.31C49.1573 214.301 50.8295 205.383 53.5094 196.624C56.1818 188.012 59.4389 179.568 63.2609 171.341C67.0062 163.191 71.2066 155.223 75.7356 147.43C76.2798 146.494 76.8311 145.561 77.3897 144.631C77.9568 143.682 76.3965 142.833 75.8295 143.779L75.8042 143.786Z" fill="#444444"/>
<path d="M50.5127 127.043C45.9945 134.752 42.4659 142.946 39.5982 151.308C36.6534 160.03 34.3011 168.916 32.5554 177.914C30.8218 186.646 29.5505 195.463 28.6368 204.304C28.1312 209.221 27.6436 214.131 26.9249 219.024C26.2025 224.076 25.3141 229.087 24.3967 234.102C22.5909 244.108 20.7164 254.104 19.5823 264.197C19.4379 265.463 19.3066 266.731 19.1887 267.999C19.0875 269.077 20.8934 269.07 20.9945 267.999C21.9444 257.896 23.7213 247.917 25.5271 237.935C27.333 227.952 29.1063 218.024 30.0706 207.961C30.9194 199.151 32.039 190.371 33.6498 181.648C35.267 172.7 37.4535 163.85 40.1977 155.144C42.8884 146.724 46.2003 138.463 50.491 130.636C50.9966 129.711 51.5179 128.791 52.0548 127.875C52.6147 126.921 51.0544 126.073 50.4982 127.026L50.5127 127.043Z" fill="#444444"/>
<path d="M67.638 91.2481C66.2511 91.5108 65.0231 92.373 63.9721 93.2116C62.8081 94.1205 61.806 95.1958 61.0033 96.3975C60.0462 97.8895 59.6923 99.799 59.2733 101.476C58.7358 103.445 58.4928 105.474 58.551 107.505C58.598 108.481 58.8183 109.478 58.6919 110.458C58.5655 111.438 57.9154 112.172 57.3086 112.954C56.1493 114.456 55.8639 116.082 55.9687 117.901C56.0698 119.659 56.4815 121.585 55.5497 123.219C54.7443 124.626 53.2816 125.546 51.808 126.28C50.1503 127.105 48.3841 127.728 46.6758 128.452C44.699 129.288 42.7571 130.186 40.8502 131.147C37.0361 133.072 33.3699 135.241 29.8779 137.64C26.4865 139.967 23.1602 142.375 20.9282 145.763C19.3462 148.164 18.0605 150.815 16.7531 153.34C14.7991 157.123 12.7333 160.888 11.0828 164.791L9.86563 167.667C9.76812 167.893 9.68505 168.125 9.5767 168.341C9.5478 168.401 9.64532 168.179 9.50447 168.445C9.36361 168.711 9.28415 168.92 9.17941 169.156C8.17898 171.513 7.50721 173.999 6.83544 176.444C4.96459 183.226 3.85941 190.252 2.93121 197.203C2.02468 203.938 1.48654 210.728 1.25901 217.521C0.753374 231.521 1.17274 229.224 0.399842 243.221C0.284268 245.309 0.151839 247.397 0.00255709 249.485C-0.0768997 250.566 1.72894 250.562 1.80839 249.485C2.84133 235.138 2.62783 237.095 2.92038 222.727C3.21292 208.505 4.67566 194.438 7.70224 180.475C8.58679 176.327 9.86307 172.259 11.5162 168.32C12.2385 166.637 12.903 164.929 13.6579 163.269C13.6868 163.205 13.7084 163.137 13.7409 163.077C13.6145 163.319 13.7662 163.077 13.824 162.972C14.0551 162.599 14.2429 162.198 14.4452 161.811C15.0411 160.669 15.6154 159.517 16.1933 158.369C17.4068 155.954 18.6058 153.526 19.9313 151.161C20.6789 149.835 21.3254 148.467 22.1344 147.164C23.2192 145.417 24.5943 143.841 26.2084 142.496C29.3795 139.836 32.9695 137.532 36.5775 135.424C40.1578 133.331 43.8865 131.468 47.7377 129.847C50.8618 128.53 54.5529 127.472 56.6441 124.758C57.6878 123.411 57.9948 121.808 57.937 120.174C57.872 118.44 57.3592 116.47 58.179 114.83C58.5655 114.058 59.2228 113.429 59.7031 112.711C60.217 111.932 60.5 111.039 60.523 110.125C60.5627 109.141 60.3713 108.161 60.3424 107.181C60.3163 106.119 60.3937 105.058 60.5736 104.009C60.8901 101.957 61.4236 99.9404 62.1663 97.9871C62.6503 96.7814 63.7085 95.7408 64.6945 94.8753C65.6805 94.0097 66.8001 93.124 68.1183 92.8748C69.256 92.6626 68.7757 91.0393 67.638 91.2515V91.2481Z" fill="#444444"/>
<path d="M76.0862 157.565C76.5148 158.202 76.499 159.443 76.4441 160.568C76.3767 161.931 76.2757 163.37 75.9313 164.846C75.7613 165.556 75.5123 166.271 75.1984 166.95C74.8846 167.629 74.5122 168.259 74.1024 168.803C73.225 170 72.3147 171.107 71.3825 172.11C70.3193 173.274 69.2367 174.33 68.145 175.269C67.502 175.826 67.6467 177.134 68.2885 176.581C69.3478 175.664 70.3982 174.639 71.4306 173.512C72.4767 172.399 73.4984 171.166 74.4822 169.828C75.4739 168.502 76.3986 166.574 76.8685 164.846C77.3318 163.141 77.3397 161.712 77.421 160.164C77.5085 158.546 77.4738 156.999 76.8681 156.1C76.7864 156.012 76.667 156.003 76.5357 156.076C76.4044 156.15 76.2718 156.299 76.1667 156.491C76.0637 156.685 75.9967 156.906 75.9799 157.105C75.9631 157.305 75.9977 157.468 76.0765 157.562L76.0862 157.565Z" fill="#444444"/>
<path d="M166.787 192.6C166.646 192.839 166.492 193.07 166.325 193.294C166.253 193.395 166.173 193.489 166.101 193.583C165.982 193.738 166.256 193.405 166.101 193.583C166.058 193.637 166.011 193.691 165.964 193.742C165.635 194.115 165.277 194.462 164.916 194.809C164.11 195.537 163.398 196.35 162.793 197.231C162.045 198.457 161.567 199.81 161.388 201.211C161.084 203.575 161.084 205.964 161.388 208.328C161.879 212.952 162.868 217.525 163.963 222.051C164.219 223.109 165.96 222.661 165.704 221.603C164.682 217.585 163.887 213.519 163.324 209.422C162.955 206.984 162.872 204.515 163.074 202.06C163.074 201.942 163.1 201.828 163.114 201.723L163.136 201.555C163.103 201.807 163.136 201.612 163.136 201.555C163.172 201.346 163.208 201.141 163.248 200.935C163.324 200.578 163.41 200.225 163.519 199.874C163.627 199.524 163.732 199.265 163.858 198.965C163.938 198.773 163.761 199.154 163.88 198.918L163.963 198.746C164.031 198.615 164.104 198.483 164.176 198.355C164.317 198.116 164.472 197.884 164.638 197.658C164.71 197.561 164.786 197.463 164.862 197.369C164.996 197.194 164.797 197.436 164.844 197.386C164.891 197.335 164.942 197.271 164.992 197.214C165.31 196.853 165.657 196.513 166.007 196.176C166.913 195.367 167.699 194.449 168.344 193.445C168.907 192.495 167.347 191.643 166.787 192.597V192.6Z" fill="#444444"/>
<path d="M177.516 216.751C177.309 223.539 175.956 230.255 173.507 236.651C172.828 238.425 172.064 240.169 171.217 241.885C171.103 242.079 171.073 242.307 171.133 242.521C171.194 242.735 171.34 242.92 171.542 243.036C171.749 243.146 171.995 243.176 172.226 243.119C172.457 243.063 172.654 242.924 172.777 242.733C175.928 236.365 177.983 229.573 178.866 222.607C179.112 220.664 179.264 218.707 179.321 216.751C179.354 215.666 177.548 215.669 177.516 216.751Z" fill="#444444"/>
<path d="M63.8854 186.503C63.3581 189.116 62.8344 191.838 63.5242 194.468C64.1671 196.872 65.8465 198.873 66.6664 201.203C68.3277 205.966 67.1973 211.125 66.381 215.934L64.8352 225.152C64.7788 225.367 64.8129 225.594 64.9305 225.786C65.048 225.979 65.2401 226.122 65.4673 226.186C65.6976 226.244 65.9432 226.215 66.1507 226.105C66.3583 225.996 66.5111 225.814 66.5761 225.6L67.9774 217.376C68.418 214.779 68.9128 212.183 69.1728 209.566C69.4704 207.107 69.3595 204.621 68.8442 202.194C68.5438 200.966 68.093 199.775 67.5006 198.644C66.9408 197.566 66.2799 196.526 65.7887 195.418C64.5607 192.673 65.0664 189.78 65.637 186.951C65.6944 186.736 65.6607 186.508 65.543 186.316C65.4253 186.123 65.2326 185.981 65.005 185.917C64.7747 185.859 64.5291 185.888 64.3215 185.998C64.114 186.107 63.9611 186.289 63.8962 186.503H63.8854Z" fill="#444444"/>
<path d="M118.25 137.314C115.79 141.373 115.36 146.101 115.248 150.671C115.129 155.848 115.09 161.024 115.274 166.2C115.469 171.757 115.812 177.314 115.873 182.871C115.953 188.273 115.634 193.675 114.916 199.036C113.472 209.534 110.665 219.816 108.863 230.256C107.919 235.426 107.355 240.651 107.176 245.893C107.133 247.742 107.028 249.56 106.815 251.399C106.664 252.746 106.525 254.102 106.4 255.467C106.089 258.933 105.862 262.405 105.84 265.884C105.818 268.966 105.84 272.192 106.671 275.199C106.826 275.759 107.028 276.306 107.274 276.836C107.733 277.83 109.289 276.971 108.834 275.987C107.751 273.603 107.711 270.498 107.657 267.884C107.584 264.382 107.769 260.876 108.043 257.384C108.253 254.757 108.574 252.14 108.841 249.516C109.109 246.893 108.997 244.236 109.203 241.602C109.408 238.968 109.708 236.389 110.102 233.799C111.666 223.466 114.411 213.326 116.119 203.017C117.011 197.795 117.527 192.522 117.661 187.236C117.777 181.813 117.513 176.391 117.275 170.976C117.036 165.56 116.913 160.222 117 154.83C117.065 150.297 116.885 145.616 118.373 141.238C118.739 140.167 119.223 139.135 119.817 138.156C120.391 137.21 118.831 136.361 118.261 137.308L118.25 137.314Z" fill="#444444"/>
<path d="M129.874 13.417C129.874 13.417 139.044 18.6607 141.623 25.2447L144.198 31.8322" stroke="#444444" stroke-miterlimit="10" stroke-linecap="round"/>
<path d="M73.268 42.4066C75.3359 42.2258 77.4165 42.21 79.4873 42.3594C79.9749 42.3965 80.4625 42.4436 80.932 42.4975C81.015 42.4975 81.322 42.5413 81.0981 42.5144L81.4412 42.5582L82.2069 42.6727C83.2615 42.841 84.3017 43.0532 85.3346 43.3024C85.7511 43.4004 86.1921 43.3424 86.5633 43.1409C86.9345 42.9393 87.2063 42.6103 87.3206 42.2242C87.4348 41.8381 87.3825 41.4257 87.1746 41.0752C86.9668 40.7246 86.62 40.4639 86.2086 40.3489C81.9857 39.3143 77.6021 38.9725 73.2536 39.3385C72.4012 39.4126 71.5705 39.9885 71.6103 40.8709C71.65 41.6354 72.3326 42.4807 73.2536 42.3999L73.268 42.4066Z" fill="#444444"/>
<path d="M107.765 40.8532C109.208 40.681 110.663 40.6079 112.117 40.6343C112.868 40.6343 113.623 40.6882 114.371 40.7556C114.732 40.7893 115.068 40.8229 115.418 40.8667C115.104 40.8297 115.555 40.8903 115.649 40.9038L116.245 40.9947C117.68 41.2266 119.094 41.5541 120.478 41.9747C121.169 42.1858 121.852 42.4193 122.526 42.6752L122.804 42.783C122.743 42.7594 122.533 42.6719 122.826 42.783L123.237 42.9548C123.599 43.1097 123.96 43.2713 124.321 43.4397C125.799 44.1355 127.213 44.9455 128.547 45.8612C129.24 46.336 130.407 45.9892 130.793 45.3122C131 44.959 131.055 44.5452 130.946 44.1556C130.836 43.7661 130.571 43.4304 130.204 43.2175C125.143 39.7964 119.114 37.8383 112.868 37.5865C111.164 37.514 109.457 37.5782 107.765 37.7784C106.916 37.8795 106.078 38.4116 106.122 39.3108C106.158 40.0551 106.844 40.9509 107.765 40.8431V40.8532Z" fill="#444444"/>
<path d="M171.094 91.5219C173.044 91.9328 173.427 94.4485 173.802 95.9539C174.325 98.0553 174.636 100.198 174.731 102.353C174.781 103.434 176.587 103.441 176.536 102.353C176.427 99.8884 176.054 97.4403 175.424 95.0446C174.882 93.0037 174.102 90.4408 171.574 89.9087C170.444 89.6696 169.96 91.2929 171.094 91.532V91.5219Z" fill="#444444"/>
<path d="M178.767 192.288L182.057 201.357L182.523 202.647C182.592 202.86 182.746 203.039 182.953 203.148C183.16 203.257 183.405 203.288 183.635 203.233C186.508 202.511 189.314 201.574 192.025 200.431C192.592 200.189 192.549 199.478 192.21 199.108C190.595 197.356 189.902 195.11 189.02 192.998C188.837 192.438 188.583 191.9 188.262 191.395C188.049 191.134 187.768 190.929 187.445 190.799C187.123 190.669 186.77 190.619 186.42 190.654C185.091 190.722 183.762 190.803 182.447 190.856C181.725 190.887 180.977 190.91 180.244 190.92C179.511 190.931 178.659 191.234 178.749 192.065C178.755 192.287 178.852 192.498 179.02 192.654C179.188 192.811 179.414 192.901 179.652 192.907C179.89 192.905 180.118 192.815 180.287 192.658C180.456 192.501 180.552 192.288 180.555 192.065V192.126L180.32 192.497C180.284 192.531 180.241 192.559 180.193 192.578C180.145 192.597 180.094 192.607 180.042 192.608H180.324H180.761L181.844 192.574C182.595 192.549 183.344 192.517 184.091 192.476L186.312 192.355C186.435 192.355 186.705 192.284 186.817 192.355C186.987 192.446 187.139 193.029 187.215 193.207C188.276 195.689 189.071 198.259 190.974 200.32L191.159 198.996C188.591 200.074 185.934 200.955 183.213 201.63L184.322 202.219L181.031 193.15L180.566 191.86C180.136 190.819 178.391 191.257 178.767 192.288Z" fill="#444444"/>
<path d="M142.723 166.426C141.278 172.888 139.913 179.385 139.22 185.959C138.862 189.228 138.707 192.514 138.757 195.8C138.811 198.659 138.992 201.602 137.11 204.037C136.085 205.364 134.701 206.486 133.405 207.58C132.021 208.752 130.584 209.87 129.092 210.921C128.891 211.038 128.745 211.223 128.685 211.437C128.625 211.651 128.654 211.878 128.767 212.073C128.889 212.264 129.087 212.404 129.318 212.46C129.549 212.517 129.795 212.487 130.003 212.376C132.686 210.483 135.355 208.439 137.612 206.102C138.724 205.008 139.558 203.696 140.054 202.262C140.47 200.803 140.654 199.295 140.599 197.787C140.599 196.19 140.534 194.601 140.567 193.008C140.603 191.324 140.697 189.616 140.838 187.922C141.116 184.608 141.582 181.311 142.163 178.034C142.824 174.293 143.626 170.578 144.464 166.87C144.522 166.655 144.489 166.427 144.371 166.234C144.253 166.042 144.06 165.899 143.832 165.836C143.601 165.779 143.356 165.808 143.149 165.918C142.942 166.028 142.789 166.209 142.723 166.422V166.426Z" fill="#444444"/>
<path d="M136.707 38.0094C137.429 38.8345 136.924 40.1379 136.58 41.128C136.096 42.5324 135.674 43.8425 135.775 45.3344C136.033 49.0772 136.452 52.8053 137.032 56.5189C137.359 58.6339 137.742 60.7421 138.181 62.8436C138.246 63.0577 138.399 63.2393 138.606 63.349C138.814 63.4587 139.059 63.4877 139.29 63.4296C139.518 63.3675 139.712 63.2249 139.83 63.032C139.948 62.839 139.981 62.6109 139.922 62.3957C139.144 58.644 138.542 54.8687 138.116 51.0698C137.899 49.1636 137.724 47.2552 137.592 45.3445C137.528 44.6438 137.59 43.9381 137.776 43.2564C137.964 42.5829 138.213 41.9531 138.43 41.2998C138.943 39.7539 139.178 38.1576 137.993 36.8273C137.823 36.6708 137.594 36.583 137.355 36.583C137.117 36.583 136.887 36.6708 136.718 36.8273C136.552 36.9874 136.46 37.2011 136.46 37.4234C136.46 37.6458 136.552 37.8594 136.718 38.0195L136.707 38.0094Z" fill="#444444"/>
<path d="M62.8457 48.0395C62.3365 42.4455 61.3761 37.8423 63.005 32.3225C63.3661 31.0461 63.9043 29.8202 64.3882 28.5775C64.8397 27.4088 65.2839 26.2368 65.804 25.0918C66.2386 24.0654 66.7985 23.089 67.4726 22.182C67.339 22.3537 67.5593 22.0776 67.5954 22.0338L67.6893 21.9193L67.9385 21.6128C68.1335 21.3737 68.325 21.1312 68.52 20.8887C70.9073 17.8981 73.2404 14.894 75.7433 12.028C76.6499 10.9874 77.5492 9.89957 78.7085 9.07446C80.8548 7.50752 83.1906 6.18054 85.6682 5.12065C90.1286 3.24478 94.9935 2.65541 99.844 2.51733C102.636 2.43987 105.431 2.48028 108.223 2.51733C111.173 2.53041 114.109 2.90866 116.952 3.64218C122.659 5.15096 127.899 8.02033 132.483 11.469C134.922 13.2729 137.192 15.2671 139.269 17.43C141.4 19.7251 143.136 22.3156 144.412 25.1086C147.01 30.7133 148.384 36.7447 148.453 42.8502C148.503 45.8825 148.227 48.9118 147.63 51.8928C147.399 53.0412 147.211 54.1964 146.973 55.3414C146.816 56.3226 146.487 57.2729 145.998 58.1536C145.788 58.511 145.495 58.8203 145.141 59.0586C144.787 59.297 144.38 59.4584 143.95 59.531C142.812 59.76 143.292 61.3833 144.426 61.1543C146.955 60.6458 148.063 58.5274 148.58 56.3754C148.851 55.2606 149.006 54.1257 149.234 53.0076C149.551 51.4617 149.819 49.9092 149.996 48.3431C150.691 42.0182 150.034 35.6275 148.063 29.5406C147.104 26.4991 145.771 23.571 144.091 20.8146C142.341 18.1152 140.19 15.6604 137.702 13.5233C133.23 9.55269 128.141 6.06363 122.467 3.75668C119.661 2.58208 116.706 1.74356 113.673 1.26113C110.628 0.796377 107.551 0.830056 104.474 0.809849C99.2517 0.779539 93.9317 0.880575 88.879 2.24791C86.3834 2.92759 83.9875 3.8925 81.7459 5.12065C80.4969 5.81043 79.291 6.56605 78.1342 7.38382C77.4567 7.83464 76.8245 8.34189 76.2453 8.89933C74.974 10.169 73.8291 11.5565 72.6878 12.9407C71.3202 14.5909 69.9719 16.2558 68.6428 17.9352L67.032 19.9559C66.8297 20.2152 66.6239 20.4711 66.4144 20.7271L66.1724 21.0268L66.0749 21.1481C65.9846 21.2558 66.0496 21.175 66.0749 21.1481L65.9557 21.2929C65.2327 22.2438 64.6384 23.2743 64.186 24.361C63.6334 25.5767 63.1494 26.8127 62.6691 28.0655C62.1887 29.3184 61.6506 30.5577 61.2641 31.8476C60.8467 33.2714 60.5616 34.726 60.4118 36.1954C60.1192 39.0177 60.3504 41.8534 60.6357 44.6655C60.7874 46.1608 60.8846 46.5846 61.0218 48.0832C61.0264 48.3052 61.1231 48.5168 61.2914 48.6738C61.4597 48.8308 61.6867 48.9209 61.9247 48.9252C62.1633 48.9226 62.3914 48.833 62.5601 48.6757C62.7288 48.5184 62.8248 48.3057 62.8277 48.0832L62.8457 48.0395Z" fill="#444444"/>
<path d="M103.344 200.366C101.764 203.114 100.521 206.019 99.6395 209.026C98.7592 212.036 98.2394 215.127 98.0897 218.243C98.0152 219.791 98.0355 221.342 98.1506 222.889C98.2631 224.408 98.4938 225.912 98.7318 227.42C99.1635 230.144 99.6542 233.155 98.4845 235.782C97.944 236.987 97.0196 237.937 96.0381 238.849C95.0566 239.761 94.0253 240.666 93.4054 241.828C93.2512 242.116 93.124 242.416 93.0253 242.724C92.8556 243.256 93.7467 243.483 93.9146 242.953C94.2946 241.759 95.2171 240.833 96.1396 239.969C97.1266 239.043 98.169 238.14 98.8664 236.996C100.418 234.471 100.235 231.436 99.8424 228.653C99.6358 227.184 99.3609 225.728 99.1985 224.245C99.027 222.701 98.9512 221.15 98.9716 219.599C99.0093 216.531 99.4172 213.478 100.187 210.496C100.958 207.487 102.095 204.57 103.578 201.803C103.762 201.458 103.949 201.122 104.141 200.794C104.422 200.307 103.625 199.872 103.344 200.361V200.366Z" fill="#444444"/>
<path d="M96.3857 136.037C100.261 135.724 104.151 136.711 108.008 136.037C109.872 135.701 111.529 134.859 113.129 133.932C114.665 133.001 116.28 132.189 117.958 131.504C119.693 130.838 121.498 130.343 123.343 130.029C125.207 129.765 127.089 129.623 128.974 129.605C130.917 129.531 132.889 129.399 134.752 128.85C136.31 128.382 137.784 127.702 139.126 126.83C142.265 124.809 144.75 122.098 147.151 119.377C147.314 119.216 147.405 119.003 147.405 118.782C147.405 118.561 147.314 118.349 147.151 118.188C146.981 118.031 146.751 117.943 146.512 117.943C146.273 117.943 146.043 118.031 145.873 118.188C143.793 120.545 141.658 122.943 139.05 124.812C137.858 125.692 136.537 126.409 135.128 126.941C133.424 127.517 131.631 127.834 129.819 127.881C127.865 127.978 125.911 127.988 123.964 128.241C122.166 128.47 120.398 128.871 118.688 129.436C116.955 130.007 115.287 130.736 113.707 131.612C112.187 132.457 110.72 133.464 109.037 134.017C104.978 135.364 100.575 134.017 96.3966 134.353C96.1591 134.359 95.9331 134.45 95.7652 134.607C95.5972 134.763 95.5 134.974 95.4937 135.195C95.4955 135.418 95.5913 135.631 95.7602 135.789C95.9291 135.946 96.1577 136.036 96.3966 136.037H96.3857Z" fill="#444444"/>
<path d="M66.8048 99.172C66.2976 102.337 66.42 105.562 67.1659 108.686C67.3537 109.464 67.5849 110.235 67.8522 110.993C68.1194 111.751 68.477 112.485 68.7117 113.253C68.9482 113.88 68.9092 114.569 68.6034 115.169C68.2422 115.843 67.7438 116.486 67.3068 117.129L63.9877 121.989C63.3629 122.905 64.9231 123.75 65.5479 122.838L68.4842 118.537C69.3727 117.237 70.6512 115.843 70.6801 114.223C70.6481 113.41 70.452 112.61 70.1022 111.865C69.7988 111.118 69.5135 110.363 69.2788 109.595C68.8112 108.082 68.5075 106.528 68.3722 104.958C68.2185 103.181 68.2767 101.395 68.5456 99.63C68.6021 99.4146 68.5682 99.1871 68.4507 98.9943C68.3331 98.8014 68.141 98.6577 67.9136 98.5927C67.6828 98.5357 67.4372 98.5656 67.2298 98.6758C67.0224 98.7861 66.8698 98.9679 66.8048 99.1821V99.172Z" fill="#444444"/>
<path d="M93.0608 6.45312C93.0608 6.45312 93.3605 11.9258 93.0174 14.4887L92.6562 17.0483C92.6562 17.0483 97.2286 14.6908 99.1898 15.6574" stroke="#444444" stroke-linecap="round" stroke-linejoin="round"/>
<path d="M33.8289 209.999C32.3301 214.408 32.3626 219.092 30.8637 223.521C30.83 223.646 30.8269 223.776 30.8547 223.902C30.8824 224.028 30.9402 224.146 31.0239 224.249C31.1075 224.351 31.2148 224.434 31.3378 224.492C31.4608 224.551 31.5962 224.582 31.7341 224.585L37.3864 225.127L40.2505 225.403C41.0631 225.481 42.273 225.818 42.9484 225.232C43.6238 224.646 43.4251 223.649 43.4468 222.874C43.4757 222.03 43.5202 221.187 43.5804 220.345C43.7032 218.659 43.9019 216.975 44.1764 215.293C44.4966 213.358 44.9119 211.438 45.4224 209.534C45.4567 209.409 45.4603 209.279 45.4329 209.152C45.4054 209.026 45.3477 208.907 45.264 208.804C45.1803 208.702 45.0728 208.618 44.9495 208.559C44.8261 208.501 44.6903 208.469 44.552 208.467C41.3954 208.319 38.2424 208.662 35.0858 208.669C34.9282 208.668 34.7731 208.706 34.6366 208.779C34.5001 208.853 34.3871 208.959 34.3093 209.086L33.9481 209.76C33.4208 210.723 34.9774 211.575 35.5083 210.609L35.8695 209.935L35.0894 210.353C38.246 210.353 41.399 210.016 44.5556 210.151L43.6852 209.086C42.8413 212.235 42.2497 215.438 41.9154 218.668C41.7445 220.293 41.6446 221.923 41.6157 223.558C41.5905 223.739 41.5905 223.922 41.6157 224.103C40.7453 221.561 41.6157 224.167 41.6157 224.157L41.9154 223.891H41.7746C41.3329 223.804 40.8825 223.762 40.431 223.763L37.744 223.504L31.745 222.928L32.6154 223.992C34.1142 219.584 34.0853 214.882 35.5806 210.471C35.9201 209.41 34.1792 208.965 33.8289 209.999Z" fill="#444444"/>
<path d="M149.848 78.2278C149.79 79.9444 149.9 81.6624 150.177 83.3603C150.279 84.1924 150.457 85.0148 150.708 85.8188C150.77 86.0222 150.883 86.209 151.038 86.364C151.192 86.5191 151.384 86.638 151.596 86.7113C151.979 86.8054 152.369 86.8674 152.763 86.8965C154.356 87.1404 155.89 87.6479 157.292 88.3952C157.469 88.4929 157.653 88.6006 157.823 88.6949C157.993 88.7892 157.794 88.604 157.895 88.7522C158.012 88.9579 158.102 89.1761 158.162 89.4022C158.198 89.5167 158.162 89.2304 158.162 89.3719C158.162 89.4156 158.162 89.4594 158.162 89.5032C158.162 89.6413 158.162 89.776 158.162 89.9107C158.162 90.1734 158.126 90.4327 158.09 90.692C157.913 92.0392 157.574 93.5749 156.786 94.7334C156.165 95.6528 157.729 96.4982 158.347 95.5821C159.105 94.4573 159.477 93.0562 159.726 91.763C159.854 91.1313 159.935 90.4922 159.968 89.8501C159.999 89.2696 159.875 88.691 159.607 88.1662C159.286 87.4926 158.679 87.1558 158.007 86.8191C157.257 86.4327 156.474 86.1038 155.667 85.8357C154.885 85.5755 154.08 85.3794 153.261 85.2497C153.027 85.2126 152.792 85.1823 152.539 85.1554C152.438 85.1348 152.335 85.1224 152.232 85.1183C152.12 85.0745 152.192 85.1352 152.445 85.3002C152.369 84.8641 152.266 84.4323 152.138 84.0069C151.747 82.0965 151.59 80.151 151.669 78.2076C151.708 77.1231 149.902 77.1265 149.863 78.2076L149.848 78.2278Z" fill="#444444"/>
</g>
<defs>
<clipPath id="clip0_1209_22374">
<rect width="265" height="231" fill="white" transform="translate(0 0.429688)"/>
</clipPath>
</defs>
</svg>
