<svg width="32" height="33" viewBox="0 0 32 33" fill="none" xmlns="http://www.w3.org/2000/svg">
<path d="M27.2932 3.09589H4.70658C4.45269 3.09236 4.20058 3.13889 3.96467 3.2328C3.72876 3.32672 3.51365 3.46618 3.33165 3.64324C3.14964 3.82029 3.00429 4.03147 2.9039 4.2647C2.80352 4.49794 2.75006 4.74866 2.74658 5.00256V27.8559C2.75006 28.1098 2.80352 28.3605 2.9039 28.5937C3.00429 28.827 3.14964 29.0382 3.33165 29.2152C3.51365 29.3923 3.72876 29.5317 3.96467 29.6256C4.20058 29.7196 4.45269 29.7661 4.70658 29.7626H27.2932C27.5471 29.7661 27.7992 29.7196 28.0352 29.6256C28.2711 29.5317 28.4862 29.3923 28.6682 29.2152C28.8502 29.0382 28.9955 28.827 29.0959 28.5937C29.1963 28.3605 29.2498 28.1098 29.2533 27.8559V5.00256C29.2498 4.74866 29.1963 4.49794 29.0959 4.2647C28.9955 4.03147 28.8502 3.82029 28.6682 3.64324C28.4862 3.46618 28.2711 3.32672 28.0352 3.2328C27.7992 3.13889 27.5471 3.09236 27.2932 3.09589ZM10.7866 25.4159H6.78658V13.4159H10.7866V25.4159ZM8.78658 11.7359C8.23493 11.7359 7.70588 11.5167 7.3158 11.1267C6.92572 10.7366 6.70658 10.2075 6.70658 9.65589C6.70658 9.10424 6.92572 8.57518 7.3158 8.18511C7.70588 7.79503 8.23493 7.57589 8.78658 7.57589C9.07951 7.54267 9.37615 7.5717 9.65708 7.66107C9.93801 7.75044 10.1969 7.89814 10.4168 8.09451C10.6367 8.29087 10.8126 8.53146 10.9331 8.80053C11.0535 9.0696 11.1158 9.36108 11.1158 9.65589C11.1158 9.9507 11.0535 10.2422 10.9331 10.5112C10.8126 10.7803 10.6367 11.0209 10.4168 11.2173C10.1969 11.4136 9.93801 11.5613 9.65708 11.6507C9.37615 11.7401 9.07951 11.7691 8.78658 11.7359ZM25.2132 25.4159H21.2132V18.9759C21.2132 17.3626 20.6399 16.3092 19.1866 16.3092C18.7368 16.3125 18.2988 16.4536 17.9317 16.7135C17.5646 16.9733 17.2859 17.3395 17.1333 17.7626C17.0289 18.0759 16.9837 18.406 16.9999 18.7359V25.4026H12.9999C12.9999 25.4026 12.9999 14.4959 12.9999 13.4026H16.9999V15.0959C17.3633 14.4654 17.8918 13.9459 18.5285 13.5935C19.1652 13.2411 19.886 13.069 20.6132 13.0959C23.2799 13.0959 25.2132 14.8159 25.2132 18.5092V25.4159Z" fill="#444444"/>
</svg>
